<?xml version="1.0" encoding="utf-8"?>
<!-- Generator: Adobe Illustrator 22.1.0, SVG Export Plug-In . SVG Version: 6.00 Build 0)  -->
<svg version="1.1" id="Layer_1" xmlns="http://www.w3.org/2000/svg" xmlns:xlink="http://www.w3.org/1999/xlink" x="0px" y="0px"
	 viewBox="0 0 510.2 212.6" style="enable-background:new 0 0 510.2 212.6;" xml:space="preserve">
<style type="text/css">
	.st0{fill:#D1D3D4;stroke:#231F20;stroke-width:0.563;stroke-linecap:round;stroke-linejoin:round;stroke-miterlimit:10;}
	.st1{fill:#D1D3D4;stroke:#231F20;stroke-width:0.4955;stroke-linecap:round;stroke-linejoin:round;stroke-miterlimit:10;}
	.st2{fill:#939598;stroke:#231F20;stroke-width:0.5;stroke-linecap:round;stroke-linejoin:round;stroke-miterlimit:10;}
	.st3{fill:#58595B;stroke:#231F20;stroke-width:0.5;stroke-linecap:round;stroke-linejoin:round;stroke-miterlimit:10;}
	.st4{fill:none;stroke:#231F20;stroke-width:0.5;stroke-linecap:round;stroke-linejoin:round;stroke-miterlimit:10;}
	.st5{fill:none;stroke:#231F20;stroke-width:0.306;stroke-linecap:round;stroke-linejoin:round;stroke-miterlimit:10;}
	.st6{fill:#D1D3D4;stroke:#231F20;stroke-width:0.5;stroke-linecap:round;stroke-linejoin:round;stroke-miterlimit:10;}
	.st7{fill:#FFF200;}
	.st8{fill:#FFFFFF;}
	.st9{fill:#F89743;}
	.st10{fill:none;stroke:#F89743;stroke-width:1.3013;stroke-linecap:round;stroke-linejoin:round;stroke-miterlimit:10;}
	.st11{fill:#939598;}
	.st12{fill:#231F20;}
	.st13{fill:none;stroke:#231F20;stroke-width:0.5008;stroke-linecap:round;stroke-linejoin:round;}
	.st14{fill:none;stroke:#231F20;stroke-width:0.5008;stroke-linecap:round;stroke-linejoin:round;stroke-miterlimit:10;}
	.st15{clip-path:url(#SVGID_2_);}
	.st16{fill:#929497;stroke:#231F20;stroke-width:0.4985;stroke-linecap:round;stroke-linejoin:round;stroke-miterlimit:10;}
	.st17{fill:#D0D2D3;stroke:#231F20;stroke-width:0.5631;stroke-linecap:round;stroke-linejoin:round;stroke-miterlimit:10;}
	.st18{fill:#D0D2D3;stroke:#231F20;stroke-width:0.4985;stroke-linecap:round;stroke-linejoin:round;stroke-miterlimit:10;}
	.st19{fill:none;stroke:#231F20;stroke-width:0.4985;stroke-linecap:round;stroke-linejoin:round;stroke-miterlimit:10;}
	.st20{fill:#58595B;stroke:#231F20;stroke-width:0.4818;stroke-linecap:round;stroke-linejoin:round;stroke-miterlimit:10;}
	.st21{fill:#58595B;stroke:#231F20;stroke-width:0.4773;stroke-linecap:round;stroke-linejoin:round;stroke-miterlimit:10;}
	.st22{fill:#58595B;stroke:#231F20;stroke-width:0.4144;stroke-linecap:round;stroke-linejoin:round;stroke-miterlimit:10;}
	.st23{fill:#D0D2D3;stroke:#231F20;stroke-width:0.7821;stroke-linecap:round;stroke-linejoin:round;stroke-miterlimit:10;}
	.st24{fill:#D0D2D3;stroke:#231F20;stroke-width:0.5;stroke-linecap:round;stroke-linejoin:round;stroke-miterlimit:10;}
	.st25{font-family:'MyriadPro-Regular';}
	.st26{font-size:7.155px;}
</style>
<g>
	<polygon class="st0" points="277.7,128.3 273.3,128.3 273.3,130.1 277.7,130.1 277.7,131.7 281.1,131.7 281.1,126.7 277.7,126.7 	
		"/>
	<polygon class="st1" points="276.6,125.9 276.9,132.5 276,132.5 275.6,125.9 	"/>
	<rect x="276.9" y="125.9" class="st1" width="0.9" height="6.6"/>
	<polygon class="st0" points="277.7,128.3 273.3,128.3 273.3,130.1 277.7,130.1 277.7,131.7 281.1,131.7 281.1,126.7 277.7,126.7 	
		"/>
	<polygon class="st1" points="276.6,125.9 276.9,132.5 276,132.5 275.6,125.9 	"/>
	<rect x="276.9" y="125.9" class="st1" width="0.9" height="6.6"/>
	<polygon class="st0" points="277.7,96.7 273.3,96.7 273.3,98.5 277.7,98.5 277.7,100 281.1,100 281.1,95.1 277.7,95.1 	"/>
	<polygon class="st1" points="276.6,94.3 276.9,100.9 276,100.9 275.6,94.3 	"/>
	<rect x="276.9" y="94.2" class="st1" width="0.9" height="6.6"/>
	<polygon class="st0" points="277.7,65.1 273.3,65.1 273.3,66.9 277.7,66.9 277.7,68.5 281.1,68.5 281.1,63.6 277.7,63.6 	"/>
	<polygon class="st1" points="276.6,62.7 276.9,69.3 276,69.3 275.6,62.7 	"/>
	<rect x="277" y="62.7" class="st1" width="0.9" height="6.6"/>
	<rect x="260.8" y="63.7" class="st1" width="13.5" height="4.6"/>
	<rect x="260.6" y="126.9" class="st1" width="13.5" height="4.6"/>
	<rect x="260.8" y="95.3" class="st1" width="13.5" height="4.6"/>
</g>
<polygon class="st2" points="215.7,148.8 218.6,146 228.5,146 228.5,49.2 218.6,49.2 215.7,46.4 175.6,46.4 171.9,50.6 171.9,144.6 
	175.6,148.8 "/>
<path class="st3" d="M197.2,96c-8.5,0-15.5-6.9-15.5-15.5c0-8.5,6.9-15.5,15.5-15.5c8.5,0,15.5,6.9,15.5,15.5
	C212.6,89.1,205.7,96,197.2,96z"/>
<path class="st3" d="M197.2,130.2c-8.5,0-15.5-6.9-15.5-15.5c0-8.5,6.9-15.5,15.5-15.5c8.5,0,15.5,6.9,15.5,15.5
	C212.6,123.2,205.7,130.2,197.2,130.2z"/>
<line class="st4" x1="215.7" y1="46.4" x2="215.7" y2="148.8"/>
<line class="st4" x1="175.5" y1="46.4" x2="175.5" y2="148.8"/>
<ellipse class="st2" cx="88.6" cy="97.6" rx="51.2" ry="51.2"/>
<ellipse class="st4" cx="88.6" cy="97.6" rx="47" ry="47"/>
<path class="st5" d="M126.7,97.6c0,21-17.1,38.1-38.1,38.1s-38.1-17-38.1-38.1s17.1-38.1,38.1-38.1
	C109.7,59.5,126.7,76.6,126.7,97.6z"/>
<g>
	<polygon class="st6" points="230.3,146 235.4,140.8 235.4,54.5 230.3,49.2 228.5,49.2 228.5,146 	"/>
	<line class="st4" x1="230.3" y1="49.2" x2="230.3" y2="146"/>
</g>
<g>
	<polygon class="st6" points="255.5,140.4 260.6,135.1 260.6,60.1 255.5,54.9 235.4,54.9 235.4,140.4 	"/>
	<line class="st4" x1="255.5" y1="54.9" x2="255.5" y2="140.4"/>
</g>
<line class="st4" x1="218.6" y1="49.2" x2="218.6" y2="146"/>
<g>
	<path class="st7" d="M183.1,46.7v10.4c0,0.7,1.1,1.2,2.5,1.2h20.1c1.4,0,2.5-0.5,2.5-1.2V46.7H183.1z"/>
	<g>
		<path d="M205.2,46.7V49l1.3,1.3l-1.3,1.2v5.7c0,0.1-0.2,0.2-0.4,0.2h-17.2V46.7h-3.7v10.6c0,0.3,0.6,0.6,1.2,0.6h2.5h17.2
			c0.7,0,1.2-0.3,1.2-0.6v-5.7l1.3-1.2l-1.3-1.3v-2.3h-0.8V46.7z"/>
	</g>
	<path class="st8" d="M205.2,46.7h-17.6v10.8h17.2c0.2,0,0.4-0.1,0.4-0.2v-5.7l1.3-1.2l-1.3-1.3V46.7z"/>
	<g>
		<path class="st7" d="M187.2,55c0,0,0.1,0.2,0.1,0.3c0,0.4-0.5,0.6-1.2,0.6c-0.8,0-1.3-0.3-1.3-0.6c0-0.1,0.1-0.2,0.1-0.3l0.4,0.1
			c0,0.1-0.1,0.1-0.1,0.2c0,0.2,0.3,0.4,0.8,0.4s0.8-0.1,0.8-0.4c0-0.1,0-0.2-0.1-0.2L187.2,55z"/>
		<path class="st7" d="M186.6,53.8l0.6,0.1v0.3l-2.4-0.4v-0.3l2.4-0.4v0.3l-0.6,0.1V53.8z M186.2,53.5l-0.5,0.1
			c-0.1,0-0.3,0-0.5,0.1l0,0c0.1,0,0.3,0,0.5,0.1l0.5,0.1V53.5z"/>
		<path class="st7" d="M184.8,52.1h1.4c0.4,0,0.6-0.1,0.6-0.2c0-0.1-0.2-0.2-0.6-0.2h-1.4v-0.3h1.4c0.8,0,1.1,0.2,1.1,0.5
			s-0.3,0.5-1.1,0.5h-1.4V52.1z"/>
		<path class="st7" d="M185.3,50.3v0.3h-0.5v-0.9h0.5V50h2v0.3H185.3z"/>
		<path class="st7" d="M184.8,48.6h2.4v0.3h-2.4V48.6z"/>
		<path d="M188.1,56.1v-0.2h1.5v-0.3h0.3v0.5H188.1z"/>
		<path d="M189.5,55.2l0.5,0.1v0.2l-1.8-0.3v-0.3l1.8-0.3v0.2l-0.5,0.1V55.2z M189.1,54.9l-0.4,0.1c-0.1,0-0.2,0-0.4,0l0,0
			c0.1,0,0.2,0,0.4,0l0.4,0.1V54.9z"/>
		<path d="M189.5,54.4c0.1-0.1,0.1-0.1,0.1-0.2c0-0.1-0.1-0.1-0.2-0.1c-0.1,0-0.2,0-0.3,0.1s-0.3,0.2-0.5,0.2
			c-0.3,0-0.5-0.1-0.5-0.3c0-0.1,0-0.2,0.1-0.2h0.3c0,0-0.1,0.1-0.1,0.2c0,0.1,0.1,0.1,0.2,0.1c0.1,0,0.2,0,0.3-0.2s0.3-0.2,0.5-0.2
			c0.3,0,0.6,0.1,0.6,0.3c0,0.1-0.1,0.2-0.1,0.2L189.5,54.4z"/>
		<path d="M189.1,53.1v0.3h0.4V53h0.3v0.6H188v-0.5h0.3v0.3h0.4v-0.3C188.7,53.1,189.1,53.1,189.1,53.1z"/>
		<path d="M188.1,52.8c0-0.1,0-0.2,0-0.3s0-0.2,0.1-0.3s0.2-0.1,0.4-0.1s0.4,0.1,0.5,0.2l0,0c0.1-0.1,0.2-0.1,0.3-0.1
			c0.2,0,0.4-0.1,0.5-0.1v0.2c-0.1,0-0.2,0-0.4,0.1c-0.2,0-0.3,0.1-0.3,0.1v0.1h0.7v0.2C189.9,52.8,188.1,52.8,188.1,52.8z
			 M188.9,52.7L188.9,52.7c0-0.2-0.1-0.2-0.3-0.2s-0.3,0.1-0.3,0.1v0.1C188.3,52.7,188.9,52.7,188.9,52.7z"/>
		<path d="M188.1,51.6c0-0.1,0-0.2,0-0.3s0-0.2,0.1-0.3s0.2-0.1,0.4-0.1s0.4,0.1,0.5,0.2l0,0c0.1-0.1,0.2-0.1,0.3-0.1
			c0.2,0,0.4-0.1,0.5-0.1v0.2c-0.1,0-0.2,0-0.4,0.1c-0.2,0-0.3,0.1-0.3,0.1v0.1h0.7v0.2C189.9,51.6,188.1,51.6,188.1,51.6z
			 M188.9,51.4L188.9,51.4c0-0.2-0.1-0.2-0.3-0.2s-0.3,0.1-0.3,0.1v0.1C188.3,51.4,188.9,51.4,188.9,51.4z"/>
		<path d="M189.5,50.6l0.5,0.1v0.2l-1.8-0.3v-0.3L190,50v0.2l-0.5,0.1V50.6z M189.1,50.3l-0.4,0.1c-0.1,0-0.2,0-0.4,0l0,0
			c0.1,0,0.2,0,0.4,0l0.4,0.1V50.3z"/>
		<path d="M188.1,49.8c0-0.1,0-0.2,0-0.3c0-0.2,0.1-0.3,0.2-0.4c0.1-0.1,0.4-0.1,0.7-0.1s0.6,0.1,0.7,0.1c0.2,0.1,0.2,0.2,0.2,0.4
			c0,0.1,0,0.2,0,0.2L188.1,49.8L188.1,49.8z M189.6,49.6L189.6,49.6c0-0.2-0.2-0.4-0.6-0.4c-0.4,0-0.6,0.1-0.6,0.3v0.1
			C188.4,49.6,189.6,49.6,189.6,49.6z"/>
		<path d="M188.1,48.6h1.8v0.2h-1.8V48.6z"/>
		<path d="M189.5,48.2l0.5,0.1v0.2l-1.8-0.3v-0.3l1.8-0.3v0.2l-0.5,0.1V48.2z M189.1,47.9l-0.4,0.1c-0.1,0-0.2,0-0.4,0l0,0
			c0.1,0,0.2,0,0.4,0l0.4,0.1V47.9z"/>
		<path d="M188.4,47.3v0.2h-0.3v-0.7h0.3V47h1.5v0.2L188.4,47.3L188.4,47.3z"/>
		<path class="st7" d="M186.7,46.7h-1.4c-0.3,0.1-0.6,0.2-0.6,0.5s0.5,0.6,1.3,0.6c0.7,0,1.2-0.2,1.2-0.5
			C187.3,47,187.1,46.8,186.7,46.7z M186,47.5c-0.5,0-0.8-0.1-0.8-0.3s0.4-0.3,0.8-0.3c0.5,0,0.8,0.1,0.8,0.3
			C186.9,47.4,186.5,47.5,186,47.5z"/>
	</g>
	<g>
		<path d="M195.6,50.7c0,0,0.1,0.1,0.1,0.2c0,0.3-0.4,0.5-0.9,0.5c-0.6,0-1-0.2-1-0.5c0-0.1,0-0.2,0.1-0.2h0.3c0,0-0.1,0.1-0.1,0.2
			c0,0.2,0.2,0.3,0.6,0.3s0.6-0.1,0.6-0.3c0-0.1,0-0.1-0.1-0.2H195.6z"/>
		<path d="M193.8,50.5v-0.2h1.5V50h0.3v0.5H193.8z"/>
		<path d="M195.2,49.5l0.5,0.1v0.2l-1.8-0.3v-0.3l1.8-0.3v0.2l-0.5,0.1V49.5z M194.9,49.3l-0.4,0.1c-0.1,0-0.2,0-0.4,0l0,0
			c0.1,0,0.2,0,0.4,0l0.4,0.1V49.3z"/>
		<path d="M195.2,48.7c0.1-0.1,0.1-0.1,0.1-0.2c0-0.1-0.1-0.1-0.2-0.1s-0.2,0-0.3,0.1c-0.1,0.1-0.3,0.2-0.5,0.2
			c-0.3,0-0.5-0.1-0.5-0.3c0-0.1,0-0.2,0.1-0.2h0.3c0,0-0.1,0.1-0.1,0.2c0,0.1,0.1,0.1,0.2,0.1s0.2,0,0.3-0.2
			c0.1-0.2,0.3-0.2,0.5-0.2c0.3,0,0.6,0.1,0.6,0.3c0,0.1-0.1,0.2-0.1,0.2L195.2,48.7z"/>
		<path d="M195.2,47.9c0.1-0.1,0.1-0.1,0.1-0.2c0-0.1-0.1-0.1-0.2-0.1s-0.2,0-0.3,0.1c-0.1,0.1-0.3,0.2-0.5,0.2
			c-0.3,0-0.5-0.1-0.5-0.3c0-0.1,0-0.2,0.1-0.2h0.3c0,0-0.1,0.1-0.1,0.2s0.1,0.1,0.2,0.1s0.2,0,0.3-0.2c0.1-0.2,0.3-0.2,0.5-0.2
			c0.3,0,0.6,0.1,0.6,0.3c0,0.1-0.1,0.2-0.1,0.2L195.2,47.9z"/>
		<path d="M194.6,47.1c-0.1,0-0.2,0-0.2-0.1s0.1-0.1,0.2-0.1s0.2,0,0.2,0.1C194.8,47,194.7,47.1,194.6,47.1z M195.4,47.1
			c-0.1,0-0.2,0-0.2-0.1s0.1-0.1,0.2-0.1s0.2,0,0.2,0.1C195.7,47,195.6,47.1,195.4,47.1z"/>
	</g>
	<g>
		<path d="M200.7,57.3c0-0.1,0-0.1,0-0.2c0-0.1,0.1-0.2,0.2-0.3s0.3-0.1,0.5-0.1s0.4,0,0.6,0.1c0.1,0.1,0.2,0.2,0.2,0.3s0,0.1,0,0.2
			H200.7z M202.1,57.2C202.1,57.2,202.1,57.1,202.1,57.2c0-0.3-0.2-0.4-0.6-0.4s-0.6,0.1-0.6,0.3v0.1
			C200.9,57.2,202.1,57.2,202.1,57.2z"/>
		<path d="M201.4,55.9c0.5,0,0.8,0.1,0.8,0.3s-0.3,0.3-0.8,0.3s-0.8-0.1-0.8-0.3C200.7,56.1,201,55.9,201.4,55.9z M201.5,56.5
			c0.3,0,0.6-0.1,0.6-0.2c0-0.1-0.3-0.2-0.6-0.2c-0.3,0-0.6,0.1-0.6,0.2C200.8,56.4,201.1,56.5,201.5,56.5z"/>
		<path d="M202.2,55.5h-1.5v-0.1l0.8-0.2c0.2-0.1,0.3-0.1,0.5-0.1l0,0c-0.2,0-0.4,0-0.6,0h-0.6V55h1.5l0,0l-0.8,0.2
			c-0.2,0.1-0.3,0.1-0.5,0.1l0,0c0.2,0,0.4,0,0.6,0L202.2,55.5L202.2,55.5z"/>
		<path d="M201.4,54.1c0.5,0,0.8,0.1,0.8,0.3s-0.3,0.3-0.8,0.3s-0.8-0.1-0.8-0.3C200.7,54.3,201,54.1,201.4,54.1z M201.5,54.7
			c0.3,0,0.6-0.1,0.6-0.2c0-0.1-0.3-0.2-0.6-0.2c-0.3,0-0.6,0.1-0.6,0.2C200.8,54.6,201.1,54.7,201.5,54.7z"/>
		<path d="M200.9,53.9v0.2h-0.2v-0.5h0.2V53.9l1.3-0.1v0.1H200.9z"/>
		<path d="M202.2,53l-1.5,0.2v-0.1l0.7-0.1c0.2,0,0.4-0.1,0.6-0.1l0,0c-0.2,0-0.4,0-0.6-0.1l-0.7-0.1v-0.1L202.2,53L202.2,53z"/>
		<path d="M200.7,52.5h1.5v0.1L200.7,52.5L200.7,52.5z"/>
		<path d="M201.5,51.9v0.3h0.5v-0.3h0.2v0.4h-1.5v-0.4h0.2v0.3h0.5L201.5,51.9L201.5,51.9z"/>
		<path d="M202.2,51.6l-1.5,0.2v-0.1l0.8-0.1c0.2,0,0.4,0,0.5-0.1l0,0c-0.1,0-0.3,0-0.5-0.1l-0.8-0.1v-0.1l0.8-0.1
			c0.2,0,0.4,0,0.5,0l0,0c-0.2,0-0.3,0-0.5-0.1l-0.8-0.1v-0.1l1.5,0.2v0.1l-0.8,0.1c-0.2,0-0.3,0-0.5,0l0,0c0.1,0,0.3,0,0.5,0.1
			L202.2,51.6L202.2,51.6z"/>
		<path d="M200.7,50.5c0-0.1,0-0.1,0-0.2c0-0.1,0.1-0.2,0.2-0.3s0.3-0.1,0.5-0.1s0.4,0,0.6,0.1c0.1,0.1,0.2,0.2,0.2,0.3s0,0.1,0,0.2
			H200.7z M202.1,50.4C202.1,50.4,202.1,50.3,202.1,50.4c0-0.3-0.2-0.4-0.6-0.4s-0.6,0.1-0.6,0.3v0.1
			C200.9,50.4,202.1,50.4,202.1,50.4z"/>
		<path d="M200.7,49.6h1.5v0.1L200.7,49.6L200.7,49.6z"/>
		<path d="M200.7,49.4c0,0,0-0.1,0-0.2c0-0.1,0-0.2,0.1-0.2s0.2-0.1,0.3-0.1c0.2,0,0.3,0.1,0.4,0.1l0,0c0-0.1,0.1-0.1,0.3-0.1
			c0.2,0,0.4,0,0.4-0.1V49c0,0-0.2,0-0.4,0c-0.2,0-0.3,0.1-0.3,0.1v0.1h0.6v0.1h-1.4V49.4z M201.4,49.3L201.4,49.3
			c0-0.2-0.1-0.3-0.3-0.3c-0.2,0-0.3,0.1-0.3,0.2v0.1H201.4z"/>
		<path d="M201.5,48.4v0.3h0.5v-0.3h0.2v0.4h-1.5v-0.4h0.2v0.3h0.5L201.5,48.4L201.5,48.4z"/>
		<path d="M202.2,47.7c0,0,0.1,0.1,0.1,0.2c0,0.2-0.3,0.3-0.8,0.3s-0.8-0.2-0.8-0.4c0-0.1,0-0.1,0.1-0.2h0.2l-0.1,0.1
			c0,0.2,0.2,0.3,0.6,0.3S202.1,47.9,202.2,47.7c-0.1-0.1-0.1-0.1-0.2-0.1L202.2,47.7z"/>
		<path d="M200.9,47.4v0.2h-0.2v-0.5h0.2V47.4l1.3-0.1v0.1H200.9z"/>
		<path d="M200.7,47L200.7,47l1.3-0.1v-0.3h0.2V47H200.7z"/>
		<path d="M203.7,55.2c0.5,0,0.8,0.1,0.8,0.3s-0.3,0.3-0.8,0.3s-0.8-0.1-0.8-0.3C203,55.4,203.3,55.2,203.7,55.2z M203.7,55.8
			c0.3,0,0.6-0.1,0.6-0.2c0-0.1-0.3-0.2-0.6-0.2c-0.3,0-0.6,0.1-0.6,0.2S203.4,55.8,203.7,55.8z"/>
		<path d="M203,55.1c0,0,0-0.1,0-0.2c0-0.1,0-0.2,0.1-0.2s0.2-0.1,0.3-0.1c0.1,0,0.2,0,0.3,0.1c0.1,0,0.2,0.1,0.2,0.2V55h0.6v0.1
			C204.5,55.1,203,55.1,203,55.1z M203.7,55C203.7,55,203.7,54.9,203.7,55c0-0.2-0.1-0.3-0.3-0.3s-0.3,0.1-0.3,0.2V55H203.7z"/>
		<path d="M203.1,54.3v0.2H203V54h0.2v0.3l1.3-0.1v0.1H203.1z"/>
		<path d="M203,53.8h1.5v0.1L203,53.8L203,53.8z"/>
		<path d="M204.4,53.1c0,0,0.1,0.1,0.1,0.2c0,0.2-0.3,0.3-0.8,0.3s-0.8-0.2-0.8-0.4c0-0.1,0-0.1,0.1-0.2h0.2l-0.1,0.1
			c0,0.2,0.2,0.3,0.6,0.3S204.3,53.3,204.4,53.1c-0.1-0.1-0.1-0.1-0.2-0.1L204.4,53.1z"/>
		<path d="M204,52.8l0.5,0.1V53l-1.5-0.2v-0.1l1.5-0.2v0.1l-0.5,0.1V52.8z M203.9,52.6l-0.4,0.1c-0.1,0-0.2,0-0.3,0l0,0
			c0.1,0,0.2,0,0.3,0l0.4,0.1V52.6z"/>
		<path d="M203,52.2L203,52.2l1.3-0.1v-0.3h0.2v0.4C204.5,52.2,203,52.2,203,52.2z"/>
		<path d="M203,51.3h1.5v0.1L203,51.3L203,51.3z"/>
		<path d="M204.5,51.1H203V51l0.8-0.2c0.2-0.1,0.3-0.1,0.5-0.1l0,0c-0.2,0-0.4,0-0.6,0H203v-0.1h1.5v0.1l-0.8,0.2
			c-0.2,0-0.3,0.1-0.5,0.1l0,0c0.2,0,0.4,0,0.6,0L204.5,51.1L204.5,51.1z"/>
		<path d="M204.2,50.4c0.1,0,0.1-0.1,0.1-0.2c0-0.1-0.1-0.1-0.3-0.1c-0.1,0-0.2,0-0.3,0.1c-0.1,0.1-0.2,0.2-0.4,0.2
			c-0.2,0-0.4-0.1-0.4-0.2c0-0.1,0-0.1,0.1-0.2h0.2l-0.1,0.1c0,0.1,0.1,0.1,0.2,0.1s0.2,0,0.3-0.1c0.1-0.1,0.2-0.2,0.4-0.2
			c0.2,0,0.4,0.1,0.4,0.2c0,0.1,0,0.1-0.1,0.2L204.2,50.4z"/>
		<path d="M203.1,49.7v0.2H203v-0.5h0.2v0.3l1.3-0.1v0.1H203.1z"/>
		<path d="M203,49.2c0,0,0-0.1,0-0.2c0-0.1,0-0.2,0.1-0.2s0.2-0.1,0.3-0.1c0.2,0,0.3,0.1,0.4,0.1l0,0c0-0.1,0.1-0.1,0.3-0.1
			c0.2,0,0.4,0,0.4-0.1v0.1c0,0-0.2,0-0.4,0c-0.2,0-0.3,0.1-0.3,0.1v0.1h0.6V49H203V49.2z M203.7,49.1L203.7,49.1
			c0-0.2-0.1-0.3-0.3-0.3c-0.2,0-0.3,0.1-0.3,0.2v0.1H203.7z"/>
		<path d="M203,48.5h0.9c0.3,0,0.5-0.1,0.5-0.2c0-0.1-0.1-0.2-0.5-0.2H203V48h0.9c0.5,0,0.6,0.1,0.6,0.3c0,0.1-0.2,0.3-0.6,0.3
			L203,48.5L203,48.5z"/>
		<path d="M203.8,47.3c-0.2,0-0.5,0-0.6,0l0,0C203.4,47.3,203.6,47.4,203.8,47.3l0.7,0.2v0.1l-0.7,0.1c-0.2,0-0.4,0.1-0.6,0.1l0,0
			c0.2,0,0.4,0,0.7,0h0.6v0.1H203v-0.1l0.7-0.1c0.2,0,0.3-0.1,0.5-0.1l0,0c-0.1,0-0.3,0-0.5-0.1l-0.7-0.1v-0.1h1.5v0.1L203.8,47.3z"
			/>
		<path d="M203.8,46.6v0.3h0.5v-0.3h0.2V47H203v-0.4h0.2v0.3h0.5L203.8,46.6L203.8,46.6z"/>
	</g>
	<g>
		<path class="st7" d="M199,51.4l-8.3,2.2c-0.2,0.1-0.3,0.2-0.3,0.3s0.1,0.2,0.3,0.3l8.3,2.2c0.1,0,0.2,0,0.3,0
			c0.3,0,0.6-0.1,0.6-0.3v-4.4c0-0.2-0.3-0.3-0.6-0.3C199.2,51.3,199.1,51.3,199,51.4z"/>
		<path d="M199,51.3l-8.4,2.2c-0.2,0.1-0.3,0.2-0.3,0.3s0.1,0.2,0.3,0.3l8.4,2.2c0.1,0,0.2,0,0.3,0c0.3,0,0.6-0.1,0.6-0.3v-4.4
			c0-0.2-0.3-0.3-0.6-0.3C199.2,51.3,199.1,51.3,199,51.3z M199.8,51.6V56c0,0.1-0.2,0.2-0.5,0.2c-0.1,0-0.1,0-0.2,0l-8.3-2.2
			c-0.2,0-0.3-0.1-0.3-0.2c0-0.1,0.1-0.2,0.3-0.2l8.3-2.2c0.1,0,0.2,0,0.3,0C199.6,51.4,199.8,51.5,199.8,51.6z"/>
		<path d="M191.2,53.6c-0.2,0-0.5,0.1-0.5,0.2c0,0.1,0.4,0.2,0.6,0.3l7.6,2c0.2,0,0.4,0.1,0.6,0.1c0.2-0.1,0.2-0.2,0.2-0.3V52
			c0-0.2,0-0.3-0.2-0.4c-0.2-0.1-0.5,0-0.7,0.1L191.2,53.6z M199.1,53.8v2l-7.4-2l0,0l0,0l0,0l0,0l4.8-1.3v1l0,0l-0.2-0.4h-0.1
			l0.2,0.4h-0.1l-0.8-0.7h-0.2l0.8,0.6c0,0,0,0-0.1,0l-0.6-0.3h-0.1l0.6,0.3l0,0l-1.4-0.4l-0.1,0.1l1.4,0.4l0,0l-0.8-0.1v0.1
			l0.8,0.1c0,0,0,0,0,0.1h-1.6v0.1h1.6l0,0l-0.8,0.1V54l0.8-0.1l0,0l-1.4,0.4l0.1,0.1L196,54l0,0l-0.6,0.3h0.1l0.6-0.3
			c0,0,0,0,0.1,0l-0.8,0.6h0.2l0.7-0.6c0,0,0,0,0.1,0l-0.2,0.4h0.1l0.2-0.4c0,0,0,0,0.1,0v0.7h0.2V54h0.1l0.2,0.4h0.1L197,54
			c0,0,0,0,0.1,0l0.7,0.6h0.2l-0.8-0.6c0,0,0,0,0.1,0l0.5,0.3h0.1l-0.6-0.3c0,0,0,0,0.1,0l1.3,0.4l0.1-0.1l-1.3-0.3l0,0l0.8,0.1V54
			l-0.8-0.1l0,0h1.6L199.1,53.8l-1.6,0l0,0l0.8-0.1v-0.1l-0.8,0.1l0,0l1.4-0.4l-0.1-0.1l-1.3,0.4c0,0,0,0-0.1,0l0.6-0.3h-0.1
			l-0.6,0.3c0,0,0,0-0.1,0L198,53h-0.2l-0.8,0.7h-0.1l0.2-0.4H197l-0.2,0.4c0,0,0,0-0.1,0v-1l2.4-0.7L199.1,53.8L199.1,53.8z"/>
	</g>
</g>
<g>
	<path d="M126.3,97.6c0,20.8-16.9,37.7-37.7,37.7s-37.7-16.9-37.7-37.7s16.9-37.7,37.7-37.7C109.4,59.9,126.3,76.8,126.3,97.6z"/>
	<g>
		<path class="st9" d="M89.8,89c-0.6-0.1-1.6,3.7-2.3,8.4c-0.7,4.7-0.7,8.7-0.1,8.8c0.6,0.1,1.6-3.7,2.3-8.4
			C90.4,93,90.4,89.1,89.8,89z"/>
		<path class="st9" d="M86.8,90.1c-0.6-0.1-1.5,3-2.1,6.9c-0.5,3.9-0.5,7.1,0.1,7.2s1.5-3,2.1-6.9C87.5,93.5,87.4,90.2,86.8,90.1z"
			/>
		<path class="st9" d="M83.7,91.9c-0.6-0.1-1.4,2-1.8,4.8c-0.4,2.7-0.2,5,0.4,5.1c0.6,0.1,1.4-2,1.8-4.8
			C84.5,94.3,84.3,92,83.7,91.9z"/>
		<path class="st9" d="M92.4,90.9c-0.6-0.1-1.5,3-2.1,6.9s-0.5,7.1,0.1,7.2s1.5-3,2.1-6.9S93,91,92.4,90.9z"/>
		<path class="st9" d="M94.9,93.5c-0.6-0.1-1.4,2-1.8,4.7c-0.4,2.7-0.2,5,0.4,5.1c0.6,0.1,1.4-2,1.8-4.8
			C95.7,95.8,95.5,93.6,94.9,93.5z"/>
	</g>
	<path class="st10" d="M103.4,120.9c7.8-4.9,12.9-13.5,12.9-23.4c0-15.2-12.4-27.6-27.6-27.6C73.4,70,61,82.3,61,97.6
		c0,9.8,5.2,18.5,12.9,23.4"/>
	<g>
		<g>
			<g>
				<path class="st8" d="M81.5,85c0.1,0,0.2,0,0.3,0.1s0.1,0.2,0.1,0.3c0,0.1,0,0.2-0.1,0.3c-0.1,0.1-0.2,0.1-0.3,0.1
					s-0.2,0-0.3-0.1s-0.1-0.2-0.1-0.3c0-0.1,0-0.2,0.1-0.3C81.3,85,81.4,85,81.5,85z M81.5,85.1c-0.1,0-0.1,0-0.2,0.1
					c0,0.1-0.1,0.1-0.1,0.2s0,0.1,0.1,0.2s0.1,0.1,0.2,0.1c0.1,0,0.1,0,0.2-0.1c0.1-0.1,0.1-0.1,0.1-0.2s0-0.1-0.1-0.2
					C81.6,85.1,81.6,85.1,81.5,85.1z"/>
				<path class="st8" d="M82.8,86.2V85h0.3c0.1,0,0.3,0,0.3,0.1c0.1,0.1,0.1,0.2,0.1,0.3c0,0.1,0,0.2-0.1,0.3
					c-0.1,0.1-0.2,0.1-0.3,0.1s-0.1,0-0.2,0v0.4C82.9,86.2,82.8,86.2,82.8,86.2z M83.1,85.1H83v0.5c0.1,0,0.1,0,0.2,0
					c0.1,0,0.1,0,0.2-0.1c0-0.1,0.1-0.1,0.1-0.2s0-0.1,0-0.1l-0.1-0.1C83.2,85.1,83.2,85.1,83.1,85.1z"/>
				<path class="st8" d="M84.3,85.1l0.3-0.3V85h0.3v0.1h-0.3v0.4c0,0.1,0,0.1,0.1,0.1s0.1,0,0.2-0.1v0.2c-0.1,0-0.1,0.1-0.2,0.1
					c-0.1,0-0.1,0-0.2-0.1l0,0c0,0,0,0,0-0.1c0,0,0-0.1,0-0.2V85L84.3,85.1L84.3,85.1z"/>
				<path class="st8" d="M86.2,85c0.1,0,0.2,0,0.3,0.1s0.1,0.2,0.1,0.3c0,0.1,0,0.2-0.1,0.3c-0.1,0.1-0.2,0.1-0.3,0.1
					s-0.2,0-0.3-0.1s-0.1-0.2-0.1-0.3c0-0.1,0-0.2,0.1-0.3C85.9,85,86,85,86.2,85z M86.1,85.1c-0.1,0-0.1,0-0.2,0.1
					c-0.1,0.1-0.1,0.1-0.1,0.2s0,0.1,0.1,0.2s0.1,0.1,0.2,0.1c0.1,0,0.1,0,0.2-0.1c0.1-0.1,0.1-0.1,0.1-0.2s0-0.1-0.1-0.2
					C86.3,85.1,86.2,85.1,86.1,85.1z"/>
				<path class="st8" d="M88.2,85.4h-0.6c0,0.1,0,0.1,0.1,0.2c0,0,0.1,0.1,0.2,0.1c0.1,0,0.2,0,0.3-0.1v0.2l-0.1,0.1
					c0,0-0.1,0-0.2,0c-0.1,0-0.2,0-0.2-0.1c-0.1,0-0.1-0.1-0.1-0.2s0-0.1,0-0.2s0-0.2,0.1-0.3C87.8,85,87.9,85,88,85s0.2,0,0.3,0.1
					C88.1,85.1,88.2,85.2,88.2,85.4L88.2,85.4z M87.6,85.3H88c0-0.1,0-0.1-0.1-0.1l-0.1-0.1C87.7,85.1,87.7,85.1,87.6,85.3
					C87.6,85.2,87.6,85.2,87.6,85.3z"/>
				<path class="st8" d="M89.1,84.5h0.2v1.2h-0.2V84.5z"/>
				<path class="st8" d="M90.9,85.4h-0.6c0,0.1,0,0.1,0.1,0.2c0,0,0.1,0.1,0.2,0.1c0.1,0,0.2,0,0.3-0.1v0.2c-0.1,0-0.1,0.1-0.1,0.1
					s-0.1,0-0.2,0c-0.1,0-0.2,0-0.2-0.1c-0.1,0-0.1-0.1-0.1-0.2s-0.1-0.1-0.1-0.2s0-0.2,0.1-0.3c0.1-0.1,0.2-0.1,0.3-0.1
					s0.2,0,0.3,0.1C90.8,85.1,90.9,85.2,90.9,85.4L90.9,85.4z M90.3,85.3h0.4c0-0.1,0-0.1-0.1-0.1l-0.1-0.1
					C90.4,85.1,90.4,85.1,90.3,85.3C90.3,85.2,90.3,85.2,90.3,85.3z"/>
				<path class="st8" d="M92.4,85.6v0.2c-0.1,0-0.2,0-0.2,0c-0.1,0-0.2,0-0.3-0.1s-0.1-0.2-0.1-0.3c0-0.1,0-0.2,0.1-0.3
					C92,85,92.1,85,92.2,85h0.1h0.1v0.2c-0.1-0.1-0.2-0.1-0.2-0.1c-0.1,0-0.1,0-0.2,0.1c0,0.1-0.1,0.1-0.1,0.2s0,0.2,0.1,0.2
					c0,0.1,0.1,0.1,0.2,0.1C92.2,85.7,92.3,85.6,92.4,85.6z"/>
				<path class="st8" d="M93.1,85.1l0.3-0.3V85h0.3v0.1h-0.3v0.4c0,0.1,0,0.1,0.1,0.1s0.1,0,0.2-0.1v0.2c-0.1,0-0.1,0.1-0.2,0.1
					c-0.1,0-0.1,0-0.2-0.1l0,0c0,0,0,0,0-0.1c0,0,0-0.1,0-0.2V85L93.1,85.1L93.1,85.1z"/>
				<path class="st8" d="M94.7,85v0.2l0,0c0.1-0.1,0.2-0.2,0.2-0.2c0.1,0,0.1,0,0.2,0.1L95,85.2C94.9,85.1,94.9,85.1,94.7,85
					c0,0.1,0,0.1,0,0.2s-0.1,0.1-0.1,0.2v0.4h-0.2V85H94.7z"/>
				<path class="st8" d="M96.3,85c0.1,0,0.2,0,0.3,0.1s0.1,0.2,0.1,0.3c0,0.1,0,0.2-0.1,0.3c-0.1,0.1-0.2,0.1-0.3,0.1
					s-0.2,0-0.3-0.1s-0.1-0.2-0.1-0.3c0-0.1,0-0.2,0.1-0.3C96.1,85,96.2,85,96.3,85z M96.3,85.1c-0.1,0-0.1,0-0.2,0.1
					c0,0.1-0.1,0.1-0.1,0.2s0,0.1,0.1,0.2s0.1,0.1,0.2,0.1c0.1,0,0.1,0,0.2-0.1c0-0.1,0.1-0.1,0.1-0.2s0-0.1-0.1-0.2
					C96.5,85.1,96.4,85.1,96.3,85.1z"/>
				<path class="st8" d="M97.8,85L97.8,85c0.1,0,0.2,0,0.2,0c0.1,0,0.1,0,0.1,0l0.1,0.1c0,0,0,0.1,0,0.2v0.5H98v-0.5
					c0-0.1,0-0.1,0-0.2L97.9,85C97.8,85,97.8,85,97.8,85l-0.1,0.7h-0.2V85H97.8z"/>
				<path class="st8" d="M99.4,84.6L99.4,84.6C99.4,84.7,99.4,84.7,99.4,84.6c0.1,0.1,0.1,0.1,0.1,0.2c0,0,0,0-0.1,0c0,0,0,0-0.1,0
					C99.3,84.8,99.3,84.7,99.4,84.6C99.3,84.7,99.3,84.7,99.4,84.6C99.3,84.6,99.3,84.6,99.4,84.6z M99.3,85h0.2v0.8h-0.2V85z"/>
				<path class="st8" d="M101,85.6v0.2c-0.1,0-0.2,0-0.2,0c-0.1,0-0.2,0-0.3-0.1s-0.1-0.2-0.1-0.3c0-0.1,0-0.2,0.1-0.3
					c0.1-0.1,0.2-0.1,0.3-0.1h0.1h0.1v0.2c-0.1-0.1-0.2-0.1-0.2-0.1c-0.1,0-0.1,0-0.2,0.1c0,0.1-0.1,0.1-0.1,0.2s0,0.2,0.1,0.2
					c0.1,0.1,0.1,0.1,0.2,0.1C100.8,85.7,100.9,85.6,101,85.6z"/>
				<path class="st8" d="M101.8,85.7v-0.2l0.1,0.1h0.1h0.1c0,0,0,0,0-0.1c0,0,0,0,0-0.1c0,0-0.1,0-0.1-0.1c-0.1-0.1-0.2-0.1-0.2-0.1
					v-0.1c0-0.1,0-0.1,0.1-0.2c0,0,0.1-0.1,0.2-0.1c0.1,0,0.2,0,0.2,0.1v0.2c-0.1-0.1-0.2-0.1-0.2-0.1H102c0,0,0,0,0,0.1
					c0,0,0,0,0,0.1c0,0,0,0,0.1,0.1h0.1c0.1,0.1,0.2,0.2,0.2,0.3c0,0.1,0,0.1-0.1,0.2c-0.1,0-0.1,0.1-0.2,0.1H102
					C101.9,85.8,101.9,85.8,101.8,85.7z"/>
			</g>
		</g>
		<g>
			<polygon class="st11" points="94.9,79.3 93.8,81.4 93.4,79.3 93.1,79.3 92.1,81.4 91.7,79.3 91.1,79.3 91.8,82.5 92.1,82.5 
				93.1,80.5 93.6,82.5 93.8,82.5 95.5,79.3 			"/>
			<path class="st11" d="M97.3,79.2c-0.7,0-1.2,0.2-1.6,0.6c-0.4,0.4-0.6,0.9-0.6,1.5c0,0.3,0.1,0.6,0.3,0.9
				c0.2,0.2,0.4,0.4,0.7,0.4s0.6-0.1,0.9-0.4l0,0l-0.1,0.4h0.6l0.4-3.1C97.8,79.3,97.6,79.2,97.3,79.2z M97.1,81.6
				c0,0-0.1,0.1-0.3,0.3c-0.2,0.1-0.3,0.2-0.5,0.2S96,82,95.9,81.9c-0.1-0.2-0.2-0.4-0.2-0.6c0-0.4,0.1-0.7,0.4-1
				c0.2-0.3,0.6-0.4,1.1-0.4c0.1,0,0.1,0,0.2,0L97.1,81.6z"/>
			<path class="st11" d="M102.4,80.8c0-0.1,0-0.2,0-0.3c0-0.4-0.1-0.7-0.3-0.9c-0.2-0.2-0.5-0.4-0.8-0.4c-0.4,0-0.8,0.2-1.1,0.5
				s-0.4,0.8-0.4,1.3s0.1,0.8,0.4,1.1c0.2,0.3,0.6,0.4,1,0.4s0.7-0.1,1.1-0.3l0.1-0.6c-0.4,0.3-0.7,0.4-1,0.4
				c-0.2,0-0.4-0.1-0.6-0.3c-0.2-0.2-0.2-0.4-0.2-0.7c0-0.1,0-0.2,0-0.3h1.8V80.8z M101.3,79.7c0.2,0,0.3,0.1,0.4,0.2
				c0.1,0.1,0.1,0.3,0.1,0.5h-1.3C100.7,80,101,79.7,101.3,79.7z"/>
			<path class="st11" d="M100.2,79.4c-0.2-0.1-0.3-0.1-0.4-0.1c-0.2,0-0.3,0-0.4,0.1c-0.1,0.1-0.3,0.3-0.4,0.5l0,0l0.1-0.6h-0.6
				l-0.4,3.1h0.6l0.2-1.8c0,0,0.1-0.2,0.2-0.3c0.1-0.2,0.2-0.3,0.3-0.4s0.2-0.1,0.3-0.1h0.1c0.1-0.1,0.1-0.2,0.2-0.4
				C100.1,79.5,100.1,79.4,100.2,79.4z"/>
		</g>
		<g>
			<polygon class="st9" points="81.7,77.7 81,82.5 81.6,82.5 82.3,77.7 			"/>
			<path class="st9" d="M82.8,78.7c0.1,0,0.2,0,0.2-0.1c0.1-0.1,0.1-0.1,0.1-0.2s0-0.2-0.1-0.2c-0.1-0.1-0.1-0.1-0.2-0.1
				c-0.1,0-0.2,0-0.2,0.1c-0.1,0.1-0.1,0.1-0.1,0.2s0,0.2,0.1,0.2C82.7,78.7,82.7,78.7,82.8,78.7z"/>
			<polygon class="st9" points="82.4,79.3 82,82.5 82.6,82.5 83,79.3 			"/>
			<path class="st9" d="M90.1,79.8h0.6l0.1-0.5h-0.6l0.1-0.6h-0.6l-0.1,0.6H89l-0.1,0.5h0.6l-0.3,1.9c0,0.1,0,0.1,0,0.2
				c0,0.2,0.1,0.4,0.2,0.5c0.1,0.1,0.4,0.2,0.6,0.2c0.2,0,0.4,0,0.7-0.1v-0.6c-0.2,0.1-0.4,0.2-0.6,0.2c-0.2,0-0.3-0.1-0.3-0.3
				c0-0.1,0-0.1,0-0.2L90.1,79.8z"/>
			<path class="st9" d="M84.6,82.3L84.6,82.3C84.8,82.3,84.7,82.3,84.6,82.3z"/>
			<path class="st9" d="M86,82.5h0.6L87,80c-0.2,0-0.4,0.1-0.6,0.2L86,82.5z"/>
			<path class="st9" d="M87,79.1l0.2-1.5h-0.6l-0.2,1.6c-0.4,0.1-0.7,0.2-1,0.4c-0.2-0.2-0.5-0.4-0.9-0.4c-0.1,0-0.1,0-0.2,0l0,0
				h-0.1l0,0c-0.2,0.1-0.3,0.2-0.5,0.3c-0.2,0.2-0.3,0.5-0.3,0.9s0.2,0.7,0.6,0.9c-0.2,0.1-0.3,0.1-0.5,0.2
				c-0.1,0.1-0.2,0.2-0.2,0.3c0,0.2,0.2,0.4,0.5,0.6c-0.6,0.1-0.9,0.3-0.9,0.6c0,0.2,0.1,0.4,0.4,0.6c0.3,0.2,0.6,0.2,1,0.2
				s0.7-0.1,0.9-0.3c0.2-0.2,0.4-0.4,0.4-0.6s-0.1-0.4-0.2-0.5c-0.1-0.2-0.4-0.3-0.8-0.4c-0.2,0-0.1,0,0,0c-0.4-0.1-0.6-0.2-0.6-0.2
				c-0.1,0-0.1-0.1-0.1-0.1c0-0.1,0-0.1,0.1-0.2c0.1,0,0.2-0.1,0.5-0.1s0.5-0.1,0.6-0.2c0.2-0.1,0.3-0.2,0.4-0.4
				c0.1-0.1,0.1-0.3,0.2-0.5c0-0.2,0-0.4-0.1-0.6c1.9-0.7,2.5-0.4,2.4,0.1c0,0,0,0.1,0,0.2l-0.3,2.2h0.6l0.3-2.1c0-0.1,0-0.2,0-0.2
				c0-0.3-0.1-0.5-0.2-0.6C88.2,79.2,87.6,79.1,87,79.1z M84.3,82.8c0.1,0,0.2,0,0.4,0.1s0.3,0.2,0.3,0.3c0,0.1-0.1,0.2-0.2,0.3
				c-0.1,0.1-0.3,0.1-0.5,0.1c-0.3,0-0.5,0-0.6-0.1c-0.2-0.1-0.2-0.2-0.2-0.3c0-0.1,0.1-0.2,0.3-0.3C84,82.8,84.2,82.8,84.3,82.8z
				 M84.9,80.9c-0.1,0.1-0.3,0.2-0.4,0.2c-0.2,0-0.3-0.1-0.4-0.2c-0.1-0.1-0.2-0.3-0.2-0.5s0.1-0.4,0.2-0.5c0.1-0.1,0.3-0.2,0.4-0.2
				c0.2,0,0.3,0.1,0.4,0.2c0.1,0.1,0.2,0.3,0.2,0.5C85.1,80.6,85,80.8,84.9,80.9z"/>
			<path class="st9" d="M77.5,77.6c-0.2,0-0.5,1.2-0.8,2.8c-0.2,1.6-0.2,2.9,0,2.9s0.6-1.2,0.8-2.8C77.7,79,77.7,77.7,77.5,77.6z"/>
			<path class="st9" d="M76.5,78c-0.2,0-0.5,1-0.7,2.3s-0.2,2.4,0,2.4s0.5-1,0.7-2.3S76.7,78.1,76.5,78z"/>
			<path class="st9" d="M75.5,78.6c-0.2,0-0.5,0.7-0.6,1.6s-0.1,1.7,0.1,1.7c0.2,0,0.5-0.7,0.6-1.6C75.7,79.4,75.7,78.7,75.5,78.6z"
				/>
			<path class="st9" d="M78.4,78.3c-0.2,0-0.5,1-0.7,2.3s-0.2,2.4,0,2.4s0.5-1,0.7-2.3C78.6,79.4,78.6,78.3,78.4,78.3z"/>
			<path class="st9" d="M79.2,79.2c-0.2,0-0.5,0.7-0.6,1.6s-0.1,1.7,0.1,1.7c0.2,0,0.5-0.7,0.6-1.6C79.5,79.9,79.4,79.2,79.2,79.2z"
				/>
		</g>
	</g>
	<g>
		<path class="st8" d="M59.8,105.9c-0.2,0.1-0.5,0.2-0.7,0.2l0,0c0.2,0,0.4,0,0.7,0h0.9v0.2l-0.7,0.5c-0.2,0.1-0.4,0.3-0.6,0.4l0,0
			c0.2-0.1,0.5-0.1,0.7-0.2l0.7-0.2l0.1,0.2l-1.6,0.4l-0.1-0.3l0.7-0.5c0.2-0.1,0.3-0.2,0.5-0.3l0,0c-0.2,0-0.4,0-0.6,0h-0.9
			l-0.1-0.3l1.6-0.6l0.1,0.2L59.8,105.9z"/>
		<path class="st8" d="M59.8,104.2c0.1,0,0.2-0.1,0.3-0.1v0.2l-0.1,0.1l0,0c0.1,0,0.2,0.1,0.3,0.3c0.1,0.2-0.1,0.4-0.2,0.4
			c-0.3,0.1-0.5-0.1-0.6-0.6l0,0c-0.1,0-0.3,0.1-0.2,0.3c0,0.1,0.1,0.2,0.2,0.3l-0.1,0.1c-0.1-0.1-0.2-0.2-0.2-0.4
			c-0.1-0.4,0.1-0.5,0.4-0.6L59.8,104.2z M59.5,104.5c0.1,0.2,0.2,0.5,0.4,0.4c0.1,0,0.2-0.1,0.2-0.2c0-0.2-0.2-0.2-0.3-0.2h-0.1
			L59.5,104.5z"/>
		<path class="st8" d="M59.1,103.8c-0.1,0-0.2,0-0.3,0.1v-0.2H59l0,0c-0.1,0-0.3-0.2-0.3-0.4c0-0.2,0-0.4,0.4-0.5l0.7-0.1v0.2
			l-0.7,0.1c-0.2,0-0.3,0.1-0.3,0.3c0,0.1,0.1,0.2,0.3,0.2h0.1l0.7-0.1v0.2L59.1,103.8z"/>
		<path class="st8" d="M59.2,101.2c0.1,0,0.2,0,0.3-0.1v0.2h-0.2l0,0c0.1,0,0.2,0.2,0.3,0.4c0,0.2,0,0.4-0.5,0.5l-0.7,0.1v-0.2
			l0.7-0.1c0.2,0,0.4-0.1,0.3-0.3c0-0.1-0.1-0.2-0.2-0.3h-0.1l-0.7,0.1v-0.2L59.2,101.2z"/>
		<path class="st8" d="M59.5,100.6l-1,0.1v0.2h-0.2v-0.2h-0.1c-0.2,0-0.3,0-0.4-0.1s-0.1-0.2-0.1-0.3c0-0.1,0-0.1,0-0.2h0.2v0.1
			c0,0.2,0.2,0.2,0.4,0.2h0.1v-0.3h0.2v0.3l1-0.1L59.5,100.6z"/>
		<path class="st8" d="M59.1,98.9c0.1,0,0.2,0,0.3,0v0.2h-0.2l0,0c0.1,0.1,0.2,0.2,0.2,0.4c0,0.2-0.2,0.4-0.3,0.4
			c-0.3,0-0.5-0.2-0.5-0.7l0,0c-0.1,0-0.3,0-0.3,0.3c0,0.1,0,0.2,0.1,0.3l-0.1,0.1c-0.1-0.1-0.1-0.2-0.1-0.4c0-0.4,0.2-0.5,0.5-0.5
			L59.1,98.9z M58.8,99.1c0,0.2,0.1,0.5,0.3,0.5c0.1,0,0.2-0.1,0.2-0.2c0-0.2-0.1-0.3-0.2-0.3H59H58.8z"/>
		<path class="st8" d="M59.3,97.5c0,0.1,0.1,0.2,0.1,0.3c0,0.4-0.2,0.6-0.6,0.6s-0.6-0.2-0.6-0.6c0-0.1,0-0.2,0.1-0.3h0.2
			c0,0.1-0.1,0.1-0.1,0.3c0,0.3,0.2,0.4,0.5,0.4s0.4-0.2,0.4-0.4C59.3,97.7,59.3,97.6,59.3,97.5L59.3,97.5z"/>
		<path class="st8" d="M57.9,96.7h0.3v-0.3h0.2v0.3H59c0.1,0,0.2,0,0.2-0.2c0-0.1,0-0.1,0-0.1h0.2c0,0,0,0.1,0,0.2s0,0.2-0.1,0.2
			c-0.1,0.1-0.2,0.1-0.3,0.1h-0.7v0.2h-0.2v-0.2h-0.2V96.7z"/>
		<path class="st8" d="M59.1,95c0.1,0,0.2,0,0.3,0v0.2h-0.2l0,0c0.1,0.1,0.2,0.2,0.2,0.4c0,0.2-0.1,0.4-0.6,0.4l-0.7-0.1v-0.2h0.7
			c0.2,0,0.4,0,0.4-0.2c0-0.1-0.1-0.3-0.2-0.3h-0.1l-0.7-0.1v-0.2L59.1,95z"/>
		<path class="st8" d="M58.7,94.4c-0.1,0-0.3,0-0.4,0v-0.2h0.2l0,0c-0.2-0.1-0.2-0.2-0.2-0.4c0,0,0,0,0-0.1h0.2c0,0,0,0,0,0.1
			c0,0.2,0.1,0.3,0.2,0.3h0.1l0.6,0.1v0.2H58.7z"/>
		<path class="st8" d="M59.1,93.3c0.3,0,0.4-0.1,0.5-0.3c0-0.2,0-0.3,0-0.3h0.2c0,0.1,0,0.2,0,0.4c-0.1,0.4-0.3,0.5-0.7,0.5
			c-0.4-0.1-0.6-0.3-0.6-0.7c0.1-0.4,0.4-0.4,0.6-0.4h0.1L59.1,93.3z M59.1,92.6c-0.1,0-0.4,0-0.4,0.2s0.2,0.3,0.3,0.4L59.1,92.6z"
			/>
		<path class="st8" d="M58.4,90.7l1.4,0.3c0.1,0,0.2,0,0.3,0.1v0.2h-0.2l0,0c0.1,0.1,0.2,0.3,0.1,0.4c-0.1,0.3-0.3,0.5-0.7,0.4
			c-0.4-0.1-0.6-0.4-0.5-0.7c0-0.2,0.1-0.3,0.3-0.3l0,0L58.4,91L58.4,90.7z M59.3,91.2L59.3,91.2c-0.2,0-0.4,0.1-0.4,0.2
			c0,0.2,0.1,0.4,0.4,0.4c0.2,0.1,0.5,0,0.5-0.3c0-0.1,0-0.3-0.2-0.4h-0.1L59.3,91.2z"/>
		<path class="st8" d="M58.7,89.4l0.1-0.2l0.7,0.2l0,0c-0.1-0.1-0.1-0.3-0.1-0.5c0.1-0.3,0.4-0.4,0.7-0.3c0.4,0.1,0.5,0.4,0.5,0.7
			c0,0.2-0.2,0.3-0.3,0.3l0,0l0.2,0.1l-0.1,0.2c-0.1,0-0.2-0.1-0.3-0.1L58.7,89.4z M60,89.6L60,89.6c0.2,0,0.4-0.1,0.4-0.2
			c0.1-0.2-0.1-0.4-0.3-0.5c-0.2-0.1-0.5,0-0.5,0.2c0,0.1,0,0.3,0.2,0.4h0.1L60,89.6z"/>
		<path class="st8" d="M59.7,87.9h0.8c0.1,0,0.2,0,0.3,0l0,0c-0.1,0-0.1-0.1-0.2-0.2L60,87.2l0.1-0.2l0.7,0.6
			c0.3,0.3,0.5,0.5,0.6,0.6s0.1,0.2,0,0.3h-0.2c0-0.1,0-0.1,0-0.2S61.1,88.1,61,88l0,0c0,0,0,0-0.1,0l-1.2,0.1L59.7,87.9z"/>
		<path class="st8" d="M60,85.8l0.1-0.2l1.4,0.6l0.3-0.7l0.2,0.1l-0.4,0.9L60,85.8z"/>
		<path class="st8" d="M60.8,84.4c0.1,0,0.1,0.1,0.1,0.2s-0.1,0.1-0.2,0.1s-0.1-0.1-0.1-0.2C60.7,84.4,60.7,84.3,60.8,84.4z
			 M62.1,85.2L61,84.7l0.1-0.2l1.1,0.5L62.1,85.2z"/>
		<path class="st8" d="M62.7,83.6c0.2,0.1,0.4,0.3,0.4,0.4c0,0.2,0,0.3-0.1,0.5c-0.1,0.1-0.2,0.3-0.3,0.3l-0.1-0.1
			c0.1,0,0.2-0.1,0.2-0.3c0.1-0.2,0.1-0.4-0.2-0.5l-0.1-0.1l0,0c0.1,0.1,0.1,0.3,0,0.4c-0.1,0.3-0.5,0.3-0.8,0.2
			c-0.4-0.2-0.4-0.5-0.3-0.8c0.1-0.2,0.2-0.2,0.4-0.2l0,0l-0.2-0.1l0.1-0.2c0.1,0,0.2,0.1,0.3,0.2L62.7,83.6z M62.2,83.5
			C62.1,83.5,62.1,83.5,62.2,83.5c-0.2-0.1-0.4,0-0.4,0.1c-0.1,0.2,0,0.4,0.2,0.5s0.4,0.1,0.5-0.1c0.1-0.1,0-0.3-0.1-0.4L62.2,83.5
			L62.2,83.5z"/>
		<path class="st8" d="M61.6,82.3l0.1-0.2l0.6,0.4l0,0c0-0.1-0.1-0.1-0.1-0.2s0-0.2,0.1-0.2c0.1-0.1,0.3-0.3,0.7-0.1l0.6,0.4
			l-0.1,0.2l-0.6-0.4c-0.2-0.1-0.3-0.1-0.4,0.1c-0.1,0.1,0,0.3,0,0.4c0,0,0,0,0.1,0.1l0.6,0.4l-0.1,0.2L61.6,82.3z"/>
		<path class="st8" d="M62.9,80.8l0.2,0.2l0.2-0.3l0.1,0.1l-0.2,0.3l0.5,0.4c0.1,0.1,0.2,0.1,0.3,0c0-0.1,0-0.1,0.1-0.1l0.1,0.1
			c0,0,0,0.1-0.1,0.2s-0.1,0.1-0.2,0.1c-0.1,0-0.2,0-0.3-0.1L63,81.3l-0.1,0.2l-0.1-0.1l0.1-0.2l-0.2-0.1L62.9,80.8z"/>
		<path class="st8" d="M64.7,80.8l-1.6-0.7l0.1-0.2l0.8,0.3c0.2,0.1,0.4,0.2,0.5,0.2l0,0c-0.1-0.1-0.2-0.3-0.4-0.5l-0.5-0.7l0.1-0.2
			l0.8,0.3c0.2,0.1,0.4,0.2,0.5,0.2l0,0c-0.1-0.1-0.3-0.3-0.4-0.5L64,78.3l0.1-0.2l1.1,1.4l-0.1,0.2l-0.8-0.3
			c-0.2-0.1-0.4-0.2-0.5-0.2l0,0c0.1,0.1,0.2,0.3,0.4,0.4l0.6,0.7L64.7,80.8z"/>
		<path class="st8" d="M66.1,78.5c0.1,0.1,0.2,0.1,0.2,0.2l-0.1,0.2l-0.1-0.1l0,0c0,0.1,0,0.3-0.1,0.4c-0.2,0.2-0.4,0.2-0.5,0.1
			c-0.2-0.2-0.2-0.5,0.1-0.8l0,0c-0.1-0.1-0.2-0.2-0.4,0c-0.1,0.1-0.1,0.2-0.1,0.3L65,78.7c0-0.1,0.1-0.3,0.2-0.4
			c0.2-0.3,0.5-0.2,0.7,0L66.1,78.5z M65.7,78.4c-0.2,0.2-0.3,0.4-0.1,0.6c0.1,0.1,0.2,0.1,0.3,0s0.1-0.3,0-0.4c0,0,0,0,0-0.1
			L65.7,78.4z"/>
		<path class="st8" d="M66.1,77.7c-0.1-0.1-0.2-0.2-0.3-0.2l0.1-0.1L66.1,77.7L66.1,77.7c-0.1-0.3-0.1-0.4,0-0.5l0,0l0.2,0.1
			c0,0,0,0-0.1,0.1S66.1,77.7,66.1,77.7c0.1,0.1,0.1,0.2,0.2,0.2l0.5,0.4l-0.1,0.2L66.1,77.7z"/>
		<path class="st8" d="M67,77.1c0.2,0.2,0.4,0.2,0.6,0c0.1-0.1,0.2-0.2,0.2-0.3l0.1,0.1c0,0.1-0.1,0.2-0.2,0.3
			c-0.3,0.3-0.6,0.3-0.9,0c-0.3-0.3-0.3-0.6-0.1-0.9c0.3-0.3,0.6-0.1,0.8,0l0.1,0.1L67,77.1z M67.4,76.5c-0.1-0.1-0.3-0.2-0.5,0
			s-0.1,0.4,0,0.5L67.4,76.5z"/>
		<path class="st8" d="M69.4,74.5c0.4,0.4,0.3,0.9,0,1.2c-0.3,0.3-0.8,0.2-1.1-0.1c-0.4-0.4-0.3-0.9,0-1.2
			C68.6,74,69.1,74.1,69.4,74.5z M68.4,75.3c0.2,0.3,0.6,0.4,0.9,0.2c0.3-0.2,0.2-0.6-0.1-0.9c-0.2-0.3-0.6-0.4-0.9-0.2
			C68.1,74.7,68.2,75.1,68.4,75.3z"/>
		<path class="st8" d="M69.8,74.2c-0.1-0.1-0.2-0.2-0.2-0.3l0.2-0.1l0.1,0.2l0,0c0-0.2,0-0.3,0.2-0.4c0.2-0.2,0.6-0.1,0.8,0.2
			c0.3,0.3,0.2,0.7,0,0.9c-0.1,0.1-0.3,0.1-0.4,0.1l0,0l0.4,0.5l-0.2,0.1L69.8,74.2z M70.2,74.3C70.2,74.3,70.2,74.4,70.2,74.3
			c0.2,0.2,0.4,0.2,0.5,0.1c0.2-0.1,0.2-0.4,0-0.6c-0.1-0.2-0.4-0.3-0.6-0.1C70,73.8,69.9,74,70,74.1v0.1L70.2,74.3z"/>
		<path class="st8" d="M70.9,72.5l0.2,0.2l0.3-0.2l0.1,0.1l-0.3,0.2l0.4,0.5c0.1,0.1,0.2,0.2,0.3,0.1l0.1-0.1l0.1,0.1L72,73.5
			c-0.1,0.1-0.2,0.1-0.2,0.1c-0.1,0-0.2-0.1-0.3-0.2L71,73l-0.2,0.1L70.7,73l0.2-0.1l-0.1-0.2L70.9,72.5z"/>
		<path class="st8" d="M72.9,72.2c0.2,0.4,0.1,0.7-0.2,0.9c-0.3,0.2-0.6,0.1-0.8-0.2c-0.2-0.3-0.1-0.7,0.2-0.9
			C72.4,71.8,72.7,71.9,72.9,72.2z M72.1,72.7c0.1,0.2,0.4,0.3,0.6,0.2c0.2-0.1,0.2-0.4,0.1-0.6c-0.1-0.2-0.3-0.3-0.6-0.2
			C72,72.3,72,72.5,72.1,72.7z"/>
		<path class="st8" d="M73.5,71.9c0.2,0.3,0.4,0.3,0.6,0.2c0.1-0.1,0.2-0.2,0.3-0.2l0.1,0.1c0,0.1-0.1,0.2-0.3,0.3
			c-0.3,0.2-0.6,0.1-0.8-0.2c-0.2-0.3-0.1-0.7,0.2-0.8c0.3-0.2,0.6,0,0.7,0.2v0.1L73.5,71.9z M74,71.5c-0.1-0.1-0.2-0.3-0.4-0.2
			c-0.2,0.1-0.2,0.3-0.1,0.5L74,71.5z"/>
		<path class="st8" d="M74.1,70.2l0.2-0.1l0.8,1.6l-0.2,0.1L74.1,70.2z"/>
		<path class="st8" d="M75.4,70.9c0.1,0.3,0.4,0.3,0.6,0.2c0.1-0.1,0.2-0.1,0.3-0.2l0.1,0.1c-0.1,0.1-0.2,0.2-0.3,0.2
			C75.8,71.4,75.5,71.2,75.4,70.9c-0.3-0.3-0.2-0.7,0.1-0.8c0.4-0.2,0.6,0.1,0.7,0.3v0.1L75.4,70.9z M75.9,70.5
			c-0.1-0.1-0.2-0.3-0.4-0.2c-0.2,0.1-0.2,0.3-0.2,0.5L75.9,70.5z"/>
		<path class="st8" d="M77.6,70.5c0,0-0.1,0.1-0.3,0.2c-0.3,0.1-0.6,0-0.8-0.3c-0.1-0.3,0-0.7,0.3-0.8c0.1-0.1,0.2-0.1,0.3-0.1v0.2
			c-0.1,0-0.1,0-0.3,0c-0.3,0.1-0.3,0.4-0.2,0.6c0.1,0.3,0.3,0.3,0.6,0.3c0.1,0,0.2-0.1,0.2-0.2L77.6,70.5z"/>
		<path class="st8" d="M77.8,68.9l0.1,0.3l0.3-0.1l0.1,0.2L78,69.4l0.2,0.6c0.1,0.1,0.1,0.2,0.2,0.2c0.1,0,0.1,0,0.1-0.1l0.1,0.2
			c0,0-0.1,0.1-0.2,0.1c-0.1,0-0.2,0-0.3,0s-0.1-0.1-0.2-0.3l-0.2-0.6l-0.2,0.1l-0.1-0.2l0.2-0.1l-0.1-0.2L77.8,68.9z"/>
		<path class="st8" d="M78.7,69.2c0-0.1-0.1-0.2-0.1-0.4l0.2-0.1l0.1,0.2l0,0c0-0.2,0.1-0.3,0.2-0.4c0,0,0,0,0.1,0l0.1,0.2
			c0,0,0,0-0.1,0c-0.1,0.1-0.2,0.2-0.2,0.4v0.1l0.2,0.6L79,70L78.7,69.2z"/>
		<path class="st8" d="M80.8,68.8c0.1,0.4-0.1,0.7-0.4,0.8c-0.3,0.1-0.6-0.1-0.7-0.4c-0.1-0.4,0.1-0.7,0.4-0.8
			C80.4,68.3,80.7,68.5,80.8,68.8z M79.9,69.1c0.1,0.3,0.3,0.4,0.5,0.3s0.3-0.3,0.2-0.6c-0.1-0.2-0.2-0.4-0.5-0.3
			C79.8,68.6,79.8,68.9,79.9,69.1z"/>
		<path class="st8" d="M81.2,68.4c0-0.1-0.1-0.2-0.1-0.3h0.2l0.1,0.2l0,0c0-0.1,0.1-0.3,0.3-0.3s0.4,0,0.5,0.4l0.2,0.7l-0.2,0.1
			L82,68.5c0-0.2-0.2-0.3-0.4-0.3c-0.1,0-0.2,0.2-0.2,0.3v0.1l0.2,0.7l-0.2,0.1L81.2,68.4z"/>
		<path class="st8" d="M82.9,67.4c0,0.1,0,0.1-0.1,0.2c-0.1,0-0.1,0-0.2-0.1c0-0.1,0-0.1,0.1-0.2C82.8,67.3,82.8,67.3,82.9,67.4z
			 M82.9,68.9l-0.2-1.2h0.2l0.2,1.2H82.9z"/>
		<path class="st8" d="M84.5,68.6c-0.1,0-0.2,0.1-0.3,0.1c-0.4,0.1-0.6-0.1-0.7-0.5c-0.1-0.4,0.2-0.7,0.5-0.7c0.1,0,0.2,0,0.3,0v0.2
			c-0.1,0-0.1,0-0.3,0c-0.3,0-0.4,0.3-0.4,0.5c0,0.3,0.2,0.4,0.5,0.4C84.2,68.6,84.3,68.5,84.5,68.6L84.5,68.6z"/>
		<path class="st8" d="M84.9,68.4c0.1,0,0.2,0.1,0.3,0.1c0.2,0,0.2-0.1,0.2-0.2s-0.1-0.1-0.2-0.2c-0.2-0.1-0.3-0.2-0.4-0.3
			c0-0.2,0.1-0.4,0.4-0.4c0.1,0,0.2,0,0.3,0v0.2c-0.1,0-0.1-0.1-0.3,0c-0.1,0-0.2,0.1-0.2,0.2s0.1,0.1,0.2,0.2
			c0.2,0.1,0.3,0.1,0.4,0.3c0,0.2-0.1,0.4-0.4,0.4c-0.1,0-0.3,0-0.3,0V68.4z"/>
		<path class="st8" d="M87.2,66.7c-0.2,0.3-0.3,0.6-0.3,1s0.2,0.8,0.4,1h-0.2c-0.2-0.2-0.4-0.5-0.4-1s0.1-0.8,0.3-1H87.2z"/>
		<path class="st8" d="M87.6,66.7c0.1,0,0.2,0,0.4,0s0.4,0,0.5,0.1s0.2,0.2,0.2,0.3c0,0.2,0,0.3-0.1,0.4s-0.3,0.2-0.5,0.2
			c-0.1,0-0.1,0-0.2,0v0.7h-0.2L87.6,66.7z M87.9,67.5c0,0,0.1,0,0.2,0c0.3,0,0.4-0.1,0.4-0.4c0-0.2-0.2-0.3-0.4-0.3
			c-0.1,0-0.2,0-0.2,0V67.5z"/>
		<path class="st8" d="M89.5,66.9v0.3h0.3v0.2h-0.3v0.7c0,0.1,0,0.2,0.2,0.2c0.1,0,0.1,0,0.1,0v0.2c0,0-0.1,0-0.2,0
			c-0.1,0-0.2,0-0.2-0.1c-0.1-0.1-0.1-0.2-0.1-0.3v-0.7h-0.2v-0.2h0.2V67L89.5,66.9z"/>
		<path class="st8" d="M90.3,67.2l0.2,0.7c0,0.1,0,0.2,0.1,0.3l0,0c0-0.1,0.1-0.2,0.1-0.2l0.3-0.7h0.2l-0.4,0.8
			c-0.2,0.4-0.3,0.6-0.5,0.7c-0.1,0.1-0.2,0.1-0.3,0.1v-0.2c0.1,0,0.1,0,0.2-0.1c0.1,0,0.1-0.1,0.2-0.2c0,0,0,0,0-0.1c0,0,0,0,0-0.1
			L90,67.1L90.3,67.2z"/>
		<path class="st8" d="M91.4,68.8c0.2-0.2,0.4-0.5,0.4-1c0-0.4-0.1-0.8-0.2-1h0.2c0.1,0.2,0.3,0.6,0.2,1c-0.1,0.5-0.3,0.8-0.4,1
			H91.4z"/>
		<path class="st8" d="M93.4,67.1h0.2l-0.2,1.5l0.7,0.1v0.2l-0.9-0.2L93.4,67.1z"/>
		<path class="st8" d="M95,67.5l-0.1,0.3l0.3,0.1v0.2L94.9,68l-0.1,0.6c0,0.1,0,0.2,0.1,0.3c0.1,0,0.1,0,0.1,0v0.2c0,0-0.1,0-0.2,0
			c-0.1,0-0.2-0.1-0.2-0.1c0-0.1,0-0.2,0-0.3l0.1-0.6h-0.2v-0.2h0.2v-0.2L95,67.5z"/>
		<path class="st8" d="M96.8,67.7l-0.4,1.4c0,0.1-0.1,0.2-0.1,0.3h-0.2v-0.2l0,0c-0.1,0.1-0.3,0.2-0.5,0.1c-0.3-0.1-0.4-0.4-0.4-0.7
			c0.1-0.4,0.4-0.6,0.7-0.5c0.2,0,0.3,0.2,0.3,0.3l0,0l0.2-0.7L96.8,67.7z M96.3,68.7C96.3,68.6,96.4,68.6,96.3,68.7
			c0-0.2-0.1-0.4-0.2-0.4c-0.2-0.1-0.4,0.1-0.5,0.4c-0.1,0.2,0,0.5,0.2,0.5c0.1,0,0.3,0,0.4-0.2v-0.1L96.3,68.7z"/>
		<path class="st8" d="M96.6,69.8c0.1-0.1,0.2-0.4,0.3-0.5h0.2c-0.1,0.2-0.3,0.4-0.4,0.5H96.6z"/>
		<path class="st8" d="M98.3,69.7c0.1,0.1,0.2,0.2,0.3,0.2c0.2,0.1,0.4,0,0.4-0.1c0.1-0.1,0-0.3-0.2-0.4c-0.2-0.2-0.3-0.4-0.3-0.6
			c0.1-0.2,0.4-0.4,0.7-0.2c0.2,0.1,0.3,0.1,0.3,0.2l-0.1,0.1c0,0-0.1-0.1-0.3-0.2s-0.3,0-0.4,0.1c-0.1,0.1,0,0.3,0.2,0.4
			c0.2,0.2,0.3,0.4,0.2,0.6s-0.3,0.4-0.7,0.3c-0.2-0.1-0.3-0.2-0.4-0.2L98.3,69.7z"/>
		<path class="st8" d="M100.8,70.3c-0.2,0.4-0.5,0.5-0.8,0.4s-0.4-0.4-0.3-0.8c0.2-0.4,0.5-0.5,0.8-0.4
			C100.8,69.7,100.9,70,100.8,70.3z M99.9,70c-0.1,0.2,0,0.5,0.2,0.6s0.4,0,0.5-0.3c0.1-0.2,0.1-0.5-0.2-0.6
			C100.2,69.6,100,69.8,99.9,70z"/>
		<path class="st8" d="M102,71.2c-0.1,0.1-0.1,0.2-0.1,0.3l-0.2-0.1l0.1-0.2l0,0c-0.1,0.1-0.3,0.1-0.5,0s-0.3-0.3-0.1-0.7l0.3-0.6
			l0.2,0.1l-0.3,0.6c-0.1,0.2-0.1,0.4,0.1,0.5c0.1,0.1,0.3,0,0.3-0.1c0,0,0-0.1,0.1-0.1l0.3-0.7l0.2,0.1L102,71.2z"/>
		<path class="st8" d="M103.2,70.6l-0.1,0.3l0.3,0.1l-0.1,0.1L103,71l-0.3,0.6c-0.1,0.1-0.1,0.2,0,0.3c0.1,0,0.1,0,0.1,0l-0.1,0.2
			c0,0-0.1,0-0.2-0.1c-0.1,0-0.1-0.1-0.2-0.2c0-0.1,0-0.2,0.1-0.3l0.3-0.6l-0.2-0.1l0.1-0.1l0.2,0.1l0.1-0.2L103.2,70.6z"/>
		<path class="st8" d="M104.1,70.7l0.2,0.1l-0.4,0.6l0,0c0.1,0,0.1-0.1,0.2-0.1c0.1,0,0.2,0,0.2,0.1c0.1,0.1,0.3,0.3,0.1,0.7
			l-0.4,0.6l-0.2-0.1l0.4-0.6c0.1-0.2,0.1-0.3-0.1-0.4c-0.1-0.1-0.3,0-0.4,0c0,0,0,0-0.1,0.1l-0.4,0.6l-0.2-0.1L104.1,70.7z"/>
		<path class="st8" d="M105.6,73.2l-0.4,0.3l-0.2-0.1l1.4-1l0.2,0.2l-0.5,1.7l-0.2-0.1l0.2-0.5L105.6,73.2z M106.2,73.4l0.1-0.5
			c0-0.1,0.1-0.2,0.1-0.3l0,0c-0.1,0.1-0.2,0.1-0.2,0.2l-0.4,0.3L106.2,73.4z"/>
		<path class="st8" d="M106.5,74.4l0.6-0.8l-0.1-0.1l0.1-0.1l0.1,0.1l0,0c0.1-0.1,0.2-0.2,0.4-0.2c0.1,0,0.2,0,0.3,0.1
			c0.1,0,0.1,0.1,0.1,0.1l-0.1,0.1c0,0,0-0.1-0.1-0.1c-0.1-0.1-0.3,0-0.4,0.1v0.1l0.2,0.2l-0.1,0.1l-0.2-0.2l-0.6,0.8L106.5,74.4z"
			/>
		<path class="st8" d="M107.7,74.3c0.1-0.1,0.2-0.2,0.2-0.3l0.1,0.1l-0.1,0.2l0,0c0.1-0.1,0.3-0.1,0.4,0l0,0l-0.1,0.2
			c0,0,0,0-0.1-0.1S107.8,74.3,107.7,74.3c0,0.1,0,0.1-0.1,0.2l-0.4,0.5l-0.2-0.1L107.7,74.3z"/>
		<path class="st8" d="M107.9,75.6l0.8-0.9l0.2,0.1l-0.8,0.9L107.9,75.6z M109.1,74.6c0,0.1-0.1,0.1-0.2,0c-0.1-0.1-0.1-0.1,0-0.2
			c0-0.1,0.1-0.1,0.2,0S109.2,74.6,109.1,74.6z"/>
		<path class="st8" d="M109.1,76.7c-0.1,0-0.2-0.1-0.3-0.2c-0.3-0.3-0.3-0.6,0-0.9s0.6-0.3,0.9,0c0.1,0.1,0.2,0.2,0.2,0.3l-0.2,0.1
			c0-0.1-0.1-0.1-0.1-0.2c-0.2-0.2-0.5-0.1-0.6,0c-0.2,0.2-0.2,0.5,0,0.6c0.1,0.1,0.2,0.1,0.2,0.1L109.1,76.7z"/>
		<path class="st8" d="M110.2,77.4c-0.1,0.1-0.1,0.1-0.2,0.2l-0.1-0.1l0.1-0.1l0,0c-0.1,0-0.3,0-0.4-0.1c-0.2-0.2-0.1-0.4,0-0.5
			c0.2-0.2,0.5-0.1,0.8,0.2l0,0c0.1-0.1,0.2-0.2,0-0.4c-0.1-0.1-0.2-0.1-0.3-0.2l0.1-0.1c0.1,0,0.2,0.1,0.4,0.2
			c0.3,0.3,0.1,0.5,0,0.7L110.2,77.4z M110.3,77.1c-0.2-0.2-0.4-0.3-0.6-0.2c-0.1,0.1-0.1,0.2,0,0.3c0.1,0.1,0.3,0.1,0.4,0.1
			c0,0,0,0,0.1,0L110.3,77.1z"/>
		<path class="st8" d="M115.5,83.3l-0.5,0.4c-0.1,0.1-0.2,0.2-0.3,0.3l0,0c0.1,0,0.3-0.1,0.4-0.1l0.6-0.1l0.1,0.2l-0.5,0.4
			c-0.1,0.1-0.2,0.2-0.3,0.3l0,0c0.1,0,0.2-0.1,0.4-0.1l0.6-0.1l0.1,0.2l-1.2,0.2l-0.1-0.2l0.4-0.4c0.1-0.1,0.2-0.2,0.3-0.3l0,0
			c-0.1,0-0.3,0.1-0.4,0.1l-0.6,0.1l-0.1-0.2l0.9-0.9L115.5,83.3z"/>
		<path class="st8" d="M116.5,85.2l-0.5,0.4c-0.1,0.1-0.2,0.2-0.3,0.2l0,0c0.1,0,0.3,0,0.4,0l0.6-0.1l0.1,0.2l-0.5,0.4
			c-0.1,0.1-0.2,0.2-0.3,0.3l0,0c0.1,0,0.2-0.1,0.4-0.1l0.6-0.1l0.1,0.2l-1.3,0.1l-0.1-0.2l0.5-0.4c0.1-0.1,0.2-0.2,0.3-0.3l0,0
			c-0.1,0-0.3,0-0.4,0.1h-0.6l-0.1-0.2l1-0.8L116.5,85.2z"/>
		<path class="st8" d="M117.2,87.1l-0.5,0.4c-0.1,0.1-0.2,0.1-0.3,0.2l0,0c0.1,0,0.3,0,0.4,0h0.6l0.1,0.2l-0.5,0.4
			c-0.1,0.1-0.2,0.2-0.3,0.2l0,0c0.1,0,0.3,0,0.4,0h0.6l0.1,0.2h-1.3l-0.1-0.2l0.5-0.4c0.1-0.1,0.2-0.2,0.3-0.2l0,0
			c-0.1,0-0.3,0-0.4,0h-0.6l-0.1-0.2l1-0.7L117.2,87.1z"/>
		<path class="st8" d="M116.8,89.2c0.1,0,0.2,0,0.2,0.1s0,0.2-0.1,0.2s-0.2,0-0.2-0.1C116.7,89.3,116.7,89.2,116.8,89.2z"/>
		<path class="st8" d="M118.6,89.5l0.1,0.2l-1.7,0.5l-0.1-0.2L118.6,89.5z"/>
		<path class="st8" d="M117.1,90.7l1.2-0.3l0.1,0.2l-1.2,0.3L117.1,90.7z M118.6,90.5c-0.1,0-0.1,0-0.2-0.1c0-0.1,0-0.1,0.1-0.2
			c0.1,0,0.1,0,0.2,0.1C118.7,90.5,118.7,90.5,118.6,90.5z"/>
		<path class="st8" d="M117.6,92.4c-0.3,0.1-0.4,0-0.6-0.1c-0.1-0.1-0.2-0.3-0.2-0.4s0-0.3,0-0.4h0.2c0,0.1-0.1,0.2,0,0.4
			c0,0.2,0.2,0.4,0.5,0.3h0.1l0,0c-0.1,0-0.2-0.2-0.3-0.3c-0.1-0.3,0.1-0.6,0.5-0.6c0.4-0.1,0.7,0.1,0.7,0.4c0,0.2,0,0.3-0.1,0.4
			l0,0h0.2v0.2c-0.1,0-0.2,0-0.3,0.1H117.6z M118.1,92C118.1,92,118.2,92,118.1,92c0.2-0.1,0.3-0.2,0.3-0.4c0-0.2-0.2-0.3-0.5-0.3
			c-0.2,0-0.4,0.2-0.4,0.4c0,0.1,0.1,0.2,0.3,0.3h0.1H118.1z"/>
		<path class="st8" d="M119.3,92.7v0.2l-0.7,0.1l0,0c0.1,0,0.1,0.1,0.2,0.1c0,0.1,0.1,0.1,0.1,0.2c0,0.2,0,0.4-0.4,0.5l-0.7,0.1
			v-0.2l0.7-0.1c0.2,0,0.3-0.1,0.3-0.3c0-0.1-0.1-0.2-0.3-0.3h-0.1l-0.7,0.1v-0.2L119.3,92.7z"/>
		<path class="st8" d="M119.2,94.6h-0.3v0.3h-0.2v-0.3l-0.6,0.1c-0.1,0-0.2,0.1-0.2,0.2s0,0.1,0,0.1h-0.2c0,0,0-0.1,0-0.2
			s0-0.2,0.1-0.2c0.1-0.1,0.2-0.1,0.3-0.1l0.7-0.1v-0.2h0.2v0.2h0.2V94.6z"/>
		<path class="st8" d="M119,95.5l-0.6,0.2c-0.1,0-0.3,0.1-0.4,0.1l0,0c0.1,0,0.3,0.1,0.4,0.1l0.6,0.2v0.2l-0.6,0.2
			c-0.1,0.1-0.3,0.1-0.4,0.1l0,0c0.1,0,0.3,0,0.4,0.1l0.6,0.1V97l-1.2-0.3v-0.2l0.6-0.2c0.1,0,0.2-0.1,0.4-0.1l0,0
			c-0.1,0-0.3-0.1-0.4-0.1l-0.6-0.2v-0.2l1.2-0.4V95.5z"/>
		<path class="st8" d="M118.2,98.3c-0.1,0-0.2,0-0.3,0v-0.2h0.2l0,0c-0.1-0.1-0.2-0.2-0.2-0.4c0-0.2,0.2-0.4,0.3-0.4
			c0.3,0,0.4,0.3,0.4,0.7l0,0c0.1,0,0.3,0,0.3-0.3c0-0.1,0-0.2-0.1-0.3h0.1c0.1,0.1,0.1,0.2,0.1,0.4c0,0.4-0.3,0.5-0.5,0.5
			L118.2,98.3z M118.5,98.1c0-0.2,0-0.5-0.3-0.5c-0.1,0-0.2,0.1-0.2,0.2c0,0.2,0.1,0.3,0.2,0.3h0.1H118.5z"/>
		<path class="st8" d="M118.7,98.9c0.1,0,0.3,0,0.4,0v0.2h-0.2l0,0c0.2,0.1,0.3,0.2,0.2,0.3c0,0,0,0,0,0.1h-0.2c0,0,0,0,0-0.1
			c0-0.2-0.1-0.3-0.3-0.3h-0.1h-0.6v-0.2H118.7z"/>
		<path class="st8" d="M118.4,100c-0.3,0-0.4,0.2-0.5,0.4c0,0.2,0,0.3,0,0.3h-0.2c0-0.1-0.1-0.2,0-0.4c0-0.4,0.3-0.6,0.7-0.5
			c0.4,0,0.6,0.3,0.6,0.6c0,0.4-0.4,0.5-0.6,0.4h-0.1L118.4,100z M118.5,100.6c0.1,0,0.4,0,0.4-0.3c0-0.2-0.2-0.3-0.3-0.4
			L118.5,100.6z"/>
		<path class="st8" d="M117.8,101.1c0.1,0,0.1,0.1,0.1,0.2s-0.1,0.1-0.2,0.1c-0.1,0-0.1-0.1-0.1-0.2
			C117.6,101.2,117.7,101.1,117.8,101.1z"/>
		<path class="st8" d="M117.5,102.7c0-0.1,0-0.2,0-0.4c0.1-0.4,0.3-0.6,0.7-0.5s0.6,0.4,0.5,0.7c0,0.1-0.1,0.2-0.1,0.3l-0.2-0.1
			c0,0,0.1-0.1,0.1-0.2c0-0.3-0.1-0.5-0.4-0.5c-0.3,0-0.5,0.1-0.5,0.3c0,0.1,0,0.2,0,0.3L117.5,102.7z"/>
		<path class="st8" d="M117.8,104.3c-0.4-0.1-0.6-0.4-0.5-0.7c0.1-0.3,0.4-0.5,0.7-0.4c0.4,0.1,0.6,0.4,0.5,0.7
			S118.1,104.4,117.8,104.3z M117.9,103.4c-0.3-0.1-0.5,0.1-0.5,0.3c0,0.2,0.1,0.4,0.4,0.5c0.2,0,0.5,0,0.5-0.3
			C118.4,103.6,118.2,103.4,117.9,103.4z"/>
		<path class="st8" d="M117.2,104.5c0.1,0,0.1,0.1,0.1,0.2s-0.1,0.1-0.2,0.1c-0.1,0-0.1-0.1-0.1-0.2S117.1,104.5,117.2,104.5z"/>
		<path class="st8" d="M117.1,105.1l0.5,0.7c0,0.1,0.1,0.1,0.1,0.2l0,0l0.2-0.6h0.2l-0.2,0.9h-0.1l-0.5-0.7
			c-0.1-0.1-0.1-0.1-0.1-0.2l0,0l-0.2,0.7h-0.2L117.1,105.1L117.1,105.1z"/>
		<path class="st8" d="M116.6,107.3c-0.1,0-0.2-0.1-0.3-0.1l0.1-0.2h0.1l0,0c-0.1-0.1-0.1-0.2-0.1-0.4c0.1-0.2,0.3-0.3,0.4-0.2
			c0.3,0.1,0.3,0.4,0.2,0.8l0,0c0.1,0,0.3,0.1,0.3-0.2c0-0.1,0-0.2,0-0.3h0.2c0,0.1,0,0.3,0,0.4c-0.1,0.4-0.4,0.4-0.6,0.3
			L116.6,107.3z M116.9,107.2c0.1-0.2,0.1-0.5-0.1-0.6c-0.1,0-0.2,0-0.3,0.1c0,0.2,0,0.3,0.1,0.3c0,0,0,0,0.1,0L116.9,107.2z"/>
	</g>
	<g>
		<path class="st8" d="M77.1,122.9c0,0,0,0.1,0.1,0.2s0.2,0.2,0.3,0.2l2,0.8c0.5,0.2,0.9,0.5,1.1,1c0.2,0.4,0.2,0.8,0,1.2
			c-0.2,0.4-0.4,0.7-0.8,0.9c-0.4,0.2-0.9,0.2-1.4,0l-3.9-1.5l0.4-1l3.6,1.4c0.1,0.1,0.3,0.1,0.4,0c0.1-0.1,0.2-0.1,0.2-0.3
			c0-0.1,0-0.2,0-0.3c-0.1-0.1-0.1-0.2-0.3-0.3l-2-0.8c-0.5-0.2-0.9-0.5-1.1-1c-0.2-0.4-0.2-0.7-0.1-0.9v-0.1L77.1,122.9z
			 M77.8,122.4c-0.1,0-0.3,0-0.4,0h-0.1l-1.5-0.6c0.1-0.2,0.3-0.4,0.7-0.6s0.9-0.2,1.5,0l3.8,1.5l-0.4,1l-1.6-0.6L77.8,122.4z"/>
		<path class="st8" d="M83.6,128.4l-1.5-0.2l0.2-1.6l0.2-1.9l1.5,0.2v0.2l4.2,0.5l-0.1,1.1l-4.1-0.5L83.6,128.4z M86.7,124.6
			l-2.1-0.2c-0.2,0-0.3,0-0.4,0.1h-0.1l-1.5-0.2c0-0.2,0.2-0.5,0.5-0.8c0.4-0.3,0.8-0.4,1.4-0.4l3.8,0.4l-0.1,1.1H86.7z"/>
		<path class="st8" d="M90.9,124.8l-1.4,0.2l-0.2-1.3l1.4-0.2L90.9,124.8z M94.1,128.4l-0.3-2.1l-2.7,0.4l-1.4,0.2l-0.2-1.4l1.4-0.2
			v0.2l2.7-0.4v-0.2l1.5-0.2l0.5,3.4L94.1,128.4z M94.8,122.9l0.2,1.3l-1.4,0.2l-0.2-1.3L94.8,122.9z"/>
		<path class="st8" d="M98.9,121.4c0.5-0.2,0.9-0.3,1.4-0.2c0.4,0.1,0.8,0.3,1.1,0.5l-1.6,0.7c-0.2-0.1-0.4-0.1-0.7,0.1l-0.5,0.2
			c-0.3,0.1-0.5,0.3-0.6,0.5l-1.6,0.7c0-0.4,0.2-0.8,0.4-1.2c0.3-0.4,0.6-0.7,1.1-0.9l0.3-0.1L98.9,121.4z M100.2,125.4
			c0.3-0.1,0.5-0.4,0.6-0.8c0.1-0.3,0-0.7-0.1-1.1c-0.2-0.4-0.3-0.6-0.4-0.7l1.4-0.6c0.1,0.1,0.3,0.3,0.4,0.8
			c0.2,0.4,0.3,0.8,0.2,1.3c0,0.4-0.1,0.9-0.4,1.2c-0.3,0.4-0.6,0.7-1.1,0.9l-0.7,0.3c-0.5,0.2-1,0.3-1.4,0.2
			c-0.4-0.1-0.8-0.3-1.1-0.6c-0.3-0.3-0.6-0.6-0.7-1.1c-0.2-0.4-0.3-0.7-0.2-0.8l1.4-0.6c0,0.1,0.1,0.4,0.2,0.7
			c0.2,0.4,0.4,0.7,0.7,0.9c0.3,0.2,0.6,0.3,1,0.1l0.1-0.1L100.2,125.4z"/>
	</g>
	<g>
		<path class="st8" d="M76.9,63.3l0.2-0.1l0.4,1.3l0.6-0.2l0.1,0.2l-0.8,0.3L76.9,63.3z"/>
		<path class="st8" d="M78.4,63.8v0.5l-0.2,0.1l0.1-1.6l0.2-0.1l0.9,1.3l-0.2,0.1l-0.3-0.4L78.4,63.8z M78.9,63.6l-0.3-0.4
			c-0.1-0.1-0.1-0.2-0.2-0.2l0,0c0,0.1,0,0.2,0,0.3v0.5L78.9,63.6z"/>
		<path class="st8" d="M79.3,62.5c0.1,0,0.2-0.1,0.3-0.1c0.2,0,0.3,0,0.4,0c0.1,0,0.2,0.1,0.2,0.2c0,0.1,0,0.3-0.2,0.4l0,0
			c0.1,0,0.3,0.1,0.4,0.3c0,0.1,0,0.2-0.1,0.3s-0.2,0.2-0.5,0.3c-0.1,0-0.2,0.1-0.3,0.1L79.3,62.5z M79.6,63.1h0.2
			c0.2-0.1,0.3-0.2,0.3-0.3c0-0.2-0.2-0.2-0.4-0.2c-0.1,0-0.1,0-0.2,0.1L79.6,63.1z M79.8,63.8c0,0,0.1,0,0.2,0
			c0.2-0.1,0.4-0.2,0.3-0.4c-0.1-0.2-0.2-0.2-0.5-0.2h-0.2L79.8,63.8z"/>
		<path class="st8" d="M80.6,63.8l0.2-1.7H81L80.6,63.8L80.6,63.8z"/>
		<path class="st8" d="M81.2,62h0.2l0.3,1.3l0.6-0.1v0.2l-0.8,0.2L81.2,62z"/>
		<path class="st8" d="M82.7,63.3l-0.6-1.4h0.2l0.3,0.7c0.1,0.2,0.1,0.4,0.2,0.5l0,0c0-0.2,0-0.3,0-0.5l0.1-0.8h0.2l0.3,0.7
			c0.1,0.2,0.1,0.3,0.2,0.5l0,0c0-0.2,0-0.3,0-0.5l0.1-0.8h0.2l-0.2,1.6h-0.2l-0.3-0.7c-0.1-0.2-0.1-0.3-0.2-0.5l0,0
			c0,0.2,0,0.3,0,0.5l-0.1,0.8L82.7,63.3z"/>
		<path class="st8" d="M84.1,63.2l0.4-1.7h0.2l-0.4,1.7H84.1z"/>
		<path class="st8" d="M85,62.7c0.1,0,0.2,0.1,0.4,0.1s0.3-0.1,0.3-0.3c0-0.1-0.1-0.2-0.3-0.3C85.1,62.1,85,62,85,61.8
			s0.2-0.4,0.4-0.5c0.2,0,0.3,0,0.3,0v0.2c0,0-0.2-0.1-0.3,0c-0.2,0-0.3,0.1-0.3,0.3c0,0.1,0.1,0.2,0.3,0.3c0.3,0.1,0.4,0.2,0.4,0.4
			S85.7,63,85.3,63c-0.1,0-0.3,0-0.4-0.1L85,62.7z"/>
		<path class="st8" d="M86,61.4l0.8-0.1v0.2h-0.6V62h0.6v0.2h-0.6v0.7H86V61.4z"/>
		<path class="st8" d="M87.8,62.8v-0.4h-0.7v-0.1l0.6-0.9h0.2v0.9h0.2v0.2h-0.2v0.4L87.8,62.8z M87.7,62.3v-0.5c0-0.1,0-0.2,0-0.2
			l0,0c0,0.1-0.1,0.1-0.1,0.2l-0.3,0.5l0,0H87.7z"/>
		<path class="st8" d="M89.3,62.1c0,0.5-0.2,0.8-0.5,0.8s-0.5-0.3-0.5-0.8s0.2-0.8,0.5-0.8S89.3,61.6,89.3,62.1z M88.5,62.1
			c0,0.4,0.1,0.6,0.3,0.6s0.3-0.2,0.3-0.6c0-0.4-0.1-0.6-0.3-0.6S88.5,61.7,88.5,62.1z"/>
		<path class="st8" d="M90.2,61.3l-0.1,1.5h-0.2l0.1-1.5H90.2z"/>
		<path class="st8" d="M90.6,61.4c0.1,0,0.3,0,0.4,0c0.3,0,0.5,0.1,0.6,0.2c0.1,0.1,0.2,0.3,0.2,0.6c0,0.2-0.1,0.4-0.3,0.6
			c-0.2,0.1-0.4,0.2-0.7,0.2c-0.1,0-0.3,0-0.4,0L90.6,61.4z M90.7,62.7c0,0,0.1,0,0.2,0c0.4,0,0.7-0.2,0.7-0.6
			c0-0.4-0.2-0.6-0.6-0.6c-0.1,0-0.2,0-0.2,0L90.7,62.7z"/>
		<path class="st8" d="M91.9,62.8c0-0.1,0.1-0.1,0.1-0.1c0.1,0,0.1,0.1,0.1,0.2C92.1,63,92,63,92,63S91.9,62.9,91.9,62.8z M92,62.1
			c0-0.1,0.1-0.1,0.1-0.1c0.1,0,0.1,0.1,0.1,0.2c0,0.1-0.1,0.1-0.1,0.1C92.1,62.2,92,62.1,92,62.1z"/>
		<path class="st8" d="M93.6,61.6c0.1,0,0.2,0,0.4,0s0.3,0.1,0.4,0.2c0.1,0.1,0.1,0.2,0.1,0.3c0,0.2-0.2,0.3-0.3,0.3l0,0
			c0.1,0.1,0.2,0.2,0.2,0.3c0,0.2,0,0.4,0.1,0.4h-0.2c0,0,0-0.2,0-0.4s-0.1-0.3-0.3-0.3h-0.2L93.7,63h-0.2L93.6,61.6z M93.7,62.4
			h0.2c0.2,0,0.4-0.1,0.4-0.2c0-0.2-0.1-0.3-0.3-0.3c-0.1,0-0.2,0-0.2,0L93.7,62.4z"/>
		<path class="st8" d="M94.7,62.8c0,0.3,0.1,0.4,0.3,0.4c0.1,0,0.2,0,0.3,0v0.1c-0.1,0-0.2,0-0.4,0c-0.3-0.1-0.5-0.3-0.4-0.6
			s0.3-0.5,0.6-0.5c0.4,0.1,0.4,0.4,0.3,0.6v0.1L94.7,62.8z M95.3,62.8c0-0.1,0-0.3-0.2-0.4c-0.2,0-0.3,0.1-0.4,0.3L95.3,62.8z"/>
		<path class="st8" d="M95.9,62.5l0.1,0.6c0,0.1,0,0.2,0,0.3l0,0c0-0.1,0.1-0.2,0.1-0.3l0.3-0.5h0.2l-0.6,1h-0.2l-0.2-1.1H95.9z"/>
		<path class="st8" d="M97.8,62.7L97.8,62.7l-0.3,0.1v-0.2l0.4-0.1h0.2l-0.4,1.4h-0.2L97.8,62.7z"/>
	</g>
</g>
<g>
	<path class="st6" d="M224.5,120c-1.3,0-2.3-1.1-2.3-2.4s1-2.4,2.3-2.4s2.3,1.1,2.3,2.4C226.8,119,225.8,120,224.5,120z"/>
	<polygon class="st12" points="223.2,116.9 224.5,116.1 225.8,116.9 225.8,118.4 224.5,119.2 223.2,118.4 	"/>
</g>
<g>
	<path class="st6" d="M224.5,79.9c-1.3,0-2.3-1-2.3-2.3s1-2.3,2.3-2.3s2.3,1,2.3,2.3C226.8,78.8,225.8,79.9,224.5,79.9z"/>
	<polygon class="st12" points="223.2,76.8 224.5,76 225.8,76.8 225.8,78.3 224.5,79.1 223.2,78.3 	"/>
</g>
<g>
	<g>
		<line class="st13" x1="152.2" y1="48.7" x2="152.2" y2="146.7"/>
		<g>
			<polygon class="st12" points="152.2,46.9 151.2,49.4 152.2,48.8 153.3,49.4 			"/>
		</g>
		<g>
			<polygon class="st12" points="152.2,148.4 151.2,145.9 152.2,146.5 153.3,145.9 			"/>
		</g>
	</g>
</g>
<line class="st14" x1="155.6" y1="148.8" x2="88.5" y2="148.8"/>
<line class="st14" x1="155.6" y1="46.4" x2="88.6" y2="46.4"/>
<g>
	<path class="st12" d="M145.6,106.9h0.4l4.1,2v0.6l-4-2l0,0v2.2h-0.5V106.9z"/>
	<path class="st12" d="M149.7,105.9c0-0.1,0-0.3,0-0.5c0-0.4-0.2-0.7-0.4-1c-0.3-0.3-0.7-0.5-1.2-0.6l0,0c0.3,0.3,0.5,0.6,0.5,1.1
		c0,0.8-0.6,1.3-1.4,1.3c-0.9,0-1.6-0.6-1.6-1.6s0.7-1.5,1.9-1.5c1,0,1.7,0.3,2.1,0.8c0.3,0.4,0.6,0.8,0.6,1.3c0,0.2,0,0.4,0,0.6
		L149.7,105.9L149.7,105.9z M147.1,105.6c0.6,0,1-0.3,1-0.9c0-0.4-0.2-0.7-0.5-0.9c-0.1,0-0.1-0.1-0.2-0.1c-0.8,0-1.4,0.3-1.4,0.9
		C146,105.3,146.4,105.6,147.1,105.6z"/>
	<path class="st12" d="M145.3,99.6c0.7,0.5,1.6,0.9,2.9,0.9c1.2,0,2.1-0.4,2.8-0.9v0.5c-0.6,0.4-1.5,0.9-2.8,0.9
		c-1.4,0-2.3-0.5-2.9-0.9V99.6z"/>
	<path class="st12" d="M149.4,99c0.1-0.2,0.3-0.6,0.3-1c0-0.8-0.5-1-0.9-1c-0.6,0-0.9,0.6-0.9,1.2v0.3h-0.5v-0.3c0-0.4-0.2-1-0.8-1
		c-0.4,0-0.7,0.2-0.7,0.8c0,0.4,0.2,0.7,0.3,0.9l-0.4,0.2c-0.2-0.2-0.4-0.7-0.4-1.2c0-0.9,0.5-1.3,1.1-1.3c0.5,0,0.9,0.3,1.1,0.8
		l0,0c0.1-0.6,0.5-1,1.2-1s1.4,0.6,1.4,1.7c0,0.5-0.2,1-0.3,1.2L149.4,99z"/>
	<path class="st12" d="M149.8,95.5c-0.3,0-0.4-0.2-0.4-0.4c0-0.2,0.2-0.4,0.4-0.4c0.3,0,0.4,0.2,0.4,0.4S150,95.5,149.8,95.5z"/>
	<path class="st12" d="M146.2,92.8L146.2,92.8l0.4,0.8l-0.5,0.1l-0.5-1v-0.5h4.6v0.6H146.2z"/>
	<path class="st12" d="M146.2,89.2L146.2,89.2l0.4,0.8l-0.5,0.1l-0.5-1v-0.5h4.6v0.6H146.2z"/>
	<path class="st12" d="M151,87.1c-0.7-0.5-1.6-0.9-2.9-0.9c-1.3,0-2.1,0.4-2.9,0.9v-0.5c0.6-0.4,1.5-0.9,2.9-0.9s2.3,0.5,2.9,0.9
		V87.1z"/>
</g>
<g>
	<g>
		<line class="st13" x1="258.4" y1="160.9" x2="174" y2="160.9"/>
		<g>
			<polygon class="st12" points="260.2,160.9 257.7,159.8 258.3,160.9 257.7,161.9 			"/>
		</g>
		<g>
			<polygon class="st12" points="172.3,160.9 174.8,159.8 174.2,160.9 174.8,161.9 			"/>
		</g>
	</g>
</g>
<line class="st14" x1="171.9" y1="164.2" x2="171.9" y2="144.6"/>
<line class="st14" x1="260.6" y1="164.3" x2="260.6" y2="135.1"/>
<g>
	<path class="st12" d="M232.4,158.7v-0.4l0.5-0.5c1.2-1.1,1.7-1.7,1.7-2.4c0-0.5-0.2-0.9-0.9-0.9c-0.4,0-0.8,0.2-1,0.4l-0.2-0.4
		c0.3-0.3,0.8-0.5,1.3-0.5c1,0,1.4,0.7,1.4,1.3c0,0.8-0.6,1.5-1.6,2.4l-0.4,0.3l0,0h2v0.5h-2.8V158.7z"/>
	<path class="st12" d="M238.6,154.6c-0.1,0-0.3,0-0.5,0c-1,0.2-1.5,0.9-1.6,1.6l0,0c0.2-0.3,0.6-0.5,1.1-0.5c0.8,0,1.4,0.6,1.4,1.5
		c0,0.8-0.6,1.6-1.5,1.6c-1,0-1.6-0.8-1.6-1.9c0-0.9,0.3-1.6,0.8-2.1c0.4-0.4,0.9-0.6,1.5-0.7c0.2,0,0.3,0,0.4,0L238.6,154.6
		L238.6,154.6z M238.4,157.2c0-0.7-0.4-1-0.9-1c-0.4,0-0.7,0.2-0.9,0.6c0,0.1-0.1,0.2-0.1,0.3c0,0.7,0.4,1.3,1,1.3
		C238.1,158.3,238.4,157.9,238.4,157.2z"/>
	<path class="st12" d="M242.6,153.9c-0.5,0.7-0.9,1.6-0.9,2.9c0,1.2,0.4,2.1,0.9,2.8h-0.5c-0.4-0.6-0.9-1.5-0.9-2.8
		c0-1.4,0.5-2.3,0.9-2.9H242.6z"/>
	<path class="st12" d="M244.4,154.8L244.4,154.8l-0.8,0.4l-0.1-0.5l1-0.5h0.5v4.6h-0.6V154.8z"/>
	<path class="st12" d="M246.7,158.4c0-0.3,0.2-0.4,0.4-0.4c0.2,0,0.4,0.2,0.4,0.4c0,0.3-0.2,0.4-0.4,0.4
		C246.9,158.8,246.7,158.6,246.7,158.4z"/>
	<path class="st12" d="M251.2,156.4c0,1.5-0.6,2.4-1.6,2.4c-0.9,0-1.5-0.8-1.5-2.3s0.7-2.4,1.6-2.4
		C250.6,154.1,251.2,155,251.2,156.4z M248.7,156.5c0,1.2,0.4,1.9,0.9,1.9c0.6,0,0.9-0.7,0.9-1.9c0-1.1-0.3-1.9-0.9-1.9
		C249.1,154.6,248.7,155.2,248.7,156.5z"/>
	<path class="st12" d="M251.7,158.7v-0.4l0.5-0.5c1.2-1.1,1.7-1.7,1.7-2.4c0-0.5-0.2-0.9-0.9-0.9c-0.4,0-0.8,0.2-1,0.4l-0.2-0.4
		c0.3-0.3,0.8-0.5,1.3-0.5c1,0,1.4,0.7,1.4,1.3c0,0.8-0.6,1.5-1.6,2.4l-0.4,0.3l0,0h2v0.5h-2.8V158.7z"/>
	<path class="st12" d="M255.1,159.6c0.5-0.7,0.9-1.6,0.9-2.9c0-1.3-0.4-2.1-0.9-2.9h0.5c0.4,0.6,0.9,1.5,0.9,2.9s-0.5,2.3-0.9,2.9
		H255.1z"/>
</g>
<g>
	<g>
		<line class="st13" x1="295.6" y1="57.1" x2="295.6" y2="138.2"/>
		<g>
			<polygon class="st12" points="295.6,55.3 294.5,57.8 295.6,57.2 296.6,57.8 			"/>
		</g>
		<g>
			<polygon class="st12" points="295.6,140 294.5,137.5 295.6,138.1 296.6,137.5 			"/>
		</g>
	</g>
</g>
<line class="st14" x1="299" y1="54.9" x2="255.5" y2="54.9"/>
<g>
	<path class="st12" d="M289.3,107.2c0,0.1,0,0.3,0,0.5c0.2,1,0.9,1.5,1.6,1.6l0,0c-0.3-0.2-0.5-0.6-0.5-1.1c0-0.8,0.6-1.4,1.5-1.4
		c0.8,0,1.6,0.6,1.6,1.5c0,1-0.8,1.6-1.9,1.6c-0.9,0-1.6-0.3-2.1-0.8c-0.4-0.4-0.6-0.9-0.7-1.5c0-0.2,0-0.3,0-0.4
		C288.8,107.2,289.3,107.2,289.3,107.2z M292,107.4c-0.7,0-1,0.4-1,0.9c0,0.4,0.2,0.7,0.6,0.9c0.1,0,0.2,0.1,0.3,0.1
		c0.7,0,1.3-0.4,1.3-1C293,107.7,292.6,107.4,292,107.4z"/>
	<path class="st12" d="M289.3,103.6c0,0.1,0,0.3,0,0.5c0.2,1,0.9,1.5,1.6,1.6l0,0c-0.3-0.2-0.5-0.6-0.5-1.1c0-0.8,0.6-1.4,1.5-1.4
		c0.8,0,1.6,0.6,1.6,1.5c0,1-0.8,1.6-1.9,1.6c-0.9,0-1.6-0.3-2.1-0.8c-0.4-0.4-0.6-0.9-0.7-1.5c0-0.2,0-0.3,0-0.4
		C288.8,103.6,289.3,103.6,289.3,103.6z M292,103.8c-0.7,0-1,0.4-1,0.9c0,0.4,0.2,0.7,0.6,0.9c0.1,0,0.2,0.1,0.3,0.1
		c0.7,0,1.3-0.4,1.3-1C293,104.1,292.6,103.8,292,103.8z"/>
	<path class="st12" d="M288.6,99.6c0.7,0.5,1.6,0.9,2.9,0.9c1.2,0,2.1-0.4,2.8-0.9v0.5c-0.6,0.4-1.5,0.9-2.8,0.9
		c-1.4,0-2.3-0.5-2.9-0.9V99.6z"/>
	<path class="st12" d="M293.4,99.1H293l-0.5-0.5c-1.1-1.2-1.7-1.7-2.4-1.7c-0.5,0-0.9,0.2-0.9,0.9c0,0.4,0.2,0.8,0.4,1l-0.4,0.2
		c-0.3-0.3-0.5-0.8-0.5-1.3c0-1,0.7-1.4,1.3-1.4c0.8,0,1.5,0.6,2.4,1.6l0.3,0.4l0,0v-2h0.5v2.8H293.4z"/>
	<path class="st12" d="M293.1,95.5c-0.3,0-0.4-0.2-0.4-0.4c0-0.2,0.2-0.4,0.4-0.4c0.3,0,0.4,0.2,0.4,0.4S293.3,95.5,293.1,95.5z"/>
	<path class="st12" d="M289.4,91.4v1.7l1.2,0.2c0-0.1,0-0.2,0-0.4c0-0.4,0.1-0.7,0.2-1c0.2-0.4,0.6-0.7,1.2-0.7
		c0.9,0,1.6,0.7,1.6,1.7c0,0.5-0.1,0.9-0.3,1.1l-0.5-0.2c0.1-0.2,0.3-0.6,0.3-1c0-0.6-0.4-1.1-1-1.1s-1,0.4-1,1.3c0,0.3,0,0.5,0,0.6
		l-2.2-0.3v-2.2h0.5V91.4z"/>
	<path class="st12" d="M293,90.1c0-0.1,0-0.3,0-0.5c0-0.4-0.2-0.7-0.4-1c-0.3-0.3-0.7-0.5-1.2-0.6l0,0c0.3,0.3,0.5,0.6,0.5,1.1
		c0,0.8-0.6,1.3-1.4,1.3c-0.9,0-1.6-0.6-1.6-1.6c0-0.9,0.7-1.5,1.9-1.5c1,0,1.7,0.3,2.1,0.8c0.3,0.4,0.6,0.8,0.6,1.3
		c0,0.2,0,0.4,0,0.6L293,90.1L293,90.1z M290.4,89.9c0.6,0,1-0.3,1-0.9c0-0.4-0.2-0.7-0.5-0.9c-0.1,0-0.1-0.1-0.2-0.1
		c-0.8,0-1.4,0.3-1.4,0.9S289.7,89.9,290.4,89.9z"/>
	<path class="st12" d="M294.3,87.1c-0.7-0.5-1.6-0.9-2.9-0.9s-2.1,0.4-2.9,0.9v-0.5c0.6-0.4,1.5-0.9,2.9-0.9s2.3,0.5,2.9,0.9V87.1z"
		/>
</g>
<g>
	<g>
		<line class="st13" x1="308.3" y1="51.4" x2="308.3" y2="143.8"/>
		<g>
			<polygon class="st12" points="308.3,49.6 307.3,52.1 308.3,51.5 309.3,52.1 			"/>
		</g>
		<g>
			<polygon class="st12" points="308.3,145.6 307.3,143.1 308.3,143.7 309.3,143.1 			"/>
		</g>
	</g>
</g>
<line class="st14" x1="311.7" y1="49.2" x2="230.3" y2="49.2"/>
<g>
	<path class="st12" d="M301.6,106.8h0.4l4.1,2v0.6l-4-2l0,0v2.2h-0.5V106.8z"/>
	<path class="st12" d="M302.1,103.5v1.7l1.2,0.2c0-0.1,0-0.2,0-0.4c0-0.4,0.1-0.7,0.2-1c0.2-0.4,0.6-0.7,1.2-0.7
		c0.9,0,1.6,0.7,1.6,1.7c0,0.5-0.1,0.9-0.3,1.1l-0.5-0.2c0.1-0.2,0.3-0.6,0.3-1c0-0.6-0.4-1.1-1-1.1s-1,0.4-1,1.3c0,0.3,0,0.5,0,0.6
		l-2.2-0.3v-2.2h0.5V103.5z"/>
	<path class="st12" d="M301.3,99.6c0.7,0.5,1.6,0.9,2.9,0.9c1.2,0,2.1-0.4,2.8-0.9v0.5c-0.6,0.4-1.5,0.9-2.8,0.9
		c-1.4,0-2.3-0.5-2.9-0.9V99.6z"/>
	<path class="st12" d="M306.2,99.1h-0.4l-0.5-0.5c-1.1-1.2-1.7-1.7-2.4-1.7c-0.5,0-0.9,0.2-0.9,0.9c0,0.4,0.2,0.8,0.4,1L302,99
		c-0.3-0.3-0.5-0.8-0.5-1.3c0-1,0.7-1.4,1.3-1.4c0.8,0,1.5,0.6,2.4,1.6l0.3,0.4l0,0v-2h0.5v2.8H306.2z"/>
	<path class="st12" d="M305.8,95.5c-0.3,0-0.4-0.2-0.4-0.4s0.2-0.4,0.4-0.4c0.3,0,0.4,0.2,0.4,0.4C306.2,95.3,306.1,95.5,305.8,95.5
		z"/>
	<path class="st12" d="M305.7,93.7c0-0.1,0-0.3,0-0.5c0-0.4-0.2-0.7-0.4-1c-0.3-0.3-0.7-0.5-1.2-0.6l0,0c0.3,0.3,0.5,0.6,0.5,1.1
		c0,0.8-0.6,1.3-1.4,1.3c-0.9,0-1.6-0.6-1.6-1.6c0-0.9,0.7-1.5,1.9-1.5c1,0,1.7,0.3,2.1,0.8c0.3,0.4,0.6,0.8,0.6,1.3
		c0,0.2,0,0.4,0,0.6L305.7,93.7L305.7,93.7z M303.1,93.5c0.6,0,1-0.3,1-0.9c0-0.4-0.2-0.7-0.5-0.9c-0.1,0-0.1-0.1-0.2-0.1
		c-0.8,0-1.4,0.3-1.4,0.9S302.5,93.5,303.1,93.5z"/>
	<path class="st12" d="M302.1,87.8v1.7l1.2,0.2c0-0.1,0-0.2,0-0.4c0-0.4,0.1-0.7,0.2-1c0.2-0.4,0.6-0.7,1.2-0.7
		c0.9,0,1.6,0.7,1.6,1.7c0,0.5-0.1,0.9-0.3,1.1l-0.5-0.2c0.1-0.2,0.3-0.6,0.3-1c0-0.6-0.4-1.1-1-1.1s-1,0.4-1,1.3c0,0.3,0,0.5,0,0.6
		l-2.2-0.3v-2.2h0.5V87.8z"/>
	<path class="st12" d="M307,87.1c-0.7-0.5-1.6-0.9-2.9-0.9s-2.1,0.4-2.9,0.9v-0.5c0.6-0.4,1.5-0.9,2.9-0.9s2.3,0.5,2.9,0.9V87.1z"/>
</g>
<g>
	<g>
		<line class="st13" x1="258.4" y1="173.6" x2="174" y2="173.6"/>
		<g>
			<polygon class="st12" points="260.2,173.6 257.7,172.6 258.3,173.6 257.7,174.6 			"/>
		</g>
		<g>
			<polygon class="st12" points="172.3,173.6 174.8,172.6 174.2,173.6 174.8,174.6 			"/>
		</g>
	</g>
</g>
<line class="st14" x1="171.9" y1="176.9" x2="171.9" y2="163.8"/>
<line class="st14" x1="260.6" y1="177" x2="260.6" y2="163.3"/>
<g>
	<path class="st12" d="M207,166.9v0.4l-2,4.1h-0.6l2-4l0,0h-2.2v-0.5H207z"/>
	<path class="st12" d="M210.7,169.2c0,1.5-0.6,2.4-1.6,2.4c-0.9,0-1.5-0.8-1.5-2.3s0.7-2.4,1.6-2.4
		C210.2,166.9,210.7,167.7,210.7,169.2z M208.2,169.2c0,1.2,0.4,1.9,0.9,1.9c0.6,0,0.9-0.7,0.9-1.9c0-1.1-0.3-1.9-0.9-1.9
		C208.6,167.3,208.2,168,208.2,169.2z"/>
	<path class="st12" d="M214.3,166.6c-0.5,0.7-0.9,1.6-0.9,2.9c0,1.2,0.4,2.1,0.9,2.8h-0.5c-0.4-0.6-0.9-1.5-0.9-2.8
		c0-1.4,0.5-2.3,0.9-2.9H214.3z"/>
	<path class="st12" d="M214.7,171.5v-0.4l0.5-0.5c1.2-1.1,1.7-1.7,1.7-2.4c0-0.5-0.2-0.9-0.9-0.9c-0.4,0-0.8,0.2-1,0.4l-0.2-0.4
		c0.3-0.3,0.8-0.5,1.3-0.5c1,0,1.4,0.7,1.4,1.3c0,0.8-0.6,1.5-1.6,2.4l-0.4,0.3l0,0h2v0.5h-2.8V171.5z"/>
	<path class="st12" d="M218.4,171.1c0-0.3,0.2-0.4,0.4-0.4c0.2,0,0.4,0.2,0.4,0.4c0,0.3-0.2,0.4-0.4,0.4
		C218.6,171.6,218.4,171.4,218.4,171.1z"/>
	<path class="st12" d="M222.7,166.9v0.4l-2,4.1h-0.6l2-4l0,0h-2.2v-0.5H222.7z"/>
	<path class="st12" d="M226,167.4c-0.1,0-0.3,0-0.5,0c-1,0.2-1.5,0.9-1.6,1.6l0,0c0.2-0.3,0.6-0.5,1.1-0.5c0.8,0,1.4,0.6,1.4,1.5
		c0,0.8-0.6,1.6-1.5,1.6c-1,0-1.6-0.8-1.6-1.9c0-0.9,0.3-1.6,0.8-2.1c0.4-0.4,0.9-0.6,1.5-0.7c0.2,0,0.3,0,0.4,0L226,167.4
		L226,167.4z M225.8,170c0-0.7-0.4-1-0.9-1c-0.4,0-0.7,0.2-0.9,0.6c0,0.1-0.1,0.2-0.1,0.3c0,0.7,0.4,1.3,1,1.3
		C225.4,171.1,225.8,170.7,225.8,170z"/>
	<path class="st12" d="M226.8,172.3c0.5-0.7,0.9-1.6,0.9-2.9c0-1.3-0.4-2.1-0.9-2.9h0.5c0.4,0.6,0.9,1.5,0.9,2.9s-0.5,2.3-0.9,2.9
		H226.8z"/>
</g>
<g>
	<g>
		<line class="st13" x1="226.3" y1="160.9" x2="174" y2="160.9"/>
		<g>
			<polygon class="st12" points="228,160.9 225.5,159.8 226.1,160.9 225.5,161.9 			"/>
		</g>
		<g>
			<polygon class="st12" points="172.3,160.9 174.8,159.8 174.2,160.9 174.8,161.9 			"/>
		</g>
	</g>
</g>
<line class="st14" x1="228.5" y1="164.3" x2="228.5" y2="145.8"/>
<g>
	<path class="st12" d="M189.9,158.7v-1.2h-2.1v-0.4l2-2.9h0.7v2.8h0.6v0.5h-0.6v1.2L189.9,158.7L189.9,158.7z M189.9,157v-1.5
		c0-0.2,0-0.5,0-0.7l0,0c-0.1,0.3-0.3,0.5-0.4,0.7l-1.1,1.5l0,0H189.9z"/>
	<path class="st12" d="M193.5,158.7v-1.2h-2.1v-0.4l2-2.9h0.7v2.8h0.6v0.5h-0.6v1.2L193.5,158.7L193.5,158.7z M193.5,157v-1.5
		c0-0.2,0-0.5,0-0.7l0,0c-0.1,0.3-0.3,0.5-0.4,0.7L192,157l0,0H193.5z"/>
	<path class="st12" d="M198.2,153.9c-0.5,0.7-0.9,1.6-0.9,2.9c0,1.2,0.4,2.1,0.9,2.8h-0.5c-0.4-0.6-0.9-1.5-0.9-2.8
		c0-1.4,0.5-2.3,0.9-2.9H198.2z"/>
	<path class="st12" d="M200,154.8L200,154.8l-0.8,0.4l-0.1-0.5l1-0.5h0.5v4.6H200V154.8z"/>
	<path class="st12" d="M202.3,158.4c0-0.3,0.2-0.4,0.4-0.4c0.2,0,0.4,0.2,0.4,0.4c0,0.3-0.2,0.4-0.4,0.4
		C202.5,158.8,202.3,158.6,202.3,158.4z"/>
	<path class="st12" d="M206.7,154.2v0.4l-2,4.1H204l2-4l0,0h-2.2v-0.5H206.7z"/>
	<path class="st12" d="M207.4,158c0.2,0.1,0.6,0.3,1,0.3c0.8,0,1-0.5,1-0.9c0-0.6-0.6-0.9-1.2-0.9H208V156h0.3c0.4,0,1-0.2,1-0.8
		c0-0.4-0.2-0.7-0.8-0.7c-0.4,0-0.7,0.2-0.9,0.3l-0.2-0.4c0.2-0.2,0.7-0.4,1.2-0.4c0.9,0,1.3,0.5,1.3,1.1c0,0.5-0.3,0.9-0.8,1.1l0,0
		c0.6,0.1,1,0.5,1,1.2s-0.6,1.4-1.7,1.4c-0.5,0-1-0.2-1.2-0.3L207.4,158z"/>
	<path class="st12" d="M210.7,159.6c0.5-0.7,0.9-1.6,0.9-2.9c0-1.3-0.4-2.1-0.9-2.9h0.5c0.4,0.6,0.9,1.5,0.9,2.9s-0.5,2.3-0.9,2.9
		H210.7z"/>
</g>
<g>
	<path class="st8" d="M68.8,111.3c0.1,0.1,0.2,0.1,0.3,0.1c0.2,0,0.3-0.1,0.3-0.3c0-0.1-0.1-0.2-0.3-0.3c-0.2-0.1-0.4-0.2-0.4-0.4
		c0-0.2,0.2-0.4,0.5-0.4c0.2,0,0.3,0,0.3,0.1l-0.1,0.2c0,0-0.1-0.1-0.3-0.1s-0.3,0.1-0.3,0.2s0.1,0.2,0.3,0.3
		c0.3,0.1,0.4,0.2,0.4,0.4c0,0.2-0.2,0.4-0.5,0.4c-0.1,0-0.3,0-0.4-0.1L68.8,111.3z"/>
	<path class="st8" d="M70,110.1h0.8v0.2h-0.6v0.5h0.6v0.2h-0.6v0.7H70V110.1z"/>
	<path class="st8" d="M71.8,111.6v-0.4h-0.7v-0.1l0.6-0.9h0.2v0.9h0.2v0.2h-0.2v0.4L71.8,111.6L71.8,111.6z M71.8,111v-0.5
		c0-0.1,0-0.2,0-0.2l0,0c0,0.1-0.1,0.1-0.1,0.2l-0.4,0.5l0,0H71.8z"/>
	<path class="st8" d="M73.3,110.8c0,0.5-0.2,0.8-0.5,0.8s-0.5-0.3-0.5-0.7c0-0.5,0.2-0.8,0.5-0.8C73.2,110.1,73.3,110.4,73.3,110.8z
		 M72.6,110.9c0,0.4,0.1,0.6,0.3,0.6s0.3-0.2,0.3-0.6s-0.1-0.6-0.3-0.6C72.7,110.3,72.6,110.5,72.6,110.9z"/>
	<path class="st8" d="M73.5,111.7l0.6-1.6h0.2l-0.6,1.6H73.5z"/>
	<path class="st8" d="M75.1,110.1l-0.2,0.3l0,0h0.3v0.2h-0.3l0,0l0.2,0.3L75,111l-0.1-0.3l0,0l-0.1,0.3l-0.1-0.1l0.2-0.3l0,0h-0.3
		v-0.2h0.3l0,0l-0.2-0.3l0.1-0.1l0.1,0.3l0,0L75,110L75.1,110.1z"/>
	<path class="st8" d="M76.1,111.3c0.1,0.1,0.2,0.1,0.3,0.1c0.2,0,0.3-0.1,0.3-0.3c0-0.1-0.1-0.2-0.3-0.3c-0.2-0.1-0.4-0.2-0.4-0.4
		c0-0.2,0.2-0.4,0.5-0.4c0.2,0,0.3,0,0.3,0.1l-0.1,0.2c0,0-0.1-0.1-0.3-0.1s-0.3,0.1-0.3,0.2s0.1,0.2,0.3,0.3
		c0.3,0.1,0.4,0.2,0.4,0.4c0,0.2-0.2,0.4-0.5,0.4c-0.1,0-0.3,0-0.4-0.1L76.1,111.3z"/>
	<path class="st8" d="M77.3,111.6v-1.5h0.2l0.5,0.8c0.1,0.2,0.2,0.3,0.3,0.5l0,0c0-0.2,0-0.4,0-0.6v-0.6h0.2v1.5h-0.2l-0.5-0.8
		c-0.1-0.2-0.2-0.3-0.3-0.5l0,0c0,0.2,0,0.4,0,0.6v0.6H77.3z"/>
	<path class="st8" d="M78.8,110.7c0-0.1,0.1-0.1,0.1-0.1c0.1,0,0.1,0.1,0.1,0.1c0,0.1-0.1,0.1-0.1,0.1
		C78.8,110.8,78.8,110.8,78.8,110.7z M78.8,111.5c0-0.1,0.1-0.1,0.1-0.1c0.1,0,0.1,0.1,0.1,0.1c0,0.1-0.1,0.1-0.1,0.1
		C78.8,111.6,78.8,111.5,78.8,111.5z"/>
	<path class="st8" d="M79.4,111.3c0.1,0.1,0.2,0.1,0.3,0.1c0.2,0,0.3-0.1,0.3-0.3c0-0.1-0.1-0.2-0.3-0.3c-0.2-0.1-0.4-0.2-0.4-0.4
		c0-0.2,0.2-0.4,0.5-0.4c0.2,0,0.3,0,0.3,0.1l-0.1,0.2c0,0-0.1-0.1-0.3-0.1s-0.3,0.1-0.3,0.2s0.1,0.2,0.3,0.3
		c0.3,0.1,0.4,0.2,0.4,0.4c0,0.2-0.2,0.4-0.5,0.4c-0.1,0-0.3,0-0.4-0.1L79.4,111.3z"/>
	<path class="st8" d="M80.6,110.1h0.8v0.2h-0.6v0.5h0.6v0.2h-0.6v0.7h-0.2V110.1z"/>
	<path class="st8" d="M82.3,111.6v-0.4h-0.7v-0.1l0.6-0.9h0.2v0.9h0.2v0.2h-0.2v0.4L82.3,111.6L82.3,111.6z M82.3,111v-0.5
		c0-0.1,0-0.2,0-0.2l0,0c0,0.1-0.1,0.1-0.1,0.2l-0.4,0.5l0,0H82.3z"/>
	<path class="st8" d="M83.9,110.8c0,0.5-0.2,0.8-0.5,0.8s-0.5-0.3-0.5-0.7c0-0.5,0.2-0.8,0.5-0.8C83.7,110.1,83.9,110.4,83.9,110.8z
		 M83.1,110.9c0,0.4,0.1,0.6,0.3,0.6s0.3-0.2,0.3-0.6s-0.1-0.6-0.3-0.6C83.2,110.3,83.1,110.5,83.1,110.9z"/>
	<path class="st8" d="M84.7,110.9L84.7,110.9l-0.5,0.1v-0.1H84.7z"/>
	<path class="st8" d="M85.5,110.1l-0.2,0.3l0,0h0.3v0.2h-0.3l0,0l0.2,0.3l-0.1,0.1l-0.1-0.3l0,0l-0.1,0.3l-0.1-0.1l0.2-0.3l0,0H85
		v-0.2h0.3l0,0l-0.2-0.3l0.1-0.1l0.1,0.3l0,0l0.1-0.3L85.5,110.1z"/>
	<path class="st8" d="M86.6,110.1l-0.2,0.3l0,0h0.3v0.2h-0.3l0,0l0.2,0.3l-0.1,0.1l-0.1-0.3l0,0l-0.1,0.3l-0.1-0.1l0.2-0.3l0,0h-0.3
		v-0.2h0.3l0,0l-0.2-0.3l0.1-0.1l0.1,0.3l0,0l0.1-0.3L86.6,110.1z"/>
	<path class="st8" d="M87.6,110.1l-0.2,0.3l0,0h0.3v0.2h-0.3l0,0l0.2,0.3l-0.1,0.1l-0.1-0.3l0,0l-0.1,0.3l-0.1-0.1l0.2-0.3l0,0h-0.3
		v-0.2h0.3l0,0l-0.2-0.3l0.1-0.1l0.1,0.3l0,0l0.1-0.3L87.6,110.1z"/>
	<path class="st8" d="M88.6,110.1l-0.2,0.3l0,0h0.3v0.2h-0.3l0,0l0.2,0.3l-0.1,0.1l-0.1-0.3l0,0l-0.1,0.3l-0.1-0.1l0.2-0.3l0,0h-0.3
		v-0.2h0.3l0,0l-0.2-0.3l0.1-0.1l0.1,0.3l0,0l0.1-0.3L88.6,110.1z"/>
	<path class="st8" d="M89.6,110.1l-0.2,0.3l0,0h0.3v0.2h-0.3l0,0l0.2,0.3l-0.1,0.1l-0.1-0.3l0,0l-0.1,0.3l-0.1-0.1l0.2-0.3l0,0h-0.3
		v-0.2h0.3l0,0l-0.2-0.3l0.1-0.1l0.1,0.3l0,0l0.1-0.3L89.6,110.1z"/>
	<path class="st8" d="M91.9,110.9c0-0.2,0-0.5,0-0.6l0,0c-0.1,0.2-0.1,0.4-0.2,0.6l-0.3,0.7h-0.1l-0.2-0.7c-0.1-0.2-0.1-0.4-0.2-0.6
		l0,0c0,0.2,0,0.4,0,0.7v0.6h-0.2l0.1-1.5H91l0.3,0.7c0.1,0.2,0.1,0.3,0.2,0.5l0,0c0-0.2,0.1-0.3,0.2-0.5l0.3-0.7h0.2l0.1,1.5h-0.2
		L91.9,110.9z"/>
	<path class="st8" d="M92.5,110.1h0.8v0.2h-0.6v0.5h0.6v0.2h-0.6v0.7h-0.2V110.1z"/>
	<path class="st8" d="M93.7,110.1c0.1,0,0.3,0,0.4,0c0.3,0,0.5,0.1,0.6,0.2s0.2,0.3,0.2,0.5s-0.1,0.4-0.2,0.6
		c-0.1,0.1-0.4,0.2-0.7,0.2c-0.1,0-0.3,0-0.4,0L93.7,110.1L93.7,110.1z M93.9,111.4c0,0,0.1,0,0.2,0c0.4,0,0.6-0.2,0.6-0.6
		s-0.2-0.6-0.6-0.6c-0.1,0-0.2,0-0.2,0V111.4z"/>
	<path class="st8" d="M95.2,110.7c0-0.1,0.1-0.1,0.1-0.1c0.1,0,0.1,0.1,0.1,0.1c0,0.1-0.1,0.1-0.1,0.1
		C95.2,110.8,95.2,110.8,95.2,110.7z M95.2,111.5c0-0.1,0.1-0.1,0.1-0.1c0.1,0,0.1,0.1,0.1,0.1c0,0.1-0.1,0.1-0.1,0.1
		C95.2,111.6,95.2,111.5,95.2,111.5z"/>
	<path class="st8" d="M95.7,111.6L95.7,111.6l0.2-0.2c0.4-0.4,0.5-0.5,0.5-0.8c0-0.1-0.1-0.3-0.3-0.3c-0.1,0-0.2,0.1-0.3,0.1
		l-0.1-0.1c0.1-0.1,0.2-0.1,0.4-0.1c0.3,0,0.4,0.2,0.4,0.4c0,0.3-0.2,0.5-0.5,0.8l-0.1,0.1l0,0h0.6v0.2L95.7,111.6L95.7,111.6z"/>
	<path class="st8" d="M97.9,110.8c0,0.5-0.2,0.8-0.5,0.8s-0.5-0.3-0.5-0.7c0-0.5,0.2-0.8,0.5-0.8C97.7,110.1,97.9,110.4,97.9,110.8z
		 M97.1,110.9c0,0.4,0.1,0.6,0.3,0.6s0.3-0.2,0.3-0.6s-0.1-0.6-0.3-0.6C97.2,110.3,97.1,110.5,97.1,110.9z"/>
	<path class="st8" d="M98.6,111.6V111l-0.5-0.9h0.2l0.2,0.4c0.1,0.1,0.1,0.2,0.1,0.3l0,0c0-0.1,0.1-0.2,0.2-0.3l0.2-0.4h0.2
		l-0.5,0.9L98.6,111.6L98.6,111.6z"/>
	<path class="st8" d="M99.9,111.6V111l-0.5-0.9h0.2l0.2,0.4c0.1,0.1,0.1,0.2,0.1,0.3l0,0c0-0.1,0.1-0.2,0.2-0.3l0.2-0.4h0.2L100,111
		L99.9,111.6L99.9,111.6z"/>
	<path class="st8" d="M100.7,111.7l0.6-1.6h0.2l-0.6,1.6H100.7z"/>
	<path class="st8" d="M103,110.9c0-0.2,0-0.5,0-0.6l0,0c-0.1,0.2-0.1,0.4-0.2,0.6l-0.3,0.7h-0.1l-0.2-0.7c-0.1-0.2-0.1-0.4-0.2-0.6
		l0,0c0,0.2,0,0.4,0,0.7v0.6h-0.2l0.1-1.5h0.2l0.3,0.7c0.1,0.2,0.1,0.3,0.2,0.5l0,0c0-0.2,0.1-0.3,0.2-0.5l0.3-0.7h0.2l0.1,1.5H103
		V110.9z"/>
	<path class="st8" d="M104.8,110.9c0-0.2,0-0.5,0-0.6l0,0c-0.1,0.2-0.1,0.4-0.2,0.6l-0.3,0.7h-0.1l-0.2-0.7
		c-0.1-0.2-0.1-0.4-0.2-0.6l0,0c0,0.2,0,0.4,0,0.7v0.6h-0.2l0.1-1.5h0.2l0.3,0.7c0.1,0.2,0.1,0.3,0.2,0.5l0,0c0-0.2,0.1-0.3,0.2-0.5
		l0.3-0.7h0.2l0.1,1.5H105L104.8,110.9z"/>
	<path class="st8" d="M105.9,111.5l0.8-1.2l0,0H106v-0.2h1v0.1l-0.8,1.2l0,0h0.8v0.2L105.9,111.5L105.9,111.5z"/>
	<path class="st8" d="M107.6,111.1l-0.2,0.5h-0.2l0.5-1.5h0.2l0.5,1.5h-0.2l-0.2-0.5H107.6z M108.1,111l-0.1-0.4
		c0-0.1-0.1-0.2-0.1-0.3l0,0c0,0.1,0,0.2-0.1,0.3l-0.1,0.4H108.1z"/>
</g>
<polyline class="st13" points="171.9,44.8 174.9,41.9 225,41.9 228,44.8 "/>
<g>
	<path class="st12" d="M188,35.1c0.3-0.1,0.8-0.1,1.2-0.1c0.7,0,1.1,0.1,1.4,0.4c0.2,0.2,0.4,0.5,0.4,0.9c0,0.6-0.4,1-0.9,1.2l0,0
		c0.4,0.1,0.6,0.5,0.7,1c0.2,0.7,0.3,1.1,0.4,1.3h-0.6c-0.1-0.1-0.2-0.5-0.3-1.1c-0.1-0.7-0.4-0.9-1-0.9h-0.6v2H188V35.1z
		 M188.6,37.2h0.6c0.7,0,1.1-0.4,1.1-0.9c0-0.6-0.4-0.9-1.1-0.9c-0.3,0-0.5,0-0.6,0V37.2z"/>
	<path class="st12" d="M194.8,38c0,1.3-0.9,1.8-1.7,1.8c-0.9,0-1.6-0.7-1.6-1.7c0-1.1,0.7-1.8,1.7-1.8C194.1,36.3,194.8,37,194.8,38
		z M192.1,38.1c0,0.7,0.4,1.3,1,1.3s1-0.6,1-1.3c0-0.6-0.3-1.3-1-1.3C192.4,36.7,192.1,37.4,192.1,38.1z"/>
	<path class="st12" d="M196.3,35.5v0.8h0.9v0.5h-0.9v1.8c0,0.4,0.1,0.7,0.5,0.7c0.2,0,0.3,0,0.4,0v0.5c-0.1,0-0.3,0.1-0.5,0.1
		c-0.3,0-0.5-0.1-0.7-0.3s-0.2-0.5-0.2-0.9v-1.8h-0.5v-0.5h0.5v-0.6L196.3,35.5z"/>
	<path class="st12" d="M200.3,38.9c0,0.3,0,0.6,0,0.8h-0.6v-0.4l0,0c-0.2,0.3-0.6,0.5-1,0.5c-0.7,0-1-0.5-1-1c0-0.8,0.7-1.3,2-1.3
		v-0.1c0-0.3-0.1-0.8-0.8-0.8c-0.3,0-0.7,0.1-0.9,0.3l-0.1-0.4c0.3-0.2,0.7-0.3,1.1-0.3c1,0,1.3,0.7,1.3,1.4V38.9z M199.7,38
		c-0.7,0-1.4,0.1-1.4,0.8c0,0.4,0.3,0.6,0.6,0.6c0.4,0,0.7-0.3,0.8-0.6c0-0.1,0-0.1,0-0.2V38z"/>
	<path class="st12" d="M202,35.5v0.8h0.9v0.5H202v1.8c0,0.4,0.1,0.7,0.5,0.7c0.2,0,0.3,0,0.4,0v0.5c-0.1,0-0.3,0.1-0.5,0.1
		c-0.3,0-0.5-0.1-0.7-0.3s-0.2-0.5-0.2-0.9v-1.8H201v-0.5h0.5v-0.6L202,35.5z"/>
	<path class="st12" d="M204.2,35.4c0,0.2-0.1,0.4-0.4,0.4c-0.2,0-0.4-0.2-0.4-0.4s0.2-0.4,0.4-0.4C204.1,35,204.2,35.2,204.2,35.4z
		 M203.6,39.7v-3.4h0.6v3.4H203.6z"/>
	<path class="st12" d="M205.2,37.3c0-0.4,0-0.6,0-0.9h0.5V37l0,0c0.2-0.3,0.6-0.6,1.1-0.6s1.2,0.3,1.2,1.4v2h-0.6v-2
		c0-0.5-0.2-1-0.8-1c-0.4,0-0.7,0.3-0.8,0.6c0,0.1,0,0.2,0,0.3v2h-0.6L205.2,37.3L205.2,37.3z"/>
	<path class="st12" d="M212,39.2c0,0.8-0.2,1.3-0.5,1.6s-0.8,0.4-1.2,0.4c-0.4,0-0.9-0.1-1.1-0.3l0.2-0.5c0.2,0.1,0.6,0.3,1,0.3
		c0.6,0,1.1-0.3,1.1-1.2v-0.4l0,0c-0.2,0.3-0.6,0.6-1.1,0.6c-0.8,0-1.4-0.7-1.4-1.7c0-1.1,0.7-1.8,1.5-1.8c0.6,0,0.9,0.3,1.1,0.6
		l0,0v-0.5h0.5c0,0.2,0,0.5,0,0.9v2H212z M211.4,37.7c0-0.1,0-0.2,0-0.3c-0.1-0.4-0.4-0.7-0.9-0.7c-0.6,0-1,0.5-1,1.3
		c0,0.7,0.3,1.2,1,1.2c0.4,0,0.7-0.2,0.9-0.6c0-0.1,0-0.2,0-0.3V37.7z"/>
</g>
<line class="st14" x1="298.9" y1="140.4" x2="255.5" y2="140.4"/>
<line class="st14" x1="311.6" y1="146" x2="230.3" y2="146"/>
<polyline class="st13" points="228.5,44.8 231.5,41.9 257,41.9 260.1,44.8 "/>
<g>
	<path class="st12" d="M238.2,35.1c0.3-0.1,0.7-0.1,1.1-0.1c0.6,0,1,0.1,1.3,0.3c0.2,0.2,0.4,0.5,0.4,0.8c0,0.5-0.3,0.9-0.8,1l0,0
		c0.4,0.1,1,0.5,1,1.2c0,0.4-0.2,0.7-0.4,0.9c-0.3,0.3-0.9,0.4-1.6,0.4c-0.4,0-0.7,0-0.9-0.1v-4.4H238.2z M238.8,37h0.6
		c0.6,0,1-0.3,1-0.8s-0.4-0.8-1-0.8c-0.3,0-0.4,0-0.5,0V37H238.8z M238.8,39.3c0.1,0,0.3,0,0.5,0c0.6,0,1.2-0.2,1.2-0.9
		c0-0.6-0.6-0.9-1.2-0.9h-0.5V39.3z"/>
	<path class="st12" d="M244.3,38.9c0,0.3,0,0.6,0,0.8h-0.6v-0.4l0,0c-0.2,0.3-0.6,0.5-1,0.5c-0.7,0-1-0.5-1-1c0-0.8,0.7-1.3,2-1.3
		v-0.1c0-0.3-0.1-0.8-0.8-0.8c-0.3,0-0.7,0.1-0.9,0.3l-0.1-0.4c0.3-0.2,0.7-0.3,1.1-0.3c1,0,1.3,0.7,1.3,1.4V38.9z M243.7,38
		c-0.7,0-1.4,0.1-1.4,0.8c0,0.4,0.3,0.6,0.6,0.6c0.4,0,0.7-0.3,0.8-0.6c0-0.1,0-0.1,0-0.2V38z"/>
	<path class="st12" d="M245.2,39.1c0.2,0.1,0.5,0.2,0.8,0.2c0.4,0,0.7-0.2,0.7-0.5s-0.2-0.4-0.6-0.6c-0.6-0.2-0.9-0.6-0.9-1
		c0-0.5,0.4-1,1.2-1c0.3,0,0.6,0.1,0.8,0.2l-0.1,0.4c-0.1-0.1-0.4-0.2-0.7-0.2c-0.4,0-0.6,0.2-0.6,0.5s0.2,0.4,0.6,0.6
		c0.6,0.2,0.9,0.5,0.9,1c0,0.6-0.5,1-1.3,1c-0.4,0-0.7-0.1-1-0.2L245.2,39.1z"/>
	<path class="st12" d="M248.4,38.2c0,0.8,0.5,1.2,1.2,1.2c0.4,0,0.7-0.1,0.9-0.2l0.1,0.4c-0.2,0.1-0.6,0.2-1.1,0.2
		c-1,0-1.7-0.7-1.7-1.7s0.6-1.8,1.6-1.8c1.1,0,1.4,1,1.4,1.6c0,0.1,0,0.2,0,0.3H248.4z M250.3,37.7c0-0.4-0.2-1-0.9-1
		c-0.6,0-0.9,0.6-0.9,1H250.3z"/>
</g>
<g>
	<path d="M245.5,92.7c2.6,0,4.8,2.1,4.8,4.8c0,2.6-2.1,4.8-4.8,4.8c-2.6,0-4.8-2.1-4.8-4.8C240.7,94.8,242.9,92.7,245.5,92.7z"/>
	<g>
		<path class="st9" d="M241.2,96.9c0,0.3,1.8,0.8,4.1,1.1c2.3,0.3,4.3,0.4,4.3,0.1s-1.8-0.8-4.1-1.1
			C243.1,96.6,241.2,96.6,241.2,96.9z"/>
		<path class="st9" d="M241.7,98.4c0,0.3,1.5,0.8,3.4,1c1.9,0.3,3.5,0.2,3.6,0c0-0.3-1.5-0.8-3.4-1
			C243.4,98.1,241.8,98.1,241.7,98.4z"/>
		<path class="st9" d="M242.6,99.9c0,0.3,1,0.7,2.3,0.9c1.3,0.2,2.4,0.1,2.5-0.2c0-0.3-1-0.7-2.3-0.9
			C243.8,99.5,242.6,99.6,242.6,99.9z"/>
		<path class="st9" d="M242.1,95.6c0,0.3,1.5,0.8,3.4,1c1.9,0.3,3.5,0.2,3.5,0c0-0.3-1.5-0.8-3.4-1
			C243.7,95.3,242.2,95.3,242.1,95.6z"/>
		<path class="st9" d="M243.4,94.4c0,0.3,1,0.7,2.3,0.9c1.3,0.2,2.4,0.1,2.5-0.2c0-0.3-1-0.7-2.3-0.9
			C244.5,94,243.4,94.1,243.4,94.4z"/>
	</g>
</g>
<g>
	<g>
		<defs>
			<rect id="SVGID_1_" x="177.7" y="132.3" width="35.3" height="16.2"/>
		</defs>
		<clipPath id="SVGID_2_">
			<use xlink:href="#SVGID_1_"  style="overflow:visible;"/>
		</clipPath>
		<g class="st15">
			<path class="st7" d="M178.4,136c0-1.4,1.1-2.5,2.5-2.5h28.9c1.4,0,2.5,1.1,2.5,2.5v20.1c0,1.4-1.1,2.5-2.5,2.5h-28.9
				c-1.4,0-2.5-1.1-2.5-2.5V136z"/>
			<path class="st8" d="M180.2,136.8c0-0.2,0.2-0.4,0.4-0.4h12.1l2.8-1.3l2.6,1.3h12.1c0.2,0,0.4,0.2,0.4,0.4V154h-30.3L180.2,136.8
				L180.2,136.8z"/>
			<path d="M180.6,157.7h29.6c0.7,0,1.2-0.6,1.2-1.2V154v-17.2c0-0.7-0.6-1.2-1.2-1.2h-12.1l-2.6-1.3l-2.8,1.3h-12.1
				c-0.7,0-1.2,0.6-1.2,1.2V154v2.5C179.3,157.2,179.9,157.7,180.6,157.7z M180.2,136.8c0-0.2,0.2-0.4,0.4-0.4h12.1l2.8-1.3l2.6,1.3
				h12.1c0.2,0,0.4,0.2,0.4,0.4V154h-30.3L180.2,136.8L180.2,136.8z"/>
			<g>
				<path class="st7" d="M205.2,154.5c0.1,0,0.3-0.1,0.6-0.1c0.8,0,1.3,0.5,1.3,1.2c0,0.8-0.6,1.3-1.3,1.3c-0.3,0-0.5-0.1-0.6-0.1
					l0.1-0.4c0.1,0,0.3,0.1,0.5,0.1c0.4,0,0.8-0.3,0.8-0.8s-0.3-0.8-0.8-0.8c-0.2,0-0.4,0-0.5,0.1L205.2,154.5z"/>
				<path class="st7" d="M202.8,155.1l0.2-0.6h0.6l-0.7,2.4h-0.7l-0.8-2.4h0.6l0.2,0.6H202.8z M202.2,155.5l0.2,0.5
					c0,0.1,0.1,0.3,0.1,0.5l0,0c0-0.1,0.1-0.3,0.1-0.5l0.1-0.5H202.2z"/>
				<path class="st7" d="M199.1,156.9v-1.4c0-0.4-0.2-0.6-0.4-0.6c-0.3,0-0.5,0.2-0.5,0.6v1.4h-0.6v-1.4c0-0.8,0.4-1.1,1-1.1
					s1,0.3,1,1.1v1.4H199.1z"/>
				<path class="st7" d="M195.3,156.4h0.7v0.5h-1.9v-0.5h0.7v-2h0.6v2H195.3z"/>
				<path class="st7" d="M191.8,156.9v-2.4h0.6v2.4H191.8z"/>
				<path class="st7" d="M187.6,155.7c0-0.8,0.5-1.3,1.2-1.3s1.2,0.5,1.2,1.2s-0.5,1.3-1.2,1.3C188,156.9,187.6,156.4,187.6,155.7z
					 M189.3,155.6c0-0.5-0.2-0.8-0.6-0.8c-0.4,0-0.6,0.4-0.6,0.8c0,0.4,0.2,0.8,0.6,0.8C189.1,156.5,189.3,156.1,189.3,155.6z"/>
				<path class="st7" d="M185.8,154.4v2.4h-0.6l-0.5-0.9c-0.1-0.3-0.3-0.6-0.4-0.8l0,0c0,0.3,0,0.7,0,1v0.7h-0.5v-2.4h0.6l0.5,0.9
					c0.1,0.3,0.3,0.6,0.4,0.9l0,0c0-0.3,0-0.7,0-1.1v-0.7L185.8,154.4L185.8,154.4z"/>
				<path d="M207.6,153.6h-0.4v-1.5h-0.7v-0.3h1.1V153.6z"/>
				<path d="M205.6,152.2l0.1-0.5h0.4l-0.6,1.8H205l-0.6-1.8h0.4l0.1,0.5H205.6z M205.1,152.5l0.1,0.4c0,0.1,0.1,0.2,0.1,0.4l0,0
					c0-0.1,0.1-0.2,0.1-0.4l0.1-0.4H205.1z"/>
				<path d="M204,152.2c-0.1-0.1-0.3-0.1-0.5-0.1s-0.3,0.1-0.3,0.2c0,0.1,0.1,0.2,0.3,0.3c0.3,0.1,0.5,0.3,0.5,0.5
					c0,0.3-0.3,0.5-0.7,0.5c-0.2,0-0.4,0-0.5-0.1l0.1-0.3c0.1,0,0.2,0.1,0.4,0.1c0.2,0,0.3-0.1,0.3-0.2c0-0.1-0.1-0.2-0.3-0.3
					c-0.3-0.1-0.5-0.3-0.5-0.5c0-0.3,0.2-0.6,0.7-0.6c0.2,0,0.4,0.1,0.5,0.1V152.2z"/>
				<path d="M201.3,152.5h0.7v-0.4h-0.8v-0.3h1.2v1.8h-1.1v-0.3h0.7v-0.4h-0.7L201.3,152.5L201.3,152.5z"/>
				<path d="M200.7,153.6c-0.1,0-0.3,0-0.6,0c-0.3,0-0.5,0-0.6-0.1s-0.2-0.2-0.2-0.4s0.2-0.4,0.3-0.4l0,0c-0.1-0.1-0.2-0.2-0.2-0.3
					c-0.1-0.2-0.1-0.4-0.1-0.5h0.4c0,0.1,0.1,0.2,0.1,0.4c0.1,0.2,0.1,0.3,0.3,0.3h0.1v-0.7h0.4v1.7H200.7z M200.3,152.8h-0.2
					c-0.2,0-0.3,0.1-0.3,0.3s0.1,0.3,0.3,0.3c0.1,0,0.2,0,0.2,0V152.8z"/>
				<path d="M198.1,153.6c-0.1,0-0.3,0-0.6,0c-0.3,0-0.5,0-0.6-0.1s-0.2-0.2-0.2-0.4s0.2-0.4,0.3-0.4l0,0c-0.1-0.1-0.2-0.2-0.2-0.3
					c-0.1-0.2-0.1-0.4-0.1-0.5h0.4c0,0.1,0.1,0.2,0.1,0.4c0.1,0.2,0.1,0.3,0.3,0.3h0.1v-0.7h0.4v1.7H198.1z M197.7,152.8h-0.2
					c-0.2,0-0.3,0.1-0.3,0.3s0.1,0.3,0.3,0.3c0.1,0,0.2,0,0.2,0V152.8z"/>
				<path d="M195.9,152.2l0.1-0.5h0.4l-0.6,1.8h-0.5l-0.6-1.8h0.4l0.1,0.5H195.9z M195.4,152.5l0.1,0.4c0,0.1,0.1,0.2,0.1,0.4l0,0
					c0-0.1,0.1-0.2,0.1-0.4l0.1-0.4H195.4z"/>
				<path d="M194.3,153.6c-0.2,0-0.4,0-0.6,0c-0.4,0-0.6-0.1-0.8-0.2c-0.2-0.1-0.3-0.4-0.3-0.7c0-0.4,0.1-0.6,0.3-0.7
					c0.2-0.2,0.5-0.2,0.8-0.2c0.2,0,0.4,0,0.5,0v1.8H194.3z M193.9,152.1h-0.1c-0.4,0-0.6,0.2-0.6,0.6c0,0.4,0.2,0.6,0.6,0.6
					c0.1,0,0.2,0,0.2,0v-1.2H193.9z"/>
				<path d="M191.8,153.6v-1.8h0.4v1.8H191.8z"/>
				<path d="M190.8,152.2l0.1-0.5h0.4l-0.6,1.8h-0.5l-0.6-1.8h0.4l0.1,0.5H190.8z M190.3,152.5l0.1,0.4c0,0.1,0.1,0.2,0.1,0.4l0,0
					c0-0.1,0.1-0.2,0.1-0.4l0.1-0.4H190.3z"/>
				<path d="M189.1,153.2h0.5v0.3h-1.4v-0.3h0.5v-1.5h0.4V153.2z"/>
				<path d="M187.4,153.6v-1.8h0.4v1.8H187.4z"/>
				<path d="M185.1,152.7c0-0.6,0.4-1,0.9-1s0.9,0.4,0.9,0.9s-0.4,1-0.9,1C185.4,153.6,185.1,153.2,185.1,152.7z M186.4,152.7
					c0-0.4-0.2-0.6-0.4-0.6c-0.3,0-0.4,0.3-0.4,0.6s0.2,0.6,0.4,0.6C186.3,153.3,186.4,153,186.4,152.7z"/>
				<path d="M184.6,151.8v1.8h-0.5l-0.4-0.7c-0.1-0.2-0.2-0.4-0.3-0.6l0,0c0,0.2,0,0.5,0,0.8v0.5H183v-1.8h0.4l0.4,0.7
					c0.1,0.2,0.2,0.4,0.3,0.6l0,0c0-0.2,0-0.5,0-0.8v-0.6h0.5V151.8z"/>
			</g>
			<g>
				<path d="M196.3,146.1c0.1,0,0.2-0.1,0.5-0.1c0.6,0,1,0.4,1,0.9c0,0.6-0.4,1-1,1c-0.2,0-0.4,0-0.5-0.1l0.1-0.3
					c0.1,0,0.2,0.1,0.3,0.1c0.3,0,0.6-0.2,0.6-0.6c0-0.4-0.2-0.6-0.6-0.6c-0.1,0-0.3,0-0.3,0.1L196.3,146.1z"/>
				<path d="M195.7,147.9h-0.4v-1.5h-0.7V146h1.1V147.9z"/>
				<path d="M193.6,146.5l0.1-0.5h0.4l-0.6,1.8H193l-0.6-1.8h0.4l0.1,0.5H193.6z M193.2,146.8l0.1,0.4c0,0.1,0.1,0.2,0.1,0.4l0,0
					c0-0.1,0.1-0.2,0.1-0.4l0.1-0.4H193.2z"/>
				<path d="M192,146.5c-0.1-0.1-0.3-0.1-0.5-0.1s-0.3,0.1-0.3,0.2c0,0.1,0.1,0.2,0.3,0.3c0.3,0.1,0.5,0.3,0.5,0.5
					c0,0.3-0.3,0.5-0.7,0.5c-0.2,0-0.4,0-0.5-0.1l0.1-0.3c0.1,0,0.2,0.1,0.4,0.1s0.3-0.1,0.3-0.2c0-0.1-0.1-0.2-0.3-0.3
					c-0.3-0.1-0.5-0.3-0.5-0.5c0-0.3,0.2-0.6,0.7-0.6c0.2,0,0.4,0.1,0.5,0.1V146.5z"/>
				<path d="M190.2,146.5c-0.1-0.1-0.3-0.1-0.5-0.1s-0.3,0.1-0.3,0.2c0,0.1,0.1,0.2,0.3,0.3c0.3,0.1,0.5,0.3,0.5,0.5
					c0,0.3-0.3,0.5-0.7,0.5c-0.2,0-0.4,0-0.5-0.1l0.1-0.3c0.1,0,0.2,0.1,0.4,0.1s0.3-0.1,0.3-0.2c0-0.1-0.1-0.2-0.3-0.3
					c-0.3-0.1-0.5-0.3-0.5-0.5c0-0.3,0.2-0.6,0.7-0.6c0.2,0,0.4,0.1,0.5,0.1V146.5z"/>
				<path d="M188.6,147.1c0,0.1-0.1,0.2-0.2,0.2c-0.1,0-0.2-0.1-0.2-0.2c0-0.1,0.1-0.2,0.2-0.2C188.5,146.9,188.6,147,188.6,147.1z
					 M188.6,146.3c0,0.1-0.1,0.2-0.2,0.2c-0.1,0-0.2-0.1-0.2-0.2c0-0.1,0.1-0.2,0.2-0.2C188.5,146,188.6,146.1,188.6,146.3z"/>
				<path d="M186.3,147.4L186.3,147.4l0.3-0.2l0.1,0.3l-0.5,0.2h-0.3V146h0.4V147.4z"/>
				<path d="M183.4,146.7c0,0.2,0,0.5,0,0.8l0,0c0.1-0.2,0.1-0.5,0.2-0.7l0.2-0.7h0.3l0.2,0.7c0.1,0.2,0.1,0.5,0.2,0.7l0,0
					c0-0.2,0-0.5,0-0.8V146h0.4l-0.1,1.8h-0.6l-0.2-0.6c-0.1-0.2-0.1-0.4-0.2-0.7l0,0c0,0.2-0.1,0.5-0.2,0.7l-0.2,0.6h-0.5l0.1-1.8
					h0.4V146.7z"/>
			</g>
			<g>
				<path d="M210.1,141c-0.1,0-0.3,0-0.4,0c-0.3,0-0.5-0.1-0.6-0.2c-0.1-0.1-0.2-0.3-0.2-0.5s0.1-0.4,0.2-0.6
					c0.1-0.1,0.4-0.2,0.7-0.2c0.1,0,0.3,0,0.4,0v1.5H210.1z M209.9,139.6c0,0-0.1,0-0.2,0c-0.4,0-0.6,0.2-0.6,0.6
					c0,0.4,0.2,0.6,0.6,0.6c0.1,0,0.2,0,0.2,0V139.6z"/>
				<path d="M207.2,140.3c0-0.5,0.3-0.8,0.7-0.8c0.4,0,0.7,0.3,0.7,0.8s-0.3,0.8-0.7,0.8C207.5,141,207.2,140.7,207.2,140.3z
					 M208.4,140.2c0-0.3-0.2-0.6-0.5-0.6s-0.5,0.3-0.5,0.6s0.2,0.6,0.5,0.6S208.4,140.6,208.4,140.2z"/>
				<path d="M206.3,139.5v1.5h-0.2l-0.5-0.8c-0.1-0.2-0.2-0.3-0.3-0.5l0,0c0,0.2,0,0.4,0,0.6v0.6h-0.2v-1.5h0.2l0.5,0.8
					c0.1,0.2,0.2,0.3,0.3,0.5l0,0c0-0.2,0-0.4,0-0.6v-0.6H206.3z"/>
				<path d="M203.5,140.3c0-0.5,0.3-0.8,0.7-0.8c0.4,0,0.7,0.3,0.7,0.8s-0.3,0.8-0.7,0.8C203.7,141,203.5,140.7,203.5,140.3z
					 M204.6,140.2c0-0.3-0.2-0.6-0.5-0.6s-0.5,0.3-0.5,0.6s0.2,0.6,0.5,0.6C204.5,140.9,204.6,140.6,204.6,140.2z"/>
				<path d="M202.9,140.8h0.5v0.2h-1.1v-0.2h0.5v-1.3h0.2v1.3H202.9z"/>
				<path d="M201.1,139.5l0.5,1.5h-0.2l-0.2-0.7c-0.1-0.2-0.1-0.4-0.2-0.6l0,0c0,0.2-0.1,0.4-0.2,0.6l-0.3,0.7h-0.2l0.5-1.5H201.1z"
					/>
				<path d="M199.9,141v-1.5h0.2v1.5H199.9z"/>
				<path d="M198.7,140.2h0.6v-0.5h-0.6v-0.2h0.8v1.5h-0.8v-0.2h0.6v-0.5h-0.6V140.2z"/>
				<path d="M198,139.5l0.4,1.5h-0.2l-0.2-0.8c0-0.2-0.1-0.4-0.1-0.5l0,0c0,0.1-0.1,0.3-0.1,0.5l-0.2,0.8h-0.2l-0.2-0.8
					c0-0.2-0.1-0.4-0.1-0.5l0,0c0,0.2-0.1,0.3-0.1,0.5l-0.2,0.8h-0.2l0.4-1.5h0.2l0.2,0.8c0,0.2,0.1,0.3,0.1,0.5l0,0
					c0-0.1,0.1-0.3,0.1-0.5l0.2-0.8H198z"/>
				<path d="M195.7,141c-0.1,0-0.3,0-0.4,0c-0.3,0-0.5-0.1-0.6-0.2c-0.1-0.1-0.2-0.3-0.2-0.5s0.1-0.4,0.2-0.6
					c0.1-0.1,0.4-0.2,0.7-0.2c0.1,0,0.3,0,0.4,0v1.5H195.7z M195.5,139.6c0,0-0.1,0-0.2,0c-0.4,0-0.6,0.2-0.6,0.6
					c0,0.4,0.2,0.6,0.6,0.6c0.1,0,0.2,0,0.2,0V139.6z"/>
				<path d="M193.9,141v-1.5h0.2v1.5H193.9z"/>
				<path d="M193.5,141c-0.1,0-0.2,0-0.4,0c-0.2,0-0.3,0-0.4-0.1s-0.1-0.2-0.1-0.3c0-0.2,0.1-0.3,0.3-0.4l0,0
					c-0.1,0-0.2-0.1-0.2-0.3s-0.1-0.4-0.1-0.4h0.2c0,0,0.1,0.2,0.1,0.4s0.1,0.3,0.3,0.3h0.2v-0.6h0.2v1.4H193.5z M193.3,140.3h-0.2
					c-0.2,0-0.3,0.1-0.3,0.3s0.1,0.3,0.3,0.3c0.1,0,0.2,0,0.2,0V140.3z"/>
				<path d="M191.4,140.2h0.6v-0.5h-0.6v-0.2h0.8v1.5h-0.8v-0.2h0.6v-0.5h-0.6L191.4,140.2L191.4,140.2z"/>
				<path d="M189.9,139.5c0.1,0,0.2-0.1,0.4-0.1c0.4,0,0.7,0.3,0.7,0.8s-0.3,0.8-0.8,0.8c-0.2,0-0.3,0-0.4-0.1v-0.2
					c0.1,0,0.2,0.1,0.3,0.1c0.4,0,0.6-0.2,0.6-0.6c0-0.4-0.2-0.6-0.6-0.6c-0.1,0-0.2,0-0.3,0.1L189.9,139.5z"/>
				<path d="M189.2,140.8h0.5v0.2h-1.1v-0.2h0.5v-1.3h0.2L189.2,140.8L189.2,140.8z"/>
				<path d="M188.3,141h-0.2v-1.3h-0.6v-0.2h0.8V141z"/>
				<path d="M187,139.5v0.6l0.5,0.9h-0.2l-0.2-0.4c-0.1-0.1-0.1-0.2-0.1-0.3l0,0c0,0.1-0.1,0.2-0.2,0.3l-0.2,0.4h-0.2l0.5-0.9
					L187,139.5L187,139.5z"/>
				<path d="M185.3,139.5l0.4,1.5h-0.2l-0.2-0.8c0-0.2-0.1-0.4-0.1-0.5l0,0c0,0.1-0.1,0.3-0.1,0.5l-0.2,0.8h-0.2l-0.2-0.8
					c0-0.2-0.1-0.4-0.1-0.5l0,0c0,0.2-0.1,0.3-0.1,0.5l-0.2,0.8h-0.2l0.4-1.5h0.2l0.2,0.8c0,0.2,0.1,0.3,0.1,0.5l0,0
					c0-0.1,0.1-0.3,0.1-0.5l0.2-0.8H185.3z"/>
				<path d="M183.4,141v-1.5h0.2v1.5H183.4z"/>
				<path d="M182.6,140.8h0.5v0.2H182v-0.2h0.5v-1.3h0.2L182.6,140.8L182.6,140.8z"/>
				<path d="M181.5,141v-0.6h-0.7v0.6h-0.2v-1.5h0.2v0.7h0.7v-0.7h0.2v1.5H181.5z"/>
				<path d="M205.8,138c0-0.5,0.3-0.8,0.7-0.8c0.4,0,0.7,0.3,0.7,0.8s-0.3,0.8-0.7,0.8C206,138.7,205.8,138.4,205.8,138z M206.9,138
					c0-0.3-0.2-0.6-0.5-0.6s-0.5,0.3-0.5,0.6s0.2,0.6,0.5,0.6C206.8,138.6,206.9,138.3,206.9,138z"/>
				<path d="M205.4,138.7c-0.1,0-0.2,0-0.4,0c-0.2,0-0.3,0-0.4-0.1s-0.1-0.2-0.1-0.3s0-0.2,0.1-0.3s0.3-0.2,0.5-0.2
					c0.1,0,0.1,0,0.2,0v-0.6h0.2v1.5H205.4z M205.2,138c0,0-0.1,0-0.2,0c-0.2,0-0.4,0.1-0.4,0.3s0.1,0.3,0.4,0.3c0.1,0,0.1,0,0.2,0
					V138z"/>
				<path d="M203.9,138.6h0.5v0.2h-1.1v-0.2h0.5v-1.3h0.2v1.3H203.9z"/>
				<path d="M202.7,138.7v-1.5h0.2v1.5H202.7z"/>
				<path d="M201.2,137.3c0.1,0,0.2-0.1,0.4-0.1c0.4,0,0.7,0.3,0.7,0.8s-0.3,0.8-0.8,0.8c-0.2,0-0.3,0-0.4-0.1v-0.2
					c0.1,0,0.2,0.1,0.3,0.1c0.4,0,0.6-0.2,0.6-0.6c0-0.4-0.2-0.6-0.6-0.6c-0.1,0-0.2,0-0.3,0.1L201.2,137.3z"/>
				<path d="M200.6,137.7l0.2-0.5h0.2l-0.5,1.5h-0.2l-0.5-1.5h0.2l0.2,0.5H200.6z M200.2,137.8l0.1,0.4c0,0.1,0.1,0.2,0.1,0.3l0,0
					c0-0.1,0-0.2,0.1-0.3l0.1-0.4H200.2z"/>
				<path d="M199.4,138.7h-0.2v-1.3h-0.6v-0.2h0.8L199.4,138.7L199.4,138.7z"/>
				<path d="M197.5,138.7v-1.5h0.2v1.5H197.5z"/>
				<path d="M197.1,137.2v1.5h-0.2l-0.5-0.8c-0.1-0.2-0.2-0.3-0.3-0.5l0,0c0,0.2,0,0.4,0,0.6v0.6h-0.2v-1.5h0.2l0.5,0.8
					c0.1,0.2,0.2,0.3,0.3,0.5l0,0c0-0.2,0-0.4,0-0.6v-0.6H197.1z"/>
				<path d="M195.5,137.5c-0.1-0.1-0.2-0.1-0.3-0.1c-0.2,0-0.3,0.1-0.3,0.3c0,0.1,0.1,0.2,0.3,0.3c0.2,0.1,0.4,0.2,0.4,0.4
					s-0.2,0.4-0.5,0.4c-0.2,0-0.3,0-0.3-0.1l0.1-0.2c0,0,0.1,0.1,0.3,0.1c0.2,0,0.3-0.1,0.3-0.2c0-0.1-0.1-0.2-0.3-0.3
					c-0.3-0.1-0.4-0.2-0.4-0.4s0.2-0.4,0.5-0.4c0.1,0,0.3,0,0.4,0.1L195.5,137.5z"/>
				<path d="M194,138.6h0.5v0.2h-1.1v-0.2h0.5v-1.3h0.2v1.3H194z"/>
				<path d="M193.1,138.7c-0.1,0-0.2,0-0.4,0c-0.2,0-0.3,0-0.4-0.1s-0.1-0.2-0.1-0.3c0-0.2,0.1-0.3,0.3-0.4l0,0
					c-0.1,0-0.2-0.1-0.2-0.3s-0.1-0.4-0.1-0.4h0.2c0,0,0.1,0.2,0.1,0.4s0.1,0.3,0.3,0.3h0.2v-0.6h0.2v1.4H193.1z M192.9,138h-0.2
					c-0.2,0-0.3,0.1-0.3,0.3s0.1,0.3,0.3,0.3c0.1,0,0.2,0,0.2,0V138z"/>
				<path d="M191.6,138.7v-0.9c0-0.3-0.1-0.5-0.3-0.5s-0.4,0.1-0.4,0.5v0.9h-0.2v-0.9c0-0.5,0.2-0.6,0.6-0.6c0.3,0,0.5,0.2,0.5,0.6
					v0.9H191.6z"/>
				<path d="M189,137.9c0,0.2,0,0.5,0,0.6l0,0c0.1-0.2,0.1-0.4,0.2-0.6l0.3-0.7h0.1l0.2,0.7c0.1,0.2,0.1,0.4,0.2,0.6l0,0
					c0-0.2,0-0.4,0-0.7v-0.6h0.2l-0.1,1.5h-0.2l-0.3-0.7c-0.1-0.2-0.1-0.3-0.2-0.5l0,0c0,0.2-0.1,0.3-0.2,0.5l-0.3,0.7h-0.2
					l-0.1-1.5h0.2L189,137.9z"/>
				<path d="M187.6,137.9h0.6v-0.5h-0.6v-0.2h0.8v1.5h-0.8v-0.2h0.6V138h-0.6V137.9z"/>
				<path d="M187.2,137.2v1.5H187l-0.5-0.8c-0.1-0.2-0.2-0.3-0.3-0.5l0,0c0,0.2,0,0.4,0,0.6v0.6H186v-1.5h0.2l0.5,0.8
					c0.1,0.2,0.2,0.3,0.3,0.5l0,0c0-0.2,0-0.4,0-0.6v-0.6H187.2z"/>
				<path d="M185.3,138.6h0.5v0.2h-1.1v-0.2h0.5v-1.3h0.2L185.3,138.6L185.3,138.6z"/>
				<path d="M184.4,137.5c-0.1-0.1-0.2-0.1-0.3-0.1c-0.2,0-0.3,0.1-0.3,0.3c0,0.1,0.1,0.2,0.3,0.3s0.4,0.2,0.4,0.4s-0.2,0.4-0.5,0.4
					c-0.2,0-0.3,0-0.3-0.1l0.1-0.2c0,0,0.1,0.1,0.3,0.1s0.3-0.1,0.3-0.2c0-0.1-0.1-0.2-0.3-0.3c-0.3-0.1-0.4-0.2-0.4-0.4
					s0.2-0.4,0.5-0.4c0.1,0,0.3,0,0.4,0.1L184.4,137.5z"/>
			</g>
			<g>
				<path class="st7" d="M197.6,142.7l4.7,8.3c0.1,0.2,0.4,0.3,0.6,0.3s0.5-0.1,0.6-0.3l4.6-8.3c0-0.1,0-0.2,0-0.3
					c0-0.3-0.3-0.6-0.7-0.6h-9.3c-0.4,0-0.7,0.3-0.7,0.6C197.5,142.5,197.5,142.6,197.6,142.7z"/>
				<path d="M197.6,142.7l4.7,8.4c0.1,0.2,0.4,0.3,0.6,0.3s0.5-0.1,0.6-0.3l4.7-8.4c0-0.1,0-0.2,0-0.3c0-0.3-0.3-0.6-0.7-0.6h-9.3
					c-0.4,0-0.7,0.3-0.7,0.6C197.5,142.4,197.5,142.6,197.6,142.7z M198.2,141.9h9.3c0.2,0,0.5,0.2,0.5,0.5c0,0.1,0,0.1,0,0.2
					l-4.6,8.3c-0.1,0.2-0.3,0.3-0.5,0.3s-0.4-0.1-0.5-0.3l-4.6-8.3c0-0.1-0.1-0.2-0.1-0.3C197.7,142,197.9,141.9,198.2,141.9z"/>
				<path d="M202.3,150.5c0.1,0.2,0.2,0.5,0.5,0.5s0.4-0.4,0.5-0.6l4.2-7.6c0.1-0.1,0.3-0.4,0.2-0.6c-0.1-0.2-0.5-0.2-0.7-0.2h-8.3
					c-0.4,0-0.6,0-0.7,0.2s0.1,0.5,0.2,0.7L202.3,150.5z M202.8,142.6h4.3l-4.3,7.4l0,0l0,0l0,0l0,0l-2.8-4.8h2.1l0,0l-0.8,0.2v0.1
					l0.8-0.2v0.1l-1.4,0.8l0.1,0.2l1.4-0.8c0,0,0,0,0,0.1l-0.6,0.6l0.1,0.1l0.6-0.6l0,0l-0.8,1.4l0.2,0.1l0.8-1.4c0,0,0,0,0.1,0
					l-0.2,0.8h0.1l0.2-0.8h0.1v1.6h0.2v-1.6c0,0,0,0,0.1,0l0.2,0.8h0.1l-0.2-0.8h0.1l0.8,1.4l0.2-0.1l-0.8-1.3c0,0,0,0,0.1,0
					l0.6,0.6l0.1-0.1l-0.6-0.6c0,0,0,0,0.1-0.1l1.3,0.8l0.1-0.2l-1.3-0.7c0,0,0,0,0-0.1l0.8,0.2v-0.1l-0.8-0.2c0,0,0,0,0-0.1h1.5
					V145h-1.5v-0.1l0.8-0.2v-0.1l-0.8,0.2c0,0,0,0,0-0.1l1.3-0.7l-0.1-0.2l-1.3,0.8c0,0,0,0-0.1-0.1l0.6-0.5l-0.1-0.1l-0.5,0.6
					c0,0-0.1,0-0.1-0.1l0.8-1.3l-0.2-0.1l-0.7,1.3c0,0,0,0-0.1,0l0.2-0.8h-0.1l-0.2,0.8l0,0v-1.6h-0.2v1.6H203l-0.2-0.8h-0.1
					l0.2,0.8c0,0,0,0-0.1,0l-0.7-1.4l-0.2,0.1l0.8,1.3c0,0,0,0-0.1,0.1l-0.6-0.6l-0.1,0.1l0.6,0.6c0,0,0,0,0,0.1l-1.4-0.8L201,144
					l1.4,0.8v0.1l-0.8-0.2v0.1l0.8,0.2c0,0,0,0,0,0.1h-2.2l-1.4-2.4h4V142.6z"/>
			</g>
		</g>
	</g>
</g>
<path class="st16" d="M352.6,100.1c0-28.1,22.9-51,51.1-51c28.2,0,51.1,22.8,51.1,51c0,28.1-22.9,51-51.1,51
	C375.5,151,352.6,128.2,352.6,100.1z"/>
<path class="st17" d="M355.3,100.1c0-26.7,21.7-48.3,48.4-48.3c26.7,0,48.4,21.6,48.4,48.3c0,26.7-21.7,48.3-48.4,48.3
	C377,148.3,355.3,126.7,355.3,100.1z"/>
<path class="st18" d="M360.5,100.1c0-23.6,19.2-42.7,42.8-42.7c23.7,0,42.8,19.1,42.8,42.7c0,23.6-19.2,42.7-42.8,42.7
	C379.6,142.8,360.5,123.7,360.5,100.1z"/>
<path class="st19" d="M366.2,100.1c0-20.7,16.8-37.4,37.5-37.4c20.7,0,37.5,16.8,37.5,37.4c0,20.7-16.8,37.4-37.5,37.4
	C383,137.5,366.2,120.7,366.2,100.1z"/>
<path class="st20" d="M403.7,82.1c2.1,0,3.9,1.7,3.9,3.9c0,2.1-1.7,3.9-3.9,3.9c-2.1,0-3.9-1.7-3.9-3.9
	C399.9,83.8,401.6,82.1,403.7,82.1z"/>
<polygon class="st12" points="402.5,88 401.4,85.9 402.5,84 404.9,84 406.1,85.9 404.9,88 "/>
<path class="st20" d="M403.7,110.3c2.1,0,3.9,1.7,3.9,3.9c0,2.1-1.7,3.9-3.9,3.9c-2.1,0-3.9-1.7-3.9-3.9
	C399.9,112,401.6,110.3,403.7,110.3z"/>
<polygon class="st12" points="402.5,116.2 401.4,114.2 402.5,112.2 404.9,112.2 406.1,114.2 404.9,116.2 "/>
<path class="st21" d="M385.7,100.1c0-2.1,1.7-3.8,3.9-3.8c2.1,0,3.9,1.7,3.9,3.8c0,2.1-1.7,3.8-3.9,3.8
	C387.5,103.9,385.7,102.2,385.7,100.1z"/>
<polygon class="st12" points="391.6,101.2 389.6,102.4 387.6,101.2 387.6,98.9 389.6,97.7 391.6,98.9 "/>
<path class="st21" d="M414,100.1c0-2.1,1.7-3.8,3.9-3.8c2.1,0,3.9,1.7,3.9,3.8c0,2.1-1.7,3.8-3.9,3.8
	C415.7,103.9,414,102.2,414,100.1z"/>
<polygon class="st12" points="419.8,101.2 417.8,102.4 415.9,101.2 415.9,98.9 417.8,97.7 419.8,98.9 "/>
<path class="st12" d="M422.1,114.6c2.2,0,4,1.8,4,4c0,2.2-1.8,4-4,4c-2.2,0-4-1.8-4-4C418.1,116.4,419.9,114.6,422.1,114.6z"/>
<path class="st22" d="M387.4,73.4c1.8,0,3.3,1.5,3.3,3.4c0,1.9-1.5,3.4-3.3,3.4c-1.8,0-3.3-1.5-3.3-3.4
	C384.1,74.9,385.6,73.4,387.4,73.4z"/>
<polygon class="st12" points="386.4,78.5 385.4,76.8 386.4,75.1 388.4,75.1 389.4,76.8 388.4,78.5 "/>
<path class="st22" d="M379.3,81.5c1.8,0,3.3,1.5,3.3,3.4c0,1.9-1.5,3.4-3.3,3.4c-1.8,0-3.3-1.5-3.3-3.4
	C376,83,377.5,81.5,379.3,81.5z"/>
<polygon class="st12" points="378.3,86.6 377.4,84.8 378.3,83.1 380.3,83.1 381.4,84.8 380.3,86.6 "/>
<polygon class="st23" points="400,129.9 403.7,127.8 407.5,129.9 407.5,134 403.7,136.1 400,134 "/>
<path class="st24" d="M403.7,128.5c2,0,3.6,1.5,3.6,3.4c0,1.9-1.6,3.4-3.6,3.4c-2,0-3.6-1.5-3.6-3.4
	C400.1,130,401.7,128.5,403.7,128.5z"/>
<polygon class="st23" points="368.1,98 371.8,95.9 375.6,98 375.6,102.1 371.8,104.2 368.1,102.1 "/>
<path class="st24" d="M371.8,96.6c2,0,3.6,1.5,3.6,3.4c0,1.9-1.6,3.4-3.6,3.4c-2,0-3.6-1.5-3.6-3.4
	C368.2,98.2,369.8,96.6,371.8,96.6z"/>
<polygon class="st23" points="431.9,97.9 435.6,95.9 439.4,97.9 439.4,102.1 435.6,104.2 431.9,102.1 "/>
<path class="st24" d="M435.6,96.6c2,0,3.6,1.5,3.6,3.4c0,1.9-1.6,3.4-3.6,3.4c-2,0-3.6-1.5-3.6-3.4C432,98.2,433.6,96.6,435.6,96.6z
	"/>
<polygon class="st23" points="400,66.1 403.7,64 407.5,66.1 407.5,70.3 403.7,72.3 400,70.3 "/>
<path class="st24" d="M403.7,64.7c2,0,3.6,1.5,3.6,3.4c0,1.9-1.6,3.4-3.6,3.4c-2,0-3.6-1.5-3.6-3.4
	C400.1,66.3,401.7,64.7,403.7,64.7z"/>
<g>
	<g>
		<line class="st13" x1="465" y1="70.3" x2="465" y2="98.1"/>
		<g>
			<polygon class="st12" points="465,68.6 464,71 465,70.5 466,71.1 			"/>
		</g>
		<g>
			<polygon class="st12" points="465,99.8 464,97.3 465,97.9 466,97.3 			"/>
		</g>
	</g>
</g>
<line class="st14" x1="468.7" y1="68.1" x2="403.7" y2="68.1"/>
<line class="st14" x1="468.3" y1="100.1" x2="371.8" y2="100.1"/>
<text transform="matrix(6.123234e-17 -1 1 6.123234e-17 462.2963 96.4044)" class="st12 st25 st26">25 (0.98)</text>
<g>
	<g>
		<line class="st13" x1="374" y1="38.8" x2="400.7" y2="38.8"/>
		<g>
			<polygon class="st12" points="372.2,38.8 374.7,39.8 374.1,38.8 374.7,37.8 			"/>
		</g>
		<g>
			<polygon class="st12" points="402.5,38.8 400,39.8 400.6,38.8 400,37.8 			"/>
		</g>
	</g>
</g>
<line class="st14" x1="371.8" y1="34.8" x2="371.8" y2="100"/>
<line class="st14" x1="403.7" y1="35.5" x2="403.7" y2="132.1"/>
<text transform="matrix(1 0 0 1 374.9119 34.7109)" class="st12 st25 st26">25 (0.98)</text>
<g>
	<g>
		<line class="st13" x1="403.2" y1="137.8" x2="396.8" y2="157.3"/>
		<g>
			<polygon class="st12" points="403.7,136.1 402,138.2 403.1,137.9 403.9,138.8 			"/>
		</g>
	</g>
</g>
<text transform="matrix(1 0 0 1 370.3994 165.1744)"><tspan x="0" y="0" class="st12 st25 st26">M3 x M3 x 12 mm Hex</tspan><tspan x="0" y="8.6" class="st12 st25 st26">standoff Male / Female</tspan></text>
</svg>
