<?xml version="1.0" encoding="utf-8"?>
<!-- Generator: Adobe Illustrator 22.1.0, SVG Export Plug-In . SVG Version: 6.00 Build 0)  -->
<svg version="1.1" id="Layer_1" xmlns="http://www.w3.org/2000/svg" xmlns:xlink="http://www.w3.org/1999/xlink" x="0px" y="0px"
	 viewBox="0 0 510.2 212.6" style="enable-background:new 0 0 510.2 212.6;" xml:space="preserve">
<style type="text/css">
	.st0{fill:#D1D3D4;stroke:#231F20;stroke-width:0.563;stroke-linecap:round;stroke-linejoin:round;stroke-miterlimit:10;}
	.st1{fill:#D1D3D4;stroke:#231F20;stroke-width:0.4955;stroke-linecap:round;stroke-linejoin:round;stroke-miterlimit:10;}
	.st2{fill:#939598;stroke:#231F20;stroke-width:0.5;stroke-linecap:round;stroke-linejoin:round;stroke-miterlimit:10;}
	.st3{fill:#58595B;stroke:#231F20;stroke-width:0.5;stroke-linecap:round;stroke-linejoin:round;stroke-miterlimit:10;}
	.st4{fill:none;stroke:#231F20;stroke-width:0.5;stroke-linecap:round;stroke-linejoin:round;stroke-miterlimit:10;}
	.st5{fill:none;stroke:#231F20;stroke-width:0.306;stroke-linecap:round;stroke-linejoin:round;stroke-miterlimit:10;}
	.st6{fill:#D1D3D4;stroke:#231F20;stroke-width:0.5;stroke-linecap:round;stroke-linejoin:round;stroke-miterlimit:10;}
	.st7{fill:#FFF200;}
	.st8{fill:#FFFFFF;}
	.st9{fill:#F89743;}
	.st10{fill:none;stroke:#F89743;stroke-width:1.3013;stroke-linecap:round;stroke-linejoin:round;stroke-miterlimit:10;}
	.st11{fill:#939598;}
	.st12{fill:none;stroke:#231F20;stroke-width:0.5008;stroke-linecap:round;stroke-linejoin:round;}
	.st13{fill:#231F20;}
	.st14{fill:none;stroke:#231F20;stroke-width:0.5008;stroke-linecap:round;stroke-linejoin:round;stroke-miterlimit:10;}
	.st15{clip-path:url(#SVGID_2_);}
</style>
<g>
	<polygon class="st0" points="341.7,128.3 337.3,128.3 337.3,130.1 341.7,130.1 341.7,131.7 345.1,131.7 345.1,126.7 341.7,126.7 	
		"/>
	<polygon class="st1" points="340.6,125.9 340.9,132.5 340,132.5 339.6,125.9 	"/>
	
		<rect x="338.1" y="128.7" transform="matrix(6.123234e-17 -1 1 6.123234e-17 212.1616 470.5727)" class="st1" width="6.6" height="0.9"/>
	<polygon class="st0" points="341.7,128.3 337.3,128.3 337.3,130.1 341.7,130.1 341.7,131.7 345.1,131.7 345.1,126.7 341.7,126.7 	
		"/>
	<polygon class="st1" points="340.6,125.9 340.9,132.5 340,132.5 339.6,125.9 	"/>
	
		<rect x="338.1" y="128.7" transform="matrix(6.123234e-17 -1 1 6.123234e-17 212.1616 470.5727)" class="st1" width="6.6" height="0.9"/>
	<polygon class="st0" points="341.7,96.7 337.3,96.7 337.3,98.5 341.7,98.5 341.7,100 345.1,100 345.1,95.1 341.7,95.1 	"/>
	<polygon class="st1" points="340.6,94.3 340.9,100.9 340,100.9 339.6,94.3 	"/>
	
		<rect x="338.1" y="97.1" transform="matrix(6.123234e-17 -1 1 6.123234e-17 243.7851 438.9492)" class="st1" width="6.6" height="0.9"/>
	<polygon class="st0" points="341.7,65.1 337.3,65.1 337.3,66.9 341.7,66.9 341.7,68.5 345.1,68.5 345.1,63.6 341.7,63.6 	"/>
	<polygon class="st1" points="340.6,62.7 340.9,69.3 340,69.3 339.6,62.7 	"/>
	
		<rect x="338.1" y="65.6" transform="matrix(6.123234e-17 -1 1 6.123234e-17 275.3589 407.3754)" class="st1" width="6.6" height="0.9"/>
	<rect x="324.8" y="63.7" class="st1" width="13.5" height="4.6"/>
	<rect x="324.6" y="126.9" class="st1" width="13.5" height="4.6"/>
	<rect x="324.8" y="95.3" class="st1" width="13.5" height="4.6"/>
</g>
<polygon class="st2" points="279.7,148.8 282.6,146 292.5,146 292.5,49.2 282.6,49.2 279.7,46.4 239.6,46.4 235.9,50.6 235.9,144.6 
	239.6,148.8 "/>
<path class="st3" d="M261.2,96c-8.5,0-15.5-6.9-15.5-15.5c0-8.5,6.9-15.5,15.5-15.5c8.5,0,15.5,6.9,15.5,15.5
	C276.6,89.1,269.7,96,261.2,96z"/>
<path class="st3" d="M261.2,130.2c-8.5,0-15.5-6.9-15.5-15.5c0-8.5,6.9-15.5,15.5-15.5c8.5,0,15.5,6.9,15.5,15.5
	C276.6,123.2,269.7,130.2,261.2,130.2z"/>
<line class="st4" x1="279.7" y1="46.4" x2="279.7" y2="148.8"/>
<line class="st4" x1="239.5" y1="46.4" x2="239.5" y2="148.8"/>
<ellipse transform="matrix(1 -7.787164e-03 7.787164e-03 1 -0.7555 1.1915)" class="st2" cx="152.6" cy="97.6" rx="51.2" ry="51.2"/>
<ellipse class="st4" cx="152.6" cy="97.6" rx="47" ry="47"/>
<path class="st5" d="M190.7,97.6c0,21-17.1,38.1-38.1,38.1c-21,0-38.1-17-38.1-38.1s17.1-38.1,38.1-38.1
	C173.7,59.5,190.7,76.6,190.7,97.6z"/>
<g>
	<polygon class="st6" points="294.3,146 299.4,140.8 299.4,54.5 294.3,49.2 292.5,49.2 292.5,146 	"/>
	<line class="st6" x1="294.3" y1="49.2" x2="294.3" y2="146"/>
</g>
<g>
	<polygon class="st6" points="319.5,140.4 324.6,135.1 324.6,60.1 319.5,54.9 299.4,54.9 299.4,140.4 	"/>
	<line class="st6" x1="319.5" y1="54.9" x2="319.5" y2="140.4"/>
</g>
<line class="st4" x1="282.6" y1="49.2" x2="282.6" y2="146"/>
<g>
	<path class="st7" d="M247.1,46.7v10.4c0,0.7,1.1,1.2,2.5,1.2h20.1c1.4,0,2.5-0.5,2.5-1.2V46.7H247.1z"/>
	<g>
		<path d="M269.2,46.7V49l1.3,1.3l-1.3,1.2v5.7c0,0.1-0.2,0.2-0.4,0.2h-17.2V46.7h-3.7v10.6c0,0.3,0.6,0.6,1.2,0.6h2.5h17.2
			c0.7,0,1.2-0.3,1.2-0.6v-5.7l1.3-1.2l-1.3-1.3v-2.3H269.2z"/>
	</g>
	<path class="st8" d="M269.2,46.7h-17.6v10.8h17.2c0.2,0,0.4-0.1,0.4-0.2v-5.7l1.3-1.2l-1.3-1.3V46.7z"/>
	<g>
		<path class="st7" d="M251.2,55c0,0,0.1,0.2,0.1,0.3c0,0.4-0.5,0.6-1.2,0.6c-0.8,0-1.3-0.3-1.3-0.6c0-0.1,0.1-0.2,0.1-0.3l0.4,0.1
			c0,0.1-0.1,0.1-0.1,0.2c0,0.2,0.3,0.4,0.8,0.4c0.5,0,0.8-0.1,0.8-0.4c0-0.1,0-0.2-0.1-0.2L251.2,55z"/>
		<path class="st7" d="M250.6,53.8l0.6,0.1v0.3l-2.4-0.4v-0.3l2.4-0.4v0.3l-0.6,0.1V53.8z M250.2,53.5l-0.5,0.1
			c-0.1,0-0.3,0-0.5,0.1v0c0.1,0,0.3,0,0.5,0.1l0.5,0.1V53.5z"/>
		<path class="st7" d="M248.8,52.1h1.4c0.4,0,0.6-0.1,0.6-0.2c0-0.1-0.2-0.2-0.6-0.2h-1.4v-0.3h1.4c0.8,0,1.1,0.2,1.1,0.5
			c0,0.3-0.3,0.5-1.1,0.5h-1.4V52.1z"/>
		<path class="st7" d="M249.3,50.3v0.3h-0.5v-0.9h0.5V50h2v0.3H249.3z"/>
		<path class="st7" d="M248.8,48.6h2.4v0.3h-2.4V48.6z"/>
		<path d="M252.1,56.1v-0.2h1.5v-0.3h0.3v0.5H252.1z"/>
		<path d="M253.5,55.2l0.5,0.1v0.2l-1.8-0.3v-0.3l1.8-0.3v0.2l-0.5,0.1V55.2z M253.1,54.9l-0.4,0.1c-0.1,0-0.2,0-0.4,0v0
			c0.1,0,0.2,0,0.4,0l0.4,0.1V54.9z"/>
		<path d="M253.5,54.4c0.1-0.1,0.1-0.1,0.1-0.2c0-0.1-0.1-0.1-0.2-0.1c-0.1,0-0.2,0-0.3,0.1c-0.1,0.1-0.3,0.2-0.5,0.2
			c-0.3,0-0.5-0.1-0.5-0.3c0-0.1,0-0.2,0.1-0.2l0.3,0c0,0-0.1,0.1-0.1,0.2c0,0.1,0.1,0.1,0.2,0.1c0.1,0,0.2,0,0.3-0.2
			c0.1-0.2,0.3-0.2,0.5-0.2c0.3,0,0.6,0.1,0.6,0.3c0,0.1-0.1,0.2-0.1,0.2L253.5,54.4z"/>
		<path d="M253.1,53.1v0.3h0.4v-0.4h0.3v0.6h-1.8v-0.5h0.3v0.3h0.4v-0.3H253.1z"/>
		<path d="M252.1,52.8c0-0.1,0-0.2,0-0.3c0-0.1,0-0.2,0.1-0.3c0.1-0.1,0.2-0.1,0.4-0.1c0.2,0,0.4,0.1,0.5,0.2h0
			c0.1-0.1,0.2-0.1,0.3-0.1c0.2,0,0.4-0.1,0.5-0.1v0.2c-0.1,0-0.2,0-0.4,0.1c-0.2,0-0.3,0.1-0.3,0.1v0.1h0.7v0.2H252.1z M252.9,52.7
			L252.9,52.7c0-0.2-0.1-0.2-0.3-0.2c-0.2,0-0.3,0.1-0.3,0.1c0,0,0,0.1,0,0.1H252.9z"/>
		<path d="M252.1,51.6c0-0.1,0-0.2,0-0.3c0-0.1,0-0.2,0.1-0.3c0.1-0.1,0.2-0.1,0.4-0.1c0.2,0,0.4,0.1,0.5,0.2h0
			c0.1-0.1,0.2-0.1,0.3-0.1c0.2,0,0.4-0.1,0.5-0.1v0.2c-0.1,0-0.2,0-0.4,0.1c-0.2,0-0.3,0.1-0.3,0.1v0.1h0.7v0.2H252.1z M252.9,51.4
			L252.9,51.4c0-0.2-0.1-0.2-0.3-0.2c-0.2,0-0.3,0.1-0.3,0.1c0,0,0,0.1,0,0.1H252.9z"/>
		<path d="M253.5,50.6l0.5,0.1v0.2l-1.8-0.3v-0.3l1.8-0.3v0.2l-0.5,0.1V50.6z M253.1,50.3l-0.4,0.1c-0.1,0-0.2,0-0.4,0v0
			c0.1,0,0.2,0,0.4,0l0.4,0.1V50.3z"/>
		<path d="M252.1,49.8c0-0.1,0-0.2,0-0.3c0-0.2,0.1-0.3,0.2-0.4c0.1-0.1,0.4-0.1,0.7-0.1c0.3,0,0.6,0.1,0.7,0.1
			c0.2,0.1,0.2,0.2,0.2,0.4c0,0.1,0,0.2,0,0.2H252.1z M253.6,49.6C253.6,49.6,253.6,49.6,253.6,49.6c0-0.2-0.2-0.4-0.6-0.4
			c-0.4,0-0.6,0.1-0.6,0.3c0,0,0,0.1,0,0.1H253.6z"/>
		<path d="M252.1,48.6h1.8v0.2h-1.8V48.6z"/>
		<path d="M253.5,48.2l0.5,0.1v0.2l-1.8-0.3v-0.3l1.8-0.3v0.2l-0.5,0.1V48.2z M253.1,47.9l-0.4,0.1c-0.1,0-0.2,0-0.4,0v0
			c0.1,0,0.2,0,0.4,0l0.4,0.1V47.9z"/>
		<path d="M252.4,47.3v0.2h-0.3v-0.7h0.3v0.2h1.5v0.2H252.4z"/>
		<path class="st7" d="M250.7,46.7h-1.4c-0.3,0.1-0.6,0.2-0.6,0.5c0,0.3,0.5,0.6,1.3,0.6c0.7,0,1.2-0.2,1.2-0.5
			C251.3,47,251.1,46.8,250.7,46.7z M250,47.5c-0.5,0-0.8-0.1-0.8-0.3c0-0.2,0.4-0.3,0.8-0.3c0.5,0,0.8,0.1,0.8,0.3
			C250.9,47.4,250.5,47.5,250,47.5z"/>
	</g>
	<g>
		<path d="M259.6,50.7c0,0,0.1,0.1,0.1,0.2c0,0.3-0.4,0.5-0.9,0.5c-0.6,0-1-0.2-1-0.5c0-0.1,0-0.2,0.1-0.2l0.3,0
			c0,0-0.1,0.1-0.1,0.2c0,0.2,0.2,0.3,0.6,0.3c0.4,0,0.6-0.1,0.6-0.3c0-0.1,0-0.1-0.1-0.2L259.6,50.7z"/>
		<path d="M257.8,50.5v-0.2h1.5v-0.3h0.3v0.5H257.8z"/>
		<path d="M259.2,49.5l0.5,0.1v0.2l-1.8-0.3v-0.3l1.8-0.3v0.2l-0.5,0.1V49.5z M258.9,49.3l-0.4,0.1c-0.1,0-0.2,0-0.4,0v0
			c0.1,0,0.2,0,0.4,0l0.4,0.1V49.3z"/>
		<path d="M259.2,48.7c0.1-0.1,0.1-0.1,0.1-0.2c0-0.1-0.1-0.1-0.2-0.1c-0.1,0-0.2,0-0.3,0.1c-0.1,0.1-0.3,0.2-0.5,0.2
			c-0.3,0-0.5-0.1-0.5-0.3c0-0.1,0-0.2,0.1-0.2l0.3,0c0,0-0.1,0.1-0.1,0.2c0,0.1,0.1,0.1,0.2,0.1c0.1,0,0.2,0,0.3-0.2
			c0.1-0.2,0.3-0.2,0.5-0.2c0.3,0,0.6,0.1,0.6,0.3c0,0.1-0.1,0.2-0.1,0.2L259.2,48.7z"/>
		<path d="M259.2,47.9c0.1-0.1,0.1-0.1,0.1-0.2c0-0.1-0.1-0.1-0.2-0.1c-0.1,0-0.2,0-0.3,0.1c-0.1,0.1-0.3,0.2-0.5,0.2
			c-0.3,0-0.5-0.1-0.5-0.3c0-0.1,0-0.2,0.1-0.2l0.3,0c0,0-0.1,0.1-0.1,0.2s0.1,0.1,0.2,0.1c0.1,0,0.2,0,0.3-0.2
			c0.1-0.2,0.3-0.2,0.5-0.2c0.3,0,0.6,0.1,0.6,0.3c0,0.1-0.1,0.2-0.1,0.2L259.2,47.9z"/>
		<path d="M258.6,47.1c-0.1,0-0.2,0-0.2-0.1c0-0.1,0.1-0.1,0.2-0.1c0.1,0,0.2,0,0.2,0.1C258.8,47,258.7,47.1,258.6,47.1z
			 M259.4,47.1c-0.1,0-0.2,0-0.2-0.1c0-0.1,0.1-0.1,0.2-0.1c0.1,0,0.2,0,0.2,0.1C259.7,47,259.6,47.1,259.4,47.1z"/>
	</g>
	<g>
		<path d="M264.7,57.3c0-0.1,0-0.1,0-0.2c0-0.1,0.1-0.2,0.2-0.3c0.1-0.1,0.3-0.1,0.5-0.1c0.2,0,0.4,0,0.6,0.1
			c0.1,0.1,0.2,0.2,0.2,0.3c0,0.1,0,0.1,0,0.2H264.7z M266.1,57.2C266.1,57.2,266.1,57.1,266.1,57.2c0-0.3-0.2-0.4-0.6-0.4
			c-0.4,0-0.6,0.1-0.6,0.3c0,0,0,0.1,0,0.1H266.1z"/>
		<path d="M265.4,55.9c0.5,0,0.8,0.1,0.8,0.3c0,0.2-0.3,0.3-0.8,0.3c-0.5,0-0.8-0.1-0.8-0.3C264.7,56.1,265,55.9,265.4,55.9z
			 M265.5,56.5c0.3,0,0.6-0.1,0.6-0.2c0-0.1-0.3-0.2-0.6-0.2c-0.3,0-0.6,0.1-0.6,0.2C264.8,56.4,265.1,56.5,265.5,56.5z"/>
		<path d="M266.2,55.5h-1.5v-0.1l0.8-0.2c0.2-0.1,0.3-0.1,0.5-0.1l0,0c-0.2,0-0.4,0-0.6,0h-0.6V55h1.5V55l-0.8,0.2
			c-0.2,0.1-0.3,0.1-0.5,0.1l0,0c0.2,0,0.4,0,0.6,0L266.2,55.5L266.2,55.5z"/>
		<path d="M265.4,54.1c0.5,0,0.8,0.1,0.8,0.3c0,0.2-0.3,0.3-0.8,0.3c-0.5,0-0.8-0.1-0.8-0.3C264.7,54.3,265,54.1,265.4,54.1z
			 M265.5,54.7c0.3,0,0.6-0.1,0.6-0.2c0-0.1-0.3-0.2-0.6-0.2c-0.3,0-0.6,0.1-0.6,0.2C264.8,54.6,265.1,54.7,265.5,54.7z"/>
		<path d="M264.9,53.9v0.2h-0.2v-0.5h0.2V53.9l1.3-0.1v0.1H264.9z"/>
		<path d="M266.2,53l-1.5,0.2v-0.1l0.7-0.1c0.2,0,0.4-0.1,0.6-0.1v0c-0.2,0-0.4,0-0.6-0.1l-0.7-0.1v-0.1l1.5,0.3V53z"/>
		<path d="M264.7,52.5h1.5v0.1L264.7,52.5L264.7,52.5z"/>
		<path d="M265.5,51.9v0.3h0.5v-0.3h0.2v0.4h-1.5v-0.4h0.2v0.3h0.5v-0.3H265.5z"/>
		<path d="M266.2,51.6l-1.5,0.2v-0.1l0.8-0.1c0.2,0,0.4,0,0.5-0.1v0c-0.1,0-0.3,0-0.5-0.1l-0.8-0.1v-0.1l0.8-0.1c0.2,0,0.4,0,0.5,0
			v0c-0.2,0-0.3,0-0.5-0.1l-0.8-0.1v-0.1l1.5,0.2v0.1l-0.8,0.1c-0.2,0-0.3,0-0.5,0v0c0.1,0,0.3,0,0.5,0.1L266.2,51.6L266.2,51.6z"/>
		<path d="M264.7,50.5c0-0.1,0-0.1,0-0.2c0-0.1,0.1-0.2,0.2-0.3c0.1-0.1,0.3-0.1,0.5-0.1c0.2,0,0.4,0,0.6,0.1
			c0.1,0.1,0.2,0.2,0.2,0.3c0,0.1,0,0.1,0,0.2H264.7z M266.1,50.4C266.1,50.4,266.1,50.3,266.1,50.4c0-0.3-0.2-0.4-0.6-0.4
			c-0.4,0-0.6,0.1-0.6,0.3c0,0,0,0.1,0,0.1H266.1z"/>
		<path d="M264.7,49.6h1.5v0.1L264.7,49.6L264.7,49.6z"/>
		<path d="M264.7,49.4c0,0,0-0.1,0-0.2c0-0.1,0-0.2,0.1-0.2c0.1,0,0.2-0.1,0.3-0.1c0.2,0,0.3,0.1,0.4,0.1h0c0-0.1,0.1-0.1,0.3-0.1
			c0.2,0,0.4,0,0.4-0.1V49c0,0-0.2,0-0.4,0c-0.2,0-0.3,0.1-0.3,0.1v0.1h0.6v0.1H264.7z M265.4,49.3L265.4,49.3
			c0-0.2-0.1-0.3-0.3-0.3c-0.2,0-0.3,0.1-0.3,0.2c0,0,0,0.1,0,0.1H265.4z"/>
		<path d="M265.5,48.4v0.3h0.5v-0.3h0.2v0.4h-1.5v-0.4h0.2v0.3h0.5v-0.3H265.5z"/>
		<path d="M266.2,47.7c0,0,0.1,0.1,0.1,0.2c0,0.2-0.3,0.3-0.8,0.3c-0.5,0-0.8-0.2-0.8-0.4c0-0.1,0-0.1,0.1-0.2l0.2,0
			c0,0-0.1,0.1-0.1,0.1c0,0.2,0.2,0.3,0.6,0.3c0.4,0,0.6-0.1,0.6-0.3c0-0.1,0-0.1-0.1-0.1L266.2,47.7z"/>
		<path d="M264.9,47.4v0.2h-0.2v-0.5h0.2V47.4l1.3-0.1v0.1H264.9z"/>
		<path d="M264.7,47L264.7,47l1.3-0.1v-0.3h0.2V47H264.7z"/>
		<path d="M267.7,55.2c0.5,0,0.8,0.1,0.8,0.3c0,0.2-0.3,0.3-0.8,0.3c-0.5,0-0.8-0.1-0.8-0.3C267,55.4,267.3,55.2,267.7,55.2z
			 M267.7,55.8c0.3,0,0.6-0.1,0.6-0.2c0-0.1-0.3-0.2-0.6-0.2c-0.3,0-0.6,0.1-0.6,0.2C267.1,55.7,267.4,55.8,267.7,55.8z"/>
		<path d="M267,55.1c0,0,0-0.1,0-0.2c0-0.1,0-0.2,0.1-0.2c0.1,0,0.2-0.1,0.3-0.1c0.1,0,0.2,0,0.3,0.1c0.1,0,0.2,0.1,0.2,0.2
			c0,0,0,0.1,0,0.1h0.6v0.1H267z M267.7,55C267.7,55,267.7,54.9,267.7,55c0-0.2-0.1-0.3-0.3-0.3s-0.3,0.1-0.3,0.2c0,0,0,0.1,0,0.1
			H267.7z"/>
		<path d="M267.1,54.3v0.2H267V54h0.2V54.3l1.3-0.1v0.1H267.1z"/>
		<path d="M267,53.8h1.5v0.1L267,53.8L267,53.8z"/>
		<path d="M268.4,53.1c0,0,0.1,0.1,0.1,0.2c0,0.2-0.3,0.3-0.8,0.3c-0.5,0-0.8-0.2-0.8-0.4c0-0.1,0-0.1,0.1-0.2l0.2,0
			c0,0-0.1,0.1-0.1,0.1c0,0.2,0.2,0.3,0.6,0.3c0.4,0,0.6-0.1,0.6-0.3c0-0.1,0-0.1-0.1-0.1L268.4,53.1z"/>
		<path d="M268,52.8l0.5,0.1V53l-1.5-0.2v-0.1l1.5-0.2v0.1l-0.5,0.1V52.8z M267.9,52.6l-0.4,0.1c-0.1,0-0.2,0-0.3,0v0
			c0.1,0,0.2,0,0.3,0l0.4,0.1V52.6z"/>
		<path d="M267,52.2L267,52.2l1.3-0.1v-0.3h0.2v0.4H267z"/>
		<path d="M267,51.3h1.5v0.1L267,51.3L267,51.3z"/>
		<path d="M268.5,51.1H267V51l0.8-0.2c0.2-0.1,0.3-0.1,0.5-0.1l0,0c-0.2,0-0.4,0-0.6,0H267v-0.1h1.5v0.1l-0.8,0.2
			c-0.2,0-0.3,0.1-0.5,0.1l0,0c0.2,0,0.4,0,0.6,0L268.5,51.1L268.5,51.1z"/>
		<path d="M268.2,50.4c0.1,0,0.1-0.1,0.1-0.2c0-0.1-0.1-0.1-0.3-0.1c-0.1,0-0.2,0-0.3,0.1c-0.1,0.1-0.2,0.2-0.4,0.2
			c-0.2,0-0.4-0.1-0.4-0.2c0-0.1,0-0.1,0.1-0.2l0.2,0c0,0-0.1,0.1-0.1,0.1c0,0.1,0.1,0.1,0.2,0.1c0.1,0,0.2,0,0.3-0.1
			c0.1-0.1,0.2-0.2,0.4-0.2c0.2,0,0.4,0.1,0.4,0.2c0,0.1,0,0.1-0.1,0.2L268.2,50.4z"/>
		<path d="M267.1,49.7v0.2H267v-0.5h0.2V49.7l1.3-0.1v0.1H267.1z"/>
		<path d="M267,49.2c0,0,0-0.1,0-0.2c0-0.1,0-0.2,0.1-0.2c0.1,0,0.2-0.1,0.3-0.1c0.2,0,0.3,0.1,0.4,0.1h0c0-0.1,0.1-0.1,0.3-0.1
			c0.2,0,0.4,0,0.4-0.1v0.1c0,0-0.2,0-0.4,0c-0.2,0-0.3,0.1-0.3,0.1v0.1h0.6v0.1H267z M267.7,49.1L267.7,49.1c0-0.2-0.1-0.3-0.3-0.3
			c-0.2,0-0.3,0.1-0.3,0.2c0,0,0,0.1,0,0.1H267.7z"/>
		<path d="M267,48.5h0.9c0.3,0,0.5-0.1,0.5-0.2c0-0.1-0.1-0.2-0.5-0.2H267v-0.1h0.9c0.5,0,0.6,0.1,0.6,0.3c0,0.1-0.2,0.3-0.6,0.3
			L267,48.5L267,48.5z"/>
		<path d="M267.8,47.3c-0.2,0-0.5,0-0.6,0v0c0.2,0,0.4,0.1,0.6,0.1l0.7,0.1v0.1l-0.7,0.1c-0.2,0-0.4,0.1-0.6,0.1v0
			c0.2,0,0.4,0,0.7,0l0.6,0v0.1l-1.5,0v-0.1l0.7-0.1c0.2,0,0.3-0.1,0.5-0.1v0c-0.1,0-0.3,0-0.5-0.1l-0.7-0.1v-0.1l1.5,0v0.1
			L267.8,47.3z"/>
		<path d="M267.8,46.6v0.3h0.5v-0.3h0.2V47H267v-0.4h0.2v0.3h0.5v-0.3H267.8z"/>
	</g>
	<g>
		<path class="st7" d="M263,51.4l-8.3,2.2c-0.2,0.1-0.3,0.2-0.3,0.3c0,0.1,0.1,0.2,0.3,0.3l8.3,2.2c0.1,0,0.2,0,0.3,0
			c0.3,0,0.6-0.1,0.6-0.3v-4.4c0-0.2-0.3-0.3-0.6-0.3C263.2,51.3,263.1,51.3,263,51.4z"/>
		<path d="M263,51.3l-8.4,2.2c-0.2,0.1-0.3,0.2-0.3,0.3c0,0.1,0.1,0.2,0.3,0.3l8.4,2.2c0.1,0,0.2,0,0.3,0c0.3,0,0.6-0.1,0.6-0.3
			v-4.4c0-0.2-0.3-0.3-0.6-0.3C263.2,51.3,263.1,51.3,263,51.3z M263.8,51.6V56c0,0.1-0.2,0.2-0.5,0.2c-0.1,0-0.1,0-0.2,0l-8.3-2.2
			c-0.2,0-0.3-0.1-0.3-0.2c0-0.1,0.1-0.2,0.3-0.2l8.3-2.2c0.1,0,0.2,0,0.3,0C263.6,51.4,263.8,51.5,263.8,51.6z"/>
		<path d="M255.2,53.6c-0.2,0-0.5,0.1-0.5,0.2c0,0.1,0.4,0.2,0.6,0.3l7.6,2c0.2,0,0.4,0.1,0.6,0.1c0.2-0.1,0.2-0.2,0.2-0.3v-3.9
			c0-0.2,0-0.3-0.2-0.4c-0.2-0.1-0.5,0-0.7,0.1L255.2,53.6z M263.1,53.8v2l-7.4-2l0,0l0,0l0,0l0,0l4.8-1.3v1c0,0,0,0,0,0l-0.2-0.4
			l-0.1,0l0.2,0.4c0,0-0.1,0-0.1,0l-0.8-0.7l-0.2,0l0.8,0.6c0,0,0,0-0.1,0l-0.6-0.3l-0.1,0l0.6,0.3c0,0,0,0,0,0l-1.4-0.4l-0.1,0.1
			l1.4,0.4c0,0,0,0,0,0l-0.8-0.1l0,0.1l0.8,0.1c0,0,0,0,0,0.1l-1.6,0v0.1l1.6,0c0,0,0,0,0,0l-0.8,0.1l0,0.1l0.8-0.1c0,0,0,0,0,0
			l-1.4,0.4l0.1,0.1L260,54c0,0,0,0,0,0l-0.6,0.3l0.1,0l0.6-0.3c0,0,0,0,0.1,0l-0.8,0.6l0.2,0l0.7-0.6c0,0,0,0,0.1,0l-0.2,0.4l0.1,0
			l0.2-0.4c0,0,0,0,0.1,0l0,0.7h0.2l0-0.7c0,0,0.1,0,0.1,0l0.2,0.4l0.1,0l-0.2-0.4c0,0,0,0,0.1,0l0.7,0.6l0.2,0l-0.8-0.6
			c0,0,0,0,0.1,0l0.5,0.3l0.1,0l-0.6-0.3c0,0,0,0,0.1,0l1.3,0.4l0.1-0.1l-1.3-0.3c0,0,0,0,0,0l0.8,0.1l0-0.1l-0.8-0.1c0,0,0,0,0,0
			l1.6,0v-0.1l-1.6,0c0,0,0,0,0,0l0.8-0.1l0-0.1l-0.8,0.1c0,0,0,0,0,0l1.4-0.4l-0.1-0.1l-1.3,0.4c0,0,0,0-0.1,0l0.6-0.3l-0.1,0
			l-0.6,0.3c0,0,0,0-0.1,0l0.8-0.6l-0.2,0l-0.8,0.7c0,0-0.1,0-0.1,0l0.2-0.4l-0.1,0l-0.2,0.4c0,0,0,0-0.1,0v-1l2.4-0.7V53.8z"/>
	</g>
</g>
<g>
	<path d="M190.3,97.6c0,20.8-16.9,37.7-37.7,37.7c-20.8,0-37.7-16.9-37.7-37.7c0-20.8,16.9-37.7,37.7-37.7
		C173.4,59.9,190.3,76.8,190.3,97.6z"/>
	<g>
		<path class="st9" d="M153.8,89c-0.6-0.1-1.6,3.7-2.3,8.4c-0.7,4.7-0.7,8.7-0.1,8.8c0.6,0.1,1.6-3.7,2.3-8.4
			C154.4,93,154.4,89.1,153.8,89z"/>
		<path class="st9" d="M150.8,90.1c-0.6-0.1-1.5,3-2.1,6.9c-0.5,3.9-0.5,7.1,0.1,7.2c0.6,0.1,1.5-3,2.1-6.9
			C151.5,93.5,151.4,90.2,150.8,90.1z"/>
		<path class="st9" d="M147.7,91.9c-0.6-0.1-1.4,2-1.8,4.8c-0.4,2.7-0.2,5,0.4,5.1c0.6,0.1,1.4-2,1.8-4.8
			C148.5,94.3,148.3,92,147.7,91.9z"/>
		<path class="st9" d="M156.4,90.9c-0.6-0.1-1.5,3-2.1,6.9c-0.6,3.9-0.5,7.1,0.1,7.2c0.6,0.1,1.5-3,2.1-6.9
			C157.1,94.2,157,91,156.4,90.9z"/>
		<path class="st9" d="M158.9,93.5c-0.6-0.1-1.4,2-1.8,4.7c-0.4,2.7-0.2,5,0.4,5.1c0.6,0.1,1.4-2,1.8-4.8
			C159.7,95.8,159.5,93.6,158.9,93.5z"/>
	</g>
	<path class="st10" d="M167.4,120.9c7.8-4.9,12.9-13.5,12.9-23.4c0-15.2-12.4-27.6-27.6-27.6C137.4,70,125,82.3,125,97.6
		c0,9.8,5.2,18.5,12.9,23.4"/>
	<g>
		<g>
			<g>
				<path class="st8" d="M145.5,85c0.1,0,0.2,0,0.3,0.1c0.1,0.1,0.1,0.2,0.1,0.3c0,0.1,0,0.2-0.1,0.3c-0.1,0.1-0.2,0.1-0.3,0.1
					s-0.2,0-0.3-0.1c-0.1-0.1-0.1-0.2-0.1-0.3c0-0.1,0-0.2,0.1-0.3C145.3,85,145.4,85,145.5,85z M145.5,85.1c-0.1,0-0.1,0-0.2,0.1
					c0,0.1-0.1,0.1-0.1,0.2c0,0.1,0,0.1,0.1,0.2c0.1,0.1,0.1,0.1,0.2,0.1c0.1,0,0.1,0,0.2-0.1c0.1-0.1,0.1-0.1,0.1-0.2
					c0-0.1,0-0.1-0.1-0.2C145.6,85.1,145.6,85.1,145.5,85.1z"/>
				<path class="st8" d="M146.8,86.2V85h0.3c0.1,0,0.3,0,0.3,0.1c0.1,0.1,0.1,0.2,0.1,0.3c0,0.1,0,0.2-0.1,0.3
					c-0.1,0.1-0.2,0.1-0.3,0.1c-0.1,0-0.1,0-0.2,0v0.4H146.8z M147.1,85.1H147v0.5c0.1,0,0.1,0,0.2,0c0.1,0,0.1,0,0.2-0.1
					c0-0.1,0.1-0.1,0.1-0.2c0-0.1,0-0.1,0-0.1c0,0-0.1-0.1-0.1-0.1C147.2,85.1,147.2,85.1,147.1,85.1z"/>
				<path class="st8" d="M148.3,85.1l0.3-0.3V85h0.3v0.1h-0.3v0.4c0,0.1,0,0.1,0.1,0.1c0.1,0,0.1,0,0.2-0.1v0.2
					c-0.1,0-0.1,0.1-0.2,0.1c-0.1,0-0.1,0-0.2-0.1c0,0,0,0,0,0c0,0,0,0,0-0.1c0,0,0-0.1,0-0.2v-0.4L148.3,85.1L148.3,85.1z"/>
				<path class="st8" d="M150.2,85c0.1,0,0.2,0,0.3,0.1c0.1,0.1,0.1,0.2,0.1,0.3c0,0.1,0,0.2-0.1,0.3c-0.1,0.1-0.2,0.1-0.3,0.1
					c-0.1,0-0.2,0-0.3-0.1c-0.1-0.1-0.1-0.2-0.1-0.3c0-0.1,0-0.2,0.1-0.3C149.9,85,150,85,150.2,85z M150.1,85.1
					c-0.1,0-0.1,0-0.2,0.1c-0.1,0.1-0.1,0.1-0.1,0.2c0,0.1,0,0.1,0.1,0.2c0.1,0.1,0.1,0.1,0.2,0.1c0.1,0,0.1,0,0.2-0.1
					c0.1-0.1,0.1-0.1,0.1-0.2c0-0.1,0-0.1-0.1-0.2C150.3,85.1,150.2,85.1,150.1,85.1z"/>
				<path class="st8" d="M152.2,85.4h-0.6c0,0.1,0,0.1,0.1,0.2c0,0,0.1,0.1,0.2,0.1c0.1,0,0.2,0,0.3-0.1v0.2c0,0-0.1,0.1-0.1,0.1
					c0,0-0.1,0-0.2,0c-0.1,0-0.2,0-0.2-0.1c-0.1,0-0.1-0.1-0.1-0.2c0-0.1,0-0.1,0-0.2c0-0.1,0-0.2,0.1-0.3c0.1-0.1,0.2-0.1,0.3-0.1
					c0.1,0,0.2,0,0.3,0.1C152.1,85.1,152.2,85.2,152.2,85.4L152.2,85.4z M151.6,85.3h0.4c0-0.1,0-0.1-0.1-0.1c0,0-0.1-0.1-0.1-0.1
					c-0.1,0-0.1,0-0.1,0.1C151.6,85.2,151.6,85.2,151.6,85.3z"/>
				<path class="st8" d="M153.1,84.5h0.2v1.2h-0.2V84.5z"/>
				<path class="st8" d="M154.9,85.4h-0.6c0,0.1,0,0.1,0.1,0.2c0,0,0.1,0.1,0.2,0.1c0.1,0,0.2,0,0.3-0.1v0.2c-0.1,0-0.1,0.1-0.1,0.1
					c0,0-0.1,0-0.2,0c-0.1,0-0.2,0-0.2-0.1c-0.1,0-0.1-0.1-0.1-0.2c0-0.1-0.1-0.1-0.1-0.2c0-0.1,0-0.2,0.1-0.3
					c0.1-0.1,0.2-0.1,0.3-0.1c0.1,0,0.2,0,0.3,0.1C154.8,85.1,154.9,85.2,154.9,85.4L154.9,85.4z M154.3,85.3h0.4
					c0-0.1,0-0.1-0.1-0.1c0,0-0.1-0.1-0.1-0.1c-0.1,0-0.1,0-0.1,0.1C154.3,85.2,154.3,85.2,154.3,85.3z"/>
				<path class="st8" d="M156.4,85.6v0.2c-0.1,0-0.2,0-0.2,0c-0.1,0-0.2,0-0.3-0.1c-0.1-0.1-0.1-0.2-0.1-0.3c0-0.1,0-0.2,0.1-0.3
					c0.1-0.1,0.2-0.1,0.3-0.1c0,0,0.1,0,0.1,0c0,0,0.1,0,0.1,0v0.2c-0.1-0.1-0.2-0.1-0.2-0.1c-0.1,0-0.1,0-0.2,0.1
					c0,0.1-0.1,0.1-0.1,0.2c0,0.1,0,0.2,0.1,0.2c0,0.1,0.1,0.1,0.2,0.1C156.2,85.7,156.3,85.6,156.4,85.6z"/>
				<path class="st8" d="M157.1,85.1l0.3-0.3V85h0.3v0.1h-0.3v0.4c0,0.1,0,0.1,0.1,0.1c0.1,0,0.1,0,0.2-0.1v0.2
					c-0.1,0-0.1,0.1-0.2,0.1c-0.1,0-0.1,0-0.2-0.1c0,0,0,0,0,0c0,0,0,0,0-0.1c0,0,0-0.1,0-0.2v-0.4L157.1,85.1L157.1,85.1z"/>
				<path class="st8" d="M158.7,85v0.2l0,0c0.1-0.1,0.2-0.2,0.2-0.2c0.1,0,0.1,0,0.2,0.1l-0.1,0.1c-0.1-0.1-0.1-0.1-0.2-0.1
					c-0.1,0-0.1,0-0.1,0.1c0,0.1-0.1,0.1-0.1,0.2v0.4h-0.2V85H158.7z"/>
				<path class="st8" d="M160.3,85c0.1,0,0.2,0,0.3,0.1c0.1,0.1,0.1,0.2,0.1,0.3c0,0.1,0,0.2-0.1,0.3c-0.1,0.1-0.2,0.1-0.3,0.1
					c-0.1,0-0.2,0-0.3-0.1c-0.1-0.1-0.1-0.2-0.1-0.3c0-0.1,0-0.2,0.1-0.3C160.1,85,160.2,85,160.3,85z M160.3,85.1
					c-0.1,0-0.1,0-0.2,0.1c0,0.1-0.1,0.1-0.1,0.2c0,0.1,0,0.1,0.1,0.2c0.1,0.1,0.1,0.1,0.2,0.1c0.1,0,0.1,0,0.2-0.1
					c0-0.1,0.1-0.1,0.1-0.2c0-0.1,0-0.1-0.1-0.2C160.5,85.1,160.4,85.1,160.3,85.1z"/>
				<path class="st8" d="M161.8,85v0.1c0.1-0.1,0.2-0.1,0.2-0.1c0.1,0,0.1,0,0.1,0c0,0,0.1,0.1,0.1,0.1c0,0,0,0.1,0,0.2v0.5h-0.2
					v-0.5c0-0.1,0-0.1,0-0.2c0,0-0.1-0.1-0.1-0.1c-0.1,0-0.1,0-0.2,0.1v0.6h-0.2V85H161.8z"/>
				<path class="st8" d="M163.4,84.6C163.4,84.6,163.4,84.6,163.4,84.6C163.4,84.7,163.4,84.7,163.4,84.6c0.1,0.1,0.1,0.1,0.1,0.2
					c0,0,0,0-0.1,0c0,0,0,0-0.1,0C163.3,84.8,163.3,84.7,163.4,84.6C163.3,84.7,163.3,84.7,163.4,84.6
					C163.3,84.6,163.3,84.6,163.4,84.6z M163.3,85h0.2v0.8h-0.2V85z"/>
				<path class="st8" d="M165,85.6v0.2c-0.1,0-0.2,0-0.2,0c-0.1,0-0.2,0-0.3-0.1c-0.1-0.1-0.1-0.2-0.1-0.3c0-0.1,0-0.2,0.1-0.3
					c0.1-0.1,0.2-0.1,0.3-0.1c0,0,0.1,0,0.1,0c0,0,0.1,0,0.1,0v0.2c-0.1-0.1-0.2-0.1-0.2-0.1c-0.1,0-0.1,0-0.2,0.1
					c0,0.1-0.1,0.1-0.1,0.2c0,0.1,0,0.2,0.1,0.2c0.1,0.1,0.1,0.1,0.2,0.1C164.8,85.7,164.9,85.6,165,85.6z"/>
				<path class="st8" d="M165.8,85.7v-0.2c0,0,0.1,0.1,0.1,0.1c0,0,0.1,0,0.1,0c0,0,0.1,0,0.1,0c0,0,0,0,0-0.1c0,0,0,0,0-0.1
					c0,0-0.1,0-0.1-0.1c-0.1-0.1-0.2-0.1-0.2-0.1c0,0,0-0.1,0-0.1c0-0.1,0-0.1,0.1-0.2c0,0,0.1-0.1,0.2-0.1c0.1,0,0.2,0,0.2,0.1v0.2
					c-0.1-0.1-0.2-0.1-0.2-0.1c0,0-0.1,0-0.1,0c0,0,0,0,0,0.1c0,0,0,0,0,0.1c0,0,0,0,0.1,0.1l0.1,0c0.1,0.1,0.2,0.2,0.2,0.3
					c0,0.1,0,0.1-0.1,0.2c-0.1,0-0.1,0.1-0.2,0.1c0,0-0.1,0-0.1,0C165.9,85.8,165.9,85.8,165.8,85.7z"/>
			</g>
		</g>
		<g>
			<polygon class="st11" points="158.9,79.3 157.8,81.4 157.4,79.3 157.1,79.3 156.1,81.4 155.7,79.3 155.1,79.3 155.8,82.5 
				156.1,82.5 157.1,80.5 157.6,82.5 157.8,82.5 159.5,79.3 			"/>
			<path class="st11" d="M161.3,79.2c-0.7,0-1.2,0.2-1.6,0.6c-0.4,0.4-0.6,0.9-0.6,1.5c0,0.3,0.1,0.6,0.3,0.9
				c0.2,0.2,0.4,0.4,0.7,0.4c0.3,0,0.6-0.1,0.9-0.4l0,0l-0.1,0.4h0.6l0.4-3.1C161.8,79.3,161.6,79.2,161.3,79.2z M161.1,81.6
				c0,0-0.1,0.1-0.3,0.3c-0.2,0.1-0.3,0.2-0.5,0.2c-0.2,0-0.3-0.1-0.4-0.2c-0.1-0.2-0.2-0.4-0.2-0.6c0-0.4,0.1-0.7,0.4-1
				c0.2-0.3,0.6-0.4,1.1-0.4c0.1,0,0.1,0,0.2,0L161.1,81.6z"/>
			<path class="st11" d="M166.4,80.8c0-0.1,0-0.2,0-0.3c0-0.4-0.1-0.7-0.3-0.9c-0.2-0.2-0.5-0.4-0.8-0.4c-0.4,0-0.8,0.2-1.1,0.5
				c-0.3,0.3-0.4,0.8-0.4,1.3c0,0.5,0.1,0.8,0.4,1.1c0.2,0.3,0.6,0.4,1,0.4c0.4,0,0.7-0.1,1.1-0.3l0.1-0.6c-0.4,0.3-0.7,0.4-1,0.4
				c-0.2,0-0.4-0.1-0.6-0.3c-0.2-0.2-0.2-0.4-0.2-0.7c0-0.1,0-0.2,0-0.3H166.4z M165.3,79.7c0.2,0,0.3,0.1,0.4,0.2
				c0.1,0.1,0.1,0.3,0.1,0.5h-1.3C164.7,80,165,79.7,165.3,79.7z"/>
			<path class="st11" d="M164.2,79.4c-0.2-0.1-0.3-0.1-0.4-0.1c-0.2,0-0.3,0-0.4,0.1c-0.1,0.1-0.3,0.3-0.4,0.5l0,0l0.1-0.6h-0.6
				l-0.4,3.1h0.6l0.2-1.8c0,0,0.1-0.2,0.2-0.3c0.1-0.2,0.2-0.3,0.3-0.4c0.1-0.1,0.2-0.1,0.3-0.1c0,0,0.1,0,0.1,0
				c0.1-0.1,0.1-0.2,0.2-0.4C164.1,79.5,164.1,79.4,164.2,79.4z"/>
		</g>
		<g>
			<polygon class="st9" points="145.7,77.7 145,82.5 145.6,82.5 146.3,77.7 			"/>
			<path class="st9" d="M146.8,78.7c0.1,0,0.2,0,0.2-0.1c0.1-0.1,0.1-0.1,0.1-0.2c0-0.1,0-0.2-0.1-0.2c-0.1-0.1-0.1-0.1-0.2-0.1
				c-0.1,0-0.2,0-0.2,0.1c-0.1,0.1-0.1,0.1-0.1,0.2c0,0.1,0,0.2,0.1,0.2C146.7,78.7,146.7,78.7,146.8,78.7z"/>
			<polygon class="st9" points="146.4,79.3 146,82.5 146.6,82.5 147,79.3 			"/>
			<path class="st9" d="M154.1,79.8h0.6l0.1-0.5h-0.6l0.1-0.6h-0.6l-0.1,0.6H153l-0.1,0.5h0.6l-0.3,1.9c0,0.1,0,0.1,0,0.2
				c0,0.2,0.1,0.4,0.2,0.5c0.1,0.1,0.4,0.2,0.6,0.2c0.2,0,0.4,0,0.7-0.1l0-0.6c-0.2,0.1-0.4,0.2-0.6,0.2c-0.2,0-0.3-0.1-0.3-0.3
				c0-0.1,0-0.1,0-0.2L154.1,79.8z"/>
			<path class="st9" d="M148.6,82.3C148.6,82.3,148.6,82.3,148.6,82.3C148.8,82.3,148.7,82.3,148.6,82.3z"/>
			<path class="st9" d="M150,82.5h0.6l0.4-2.5c-0.2,0-0.4,0.1-0.6,0.2L150,82.5z"/>
			<path class="st9" d="M151,79.1l0.2-1.5h-0.6l-0.2,1.6c-0.4,0.1-0.7,0.2-1,0.4c-0.2-0.2-0.5-0.4-0.9-0.4c-0.1,0-0.1,0-0.2,0
				c0,0,0,0,0,0c0,0-0.1,0-0.1,0c0,0,0,0,0,0c-0.2,0.1-0.3,0.2-0.5,0.3c-0.2,0.2-0.3,0.5-0.3,0.9c0,0.4,0.2,0.7,0.6,0.9
				c-0.2,0.1-0.3,0.1-0.5,0.2c-0.1,0.1-0.2,0.2-0.2,0.3c0,0.2,0.2,0.4,0.5,0.6c-0.6,0.1-0.9,0.3-0.9,0.6c0,0.2,0.1,0.4,0.4,0.6
				c0.3,0.2,0.6,0.2,1,0.2c0.4,0,0.7-0.1,0.9-0.3c0.2-0.2,0.4-0.4,0.4-0.6c0-0.2-0.1-0.4-0.2-0.5c-0.1-0.2-0.4-0.3-0.8-0.4
				c-0.2,0-0.1,0,0,0c-0.4-0.1-0.6-0.2-0.6-0.2c-0.1,0-0.1-0.1-0.1-0.1c0-0.1,0-0.1,0.1-0.2c0.1,0,0.2-0.1,0.5-0.1
				c0.3,0,0.5-0.1,0.6-0.2c0.2-0.1,0.3-0.2,0.4-0.4c0.1-0.1,0.1-0.3,0.2-0.5c0-0.2,0-0.4-0.1-0.6c1.9-0.7,2.5-0.4,2.4,0.1
				c0,0,0,0.1,0,0.2l-0.3,2.2h0.6l0.3-2.1c0-0.1,0-0.2,0-0.2c0-0.3-0.1-0.5-0.2-0.6C152.2,79.2,151.6,79.1,151,79.1z M148.3,82.8
				c0.1,0,0.2,0,0.4,0.1c0.2,0.1,0.3,0.2,0.3,0.3c0,0.1-0.1,0.2-0.2,0.3c-0.1,0.1-0.3,0.1-0.5,0.1c-0.3,0-0.5,0-0.6-0.1
				c-0.2-0.1-0.2-0.2-0.2-0.3c0-0.1,0.1-0.2,0.3-0.3C148,82.8,148.2,82.8,148.3,82.8z M148.9,80.9c-0.1,0.1-0.3,0.2-0.4,0.2
				c-0.2,0-0.3-0.1-0.4-0.2c-0.1-0.1-0.2-0.3-0.2-0.5c0-0.2,0.1-0.4,0.2-0.5c0.1-0.1,0.3-0.2,0.4-0.2c0.2,0,0.3,0.1,0.4,0.2
				c0.1,0.1,0.2,0.3,0.2,0.5C149.1,80.6,149,80.8,148.9,80.9z"/>
			<path class="st9" d="M141.5,77.6c-0.2,0-0.5,1.2-0.8,2.8c-0.2,1.6-0.2,2.9,0,2.9c0.2,0,0.6-1.2,0.8-2.8
				C141.7,79,141.7,77.7,141.5,77.6z"/>
			<path class="st9" d="M140.5,78c-0.2,0-0.5,1-0.7,2.3c-0.2,1.3-0.2,2.4,0,2.4c0.2,0,0.5-1,0.7-2.3C140.7,79.1,140.7,78.1,140.5,78
				z"/>
			<path class="st9" d="M139.5,78.6c-0.2,0-0.5,0.7-0.6,1.6c-0.1,0.9-0.1,1.7,0.1,1.7c0.2,0,0.5-0.7,0.6-1.6
				C139.7,79.4,139.7,78.7,139.5,78.6z"/>
			<path class="st9" d="M142.4,78.3c-0.2,0-0.5,1-0.7,2.3c-0.2,1.3-0.2,2.4,0,2.4c0.2,0,0.5-1,0.7-2.3
				C142.6,79.4,142.6,78.3,142.4,78.3z"/>
			<path class="st9" d="M143.2,79.2c-0.2,0-0.5,0.7-0.6,1.6c-0.1,0.9-0.1,1.7,0.1,1.7c0.2,0,0.5-0.7,0.6-1.6
				C143.5,79.9,143.4,79.2,143.2,79.2z"/>
		</g>
	</g>
	<g>
		<path class="st8" d="M123.8,105.9c-0.2,0.1-0.5,0.2-0.7,0.2l0,0c0.2,0,0.4,0,0.7,0l0.9,0l0,0.2l-0.7,0.5c-0.2,0.1-0.4,0.3-0.6,0.4
			l0,0c0.2-0.1,0.5-0.1,0.7-0.2l0.7-0.2l0.1,0.2l-1.6,0.4l-0.1-0.3l0.7-0.5c0.2-0.1,0.3-0.2,0.5-0.3l0,0c-0.2,0-0.4,0-0.6,0l-0.9,0
			l-0.1-0.3l1.6-0.6l0.1,0.2L123.8,105.9z"/>
		<path class="st8" d="M123.8,104.2c0.1,0,0.2-0.1,0.3-0.1l0,0.2l-0.1,0.1l0,0c0.1,0,0.2,0.1,0.3,0.3c0.1,0.2-0.1,0.4-0.2,0.4
			c-0.3,0.1-0.5-0.1-0.6-0.6l0,0c-0.1,0-0.3,0.1-0.2,0.3c0,0.1,0.1,0.2,0.2,0.3l-0.1,0.1c-0.1-0.1-0.2-0.2-0.2-0.4
			c-0.1-0.4,0.1-0.5,0.4-0.6L123.8,104.2z M123.5,104.5c0.1,0.2,0.2,0.5,0.4,0.4c0.1,0,0.2-0.1,0.2-0.2c0-0.2-0.2-0.2-0.3-0.2
			c0,0-0.1,0-0.1,0L123.5,104.5z"/>
		<path class="st8" d="M123.1,103.8c-0.1,0-0.2,0-0.3,0.1l0-0.2l0.2,0l0,0c-0.1,0-0.3-0.2-0.3-0.4c0-0.2,0-0.4,0.4-0.5l0.7-0.1
			l0,0.2l-0.7,0.1c-0.2,0-0.3,0.1-0.3,0.3c0,0.1,0.1,0.2,0.3,0.2c0,0,0.1,0,0.1,0l0.7-0.1l0,0.2L123.1,103.8z"/>
		<path class="st8" d="M123.2,101.2c0.1,0,0.2,0,0.3-0.1l0,0.2l-0.2,0l0,0c0.1,0,0.2,0.2,0.3,0.4c0,0.2,0,0.4-0.5,0.5l-0.7,0.1
			l0-0.2l0.7-0.1c0.2,0,0.4-0.1,0.3-0.3c0-0.1-0.1-0.2-0.2-0.3c0,0-0.1,0-0.1,0l-0.7,0.1l0-0.2L123.2,101.2z"/>
		<path class="st8" d="M123.5,100.6l-1,0.1l0,0.2l-0.2,0l0-0.2l-0.1,0c-0.2,0-0.3,0-0.4-0.1c-0.1-0.1-0.1-0.2-0.1-0.3
			c0-0.1,0-0.1,0-0.2l0.2,0c0,0,0,0.1,0,0.1c0,0.2,0.2,0.2,0.4,0.2l0.1,0l0-0.3l0.2,0l0,0.3l1-0.1L123.5,100.6z"/>
		<path class="st8" d="M123.1,98.9c0.1,0,0.2,0,0.3,0l0,0.2l-0.2,0l0,0c0.1,0.1,0.2,0.2,0.2,0.4c0,0.2-0.2,0.4-0.3,0.4
			c-0.3,0-0.5-0.2-0.5-0.7l0,0c-0.1,0-0.3,0-0.3,0.3c0,0.1,0,0.2,0.1,0.3l-0.1,0.1c-0.1-0.1-0.1-0.2-0.1-0.4c0-0.4,0.2-0.5,0.5-0.5
			L123.1,98.9z M122.8,99.1c0,0.2,0.1,0.5,0.3,0.5c0.1,0,0.2-0.1,0.2-0.2c0-0.2-0.1-0.3-0.2-0.3c0,0-0.1,0-0.1,0L122.8,99.1z"/>
		<path class="st8" d="M123.3,97.5c0,0.1,0.1,0.2,0.1,0.3c0,0.4-0.2,0.6-0.6,0.6c-0.4,0-0.6-0.2-0.6-0.6c0-0.1,0-0.2,0.1-0.3l0.2,0
			c0,0.1-0.1,0.1-0.1,0.3c0,0.3,0.2,0.4,0.5,0.4c0.3,0,0.4-0.2,0.4-0.4c0-0.1,0-0.2-0.1-0.3L123.3,97.5z"/>
		<path class="st8" d="M121.9,96.7l0.3,0l0-0.3l0.2,0l0,0.3l0.6,0c0.1,0,0.2,0,0.2-0.2c0-0.1,0-0.1,0-0.1l0.2,0c0,0,0,0.1,0,0.2
			c0,0.1,0,0.2-0.1,0.2c-0.1,0.1-0.2,0.1-0.3,0.1l-0.7,0l0,0.2l-0.2,0l0-0.2l-0.2,0L121.9,96.7z"/>
		<path class="st8" d="M123.1,95c0.1,0,0.2,0,0.3,0l0,0.2l-0.2,0v0c0.1,0.1,0.2,0.2,0.2,0.4c0,0.2-0.1,0.4-0.6,0.4l-0.7-0.1l0-0.2
			l0.7,0c0.2,0,0.4,0,0.4-0.2c0-0.1-0.1-0.3-0.2-0.3c0,0-0.1,0-0.1,0l-0.7-0.1l0-0.2L123.1,95z"/>
		<path class="st8" d="M122.7,94.4c-0.1,0-0.3,0-0.4,0l0-0.2l0.2,0l0,0c-0.2-0.1-0.2-0.2-0.2-0.4c0,0,0,0,0-0.1l0.2,0c0,0,0,0,0,0.1
			c0,0.2,0.1,0.3,0.2,0.3c0,0,0.1,0,0.1,0l0.6,0.1l0,0.2L122.7,94.4z"/>
		<path class="st8" d="M123.1,93.3c0.3,0,0.4-0.1,0.5-0.3c0-0.2,0-0.3,0-0.3l0.2,0c0,0.1,0,0.2,0,0.4c-0.1,0.4-0.3,0.5-0.7,0.5
			c-0.4-0.1-0.6-0.3-0.6-0.7c0.1-0.4,0.4-0.4,0.6-0.4c0,0,0.1,0,0.1,0L123.1,93.3z M123.1,92.6c-0.1,0-0.4,0-0.4,0.2
			c0,0.2,0.2,0.3,0.3,0.4L123.1,92.6z"/>
		<path class="st8" d="M122.4,90.7l1.4,0.3c0.1,0,0.2,0,0.3,0.1l0,0.2l-0.2,0l0,0c0.1,0.1,0.2,0.3,0.1,0.4c-0.1,0.3-0.3,0.5-0.7,0.4
			c-0.4-0.1-0.6-0.4-0.5-0.7c0-0.2,0.1-0.3,0.3-0.3l0,0l-0.7-0.1L122.4,90.7z M123.3,91.2C123.3,91.2,123.3,91.2,123.3,91.2
			c-0.2,0-0.4,0.1-0.4,0.2c0,0.2,0.1,0.4,0.4,0.4c0.2,0.1,0.5,0,0.5-0.3c0-0.1,0-0.3-0.2-0.4c0,0-0.1,0-0.1,0L123.3,91.2z"/>
		<path class="st8" d="M122.7,89.4l0.1-0.2l0.7,0.2l0,0c-0.1-0.1-0.1-0.3-0.1-0.5c0.1-0.3,0.4-0.4,0.7-0.3c0.4,0.1,0.5,0.4,0.5,0.7
			c0,0.2-0.2,0.3-0.3,0.3l0,0l0.2,0.1l-0.1,0.2c-0.1,0-0.2-0.1-0.3-0.1L122.7,89.4z M124,89.6C124,89.6,124,89.6,124,89.6
			c0.2,0,0.4-0.1,0.4-0.2c0.1-0.2-0.1-0.4-0.3-0.5c-0.2-0.1-0.5,0-0.5,0.2c0,0.1,0,0.3,0.2,0.4c0,0,0.1,0,0.1,0L124,89.6z"/>
		<path class="st8" d="M123.7,87.9l0.8,0c0.1,0,0.2,0,0.3,0l0,0c-0.1,0-0.1-0.1-0.2-0.2l-0.6-0.5l0.1-0.2l0.7,0.6
			c0.3,0.3,0.5,0.5,0.6,0.6c0.1,0.1,0.1,0.2,0,0.3l-0.2,0c0-0.1,0-0.1,0-0.2c0-0.1-0.1-0.2-0.2-0.3c0,0,0,0,0,0c0,0,0,0-0.1,0
			l-1.2,0.1L123.7,87.9z"/>
		<path class="st8" d="M124,85.8l0.1-0.2l1.4,0.6l0.3-0.7l0.2,0.1l-0.4,0.9L124,85.8z"/>
		<path class="st8" d="M124.8,84.4c0.1,0,0.1,0.1,0.1,0.2c0,0.1-0.1,0.1-0.2,0.1c-0.1,0-0.1-0.1-0.1-0.2
			C124.7,84.4,124.7,84.3,124.8,84.4z M126.1,85.2l-1.1-0.5l0.1-0.2l1.1,0.5L126.1,85.2z"/>
		<path class="st8" d="M126.7,83.6c0.2,0.1,0.4,0.3,0.4,0.4c0,0.2,0,0.3-0.1,0.5c-0.1,0.1-0.2,0.3-0.3,0.3l-0.1-0.1
			c0.1,0,0.2-0.1,0.2-0.3c0.1-0.2,0.1-0.4-0.2-0.5l-0.1-0.1l0,0c0.1,0.1,0.1,0.3,0,0.4c-0.1,0.3-0.5,0.3-0.8,0.2
			c-0.4-0.2-0.4-0.5-0.3-0.8c0.1-0.2,0.2-0.2,0.4-0.2l0,0l-0.2-0.1l0.1-0.2c0.1,0,0.2,0.1,0.3,0.2L126.7,83.6z M126.2,83.5
			C126.1,83.5,126.1,83.5,126.2,83.5c-0.2-0.1-0.4,0-0.4,0.1c-0.1,0.2,0,0.4,0.2,0.5c0.2,0.1,0.4,0.1,0.5-0.1c0.1-0.1,0-0.3-0.1-0.4
			c0,0-0.1-0.1-0.1-0.1L126.2,83.5z"/>
		<path class="st8" d="M125.6,82.3l0.1-0.2l0.6,0.4l0,0c0-0.1-0.1-0.1-0.1-0.2c0-0.1,0-0.2,0.1-0.2c0.1-0.1,0.3-0.3,0.7-0.1l0.6,0.4
			l-0.1,0.2l-0.6-0.4c-0.2-0.1-0.3-0.1-0.4,0.1c-0.1,0.1,0,0.3,0,0.4c0,0,0,0,0.1,0.1l0.6,0.4l-0.1,0.2L125.6,82.3z"/>
		<path class="st8" d="M126.9,80.8l0.2,0.2l0.2-0.3l0.1,0.1l-0.2,0.3l0.5,0.4c0.1,0.1,0.2,0.1,0.3,0c0-0.1,0-0.1,0.1-0.1l0.1,0.1
			c0,0,0,0.1-0.1,0.2c-0.1,0.1-0.1,0.1-0.2,0.1c-0.1,0-0.2,0-0.3-0.1l-0.6-0.4l-0.1,0.2l-0.1-0.1l0.1-0.2l-0.2-0.1L126.9,80.8z"/>
		<path class="st8" d="M128.7,80.8l-1.6-0.7l0.1-0.2l0.8,0.3c0.2,0.1,0.4,0.2,0.5,0.2l0,0c-0.1-0.1-0.2-0.3-0.4-0.5l-0.5-0.7
			l0.1-0.2l0.8,0.3c0.2,0.1,0.4,0.2,0.5,0.2l0,0c-0.1-0.1-0.3-0.3-0.4-0.5l-0.6-0.7l0.1-0.2l1.1,1.4l-0.1,0.2l-0.8-0.3
			c-0.2-0.1-0.4-0.2-0.5-0.2l0,0c0.1,0.1,0.2,0.3,0.4,0.4l0.6,0.7L128.7,80.8z"/>
		<path class="st8" d="M130.1,78.5c0.1,0.1,0.2,0.1,0.2,0.2l-0.1,0.2l-0.1-0.1l0,0c0,0.1,0,0.3-0.1,0.4c-0.2,0.2-0.4,0.2-0.5,0.1
			c-0.2-0.2-0.2-0.5,0.1-0.8l0,0c-0.1-0.1-0.2-0.2-0.4,0c-0.1,0.1-0.1,0.2-0.1,0.3l-0.1-0.1c0-0.1,0.1-0.3,0.2-0.4
			c0.2-0.3,0.5-0.2,0.7,0L130.1,78.5z M129.7,78.4c-0.2,0.2-0.3,0.4-0.1,0.6c0.1,0.1,0.2,0.1,0.3,0c0.1-0.1,0.1-0.3,0-0.4
			c0,0,0,0,0-0.1L129.7,78.4z"/>
		<path class="st8" d="M130.1,77.7c-0.1-0.1-0.2-0.2-0.3-0.2l0.1-0.1l0.2,0.2l0,0c-0.1-0.2-0.1-0.3,0-0.4c0,0,0,0,0,0l0.2,0.1
			c0,0,0,0-0.1,0.1c-0.1,0.1-0.1,0.3,0,0.4c0,0,0,0.1,0.1,0.1l0.5,0.4l-0.1,0.2L130.1,77.7z"/>
		<path class="st8" d="M131,77.1c0.2,0.2,0.4,0.2,0.6,0c0.1-0.1,0.2-0.2,0.2-0.3l0.1,0.1c0,0.1-0.1,0.2-0.2,0.3
			c-0.3,0.3-0.6,0.3-0.9,0c-0.3-0.3-0.3-0.6-0.1-0.9c0.3-0.3,0.6-0.1,0.8,0c0,0,0.1,0.1,0.1,0.1L131,77.1z M131.4,76.5
			c-0.1-0.1-0.3-0.2-0.5,0c-0.2,0.2-0.1,0.4,0,0.5L131.4,76.5z"/>
		<path class="st8" d="M133.4,74.5c0.4,0.4,0.3,0.9,0,1.2c-0.3,0.3-0.8,0.2-1.1-0.1c-0.4-0.4-0.3-0.9,0-1.2
			C132.6,74,133.1,74.1,133.4,74.5z M132.4,75.3c0.2,0.3,0.6,0.4,0.9,0.2c0.3-0.2,0.2-0.6-0.1-0.9c-0.2-0.3-0.6-0.4-0.9-0.2
			C132.1,74.7,132.2,75.1,132.4,75.3z"/>
		<path class="st8" d="M133.8,74.2c-0.1-0.1-0.2-0.2-0.2-0.3l0.2-0.1l0.1,0.2l0,0c0-0.2,0-0.3,0.2-0.4c0.2-0.2,0.6-0.1,0.8,0.2
			c0.3,0.3,0.2,0.7,0,0.9c-0.1,0.1-0.3,0.1-0.4,0.1l0,0l0.4,0.5l-0.2,0.1L133.8,74.2z M134.2,74.3C134.2,74.3,134.2,74.4,134.2,74.3
			c0.2,0.2,0.4,0.2,0.5,0.1c0.2-0.1,0.2-0.4,0-0.6c-0.1-0.2-0.4-0.3-0.6-0.1c-0.1,0.1-0.2,0.3-0.1,0.4c0,0,0,0.1,0,0.1L134.2,74.3z"
			/>
		<path class="st8" d="M134.9,72.5l0.2,0.2l0.3-0.2l0.1,0.1l-0.3,0.2l0.4,0.5c0.1,0.1,0.2,0.2,0.3,0.1c0,0,0.1-0.1,0.1-0.1l0.1,0.1
			c0,0-0.1,0.1-0.1,0.1c-0.1,0.1-0.2,0.1-0.2,0.1c-0.1,0-0.2-0.1-0.3-0.2L135,73l-0.2,0.1l-0.1-0.1l0.2-0.1l-0.1-0.2L134.9,72.5z"/>
		<path class="st8" d="M136.9,72.2c0.2,0.4,0.1,0.7-0.2,0.9c-0.3,0.2-0.6,0.1-0.8-0.2c-0.2-0.3-0.1-0.7,0.2-0.9
			C136.4,71.8,136.7,71.9,136.9,72.2z M136.1,72.7c0.1,0.2,0.4,0.3,0.6,0.2c0.2-0.1,0.2-0.4,0.1-0.6c-0.1-0.2-0.3-0.3-0.6-0.2
			C136,72.3,136,72.5,136.1,72.7z"/>
		<path class="st8" d="M137.5,71.9c0.2,0.3,0.4,0.3,0.6,0.2c0.1-0.1,0.2-0.2,0.3-0.2l0.1,0.1c0,0.1-0.1,0.2-0.3,0.3
			c-0.3,0.2-0.6,0.1-0.8-0.2c-0.2-0.3-0.1-0.7,0.2-0.8c0.3-0.2,0.6,0,0.7,0.2c0,0,0,0.1,0,0.1L137.5,71.9z M138,71.5
			c-0.1-0.1-0.2-0.3-0.4-0.2c-0.2,0.1-0.2,0.3-0.1,0.5L138,71.5z"/>
		<path class="st8" d="M138.1,70.2l0.2-0.1l0.8,1.6l-0.2,0.1L138.1,70.2z"/>
		<path class="st8" d="M139.4,70.9c0.1,0.3,0.4,0.3,0.6,0.2c0.1-0.1,0.2-0.1,0.3-0.2l0.1,0.1c-0.1,0.1-0.2,0.2-0.3,0.2
			c-0.3,0.2-0.6,0-0.8-0.3c-0.2-0.3-0.1-0.7,0.2-0.8c0.4-0.2,0.6,0.1,0.7,0.3c0,0,0,0.1,0,0.1L139.4,70.9z M139.9,70.5
			c-0.1-0.1-0.2-0.3-0.4-0.2c-0.2,0.1-0.2,0.3-0.2,0.5L139.9,70.5z"/>
		<path class="st8" d="M141.6,70.5c0,0-0.1,0.1-0.3,0.2c-0.3,0.1-0.6,0-0.8-0.3c-0.1-0.3,0-0.7,0.3-0.8c0.1-0.1,0.2-0.1,0.3-0.1
			l0,0.2c-0.1,0-0.1,0-0.3,0c-0.3,0.1-0.3,0.4-0.2,0.6c0.1,0.3,0.3,0.3,0.6,0.3c0.1,0,0.2-0.1,0.2-0.2L141.6,70.5z"/>
		<path class="st8" d="M141.8,68.9l0.1,0.3l0.3-0.1l0.1,0.2l-0.3,0.1l0.2,0.6c0.1,0.1,0.1,0.2,0.2,0.2c0.1,0,0.1,0,0.1-0.1l0.1,0.2
			c0,0-0.1,0.1-0.2,0.1c-0.1,0-0.2,0-0.3,0c-0.1,0-0.1-0.1-0.2-0.3l-0.2-0.6l-0.2,0.1l-0.1-0.2l0.2-0.1l-0.1-0.2L141.8,68.9z"/>
		<path class="st8" d="M142.7,69.2c0-0.1-0.1-0.2-0.1-0.4l0.2-0.1l0.1,0.2l0,0c0-0.2,0.1-0.3,0.2-0.4c0,0,0,0,0.1,0l0.1,0.2
			c0,0,0,0-0.1,0c-0.1,0.1-0.2,0.2-0.2,0.4c0,0,0,0.1,0,0.1l0.2,0.6L143,70L142.7,69.2z"/>
		<path class="st8" d="M144.8,68.8c0.1,0.4-0.1,0.7-0.4,0.8c-0.3,0.1-0.6-0.1-0.7-0.4c-0.1-0.4,0.1-0.7,0.4-0.8
			C144.4,68.3,144.7,68.5,144.8,68.8z M143.9,69.1c0.1,0.3,0.3,0.4,0.5,0.3c0.2-0.1,0.3-0.3,0.2-0.6c-0.1-0.2-0.2-0.4-0.5-0.3
			C143.8,68.6,143.8,68.9,143.9,69.1z"/>
		<path class="st8" d="M145.2,68.4c0-0.1-0.1-0.2-0.1-0.3l0.2,0l0.1,0.2h0c0-0.1,0.1-0.3,0.3-0.3c0.2,0,0.4,0,0.5,0.4l0.2,0.7
			l-0.2,0.1l-0.2-0.7c0-0.2-0.2-0.3-0.4-0.3c-0.1,0-0.2,0.2-0.2,0.3c0,0,0,0.1,0,0.1l0.2,0.7l-0.2,0.1L145.2,68.4z"/>
		<path class="st8" d="M146.9,67.4c0,0.1,0,0.1-0.1,0.2c-0.1,0-0.1,0-0.2-0.1c0-0.1,0-0.1,0.1-0.2C146.8,67.3,146.8,67.3,146.9,67.4
			z M146.9,68.9l-0.2-1.2l0.2,0l0.2,1.2L146.9,68.9z"/>
		<path class="st8" d="M148.5,68.6c-0.1,0-0.2,0.1-0.3,0.1c-0.4,0.1-0.6-0.1-0.7-0.5c-0.1-0.4,0.2-0.7,0.5-0.7c0.1,0,0.2,0,0.3,0
			l0,0.2c-0.1,0-0.1,0-0.3,0c-0.3,0-0.4,0.3-0.4,0.5c0,0.3,0.2,0.4,0.5,0.4c0.1,0,0.2-0.1,0.3-0.1L148.5,68.6z"/>
		<path class="st8" d="M148.9,68.4c0.1,0,0.2,0.1,0.3,0.1c0.2,0,0.2-0.1,0.2-0.2c0-0.1-0.1-0.1-0.2-0.2c-0.2-0.1-0.3-0.2-0.4-0.3
			c0-0.2,0.1-0.4,0.4-0.4c0.1,0,0.2,0,0.3,0l0,0.2c-0.1,0-0.1-0.1-0.3,0c-0.1,0-0.2,0.1-0.2,0.2c0,0.1,0.1,0.1,0.2,0.2
			c0.2,0.1,0.3,0.1,0.4,0.3c0,0.2-0.1,0.4-0.4,0.4c-0.1,0-0.3,0-0.3,0L148.9,68.4z"/>
		<path class="st8" d="M151.2,66.7c-0.2,0.3-0.3,0.6-0.3,1c0,0.4,0.2,0.8,0.4,1l-0.2,0c-0.2-0.2-0.4-0.5-0.4-1c0-0.5,0.1-0.8,0.3-1
			L151.2,66.7z"/>
		<path class="st8" d="M151.6,66.7c0.1,0,0.2,0,0.4,0c0.2,0,0.4,0,0.5,0.1c0.1,0.1,0.2,0.2,0.2,0.3c0,0.2,0,0.3-0.1,0.4
			c-0.1,0.1-0.3,0.2-0.5,0.2c-0.1,0-0.1,0-0.2,0l0,0.7l-0.2,0L151.6,66.7z M151.9,67.5c0,0,0.1,0,0.2,0c0.3,0,0.4-0.1,0.4-0.4
			c0-0.2-0.2-0.3-0.4-0.3c-0.1,0-0.2,0-0.2,0L151.9,67.5z"/>
		<path class="st8" d="M153.5,66.9l0,0.3l0.3,0l0,0.2l-0.3,0l0,0.7c0,0.1,0,0.2,0.2,0.2c0.1,0,0.1,0,0.1,0l0,0.2c0,0-0.1,0-0.2,0
			c-0.1,0-0.2,0-0.2-0.1c-0.1-0.1-0.1-0.2-0.1-0.3l0-0.7l-0.2,0l0-0.2l0.2,0l0-0.2L153.5,66.9z"/>
		<path class="st8" d="M154.3,67.2l0.2,0.7c0,0.1,0,0.2,0.1,0.3l0,0c0-0.1,0.1-0.2,0.1-0.2l0.3-0.7l0.2,0l-0.4,0.8
			c-0.2,0.4-0.3,0.6-0.5,0.7c-0.1,0.1-0.2,0.1-0.3,0.1l0-0.2c0.1,0,0.1,0,0.2-0.1c0.1,0,0.1-0.1,0.2-0.2c0,0,0,0,0-0.1
			c0,0,0,0,0-0.1l-0.4-1.1L154.3,67.2z"/>
		<path class="st8" d="M155.4,68.8c0.2-0.2,0.4-0.5,0.4-1c0-0.4-0.1-0.8-0.2-1l0.2,0c0.1,0.2,0.3,0.6,0.2,1c-0.1,0.5-0.3,0.8-0.4,1
			L155.4,68.8z"/>
		<path class="st8" d="M157.4,67.1l0.2,0l-0.2,1.5l0.7,0.1l0,0.2l-0.9-0.2L157.4,67.1z"/>
		<path class="st8" d="M159,67.5l-0.1,0.3l0.3,0.1l0,0.2l-0.3-0.1l-0.1,0.6c0,0.1,0,0.2,0.1,0.3c0.1,0,0.1,0,0.1,0l0,0.2
			c0,0-0.1,0-0.2,0c-0.1,0-0.2-0.1-0.2-0.1c0-0.1,0-0.2,0-0.3l0.1-0.6l-0.2,0l0-0.2l0.2,0l0-0.2L159,67.5z"/>
		<path class="st8" d="M160.8,67.7l-0.4,1.4c0,0.1-0.1,0.2-0.1,0.3l-0.2,0l0-0.2l0,0c-0.1,0.1-0.3,0.2-0.5,0.1
			c-0.3-0.1-0.4-0.4-0.4-0.7c0.1-0.4,0.4-0.6,0.7-0.5c0.2,0,0.3,0.2,0.3,0.3l0,0l0.2-0.7L160.8,67.7z M160.3,68.7
			C160.3,68.6,160.4,68.6,160.3,68.7c0-0.2-0.1-0.4-0.2-0.4c-0.2-0.1-0.4,0.1-0.5,0.4c-0.1,0.2,0,0.5,0.2,0.5c0.1,0,0.3,0,0.4-0.2
			c0,0,0-0.1,0-0.1L160.3,68.7z"/>
		<path class="st8" d="M160.6,69.8c0.1-0.1,0.2-0.4,0.3-0.5l0.2,0c-0.1,0.2-0.3,0.4-0.4,0.5L160.6,69.8z"/>
		<path class="st8" d="M162.3,69.7c0.1,0.1,0.2,0.2,0.3,0.2c0.2,0.1,0.4,0,0.4-0.1c0.1-0.1,0-0.3-0.2-0.4c-0.2-0.2-0.3-0.4-0.3-0.6
			c0.1-0.2,0.4-0.4,0.7-0.2c0.2,0.1,0.3,0.1,0.3,0.2l-0.1,0.1c0,0-0.1-0.1-0.3-0.2c-0.2-0.1-0.3,0-0.4,0.1c-0.1,0.1,0,0.3,0.2,0.4
			c0.2,0.2,0.3,0.4,0.2,0.6c-0.1,0.2-0.3,0.4-0.7,0.3c-0.2-0.1-0.3-0.2-0.4-0.2L162.3,69.7z"/>
		<path class="st8" d="M164.8,70.3c-0.2,0.4-0.5,0.5-0.8,0.4c-0.3-0.1-0.4-0.4-0.3-0.8c0.2-0.4,0.5-0.5,0.8-0.4
			C164.8,69.7,164.9,70,164.8,70.3z M163.9,70c-0.1,0.2,0,0.5,0.2,0.6c0.2,0.1,0.4,0,0.5-0.3c0.1-0.2,0.1-0.5-0.2-0.6
			C164.2,69.6,164,69.8,163.9,70z"/>
		<path class="st8" d="M166,71.2c-0.1,0.1-0.1,0.2-0.1,0.3l-0.2-0.1l0.1-0.2l0,0c-0.1,0.1-0.3,0.1-0.5,0c-0.2-0.1-0.3-0.3-0.1-0.7
			l0.3-0.6l0.2,0.1l-0.3,0.6c-0.1,0.2-0.1,0.4,0.1,0.5c0.1,0.1,0.3,0,0.3-0.1c0,0,0-0.1,0.1-0.1l0.3-0.7l0.2,0.1L166,71.2z"/>
		<path class="st8" d="M167.2,70.6l-0.1,0.3l0.3,0.1l-0.1,0.1L167,71l-0.3,0.6c-0.1,0.1-0.1,0.2,0,0.3c0.1,0,0.1,0,0.1,0l-0.1,0.2
			c0,0-0.1,0-0.2-0.1c-0.1,0-0.1-0.1-0.2-0.2c0-0.1,0-0.2,0.1-0.3l0.3-0.6l-0.2-0.1l0.1-0.1l0.2,0.1l0.1-0.2L167.2,70.6z"/>
		<path class="st8" d="M168.1,70.7l0.2,0.1l-0.4,0.6l0,0c0.1,0,0.1-0.1,0.2-0.1c0.1,0,0.2,0,0.2,0.1c0.1,0.1,0.3,0.3,0.1,0.7
			l-0.4,0.6l-0.2-0.1l0.4-0.6c0.1-0.2,0.1-0.3-0.1-0.4c-0.1-0.1-0.3,0-0.4,0c0,0,0,0-0.1,0.1l-0.4,0.6l-0.2-0.1L168.1,70.7z"/>
		<path class="st8" d="M169.6,73.2l-0.4,0.3l-0.2-0.1l1.4-1l0.2,0.2l-0.5,1.7l-0.2-0.1l0.2-0.5L169.6,73.2z M170.2,73.4l0.1-0.5
			c0-0.1,0.1-0.2,0.1-0.3l0,0c-0.1,0.1-0.2,0.1-0.2,0.2l-0.4,0.3L170.2,73.4z"/>
		<path class="st8" d="M170.5,74.4l0.6-0.8l-0.1-0.1l0.1-0.1l0.1,0.1l0,0c0.1-0.1,0.2-0.2,0.4-0.2c0.1,0,0.2,0,0.3,0.1
			c0.1,0,0.1,0.1,0.1,0.1l-0.1,0.1c0,0,0-0.1-0.1-0.1c-0.1-0.1-0.3,0-0.4,0.1l0,0.1l0.2,0.2l-0.1,0.1l-0.2-0.2l-0.6,0.8L170.5,74.4z
			"/>
		<path class="st8" d="M171.7,74.3c0.1-0.1,0.2-0.2,0.2-0.3l0.1,0.1l-0.1,0.2l0,0c0.1-0.1,0.3-0.1,0.4,0c0,0,0,0,0,0l-0.1,0.2
			c0,0,0,0-0.1-0.1c-0.1-0.1-0.3-0.1-0.4,0c0,0,0,0-0.1,0.1l-0.4,0.5l-0.2-0.1L171.7,74.3z"/>
		<path class="st8" d="M171.9,75.6l0.8-0.9l0.2,0.1l-0.8,0.9L171.9,75.6z M173.1,74.6c0,0.1-0.1,0.1-0.2,0c-0.1-0.1-0.1-0.1,0-0.2
			c0-0.1,0.1-0.1,0.2,0C173.2,74.5,173.2,74.6,173.1,74.6z"/>
		<path class="st8" d="M173.1,76.7c-0.1,0-0.2-0.1-0.3-0.2c-0.3-0.3-0.3-0.6,0-0.9c0.3-0.3,0.6-0.3,0.9,0c0.1,0.1,0.2,0.2,0.2,0.3
			l-0.2,0.1c0-0.1-0.1-0.1-0.1-0.2c-0.2-0.2-0.5-0.1-0.6,0c-0.2,0.2-0.2,0.5,0,0.6c0.1,0.1,0.2,0.1,0.2,0.1L173.1,76.7z"/>
		<path class="st8" d="M174.2,77.4c-0.1,0.1-0.1,0.1-0.2,0.2l-0.1-0.1l0.1-0.1l0,0c-0.1,0-0.3,0-0.4-0.1c-0.2-0.2-0.1-0.4,0-0.5
			c0.2-0.2,0.5-0.1,0.8,0.2l0,0c0.1-0.1,0.2-0.2,0-0.4c-0.1-0.1-0.2-0.1-0.3-0.2l0.1-0.1c0.1,0,0.2,0.1,0.4,0.2
			c0.3,0.3,0.1,0.5,0,0.7L174.2,77.4z M174.3,77.1c-0.2-0.2-0.4-0.3-0.6-0.2c-0.1,0.1-0.1,0.2,0,0.3c0.1,0.1,0.3,0.1,0.4,0.1
			c0,0,0,0,0.1,0L174.3,77.1z"/>
		<path class="st8" d="M179.5,83.3l-0.5,0.4c-0.1,0.1-0.2,0.2-0.3,0.3l0,0c0.1,0,0.3-0.1,0.4-0.1l0.6-0.1l0.1,0.2l-0.5,0.4
			c-0.1,0.1-0.2,0.2-0.3,0.3l0,0c0.1,0,0.2-0.1,0.4-0.1l0.6-0.1l0.1,0.2l-1.2,0.2l-0.1-0.2l0.4-0.4c0.1-0.1,0.2-0.2,0.3-0.3l0,0
			c-0.1,0-0.3,0.1-0.4,0.1l-0.6,0.1l-0.1-0.2l0.9-0.9L179.5,83.3z"/>
		<path class="st8" d="M180.5,85.2l-0.5,0.4c-0.1,0.1-0.2,0.2-0.3,0.2l0,0c0.1,0,0.3,0,0.4,0l0.6-0.1l0.1,0.2l-0.5,0.4
			c-0.1,0.1-0.2,0.2-0.3,0.3l0,0c0.1,0,0.2-0.1,0.4-0.1l0.6-0.1l0.1,0.2l-1.3,0.1l-0.1-0.2l0.5-0.4c0.1-0.1,0.2-0.2,0.3-0.3l0,0
			c-0.1,0-0.3,0-0.4,0.1l-0.6,0l-0.1-0.2l1-0.8L180.5,85.2z"/>
		<path class="st8" d="M181.2,87.1l-0.5,0.4c-0.1,0.1-0.2,0.1-0.3,0.2l0,0c0.1,0,0.3,0,0.4,0l0.6,0l0.1,0.2l-0.5,0.4
			c-0.1,0.1-0.2,0.2-0.3,0.2l0,0c0.1,0,0.3,0,0.4,0l0.6,0l0.1,0.2l-1.3,0l-0.1-0.2l0.5-0.4c0.1-0.1,0.2-0.2,0.3-0.2l0,0
			c-0.1,0-0.3,0-0.4,0l-0.6,0l-0.1-0.2l1-0.7L181.2,87.1z"/>
		<path class="st8" d="M180.8,89.2c0.1,0,0.2,0,0.2,0.1c0,0.1,0,0.2-0.1,0.2c-0.1,0-0.2,0-0.2-0.1C180.7,89.3,180.7,89.2,180.8,89.2
			z"/>
		<path class="st8" d="M182.6,89.5l0.1,0.2l-1.7,0.5l-0.1-0.2L182.6,89.5z"/>
		<path class="st8" d="M181.1,90.7l1.2-0.3l0.1,0.2l-1.2,0.3L181.1,90.7z M182.6,90.5c-0.1,0-0.1,0-0.2-0.1c0-0.1,0-0.1,0.1-0.2
			c0.1,0,0.1,0,0.2,0.1C182.7,90.5,182.7,90.5,182.6,90.5z"/>
		<path class="st8" d="M181.6,92.4c-0.3,0.1-0.4,0-0.6-0.1c-0.1-0.1-0.2-0.3-0.2-0.4c0-0.1,0-0.3,0-0.4l0.2,0c0,0.1-0.1,0.2,0,0.4
			c0,0.2,0.2,0.4,0.5,0.3l0.1,0v0c-0.1,0-0.2-0.2-0.3-0.3c-0.1-0.3,0.1-0.6,0.5-0.6c0.4-0.1,0.7,0.1,0.7,0.4c0,0.2,0,0.3-0.1,0.4
			l0,0l0.2,0l0,0.2c-0.1,0-0.2,0-0.3,0.1L181.6,92.4z M182.1,92C182.1,92,182.2,92,182.1,92c0.2-0.1,0.3-0.2,0.3-0.4
			c0-0.2-0.2-0.3-0.5-0.3c-0.2,0-0.4,0.2-0.4,0.4c0,0.1,0.1,0.2,0.3,0.3c0,0,0.1,0,0.1,0L182.1,92z"/>
		<path class="st8" d="M183.3,92.7l0,0.2l-0.7,0.1v0c0.1,0,0.1,0.1,0.2,0.1c0,0.1,0.1,0.1,0.1,0.2c0,0.2,0,0.4-0.4,0.5l-0.7,0.1
			l0-0.2l0.7-0.1c0.2,0,0.3-0.1,0.3-0.3c0-0.1-0.1-0.2-0.3-0.3c0,0-0.1,0-0.1,0l-0.7,0.1l0-0.2L183.3,92.7z"/>
		<path class="st8" d="M183.2,94.6l-0.3,0l0,0.3l-0.2,0l0-0.3l-0.6,0.1c-0.1,0-0.2,0.1-0.2,0.2c0,0.1,0,0.1,0,0.1l-0.2,0
			c0,0,0-0.1,0-0.2c0-0.1,0-0.2,0.1-0.2c0.1-0.1,0.2-0.1,0.3-0.1l0.7-0.1l0-0.2l0.2,0l0,0.2l0.2,0L183.2,94.6z"/>
		<path class="st8" d="M183,95.5l-0.6,0.2c-0.1,0-0.3,0.1-0.4,0.1v0c0.1,0,0.3,0.1,0.4,0.1l0.6,0.2l0,0.2l-0.6,0.2
			c-0.1,0.1-0.3,0.1-0.4,0.1v0c0.1,0,0.3,0,0.4,0.1l0.6,0.1l0,0.2l-1.2-0.3l0-0.2l0.6-0.2c0.1,0,0.2-0.1,0.4-0.1v0
			c-0.1,0-0.3-0.1-0.4-0.1l-0.6-0.2l0-0.2l1.2-0.4L183,95.5z"/>
		<path class="st8" d="M182.2,98.3c-0.1,0-0.2,0-0.3,0l0-0.2l0.2,0v0c-0.1-0.1-0.2-0.2-0.2-0.4c0-0.2,0.2-0.4,0.3-0.4
			c0.3,0,0.4,0.3,0.4,0.7l0,0c0.1,0,0.3,0,0.3-0.3c0-0.1,0-0.2-0.1-0.3l0.1,0c0.1,0.1,0.1,0.2,0.1,0.4c0,0.4-0.3,0.5-0.5,0.5
			L182.2,98.3z M182.5,98.1c0-0.2,0-0.5-0.3-0.5c-0.1,0-0.2,0.1-0.2,0.2c0,0.2,0.1,0.3,0.2,0.3c0,0,0.1,0,0.1,0L182.5,98.1z"/>
		<path class="st8" d="M182.7,98.9c0.1,0,0.3,0,0.4,0l0,0.2l-0.2,0v0c0.2,0.1,0.3,0.2,0.2,0.3c0,0,0,0,0,0.1l-0.2,0c0,0,0,0,0-0.1
			c0-0.2-0.1-0.3-0.3-0.3c0,0-0.1,0-0.1,0l-0.6,0l0-0.2L182.7,98.9z"/>
		<path class="st8" d="M182.4,100c-0.3,0-0.4,0.2-0.5,0.4c0,0.2,0,0.3,0,0.3l-0.2,0c0-0.1-0.1-0.2,0-0.4c0-0.4,0.3-0.6,0.7-0.5
			c0.4,0,0.6,0.3,0.6,0.6c0,0.4-0.4,0.5-0.6,0.4c0,0-0.1,0-0.1,0L182.4,100z M182.5,100.6c0.1,0,0.4,0,0.4-0.3
			c0-0.2-0.2-0.3-0.3-0.4L182.5,100.6z"/>
		<path class="st8" d="M181.8,101.1c0.1,0,0.1,0.1,0.1,0.2c0,0.1-0.1,0.1-0.2,0.1c-0.1,0-0.1-0.1-0.1-0.2
			C181.6,101.2,181.7,101.1,181.8,101.1z"/>
		<path class="st8" d="M181.5,102.7c0-0.1,0-0.2,0-0.4c0.1-0.4,0.3-0.6,0.7-0.5c0.4,0.1,0.6,0.4,0.5,0.7c0,0.1-0.1,0.2-0.1,0.3
			l-0.2-0.1c0,0,0.1-0.1,0.1-0.2c0-0.3-0.1-0.5-0.4-0.5c-0.3,0-0.5,0.1-0.5,0.3c0,0.1,0,0.2,0,0.3L181.5,102.7z"/>
		<path class="st8" d="M181.8,104.3c-0.4-0.1-0.6-0.4-0.5-0.7c0.1-0.3,0.4-0.5,0.7-0.4c0.4,0.1,0.6,0.4,0.5,0.7
			C182.4,104.2,182.1,104.4,181.8,104.3z M181.9,103.4c-0.3-0.1-0.5,0.1-0.5,0.3c0,0.2,0.1,0.4,0.4,0.5c0.2,0,0.5,0,0.5-0.3
			C182.4,103.6,182.2,103.4,181.9,103.4z"/>
		<path class="st8" d="M181.2,104.5c0.1,0,0.1,0.1,0.1,0.2c0,0.1-0.1,0.1-0.2,0.1c-0.1,0-0.1-0.1-0.1-0.2
			C181,104.5,181.1,104.5,181.2,104.5z"/>
		<path class="st8" d="M181.1,105.1l0.5,0.7c0,0.1,0.1,0.1,0.1,0.2l0,0l0.2-0.6l0.2,0l-0.2,0.9l-0.1,0l-0.5-0.7
			c-0.1-0.1-0.1-0.1-0.1-0.2l0,0l-0.2,0.7l-0.2,0l0.3-0.9L181.1,105.1z"/>
		<path class="st8" d="M180.6,107.3c-0.1,0-0.2-0.1-0.3-0.1l0.1-0.2l0.1,0l0,0c-0.1-0.1-0.1-0.2-0.1-0.4c0.1-0.2,0.3-0.3,0.4-0.2
			c0.3,0.1,0.3,0.4,0.2,0.8l0,0c0.1,0,0.3,0.1,0.3-0.2c0-0.1,0-0.2,0-0.3l0.2,0c0,0.1,0,0.3,0,0.4c-0.1,0.4-0.4,0.4-0.6,0.3
			L180.6,107.3z M180.9,107.2c0.1-0.2,0.1-0.5-0.1-0.6c-0.1,0-0.2,0-0.3,0.1c0,0.2,0,0.3,0.1,0.3c0,0,0,0,0.1,0L180.9,107.2z"/>
	</g>
	<g>
		<path class="st8" d="M141.1,122.9c0,0,0,0.1,0.1,0.2c0.1,0.1,0.2,0.2,0.3,0.2l2,0.8c0.5,0.2,0.9,0.5,1.1,1c0.2,0.4,0.2,0.8,0,1.2
			c-0.2,0.4-0.4,0.7-0.8,0.9c-0.4,0.2-0.9,0.2-1.4,0l-3.9-1.5l0.4-1l3.6,1.4c0.1,0.1,0.3,0.1,0.4,0c0.1-0.1,0.2-0.1,0.2-0.3
			c0-0.1,0-0.2,0-0.3c-0.1-0.1-0.1-0.2-0.3-0.3l-2-0.8c-0.5-0.2-0.9-0.5-1.1-1c-0.2-0.4-0.2-0.7-0.1-0.9l0-0.1L141.1,122.9z
			 M141.8,122.4c-0.1,0-0.3,0-0.4,0l-0.1,0l-1.5-0.6c0.1-0.2,0.3-0.4,0.7-0.6c0.4-0.2,0.9-0.2,1.5,0l3.8,1.5l-0.4,1l-1.6-0.6
			L141.8,122.4z"/>
		<path class="st8" d="M147.6,128.4l-1.5-0.2l0.2-1.6l0.2-1.9l1.5,0.2l0,0.2l4.2,0.5l-0.1,1.1l-4.1-0.5L147.6,128.4z M150.7,124.6
			l-2.1-0.2c-0.2,0-0.3,0-0.4,0.1l-0.1,0l-1.5-0.2c0-0.2,0.2-0.5,0.5-0.8c0.4-0.3,0.8-0.4,1.4-0.4l3.8,0.4l-0.1,1.1L150.7,124.6z"/>
		<path class="st8" d="M154.9,124.8l-1.4,0.2l-0.2-1.3l1.4-0.2L154.9,124.8z M158.1,128.4l-0.3-2.1l-2.7,0.4l-1.4,0.2l-0.2-1.4
			l1.4-0.2l0,0.2l2.7-0.4l0-0.2l1.5-0.2l0.5,3.4L158.1,128.4z M158.8,122.9l0.2,1.3l-1.4,0.2l-0.2-1.3L158.8,122.9z"/>
		<path class="st8" d="M162.9,121.4c0.5-0.2,0.9-0.3,1.4-0.2c0.4,0.1,0.8,0.3,1.1,0.5l-1.6,0.7c-0.2-0.1-0.4-0.1-0.7,0.1l-0.5,0.2
			c-0.3,0.1-0.5,0.3-0.6,0.5l-1.6,0.7c0-0.4,0.2-0.8,0.4-1.2c0.3-0.4,0.6-0.7,1.1-0.9l0.3-0.1L162.9,121.4z M164.2,125.4
			c0.3-0.1,0.5-0.4,0.6-0.8c0.1-0.3,0-0.7-0.1-1.1c-0.2-0.4-0.3-0.6-0.4-0.7l1.4-0.6c0.1,0.1,0.3,0.3,0.4,0.8
			c0.2,0.4,0.3,0.8,0.2,1.3c0,0.4-0.1,0.9-0.4,1.2c-0.3,0.4-0.6,0.7-1.1,0.9l-0.7,0.3c-0.5,0.2-1,0.3-1.4,0.2
			c-0.4-0.1-0.8-0.3-1.1-0.6c-0.3-0.3-0.6-0.6-0.7-1.1c-0.2-0.4-0.3-0.7-0.2-0.8l1.4-0.6c0,0.1,0.1,0.4,0.2,0.7
			c0.2,0.4,0.4,0.7,0.7,0.9c0.3,0.2,0.6,0.3,1,0.1l0.1-0.1L164.2,125.4z"/>
	</g>
	<g>
		<path class="st8" d="M140.9,63.3l0.2-0.1l0.4,1.3l0.6-0.2l0.1,0.2l-0.8,0.3L140.9,63.3z"/>
		<path class="st8" d="M142.4,63.8l0,0.5l-0.2,0.1l0.1-1.6l0.2-0.1l0.9,1.3l-0.2,0.1l-0.3-0.4L142.4,63.8z M142.9,63.6l-0.3-0.4
			c-0.1-0.1-0.1-0.2-0.2-0.2l0,0c0,0.1,0,0.2,0,0.3l0,0.5L142.9,63.6z"/>
		<path class="st8" d="M143.3,62.5c0.1,0,0.2-0.1,0.3-0.1c0.2,0,0.3,0,0.4,0c0.1,0,0.2,0.1,0.2,0.2c0,0.1,0,0.3-0.2,0.4l0,0
			c0.1,0,0.3,0.1,0.4,0.3c0,0.1,0,0.2-0.1,0.3c-0.1,0.1-0.2,0.2-0.5,0.3c-0.1,0-0.2,0.1-0.3,0.1L143.3,62.5z M143.6,63.1l0.2,0
			c0.2-0.1,0.3-0.2,0.3-0.3c0-0.2-0.2-0.2-0.4-0.2c-0.1,0-0.1,0-0.2,0.1L143.6,63.1z M143.8,63.8c0,0,0.1,0,0.2,0
			c0.2-0.1,0.4-0.2,0.3-0.4c-0.1-0.2-0.2-0.2-0.5-0.2l-0.2,0L143.8,63.8z"/>
		<path class="st8" d="M144.6,63.8l0.2-1.7l0.2,0l-0.3,1.7L144.6,63.8z"/>
		<path class="st8" d="M145.2,62l0.2,0l0.3,1.3l0.6-0.1l0,0.2l-0.8,0.2L145.2,62z"/>
		<path class="st8" d="M146.7,63.3l-0.6-1.4l0.2,0l0.3,0.7c0.1,0.2,0.1,0.4,0.2,0.5h0c0-0.2,0-0.3,0-0.5l0.1-0.8l0.2,0l0.3,0.7
			c0.1,0.2,0.1,0.3,0.2,0.5l0,0c0-0.2,0-0.3,0-0.5l0.1-0.8l0.2,0l-0.2,1.6l-0.2,0l-0.3-0.7c-0.1-0.2-0.1-0.3-0.2-0.5l0,0
			c0,0.2,0,0.3,0,0.5l-0.1,0.8L146.7,63.3z"/>
		<path class="st8" d="M148.1,63.2l0.4-1.7l0.2,0l-0.4,1.7L148.1,63.2z"/>
		<path class="st8" d="M149,62.7c0.1,0,0.2,0.1,0.4,0.1c0.2,0,0.3-0.1,0.3-0.3c0-0.1-0.1-0.2-0.3-0.3c-0.3-0.1-0.4-0.2-0.4-0.4
			c0-0.2,0.2-0.4,0.4-0.5c0.2,0,0.3,0,0.3,0l0,0.2c0,0-0.2-0.1-0.3,0c-0.2,0-0.3,0.1-0.3,0.3c0,0.1,0.1,0.2,0.3,0.3
			c0.3,0.1,0.4,0.2,0.4,0.4c0,0.2-0.1,0.5-0.5,0.5c-0.1,0-0.3,0-0.4-0.1L149,62.7z"/>
		<path class="st8" d="M150,61.4l0.8-0.1l0,0.2l-0.6,0l0,0.5l0.6,0l0,0.2l-0.6,0l0,0.7l-0.2,0L150,61.4z"/>
		<path class="st8" d="M151.8,62.8l0-0.4l-0.7,0l0-0.1l0.6-0.9l0.2,0l0,0.9l0.2,0l0,0.2l-0.2,0l0,0.4L151.8,62.8z M151.7,62.3l0-0.5
			c0-0.1,0-0.2,0-0.2h0c0,0.1-0.1,0.1-0.1,0.2l-0.3,0.5v0L151.7,62.3z"/>
		<path class="st8" d="M153.3,62.1c0,0.5-0.2,0.8-0.5,0.8c-0.3,0-0.5-0.3-0.5-0.8c0-0.5,0.2-0.8,0.5-0.8
			C153.1,61.3,153.3,61.6,153.3,62.1z M152.5,62.1c0,0.4,0.1,0.6,0.3,0.6c0.2,0,0.3-0.2,0.3-0.6c0-0.4-0.1-0.6-0.3-0.6
			C152.6,61.5,152.5,61.7,152.5,62.1z"/>
		<path class="st8" d="M154.2,61.3l-0.1,1.5l-0.2,0l0.1-1.5L154.2,61.3z"/>
		<path class="st8" d="M154.6,61.4c0.1,0,0.3,0,0.4,0c0.3,0,0.5,0.1,0.6,0.2c0.1,0.1,0.2,0.3,0.2,0.6c0,0.2-0.1,0.4-0.3,0.6
			c-0.2,0.1-0.4,0.2-0.7,0.2c-0.1,0-0.3,0-0.4,0L154.6,61.4z M154.7,62.7c0,0,0.1,0,0.2,0c0.4,0,0.7-0.2,0.7-0.6
			c0-0.4-0.2-0.6-0.6-0.6c-0.1,0-0.2,0-0.2,0L154.7,62.7z"/>
		<path class="st8" d="M155.9,62.8c0-0.1,0.1-0.1,0.1-0.1c0.1,0,0.1,0.1,0.1,0.2c0,0.1-0.1,0.1-0.1,0.1
			C156,63,155.9,62.9,155.9,62.8z M156,62.1c0-0.1,0.1-0.1,0.1-0.1c0.1,0,0.1,0.1,0.1,0.2c0,0.1-0.1,0.1-0.1,0.1
			C156.1,62.2,156,62.1,156,62.1z"/>
		<path class="st8" d="M157.6,61.6c0.1,0,0.2,0,0.4,0c0.2,0,0.3,0.1,0.4,0.2c0.1,0.1,0.1,0.2,0.1,0.3c0,0.2-0.2,0.3-0.3,0.3l0,0
			c0.1,0.1,0.2,0.2,0.2,0.3c0,0.2,0,0.4,0.1,0.4l-0.2,0c0,0,0-0.2,0-0.4c0-0.2-0.1-0.3-0.3-0.3l-0.2,0l-0.1,0.6l-0.2,0L157.6,61.6z
			 M157.7,62.4l0.2,0c0.2,0,0.4-0.1,0.4-0.2c0-0.2-0.1-0.3-0.3-0.3c-0.1,0-0.2,0-0.2,0L157.7,62.4z"/>
		<path class="st8" d="M158.7,62.8c0,0.3,0.1,0.4,0.3,0.4c0.1,0,0.2,0,0.3,0l0,0.1c-0.1,0-0.2,0-0.4,0c-0.3-0.1-0.5-0.3-0.4-0.6
			c0.1-0.3,0.3-0.5,0.6-0.5c0.4,0.1,0.4,0.4,0.3,0.6c0,0,0,0.1,0,0.1L158.7,62.8z M159.3,62.8c0-0.1,0-0.3-0.2-0.4
			c-0.2,0-0.3,0.1-0.4,0.3L159.3,62.8z"/>
		<path class="st8" d="M159.9,62.5l0.1,0.6c0,0.1,0,0.2,0,0.3l0,0c0-0.1,0.1-0.2,0.1-0.3l0.3-0.5l0.2,0l-0.6,1l-0.2,0l-0.2-1.1
			L159.9,62.5z"/>
		<path class="st8" d="M161.8,62.7L161.8,62.7l-0.3,0.1l0-0.2l0.4-0.1l0.2,0l-0.4,1.4l-0.2,0L161.8,62.7z"/>
	</g>
</g>
<g>
	<g>
		<line class="st12" x1="345.9" y1="133.5" x2="355.1" y2="154.7"/>
		<g>
			<polygon class="st13" points="345.2,131.9 345.3,134.6 346,133.6 347.1,133.7 			"/>
		</g>
	</g>
</g>
<g>
	<path class="st6" d="M288.5,120c-1.3,0-2.3-1.1-2.3-2.4c0-1.3,1-2.4,2.3-2.4c1.3,0,2.3,1.1,2.3,2.4C290.8,119,289.8,120,288.5,120z
		"/>
	<polygon class="st13" points="287.2,116.9 288.5,116.1 289.8,116.9 289.8,118.4 288.5,119.2 287.2,118.4 	"/>
</g>
<g>
	<path class="st6" d="M288.5,79.9c-1.3,0-2.3-1-2.3-2.3c0-1.3,1-2.3,2.3-2.3c1.3,0,2.3,1,2.3,2.3C290.8,78.8,289.8,79.9,288.5,79.9z
		"/>
	<polygon class="st13" points="287.2,76.8 288.5,76 289.8,76.8 289.8,78.3 288.5,79.1 287.2,78.3 	"/>
</g>
<g>
	<g>
		<line class="st12" x1="216.2" y1="48.7" x2="216.2" y2="146.7"/>
		<g>
			<polygon class="st13" points="216.2,46.9 215.2,49.4 216.2,48.8 217.3,49.4 			"/>
		</g>
		<g>
			<polygon class="st13" points="216.2,148.4 215.2,145.9 216.2,146.5 217.3,145.9 			"/>
		</g>
	</g>
</g>
<line class="st14" x1="219.6" y1="148.8" x2="152.5" y2="148.8"/>
<line class="st14" x1="219.6" y1="46.4" x2="152.6" y2="46.4"/>
<g>
	<path class="st13" d="M209.6,106.9h0.4l4.1,2v0.6l-4-2h0v2.2h-0.5V106.9z"/>
	<path class="st13" d="M213.7,105.9c0-0.1,0-0.3,0-0.5c0-0.4-0.2-0.7-0.4-1c-0.3-0.3-0.7-0.5-1.2-0.6v0c0.3,0.3,0.5,0.6,0.5,1.1
		c0,0.8-0.6,1.3-1.4,1.3c-0.9,0-1.6-0.6-1.6-1.6s0.7-1.5,1.9-1.5c1,0,1.7,0.3,2.1,0.8c0.3,0.4,0.6,0.8,0.6,1.3c0,0.2,0,0.4,0,0.6
		H213.7z M211.1,105.6c0.6,0,1-0.3,1-0.9c0-0.4-0.2-0.7-0.5-0.9c-0.1,0-0.1-0.1-0.2-0.1c-0.8,0-1.4,0.3-1.4,0.9
		C210,105.3,210.4,105.6,211.1,105.6z"/>
	<path class="st13" d="M209.3,99.6c0.7,0.5,1.6,0.9,2.9,0.9c1.2,0,2.1-0.4,2.8-0.9v0.5c-0.6,0.4-1.5,0.9-2.8,0.9
		c-1.4,0-2.3-0.5-2.9-0.9V99.6z"/>
	<path class="st13" d="M213.4,99c0.1-0.2,0.3-0.6,0.3-1c0-0.8-0.5-1-0.9-1c-0.6,0-0.9,0.6-0.9,1.2v0.3h-0.5v-0.3c0-0.4-0.2-1-0.8-1
		c-0.4,0-0.7,0.2-0.7,0.8c0,0.4,0.2,0.7,0.3,0.9l-0.4,0.2c-0.2-0.2-0.4-0.7-0.4-1.2c0-0.9,0.5-1.3,1.1-1.3c0.5,0,0.9,0.3,1.1,0.8h0
		c0.1-0.6,0.5-1,1.2-1c0.7,0,1.4,0.6,1.4,1.7c0,0.5-0.2,1-0.3,1.2L213.4,99z"/>
	<path class="st13" d="M213.8,95.5c-0.3,0-0.4-0.2-0.4-0.4c0-0.2,0.2-0.4,0.4-0.4c0.3,0,0.4,0.2,0.4,0.4
		C214.2,95.3,214,95.5,213.8,95.5z"/>
	<path class="st13" d="M210.2,92.8L210.2,92.8l0.4,0.8l-0.5,0.1l-0.5-1v-0.5h4.6v0.6H210.2z"/>
	<path class="st13" d="M210.2,89.2L210.2,89.2l0.4,0.8l-0.5,0.1l-0.5-1v-0.5h4.6v0.6H210.2z"/>
	<path class="st13" d="M215,87.1c-0.7-0.5-1.6-0.9-2.9-0.9c-1.3,0-2.1,0.4-2.9,0.9v-0.5c0.6-0.4,1.5-0.9,2.9-0.9
		c1.4,0,2.3,0.5,2.9,0.9V87.1z"/>
</g>
<g>
	<g>
		<line class="st12" x1="322.4" y1="160.9" x2="238" y2="160.9"/>
		<g>
			<polygon class="st13" points="324.2,160.9 321.7,159.8 322.3,160.9 321.7,161.9 			"/>
		</g>
		<g>
			<polygon class="st13" points="236.3,160.9 238.8,159.8 238.2,160.9 238.8,161.9 			"/>
		</g>
	</g>
</g>
<line class="st14" x1="235.9" y1="164.2" x2="235.9" y2="144.6"/>
<line class="st14" x1="324.6" y1="164.3" x2="324.6" y2="135.1"/>
<g>
	<path class="st13" d="M296.4,158.7v-0.4l0.5-0.5c1.2-1.1,1.7-1.7,1.7-2.4c0-0.5-0.2-0.9-0.9-0.9c-0.4,0-0.8,0.2-1,0.4l-0.2-0.4
		c0.3-0.3,0.8-0.5,1.3-0.5c1,0,1.4,0.7,1.4,1.3c0,0.8-0.6,1.5-1.6,2.4l-0.4,0.3v0h2v0.5H296.4z"/>
	<path class="st13" d="M302.6,154.6c-0.1,0-0.3,0-0.5,0c-1,0.2-1.5,0.9-1.6,1.6h0c0.2-0.3,0.6-0.5,1.1-0.5c0.8,0,1.4,0.6,1.4,1.5
		c0,0.8-0.6,1.6-1.5,1.6c-1,0-1.6-0.8-1.6-1.9c0-0.9,0.3-1.6,0.8-2.1c0.4-0.4,0.9-0.6,1.5-0.7c0.2,0,0.3,0,0.4,0V154.6z
		 M302.4,157.2c0-0.7-0.4-1-0.9-1c-0.4,0-0.7,0.2-0.9,0.6c0,0.1-0.1,0.2-0.1,0.3c0,0.7,0.4,1.3,1,1.3
		C302.1,158.3,302.4,157.9,302.4,157.2z"/>
	<path class="st13" d="M306.6,153.9c-0.5,0.7-0.9,1.6-0.9,2.9c0,1.2,0.4,2.1,0.9,2.8h-0.5c-0.4-0.6-0.9-1.5-0.9-2.8
		c0-1.4,0.5-2.3,0.9-2.9H306.6z"/>
	<path class="st13" d="M308.4,154.8L308.4,154.8l-0.8,0.4l-0.1-0.5l1-0.5h0.5v4.6h-0.6V154.8z"/>
	<path class="st13" d="M310.7,158.4c0-0.3,0.2-0.4,0.4-0.4c0.2,0,0.4,0.2,0.4,0.4c0,0.3-0.2,0.4-0.4,0.4
		C310.9,158.8,310.7,158.6,310.7,158.4z"/>
	<path class="st13" d="M315.2,156.4c0,1.5-0.6,2.4-1.6,2.4c-0.9,0-1.5-0.8-1.5-2.3c0-1.5,0.7-2.4,1.6-2.4
		C314.6,154.1,315.2,155,315.2,156.4z M312.7,156.5c0,1.2,0.4,1.9,0.9,1.9c0.6,0,0.9-0.7,0.9-1.9c0-1.1-0.3-1.9-0.9-1.9
		C313.1,154.6,312.7,155.2,312.7,156.5z"/>
	<path class="st13" d="M315.7,158.7v-0.4l0.5-0.5c1.2-1.1,1.7-1.7,1.7-2.4c0-0.5-0.2-0.9-0.9-0.9c-0.4,0-0.8,0.2-1,0.4l-0.2-0.4
		c0.3-0.3,0.8-0.5,1.3-0.5c1,0,1.4,0.7,1.4,1.3c0,0.8-0.6,1.5-1.6,2.4l-0.4,0.3v0h2v0.5H315.7z"/>
	<path class="st13" d="M319.1,159.6c0.5-0.7,0.9-1.6,0.9-2.9c0-1.3-0.4-2.1-0.9-2.9h0.5c0.4,0.6,0.9,1.5,0.9,2.9
		c0,1.4-0.5,2.3-0.9,2.9H319.1z"/>
</g>
<g>
	<g>
		<line class="st12" x1="359.6" y1="57.1" x2="359.6" y2="138.2"/>
		<g>
			<polygon class="st13" points="359.6,55.3 358.5,57.8 359.6,57.2 360.6,57.8 			"/>
		</g>
		<g>
			<polygon class="st13" points="359.6,140 358.5,137.5 359.6,138.1 360.6,137.5 			"/>
		</g>
	</g>
</g>
<line class="st14" x1="363" y1="54.9" x2="319.5" y2="54.9"/>
<g>
	<path class="st13" d="M353.3,107.2c0,0.1,0,0.3,0,0.5c0.2,1,0.9,1.5,1.6,1.6v0c-0.3-0.2-0.5-0.6-0.5-1.1c0-0.8,0.6-1.4,1.5-1.4
		c0.8,0,1.6,0.6,1.6,1.5c0,1-0.8,1.6-1.9,1.6c-0.9,0-1.6-0.3-2.1-0.8c-0.4-0.4-0.6-0.9-0.7-1.5c0-0.2,0-0.3,0-0.4H353.3z M356,107.4
		c-0.7,0-1,0.4-1,0.9c0,0.4,0.2,0.7,0.6,0.9c0.1,0,0.2,0.1,0.3,0.1c0.7,0,1.3-0.4,1.3-1C357,107.7,356.6,107.4,356,107.4z"/>
	<path class="st13" d="M353.3,103.6c0,0.1,0,0.3,0,0.5c0.2,1,0.9,1.5,1.6,1.6v0c-0.3-0.2-0.5-0.6-0.5-1.1c0-0.8,0.6-1.4,1.5-1.4
		c0.8,0,1.6,0.6,1.6,1.5c0,1-0.8,1.6-1.9,1.6c-0.9,0-1.6-0.3-2.1-0.8c-0.4-0.4-0.6-0.9-0.7-1.5c0-0.2,0-0.3,0-0.4H353.3z M356,103.8
		c-0.7,0-1,0.4-1,0.9c0,0.4,0.2,0.7,0.6,0.9c0.1,0,0.2,0.1,0.3,0.1c0.7,0,1.3-0.4,1.3-1C357,104.1,356.6,103.8,356,103.8z"/>
	<path class="st13" d="M352.6,99.6c0.7,0.5,1.6,0.9,2.9,0.9c1.2,0,2.1-0.4,2.8-0.9v0.5c-0.6,0.4-1.5,0.9-2.8,0.9
		c-1.4,0-2.3-0.5-2.9-0.9V99.6z"/>
	<path class="st13" d="M357.4,99.1h-0.4l-0.5-0.5c-1.1-1.2-1.7-1.7-2.4-1.7c-0.5,0-0.9,0.2-0.9,0.9c0,0.4,0.2,0.8,0.4,1l-0.4,0.2
		c-0.3-0.3-0.5-0.8-0.5-1.3c0-1,0.7-1.4,1.3-1.4c0.8,0,1.5,0.6,2.4,1.6l0.3,0.4h0v-2h0.5V99.1z"/>
	<path class="st13" d="M357.1,95.5c-0.3,0-0.4-0.2-0.4-0.4c0-0.2,0.2-0.4,0.4-0.4c0.3,0,0.4,0.2,0.4,0.4
		C357.5,95.3,357.3,95.5,357.1,95.5z"/>
	<path class="st13" d="M353.4,91.4v1.7l1.2,0.2c0-0.1,0-0.2,0-0.4c0-0.4,0.1-0.7,0.2-1c0.2-0.4,0.6-0.7,1.2-0.7
		c0.9,0,1.6,0.7,1.6,1.7c0,0.5-0.1,0.9-0.3,1.1l-0.5-0.2c0.1-0.2,0.3-0.6,0.3-1c0-0.6-0.4-1.1-1-1.1c-0.6,0-1,0.4-1,1.3
		c0,0.3,0,0.5,0,0.6l-2.2-0.3v-2.2H353.4z"/>
	<path class="st13" d="M357,90.1c0-0.1,0-0.3,0-0.5c0-0.4-0.2-0.7-0.4-1c-0.3-0.3-0.7-0.5-1.2-0.6v0c0.3,0.3,0.5,0.6,0.5,1.1
		c0,0.8-0.6,1.3-1.4,1.3c-0.9,0-1.6-0.6-1.6-1.6c0-0.9,0.7-1.5,1.9-1.5c1,0,1.7,0.3,2.1,0.8c0.3,0.4,0.6,0.8,0.6,1.3
		c0,0.2,0,0.4,0,0.6H357z M354.4,89.9c0.6,0,1-0.3,1-0.9c0-0.4-0.2-0.7-0.5-0.9c-0.1,0-0.1-0.1-0.2-0.1c-0.8,0-1.4,0.3-1.4,0.9
		C353.3,89.5,353.7,89.9,354.4,89.9z"/>
	<path class="st13" d="M358.3,87.1c-0.7-0.5-1.6-0.9-2.9-0.9c-1.3,0-2.1,0.4-2.9,0.9v-0.5c0.6-0.4,1.5-0.9,2.9-0.9
		c1.4,0,2.3,0.5,2.9,0.9V87.1z"/>
</g>
<g>
	<g>
		<line class="st12" x1="372.3" y1="51.4" x2="372.3" y2="143.8"/>
		<g>
			<polygon class="st13" points="372.3,49.6 371.3,52.1 372.3,51.5 373.3,52.1 			"/>
		</g>
		<g>
			<polygon class="st13" points="372.3,145.6 371.3,143.1 372.3,143.7 373.3,143.1 			"/>
		</g>
	</g>
</g>
<line class="st14" x1="375.7" y1="49.2" x2="294.3" y2="49.2"/>
<g>
	<path class="st13" d="M365.6,106.8h0.4l4.1,2v0.6l-4-2h0v2.2h-0.5V106.8z"/>
	<path class="st13" d="M366.1,103.5v1.7l1.2,0.2c0-0.1,0-0.2,0-0.4c0-0.4,0.1-0.7,0.2-1c0.2-0.4,0.6-0.7,1.2-0.7
		c0.9,0,1.6,0.7,1.6,1.7c0,0.5-0.1,0.9-0.3,1.1l-0.5-0.2c0.1-0.2,0.3-0.6,0.3-1c0-0.6-0.4-1.1-1-1.1c-0.6,0-1,0.4-1,1.3
		c0,0.3,0,0.5,0,0.6l-2.2-0.3v-2.2H366.1z"/>
	<path class="st13" d="M365.3,99.6c0.7,0.5,1.6,0.9,2.9,0.9c1.2,0,2.1-0.4,2.8-0.9v0.5c-0.6,0.4-1.5,0.9-2.8,0.9
		c-1.4,0-2.3-0.5-2.9-0.9V99.6z"/>
	<path class="st13" d="M370.2,99.1h-0.4l-0.5-0.5c-1.1-1.2-1.7-1.7-2.4-1.7c-0.5,0-0.9,0.2-0.9,0.9c0,0.4,0.2,0.8,0.4,1L366,99
		c-0.3-0.3-0.5-0.8-0.5-1.3c0-1,0.7-1.4,1.3-1.4c0.8,0,1.5,0.6,2.4,1.6l0.3,0.4h0v-2h0.5V99.1z"/>
	<path class="st13" d="M369.8,95.5c-0.3,0-0.4-0.2-0.4-0.4s0.2-0.4,0.4-0.4c0.3,0,0.4,0.2,0.4,0.4C370.2,95.3,370.1,95.5,369.8,95.5
		z"/>
	<path class="st13" d="M369.7,93.7c0-0.1,0-0.3,0-0.5c0-0.4-0.2-0.7-0.4-1c-0.3-0.3-0.7-0.5-1.2-0.6v0c0.3,0.3,0.5,0.6,0.5,1.1
		c0,0.8-0.6,1.3-1.4,1.3c-0.9,0-1.6-0.6-1.6-1.6c0-0.9,0.7-1.5,1.9-1.5c1,0,1.7,0.3,2.1,0.8c0.3,0.4,0.6,0.8,0.6,1.3
		c0,0.2,0,0.4,0,0.6H369.7z M367.1,93.5c0.6,0,1-0.3,1-0.9c0-0.4-0.2-0.7-0.5-0.9c-0.1,0-0.1-0.1-0.2-0.1c-0.8,0-1.4,0.3-1.4,0.9
		C366,93.1,366.5,93.5,367.1,93.5z"/>
	<path class="st13" d="M366.1,87.8v1.7l1.2,0.2c0-0.1,0-0.2,0-0.4c0-0.4,0.1-0.7,0.2-1c0.2-0.4,0.6-0.7,1.2-0.7
		c0.9,0,1.6,0.7,1.6,1.7c0,0.5-0.1,0.9-0.3,1.1l-0.5-0.2c0.1-0.2,0.3-0.6,0.3-1c0-0.6-0.4-1.1-1-1.1c-0.6,0-1,0.4-1,1.3
		c0,0.3,0,0.5,0,0.6l-2.2-0.3v-2.2H366.1z"/>
	<path class="st13" d="M371,87.1c-0.7-0.5-1.6-0.9-2.9-0.9s-2.1,0.4-2.9,0.9v-0.5c0.6-0.4,1.5-0.9,2.9-0.9c1.4,0,2.3,0.5,2.9,0.9
		V87.1z"/>
</g>
<g>
	<g>
		<line class="st12" x1="322.4" y1="173.6" x2="238" y2="173.6"/>
		<g>
			<polygon class="st13" points="324.2,173.6 321.7,172.6 322.3,173.6 321.7,174.6 			"/>
		</g>
		<g>
			<polygon class="st13" points="236.3,173.6 238.8,172.6 238.2,173.6 238.8,174.6 			"/>
		</g>
	</g>
</g>
<line class="st14" x1="235.9" y1="176.9" x2="235.9" y2="163.8"/>
<line class="st14" x1="324.6" y1="177" x2="324.6" y2="163.3"/>
<g>
	<path class="st13" d="M271,166.9v0.4l-2,4.1h-0.6l2-4v0h-2.2v-0.5H271z"/>
	<path class="st13" d="M274.7,169.2c0,1.5-0.6,2.4-1.6,2.4c-0.9,0-1.5-0.8-1.5-2.3c0-1.5,0.7-2.4,1.6-2.4
		C274.2,166.9,274.7,167.7,274.7,169.2z M272.2,169.2c0,1.2,0.4,1.9,0.9,1.9c0.6,0,0.9-0.7,0.9-1.9c0-1.1-0.3-1.9-0.9-1.9
		C272.6,167.3,272.2,168,272.2,169.2z"/>
	<path class="st13" d="M278.3,166.6c-0.5,0.7-0.9,1.6-0.9,2.9c0,1.2,0.4,2.1,0.9,2.8h-0.5c-0.4-0.6-0.9-1.5-0.9-2.8
		c0-1.4,0.5-2.3,0.9-2.9H278.3z"/>
	<path class="st13" d="M278.7,171.5v-0.4l0.5-0.5c1.2-1.1,1.7-1.7,1.7-2.4c0-0.5-0.2-0.9-0.9-0.9c-0.4,0-0.8,0.2-1,0.4l-0.2-0.4
		c0.3-0.3,0.8-0.5,1.3-0.5c1,0,1.4,0.7,1.4,1.3c0,0.8-0.6,1.5-1.6,2.4l-0.4,0.3v0h2v0.5H278.7z"/>
	<path class="st13" d="M282.4,171.1c0-0.3,0.2-0.4,0.4-0.4c0.2,0,0.4,0.2,0.4,0.4c0,0.3-0.2,0.4-0.4,0.4
		C282.6,171.6,282.4,171.4,282.4,171.1z"/>
	<path class="st13" d="M286.7,166.9v0.4l-2,4.1h-0.6l2-4v0h-2.2v-0.5H286.7z"/>
	<path class="st13" d="M290,167.4c-0.1,0-0.3,0-0.5,0c-1,0.2-1.5,0.9-1.6,1.6h0c0.2-0.3,0.6-0.5,1.1-0.5c0.8,0,1.4,0.6,1.4,1.5
		c0,0.8-0.6,1.6-1.5,1.6c-1,0-1.6-0.8-1.6-1.9c0-0.9,0.3-1.6,0.8-2.1c0.4-0.4,0.9-0.6,1.5-0.7c0.2,0,0.3,0,0.4,0V167.4z M289.8,170
		c0-0.7-0.4-1-0.9-1c-0.4,0-0.7,0.2-0.9,0.6c0,0.1-0.1,0.2-0.1,0.3c0,0.7,0.4,1.3,1,1.3C289.4,171.1,289.8,170.7,289.8,170z"/>
	<path class="st13" d="M290.8,172.3c0.5-0.7,0.9-1.6,0.9-2.9c0-1.3-0.4-2.1-0.9-2.9h0.5c0.4,0.6,0.9,1.5,0.9,2.9
		c0,1.4-0.5,2.3-0.9,2.9H290.8z"/>
</g>
<g>
	<g>
		<line class="st12" x1="290.3" y1="160.9" x2="238" y2="160.9"/>
		<g>
			<polygon class="st13" points="292,160.9 289.5,159.8 290.1,160.9 289.5,161.9 			"/>
		</g>
		<g>
			<polygon class="st13" points="236.3,160.9 238.8,159.8 238.2,160.9 238.8,161.9 			"/>
		</g>
	</g>
</g>
<line class="st14" x1="292.5" y1="164.3" x2="292.5" y2="145.8"/>
<g>
	<path class="st13" d="M253.9,158.7v-1.2h-2.1v-0.4l2-2.9h0.7v2.8h0.6v0.5h-0.6v1.2H253.9z M253.9,157v-1.5c0-0.2,0-0.5,0-0.7h0
		c-0.1,0.3-0.3,0.5-0.4,0.7l-1.1,1.5v0H253.9z"/>
	<path class="st13" d="M257.5,158.7v-1.2h-2.1v-0.4l2-2.9h0.7v2.8h0.6v0.5h-0.6v1.2H257.5z M257.5,157v-1.5c0-0.2,0-0.5,0-0.7h0
		c-0.1,0.3-0.3,0.5-0.4,0.7L256,157v0H257.5z"/>
	<path class="st13" d="M262.2,153.9c-0.5,0.7-0.9,1.6-0.9,2.9c0,1.2,0.4,2.1,0.9,2.8h-0.5c-0.4-0.6-0.9-1.5-0.9-2.8
		c0-1.4,0.5-2.3,0.9-2.9H262.2z"/>
	<path class="st13" d="M264,154.8L264,154.8l-0.8,0.4l-0.1-0.5l1-0.5h0.5v4.6H264V154.8z"/>
	<path class="st13" d="M266.3,158.4c0-0.3,0.2-0.4,0.4-0.4c0.2,0,0.4,0.2,0.4,0.4c0,0.3-0.2,0.4-0.4,0.4
		C266.5,158.8,266.3,158.6,266.3,158.4z"/>
	<path class="st13" d="M270.7,154.2v0.4l-2,4.1H268l2-4v0h-2.2v-0.5H270.7z"/>
	<path class="st13" d="M271.4,158c0.2,0.1,0.6,0.3,1,0.3c0.8,0,1-0.5,1-0.9c0-0.6-0.6-0.9-1.2-0.9H272v-0.5h0.3c0.4,0,1-0.2,1-0.8
		c0-0.4-0.2-0.7-0.8-0.7c-0.4,0-0.7,0.2-0.9,0.3l-0.2-0.4c0.2-0.2,0.7-0.4,1.2-0.4c0.9,0,1.3,0.5,1.3,1.1c0,0.5-0.3,0.9-0.8,1.1v0
		c0.6,0.1,1,0.5,1,1.2c0,0.7-0.6,1.4-1.7,1.4c-0.5,0-1-0.2-1.2-0.3L271.4,158z"/>
	<path class="st13" d="M274.7,159.6c0.5-0.7,0.9-1.6,0.9-2.9c0-1.3-0.4-2.1-0.9-2.9h0.5c0.4,0.6,0.9,1.5,0.9,2.9
		c0,1.4-0.5,2.3-0.9,2.9H274.7z"/>
</g>
<g>
	<path class="st8" d="M132.8,111.3c0.1,0.1,0.2,0.1,0.3,0.1c0.2,0,0.3-0.1,0.3-0.3c0-0.1-0.1-0.2-0.3-0.3c-0.2-0.1-0.4-0.2-0.4-0.4
		c0-0.2,0.2-0.4,0.5-0.4c0.2,0,0.3,0,0.3,0.1l-0.1,0.2c0,0-0.1-0.1-0.3-0.1c-0.2,0-0.3,0.1-0.3,0.2c0,0.1,0.1,0.2,0.3,0.3
		c0.3,0.1,0.4,0.2,0.4,0.4c0,0.2-0.2,0.4-0.5,0.4c-0.1,0-0.3,0-0.4-0.1L132.8,111.3z"/>
	<path class="st8" d="M134,110.1h0.8v0.2h-0.6v0.5h0.6v0.2h-0.6v0.7H134V110.1z"/>
	<path class="st8" d="M135.8,111.6v-0.4h-0.7v-0.1l0.6-0.9h0.2v0.9h0.2v0.2h-0.2v0.4H135.8z M135.8,111v-0.5c0-0.1,0-0.2,0-0.2h0
		c0,0.1-0.1,0.1-0.1,0.2l-0.4,0.5v0H135.8z"/>
	<path class="st8" d="M137.3,110.8c0,0.5-0.2,0.8-0.5,0.8c-0.3,0-0.5-0.3-0.5-0.7c0-0.5,0.2-0.8,0.5-0.8
		C137.2,110.1,137.3,110.4,137.3,110.8z M136.6,110.9c0,0.4,0.1,0.6,0.3,0.6c0.2,0,0.3-0.2,0.3-0.6c0-0.4-0.1-0.6-0.3-0.6
		C136.7,110.3,136.6,110.5,136.6,110.9z"/>
	<path class="st8" d="M137.5,111.7l0.6-1.6h0.2l-0.6,1.6H137.5z"/>
	<path class="st8" d="M139.1,110.1l-0.2,0.3v0l0.3,0v0.2l-0.3,0v0l0.2,0.3l-0.1,0.1l-0.1-0.3h0l-0.1,0.3l-0.1-0.1l0.2-0.3v0l-0.3,0
		v-0.2l0.3,0v0l-0.2-0.3l0.1-0.1l0.1,0.3h0l0.1-0.3L139.1,110.1z"/>
	<path class="st8" d="M140.1,111.3c0.1,0.1,0.2,0.1,0.3,0.1c0.2,0,0.3-0.1,0.3-0.3c0-0.1-0.1-0.2-0.3-0.3c-0.2-0.1-0.4-0.2-0.4-0.4
		c0-0.2,0.2-0.4,0.5-0.4c0.2,0,0.3,0,0.3,0.1l-0.1,0.2c0,0-0.1-0.1-0.3-0.1c-0.2,0-0.3,0.1-0.3,0.2c0,0.1,0.1,0.2,0.3,0.3
		c0.3,0.1,0.4,0.2,0.4,0.4c0,0.2-0.2,0.4-0.5,0.4c-0.1,0-0.3,0-0.4-0.1L140.1,111.3z"/>
	<path class="st8" d="M141.3,111.6v-1.5h0.2l0.5,0.8c0.1,0.2,0.2,0.3,0.3,0.5l0,0c0-0.2,0-0.4,0-0.6v-0.6h0.2v1.5h-0.2l-0.5-0.8
		c-0.1-0.2-0.2-0.3-0.3-0.5l0,0c0,0.2,0,0.4,0,0.6v0.6H141.3z"/>
	<path class="st8" d="M142.8,110.7c0-0.1,0.1-0.1,0.1-0.1c0.1,0,0.1,0.1,0.1,0.1c0,0.1-0.1,0.1-0.1,0.1
		C142.8,110.8,142.8,110.8,142.8,110.7z M142.8,111.5c0-0.1,0.1-0.1,0.1-0.1c0.1,0,0.1,0.1,0.1,0.1c0,0.1-0.1,0.1-0.1,0.1
		C142.8,111.6,142.8,111.5,142.8,111.5z"/>
	<path class="st8" d="M143.4,111.3c0.1,0.1,0.2,0.1,0.3,0.1c0.2,0,0.3-0.1,0.3-0.3c0-0.1-0.1-0.2-0.3-0.3c-0.2-0.1-0.4-0.2-0.4-0.4
		c0-0.2,0.2-0.4,0.5-0.4c0.2,0,0.3,0,0.3,0.1l-0.1,0.2c0,0-0.1-0.1-0.3-0.1c-0.2,0-0.3,0.1-0.3,0.2c0,0.1,0.1,0.2,0.3,0.3
		c0.3,0.1,0.4,0.2,0.4,0.4c0,0.2-0.2,0.4-0.5,0.4c-0.1,0-0.3,0-0.4-0.1L143.4,111.3z"/>
	<path class="st8" d="M144.6,110.1h0.8v0.2h-0.6v0.5h0.6v0.2h-0.6v0.7h-0.2V110.1z"/>
	<path class="st8" d="M146.3,111.6v-0.4h-0.7v-0.1l0.6-0.9h0.2v0.9h0.2v0.2h-0.2v0.4H146.3z M146.3,111v-0.5c0-0.1,0-0.2,0-0.2h0
		c0,0.1-0.1,0.1-0.1,0.2l-0.4,0.5v0H146.3z"/>
	<path class="st8" d="M147.9,110.8c0,0.5-0.2,0.8-0.5,0.8c-0.3,0-0.5-0.3-0.5-0.7c0-0.5,0.2-0.8,0.5-0.8
		C147.7,110.1,147.9,110.4,147.9,110.8z M147.1,110.9c0,0.4,0.1,0.6,0.3,0.6c0.2,0,0.3-0.2,0.3-0.6c0-0.4-0.1-0.6-0.3-0.6
		C147.2,110.3,147.1,110.5,147.1,110.9z"/>
	<path class="st8" d="M148.7,110.9v0.1h-0.5v-0.1H148.7z"/>
	<path class="st8" d="M149.5,110.1l-0.2,0.3v0l0.3,0v0.2l-0.3,0v0l0.2,0.3l-0.1,0.1l-0.1-0.3h0l-0.1,0.3l-0.1-0.1l0.2-0.3v0l-0.3,0
		v-0.2l0.3,0v0l-0.2-0.3l0.1-0.1l0.1,0.3h0l0.1-0.3L149.5,110.1z"/>
	<path class="st8" d="M150.6,110.1l-0.2,0.3v0l0.3,0v0.2l-0.3,0v0l0.2,0.3l-0.1,0.1l-0.1-0.3h0l-0.1,0.3l-0.1-0.1l0.2-0.3v0l-0.3,0
		v-0.2l0.3,0v0l-0.2-0.3l0.1-0.1l0.1,0.3h0l0.1-0.3L150.6,110.1z"/>
	<path class="st8" d="M151.6,110.1l-0.2,0.3v0l0.3,0v0.2l-0.3,0v0l0.2,0.3l-0.1,0.1l-0.1-0.3h0l-0.1,0.3l-0.1-0.1l0.2-0.3v0l-0.3,0
		v-0.2l0.3,0v0l-0.2-0.3l0.1-0.1l0.1,0.3h0l0.1-0.3L151.6,110.1z"/>
	<path class="st8" d="M152.6,110.1l-0.2,0.3v0l0.3,0v0.2l-0.3,0v0l0.2,0.3l-0.1,0.1l-0.1-0.3h0l-0.1,0.3l-0.1-0.1l0.2-0.3v0l-0.3,0
		v-0.2l0.3,0v0l-0.2-0.3l0.1-0.1l0.1,0.3h0l0.1-0.3L152.6,110.1z"/>
	<path class="st8" d="M153.6,110.1l-0.2,0.3v0l0.3,0v0.2l-0.3,0v0l0.2,0.3l-0.1,0.1l-0.1-0.3h0l-0.1,0.3l-0.1-0.1l0.2-0.3v0l-0.3,0
		v-0.2l0.3,0v0l-0.2-0.3l0.1-0.1l0.1,0.3h0l0.1-0.3L153.6,110.1z"/>
	<path class="st8" d="M155.9,110.9c0-0.2,0-0.5,0-0.6h0c-0.1,0.2-0.1,0.4-0.2,0.6l-0.3,0.7h-0.1l-0.2-0.7c-0.1-0.2-0.1-0.4-0.2-0.6
		h0c0,0.2,0,0.4,0,0.7l0,0.6h-0.2l0.1-1.5h0.2l0.3,0.7c0.1,0.2,0.1,0.3,0.2,0.5h0c0-0.2,0.1-0.3,0.2-0.5l0.3-0.7h0.2l0.1,1.5h-0.2
		L155.9,110.9z"/>
	<path class="st8" d="M156.5,110.1h0.8v0.2h-0.6v0.5h0.6v0.2h-0.6v0.7h-0.2V110.1z"/>
	<path class="st8" d="M157.7,110.1c0.1,0,0.3,0,0.4,0c0.3,0,0.5,0.1,0.6,0.2c0.1,0.1,0.2,0.3,0.2,0.5c0,0.2-0.1,0.4-0.2,0.6
		c-0.1,0.1-0.4,0.2-0.7,0.2c-0.1,0-0.3,0-0.4,0V110.1z M157.9,111.4c0,0,0.1,0,0.2,0c0.4,0,0.6-0.2,0.6-0.6c0-0.4-0.2-0.6-0.6-0.6
		c-0.1,0-0.2,0-0.2,0V111.4z"/>
	<path class="st8" d="M159.2,110.7c0-0.1,0.1-0.1,0.1-0.1c0.1,0,0.1,0.1,0.1,0.1c0,0.1-0.1,0.1-0.1,0.1
		C159.2,110.8,159.2,110.8,159.2,110.7z M159.2,111.5c0-0.1,0.1-0.1,0.1-0.1c0.1,0,0.1,0.1,0.1,0.1c0,0.1-0.1,0.1-0.1,0.1
		C159.2,111.6,159.2,111.5,159.2,111.5z"/>
	<path class="st8" d="M159.7,111.6v-0.1l0.2-0.1c0.4-0.4,0.5-0.5,0.5-0.8c0-0.1-0.1-0.3-0.3-0.3c-0.1,0-0.2,0.1-0.3,0.1l-0.1-0.1
		c0.1-0.1,0.2-0.1,0.4-0.1c0.3,0,0.4,0.2,0.4,0.4c0,0.3-0.2,0.5-0.5,0.8l-0.1,0.1v0h0.6v0.2H159.7z"/>
	<path class="st8" d="M161.9,110.8c0,0.5-0.2,0.8-0.5,0.8c-0.3,0-0.5-0.3-0.5-0.7c0-0.5,0.2-0.8,0.5-0.8
		C161.7,110.1,161.9,110.4,161.9,110.8z M161.1,110.9c0,0.4,0.1,0.6,0.3,0.6c0.2,0,0.3-0.2,0.3-0.6c0-0.4-0.1-0.6-0.3-0.6
		C161.2,110.3,161.1,110.5,161.1,110.9z"/>
	<path class="st8" d="M162.6,111.6v-0.6l-0.5-0.9h0.2l0.2,0.4c0.1,0.1,0.1,0.2,0.1,0.3h0c0-0.1,0.1-0.2,0.2-0.3l0.2-0.4h0.2
		l-0.5,0.9v0.6H162.6z"/>
	<path class="st8" d="M163.9,111.6v-0.6l-0.5-0.9h0.2l0.2,0.4c0.1,0.1,0.1,0.2,0.1,0.3h0c0-0.1,0.1-0.2,0.2-0.3l0.2-0.4h0.2
		l-0.5,0.9v0.6H163.9z"/>
	<path class="st8" d="M164.7,111.7l0.6-1.6h0.2l-0.6,1.6H164.7z"/>
	<path class="st8" d="M167,110.9c0-0.2,0-0.5,0-0.6h0c-0.1,0.2-0.1,0.4-0.2,0.6l-0.3,0.7h-0.1l-0.2-0.7c-0.1-0.2-0.1-0.4-0.2-0.6h0
		c0,0.2,0,0.4,0,0.7l0,0.6h-0.2l0.1-1.5h0.2l0.3,0.7c0.1,0.2,0.1,0.3,0.2,0.5h0c0-0.2,0.1-0.3,0.2-0.5l0.3-0.7h0.2l0.1,1.5H167
		L167,110.9z"/>
	<path class="st8" d="M168.8,110.9c0-0.2,0-0.5,0-0.6h0c-0.1,0.2-0.1,0.4-0.2,0.6l-0.3,0.7h-0.1l-0.2-0.7c-0.1-0.2-0.1-0.4-0.2-0.6
		h0c0,0.2,0,0.4,0,0.7l0,0.6h-0.2l0.1-1.5h0.2l0.3,0.7c0.1,0.2,0.1,0.3,0.2,0.5h0c0-0.2,0.1-0.3,0.2-0.5l0.3-0.7h0.2l0.1,1.5h-0.2
		L168.8,110.9z"/>
	<path class="st8" d="M169.9,111.5l0.8-1.2v0H170v-0.2h1v0.1l-0.8,1.2v0h0.8v0.2h-1.1V111.5z"/>
	<path class="st8" d="M171.6,111.1l-0.2,0.5h-0.2l0.5-1.5h0.2l0.5,1.5h-0.2l-0.2-0.5H171.6z M172.1,111l-0.1-0.4
		c0-0.1-0.1-0.2-0.1-0.3h0c0,0.1,0,0.2-0.1,0.3l-0.1,0.4H172.1z"/>
</g>
<polyline class="st12" points="235.9,44.8 238.9,41.9 289,41.9 292,44.8 "/>
<g>
	<path class="st13" d="M252,35.1c0.3-0.1,0.8-0.1,1.2-0.1c0.7,0,1.1,0.1,1.4,0.4c0.2,0.2,0.4,0.5,0.4,0.9c0,0.6-0.4,1-0.9,1.2v0
		c0.4,0.1,0.6,0.5,0.7,1c0.2,0.7,0.3,1.1,0.4,1.3h-0.6c-0.1-0.1-0.2-0.5-0.3-1.1c-0.1-0.7-0.4-0.9-1-0.9h-0.6v2H252V35.1z
		 M252.6,37.2h0.6c0.7,0,1.1-0.4,1.1-0.9c0-0.6-0.4-0.9-1.1-0.9c-0.3,0-0.5,0-0.6,0V37.2z"/>
	<path class="st13" d="M258.8,38c0,1.3-0.9,1.8-1.7,1.8c-0.9,0-1.6-0.7-1.6-1.7c0-1.1,0.7-1.8,1.7-1.8C258.1,36.3,258.8,37,258.8,38
		z M256.1,38.1c0,0.7,0.4,1.3,1,1.3c0.6,0,1-0.6,1-1.3c0-0.6-0.3-1.3-1-1.3C256.4,36.7,256.1,37.4,256.1,38.1z"/>
	<path class="st13" d="M260.3,35.5v0.8h0.9v0.5h-0.9v1.8c0,0.4,0.1,0.7,0.5,0.7c0.2,0,0.3,0,0.4,0l0,0.5c-0.1,0-0.3,0.1-0.5,0.1
		c-0.3,0-0.5-0.1-0.7-0.3c-0.2-0.2-0.2-0.5-0.2-0.9v-1.8h-0.5v-0.5h0.5v-0.6L260.3,35.5z"/>
	<path class="st13" d="M264.3,38.9c0,0.3,0,0.6,0,0.8h-0.6l0-0.4h0c-0.2,0.3-0.6,0.5-1,0.5c-0.7,0-1-0.5-1-1c0-0.8,0.7-1.3,2-1.3
		v-0.1c0-0.3-0.1-0.8-0.8-0.8c-0.3,0-0.7,0.1-0.9,0.3l-0.1-0.4c0.3-0.2,0.7-0.3,1.1-0.3c1,0,1.3,0.7,1.3,1.4V38.9z M263.7,38
		c-0.7,0-1.4,0.1-1.4,0.8c0,0.4,0.3,0.6,0.6,0.6c0.4,0,0.7-0.3,0.8-0.6c0-0.1,0-0.1,0-0.2V38z"/>
	<path class="st13" d="M266,35.5v0.8h0.9v0.5H266v1.8c0,0.4,0.1,0.7,0.5,0.7c0.2,0,0.3,0,0.4,0l0,0.5c-0.1,0-0.3,0.1-0.5,0.1
		c-0.3,0-0.5-0.1-0.7-0.3c-0.2-0.2-0.2-0.5-0.2-0.9v-1.8h-0.5v-0.5h0.5v-0.6L266,35.5z"/>
	<path class="st13" d="M268.2,35.4c0,0.2-0.1,0.4-0.4,0.4c-0.2,0-0.4-0.2-0.4-0.4c0-0.2,0.2-0.4,0.4-0.4
		C268.1,35,268.2,35.2,268.2,35.4z M267.6,39.7v-3.4h0.6v3.4H267.6z"/>
	<path class="st13" d="M269.2,37.3c0-0.4,0-0.6,0-0.9h0.5l0,0.6h0c0.2-0.3,0.6-0.6,1.1-0.6c0.5,0,1.2,0.3,1.2,1.4v2h-0.6v-2
		c0-0.5-0.2-1-0.8-1c-0.4,0-0.7,0.3-0.8,0.6c0,0.1,0,0.2,0,0.3v2h-0.6V37.3z"/>
	<path class="st13" d="M276,39.2c0,0.8-0.2,1.3-0.5,1.6c-0.3,0.3-0.8,0.4-1.2,0.4c-0.4,0-0.9-0.1-1.1-0.3l0.2-0.5
		c0.2,0.1,0.6,0.3,1,0.3c0.6,0,1.1-0.3,1.1-1.2v-0.4h0c-0.2,0.3-0.6,0.6-1.1,0.6c-0.8,0-1.4-0.7-1.4-1.7c0-1.1,0.7-1.8,1.5-1.8
		c0.6,0,0.9,0.3,1.1,0.6h0l0-0.5h0.5c0,0.2,0,0.5,0,0.9V39.2z M275.4,37.7c0-0.1,0-0.2,0-0.3c-0.1-0.4-0.4-0.7-0.9-0.7
		c-0.6,0-1,0.5-1,1.3c0,0.7,0.3,1.2,1,1.2c0.4,0,0.7-0.2,0.9-0.6c0-0.1,0-0.2,0-0.3V37.7z"/>
</g>
<line class="st14" x1="362.9" y1="140.4" x2="319.5" y2="140.4"/>
<line class="st14" x1="375.6" y1="146" x2="294.3" y2="146"/>
<polyline class="st12" points="292.5,44.8 295.5,41.9 321,41.9 324.1,44.8 "/>
<g>
	<path class="st13" d="M302.2,35.1c0.3-0.1,0.7-0.1,1.1-0.1c0.6,0,1,0.1,1.3,0.3c0.2,0.2,0.4,0.5,0.4,0.8c0,0.5-0.3,0.9-0.8,1v0
		c0.4,0.1,1,0.5,1,1.2c0,0.4-0.2,0.7-0.4,0.9c-0.3,0.3-0.9,0.4-1.6,0.4c-0.4,0-0.7,0-0.9-0.1V35.1z M302.8,37h0.6c0.6,0,1-0.3,1-0.8
		c0-0.5-0.4-0.8-1-0.8c-0.3,0-0.4,0-0.5,0V37z M302.8,39.3c0.1,0,0.3,0,0.5,0c0.6,0,1.2-0.2,1.2-0.9c0-0.6-0.6-0.9-1.2-0.9h-0.5
		V39.3z"/>
	<path class="st13" d="M308.3,38.9c0,0.3,0,0.6,0,0.8h-0.6l0-0.4h0c-0.2,0.3-0.6,0.5-1,0.5c-0.7,0-1-0.5-1-1c0-0.8,0.7-1.3,2-1.3
		v-0.1c0-0.3-0.1-0.8-0.8-0.8c-0.3,0-0.7,0.1-0.9,0.3l-0.1-0.4c0.3-0.2,0.7-0.3,1.1-0.3c1,0,1.3,0.7,1.3,1.4V38.9z M307.7,38
		c-0.7,0-1.4,0.1-1.4,0.8c0,0.4,0.3,0.6,0.6,0.6c0.4,0,0.7-0.3,0.8-0.6c0-0.1,0-0.1,0-0.2V38z"/>
	<path class="st13" d="M309.2,39.1c0.2,0.1,0.5,0.2,0.8,0.2c0.4,0,0.7-0.2,0.7-0.5c0-0.3-0.2-0.4-0.6-0.6c-0.6-0.2-0.9-0.6-0.9-1
		c0-0.5,0.4-1,1.2-1c0.3,0,0.6,0.1,0.8,0.2l-0.1,0.4c-0.1-0.1-0.4-0.2-0.7-0.2c-0.4,0-0.6,0.2-0.6,0.5c0,0.3,0.2,0.4,0.6,0.6
		c0.6,0.2,0.9,0.5,0.9,1c0,0.6-0.5,1-1.3,1c-0.4,0-0.7-0.1-1-0.2L309.2,39.1z"/>
	<path class="st13" d="M312.4,38.2c0,0.8,0.5,1.2,1.2,1.2c0.4,0,0.7-0.1,0.9-0.2l0.1,0.4c-0.2,0.1-0.6,0.2-1.1,0.2
		c-1,0-1.7-0.7-1.7-1.7c0-1,0.6-1.8,1.6-1.8c1.1,0,1.4,1,1.4,1.6c0,0.1,0,0.2,0,0.3H312.4z M314.3,37.7c0-0.4-0.2-1-0.9-1
		c-0.6,0-0.9,0.6-0.9,1H314.3z"/>
</g>
<g>
	<path d="M341.3,162.1c0-0.7-0.1-1.5-0.1-2.1h0c-0.2,0.6-0.4,1.2-0.6,1.8l-0.9,2.3h-0.5l-0.8-2.3c-0.2-0.7-0.4-1.3-0.6-1.9h0
		c0,0.6,0,1.4-0.1,2.1l-0.1,2.1h-0.6l0.3-4.8h0.8l0.8,2.3c0.2,0.6,0.4,1.1,0.5,1.6h0c0.1-0.5,0.3-1,0.5-1.6l0.9-2.3h0.8l0.3,4.8
		h-0.6L341.3,162.1z"/>
	<path d="M342.9,163.5c0.2,0.1,0.6,0.3,1,0.3c0.8,0,1.1-0.5,1.1-0.9c0-0.7-0.6-0.9-1.2-0.9h-0.4v-0.5h0.4c0.5,0,1-0.2,1-0.8
		c0-0.4-0.2-0.7-0.8-0.7c-0.4,0-0.7,0.2-0.9,0.3l-0.2-0.5c0.2-0.2,0.7-0.4,1.2-0.4c0.9,0,1.3,0.5,1.3,1.1c0,0.5-0.3,0.9-0.9,1.1v0
		c0.6,0.1,1,0.5,1,1.2c0,0.7-0.6,1.4-1.7,1.4c-0.5,0-1-0.2-1.2-0.3L342.9,163.5z"/>
	<path d="M348.4,160.8l0.5,0.7c0.1,0.2,0.2,0.4,0.4,0.6h0c0.1-0.2,0.2-0.4,0.3-0.6l0.5-0.7h0.7l-1.2,1.7l1.2,1.8h-0.7l-0.5-0.8
		c-0.1-0.2-0.3-0.4-0.4-0.6h0c-0.1,0.2-0.2,0.4-0.4,0.6l-0.5,0.8h-0.7l1.2-1.8l-1.2-1.7H348.4z"/>
	<path d="M357,162.1c0-0.7-0.1-1.5-0.1-2.1h0c-0.2,0.6-0.4,1.2-0.6,1.8l-0.9,2.3H355l-0.8-2.3c-0.2-0.7-0.4-1.3-0.6-1.9h0
		c0,0.6,0,1.4-0.1,2.1l-0.1,2.1h-0.6l0.3-4.8h0.8l0.8,2.3c0.2,0.6,0.4,1.1,0.5,1.6h0c0.1-0.5,0.3-1,0.5-1.6l0.9-2.3h0.8l0.3,4.8
		h-0.6L357,162.1z"/>
	<path d="M358.6,163.5c0.2,0.1,0.6,0.3,1,0.3c0.8,0,1.1-0.5,1.1-0.9c0-0.7-0.6-0.9-1.2-0.9h-0.4v-0.5h0.4c0.5,0,1-0.2,1-0.8
		c0-0.4-0.2-0.7-0.8-0.7c-0.4,0-0.7,0.2-0.9,0.3l-0.2-0.5c0.2-0.2,0.7-0.4,1.2-0.4c0.9,0,1.3,0.5,1.3,1.1c0,0.5-0.3,0.9-0.9,1.1v0
		c0.6,0.1,1,0.5,1,1.2c0,0.7-0.6,1.4-1.7,1.4c-0.5,0-1-0.2-1.2-0.3L358.6,163.5z"/>
	<path d="M364.2,160.8l0.5,0.7c0.1,0.2,0.2,0.4,0.4,0.6h0c0.1-0.2,0.2-0.4,0.3-0.6l0.5-0.7h0.7l-1.2,1.7l1.2,1.8h-0.7l-0.5-0.8
		c-0.1-0.2-0.3-0.4-0.4-0.6h0c-0.1,0.2-0.2,0.4-0.4,0.6l-0.5,0.8h-0.7l1.2-1.8l-1.2-1.7H364.2z"/>
	<path d="M369.9,160.2L369.9,160.2l-0.8,0.4l-0.1-0.5l1-0.5h0.5v4.7h-0.6V160.2z"/>
	<path d="M372.2,164.3v-0.4l0.5-0.5c1.2-1.1,1.7-1.7,1.7-2.4c0-0.5-0.2-0.9-0.9-0.9c-0.4,0-0.8,0.2-1,0.4l-0.2-0.4
		c0.3-0.3,0.8-0.5,1.3-0.5c1,0,1.4,0.7,1.4,1.4c0,0.9-0.6,1.6-1.6,2.5l-0.4,0.3v0h2.1v0.5H372.2z"/>
	<path d="M377.6,161.7c0-0.4,0-0.7,0-0.9h0.6l0,0.6h0c0.2-0.3,0.5-0.6,1.1-0.6c0.5,0,0.8,0.3,1,0.7h0c0.1-0.2,0.2-0.3,0.4-0.5
		c0.2-0.2,0.4-0.2,0.8-0.2c0.5,0,1.1,0.3,1.1,1.5v2h-0.6v-2c0-0.7-0.2-1.1-0.8-1.1c-0.4,0-0.6,0.3-0.7,0.6c0,0.1,0,0.2,0,0.3v2.1
		h-0.6v-2.1c0-0.6-0.2-1-0.7-1c-0.4,0-0.7,0.3-0.8,0.6c0,0.1,0,0.2,0,0.3v2.1h-0.6V161.7z"/>
	<path d="M383.5,161.7c0-0.4,0-0.7,0-0.9h0.6l0,0.6h0c0.2-0.3,0.5-0.6,1.1-0.6c0.5,0,0.8,0.3,1,0.7h0c0.1-0.2,0.2-0.3,0.4-0.5
		c0.2-0.2,0.4-0.2,0.8-0.2c0.5,0,1.1,0.3,1.1,1.5v2h-0.6v-2c0-0.7-0.2-1.1-0.8-1.1c-0.4,0-0.6,0.3-0.7,0.6c0,0.1,0,0.2,0,0.3v2.1
		h-0.6v-2.1c0-0.6-0.2-1-0.7-1c-0.4,0-0.7,0.3-0.8,0.6c0,0.1,0,0.2,0,0.3v2.1h-0.6V161.7z"/>
	<path d="M391.7,159.4v2h2.3v-2h0.6v4.8H394V162h-2.3v2.3H391v-4.8H391.7z"/>
	<path d="M396,162.6c0,0.9,0.6,1.2,1.2,1.2c0.5,0,0.7-0.1,1-0.2l0.1,0.5c-0.2,0.1-0.6,0.2-1.2,0.2c-1.1,0-1.7-0.7-1.7-1.7
		c0-1,0.6-1.9,1.6-1.9c1.1,0,1.4,1,1.4,1.6c0,0.1,0,0.2,0,0.3H396z M397.9,162.2c0-0.4-0.2-1-0.9-1c-0.6,0-0.9,0.6-1,1H397.9z"/>
	<path d="M399.5,160.8l0.5,0.7c0.1,0.2,0.2,0.4,0.4,0.6h0c0.1-0.2,0.2-0.4,0.3-0.6l0.5-0.7h0.7l-1.2,1.7l1.2,1.8h-0.7l-0.5-0.8
		c-0.1-0.2-0.3-0.4-0.4-0.6h0c-0.1,0.2-0.2,0.4-0.4,0.6l-0.5,0.8h-0.7l1.2-1.8l-1.2-1.7H399.5z"/>
	<path d="M337.1,172.2c0.2,0.1,0.5,0.3,0.8,0.3c0.5,0,0.7-0.2,0.7-0.5c0-0.3-0.2-0.5-0.6-0.6c-0.6-0.2-0.9-0.6-0.9-1
		c0-0.6,0.5-1,1.2-1c0.4,0,0.7,0.1,0.9,0.2l-0.2,0.5c-0.1-0.1-0.4-0.2-0.7-0.2c-0.4,0-0.6,0.2-0.6,0.5c0,0.3,0.2,0.4,0.7,0.6
		c0.6,0.2,0.9,0.5,0.9,1c0,0.6-0.5,1-1.3,1c-0.4,0-0.7-0.1-1-0.2L337.1,172.2z"/>
	<path d="M340.8,168.4v1h0.9v0.5h-0.9v1.9c0,0.4,0.1,0.7,0.5,0.7c0.2,0,0.3,0,0.4,0l0,0.5c-0.1,0-0.3,0.1-0.6,0.1
		c-0.3,0-0.5-0.1-0.7-0.3c-0.2-0.2-0.2-0.5-0.2-0.9v-1.9h-0.5v-0.5h0.5v-0.8L340.8,168.4z"/>
	<path d="M344.3,172.8l0-0.4h0c-0.2,0.3-0.6,0.5-1.1,0.5c-0.7,0-1.1-0.5-1.1-1c0-0.8,0.7-1.3,2.1-1.3v-0.1c0-0.3-0.1-0.8-0.8-0.8
		c-0.3,0-0.7,0.1-0.9,0.3l-0.1-0.4c0.3-0.2,0.7-0.3,1.1-0.3c1.1,0,1.3,0.7,1.3,1.4v1.3c0,0.3,0,0.6,0.1,0.8H344.3z M344.2,171.1
		c-0.7,0-1.5,0.1-1.5,0.8c0,0.4,0.3,0.6,0.6,0.6c0.5,0,0.7-0.3,0.8-0.6c0-0.1,0-0.1,0-0.2V171.1z"/>
	<path d="M345.8,170.3c0-0.4,0-0.7,0-0.9h0.6l0,0.6h0c0.2-0.3,0.6-0.7,1.1-0.7c0.5,0,1.2,0.3,1.2,1.5v2.1h-0.6v-2c0-0.6-0.2-1-0.8-1
		c-0.4,0-0.7,0.3-0.8,0.6c0,0.1,0,0.2,0,0.3v2.1h-0.6V170.3z"/>
	<path d="M352.8,167.8v4.2c0,0.3,0,0.7,0,0.9h-0.6l0-0.6h0c-0.2,0.4-0.6,0.7-1.2,0.7c-0.8,0-1.5-0.7-1.5-1.8c0-1.2,0.7-1.9,1.6-1.9
		c0.5,0,0.9,0.3,1,0.5h0v-2.1H352.8z M352.2,170.8c0-0.1,0-0.2,0-0.3c-0.1-0.4-0.4-0.7-0.9-0.7c-0.7,0-1,0.6-1,1.3
		c0,0.7,0.3,1.3,1,1.3c0.4,0,0.8-0.3,0.9-0.8c0-0.1,0-0.2,0-0.3V170.8z"/>
	<path d="M357,171.1c0,1.3-0.9,1.8-1.7,1.8c-0.9,0-1.7-0.7-1.7-1.8c0-1.2,0.8-1.8,1.7-1.8C356.3,169.3,357,170,357,171.1z
		 M354.2,171.1c0,0.8,0.4,1.3,1.1,1.3c0.6,0,1.1-0.6,1.1-1.3c0-0.6-0.3-1.3-1-1.3C354.5,169.8,354.2,170.5,354.2,171.1z"/>
	<path d="M359.9,172.8v-3h-1.5v3h-0.6v-3h-0.5v-0.5h0.5v-0.1c0-0.5,0.1-0.9,0.4-1.2c0.2-0.2,0.5-0.3,0.9-0.3c0.2,0,0.4,0.1,0.5,0.1
		l-0.1,0.5c-0.1,0-0.2-0.1-0.4-0.1c-0.5,0-0.6,0.4-0.6,1v0.1h1.5v-0.2c0-0.5,0.1-0.9,0.4-1.2c0.2-0.2,0.6-0.3,0.8-0.3
		c0.2,0,0.4,0.1,0.5,0.1l-0.1,0.5c-0.1,0-0.2-0.1-0.4-0.1c-0.5,0-0.7,0.5-0.7,1v0.2h0.8v0.5h-0.8v3H359.9z"/>
	<path d="M367.5,170.7c0-0.7-0.1-1.5-0.1-2.1h0c-0.2,0.6-0.4,1.2-0.6,1.8l-0.9,2.3h-0.5l-0.8-2.3c-0.2-0.7-0.4-1.3-0.6-1.9h0
		c0,0.6,0,1.4-0.1,2.1l-0.1,2.1h-0.6l0.3-4.8h0.8l0.8,2.3c0.2,0.6,0.4,1.1,0.5,1.6h0c0.1-0.5,0.3-1,0.5-1.6l0.9-2.3h0.8l0.3,4.8
		h-0.6L367.5,170.7z"/>
	<path d="M371.2,172.8l0-0.4h0c-0.2,0.3-0.6,0.5-1.1,0.5c-0.7,0-1.1-0.5-1.1-1c0-0.8,0.7-1.3,2.1-1.3v-0.1c0-0.3-0.1-0.8-0.8-0.8
		c-0.3,0-0.7,0.1-0.9,0.3l-0.1-0.4c0.3-0.2,0.7-0.3,1.1-0.3c1.1,0,1.3,0.7,1.3,1.4v1.3c0,0.3,0,0.6,0.1,0.8H371.2z M371.1,171.1
		c-0.7,0-1.5,0.1-1.5,0.8c0,0.4,0.3,0.6,0.6,0.6c0.5,0,0.7-0.3,0.8-0.6c0-0.1,0-0.1,0-0.2V171.1z"/>
	<path d="M372.7,167.8h0.6v5.1h-0.6V167.8z"/>
	<path d="M374.7,171.2c0,0.9,0.6,1.2,1.2,1.2c0.5,0,0.7-0.1,1-0.2l0.1,0.5c-0.2,0.1-0.6,0.2-1.2,0.2c-1.1,0-1.7-0.7-1.7-1.7
		c0-1,0.6-1.9,1.6-1.9c1.1,0,1.4,1,1.4,1.6c0,0.1,0,0.2,0,0.3H374.7z M376.6,170.8c0-0.4-0.2-1-0.9-1c-0.6,0-0.9,0.6-1,1H376.6z"/>
	<path d="M379,173.1l2-5.2h0.5l-2,5.2H379z"/>
	<path d="M383.5,168h2.6v0.5h-2v1.6h1.8v0.5h-1.8v2.2h-0.6V168z"/>
	<path d="M387.1,171.2c0,0.9,0.6,1.2,1.2,1.2c0.5,0,0.7-0.1,1-0.2l0.1,0.5c-0.2,0.1-0.6,0.2-1.2,0.2c-1.1,0-1.7-0.7-1.7-1.7
		c0-1,0.6-1.9,1.6-1.9c1.1,0,1.4,1,1.4,1.6c0,0.1,0,0.2,0,0.3H387.1z M388.9,170.8c0-0.4-0.2-1-0.9-1c-0.6,0-0.9,0.6-1,1H388.9z"/>
	<path d="M390.3,170.3c0-0.4,0-0.7,0-0.9h0.6l0,0.6h0c0.2-0.3,0.5-0.6,1.1-0.6c0.5,0,0.8,0.3,1,0.7h0c0.1-0.2,0.2-0.3,0.4-0.5
		c0.2-0.2,0.4-0.2,0.8-0.2c0.5,0,1.1,0.3,1.1,1.5v2h-0.6v-2c0-0.7-0.2-1.1-0.8-1.1c-0.4,0-0.6,0.3-0.7,0.6c0,0.1,0,0.2,0,0.3v2.1
		h-0.6v-2.1c0-0.6-0.2-1-0.7-1c-0.4,0-0.7,0.3-0.8,0.6c0,0.1,0,0.2,0,0.3v2.1h-0.6V170.3z"/>
	<path d="M398.2,172.8l0-0.4h0c-0.2,0.3-0.6,0.5-1.1,0.5c-0.7,0-1.1-0.5-1.1-1c0-0.8,0.7-1.3,2.1-1.3v-0.1c0-0.3-0.1-0.8-0.8-0.8
		c-0.3,0-0.7,0.1-0.9,0.3l-0.1-0.4c0.3-0.2,0.7-0.3,1.1-0.3c1.1,0,1.3,0.7,1.3,1.4v1.3c0,0.3,0,0.6,0.1,0.8H398.2z M398.1,171.1
		c-0.7,0-1.5,0.1-1.5,0.8c0,0.4,0.3,0.6,0.6,0.6c0.5,0,0.7-0.3,0.8-0.6c0-0.1,0-0.1,0-0.2V171.1z"/>
	<path d="M399.7,167.8h0.6v5.1h-0.6V167.8z"/>
	<path d="M401.8,171.2c0,0.9,0.6,1.2,1.2,1.2c0.5,0,0.7-0.1,1-0.2l0.1,0.5c-0.2,0.1-0.6,0.2-1.2,0.2c-1.1,0-1.7-0.7-1.7-1.7
		c0-1,0.6-1.9,1.6-1.9c1.1,0,1.4,1,1.4,1.6c0,0.1,0,0.2,0,0.3H401.8z M403.6,170.8c0-0.4-0.2-1-0.9-1c-0.6,0-0.9,0.6-1,1H403.6z"/>
</g>
<g>
	<path d="M309.5,92.7c2.6,0,4.8,2.1,4.8,4.8c0,2.6-2.1,4.8-4.8,4.8c-2.6,0-4.8-2.1-4.8-4.8C304.7,94.8,306.9,92.7,309.5,92.7z"/>
	<g>
		<path class="st9" d="M305.2,96.9c0,0.3,1.8,0.8,4.1,1.1c2.3,0.3,4.3,0.4,4.3,0.1c0-0.3-1.8-0.8-4.1-1.1
			C307.1,96.6,305.2,96.6,305.2,96.9z"/>
		<path class="st9" d="M305.7,98.4c0,0.3,1.5,0.8,3.4,1c1.9,0.3,3.5,0.2,3.6,0c0-0.3-1.5-0.8-3.4-1
			C307.4,98.1,305.8,98.1,305.7,98.4z"/>
		<path class="st9" d="M306.6,99.9c0,0.3,1,0.7,2.3,0.9c1.3,0.2,2.4,0.1,2.5-0.2c0-0.3-1-0.7-2.3-0.9
			C307.8,99.5,306.6,99.6,306.6,99.9z"/>
		<path class="st9" d="M306.1,95.6c0,0.3,1.5,0.8,3.4,1c1.9,0.3,3.5,0.2,3.5,0c0-0.3-1.5-0.8-3.4-1
			C307.7,95.3,306.2,95.3,306.1,95.6z"/>
		<path class="st9" d="M307.4,94.4c0,0.3,1,0.7,2.3,0.9c1.3,0.2,2.4,0.1,2.5-0.2c0-0.3-1-0.7-2.3-0.9
			C308.5,94,307.4,94.1,307.4,94.4z"/>
	</g>
</g>
<g>
	<defs>
		
			<rect id="SVGID_1_" x="251.3" y="122.8" transform="matrix(6.123234e-17 -1 1 6.123234e-17 118.9065 399.7976)" width="16.2" height="35.3"/>
	</defs>
	<clipPath id="SVGID_2_">
		<use xlink:href="#SVGID_1_"  style="overflow:visible;"/>
	</clipPath>
	<g class="st15">
		<path class="st7" d="M242.4,136c0-1.4,1.1-2.5,2.5-2.5h28.9c1.4,0,2.5,1.1,2.5,2.5v20.1c0,1.4-1.1,2.5-2.5,2.5h-28.9
			c-1.4,0-2.5-1.1-2.5-2.5V136z"/>
		<path class="st8" d="M244.2,136.8c0-0.2,0.2-0.4,0.4-0.4h12.1l2.8-1.3l2.6,1.3h12.1c0.2,0,0.4,0.2,0.4,0.4V154h-30.3V136.8z"/>
		<path d="M244.6,157.7h29.6c0.7,0,1.2-0.6,1.2-1.2V154v-17.2c0-0.7-0.6-1.2-1.2-1.2h-12.1l-2.6-1.3l-2.8,1.3h-12.1
			c-0.7,0-1.2,0.6-1.2,1.2V154v2.5C243.3,157.2,243.9,157.7,244.6,157.7z M244.2,136.8c0-0.2,0.2-0.4,0.4-0.4h12.1l2.8-1.3l2.6,1.3
			h12.1c0.2,0,0.4,0.2,0.4,0.4V154h-30.3V136.8z"/>
		<g>
			<path class="st7" d="M269.2,154.5c0.1,0,0.3-0.1,0.6-0.1c0.8,0,1.3,0.5,1.3,1.2c0,0.8-0.6,1.3-1.3,1.3c-0.3,0-0.5-0.1-0.6-0.1
				l0.1-0.4c0.1,0,0.3,0.1,0.5,0.1c0.4,0,0.8-0.3,0.8-0.8c0-0.5-0.3-0.8-0.8-0.8c-0.2,0-0.4,0-0.5,0.1L269.2,154.5z"/>
			<path class="st7" d="M266.8,155.1l0.2-0.6h0.6l-0.7,2.4h-0.7l-0.8-2.4h0.6l0.2,0.6H266.8z M266.2,155.5l0.2,0.5
				c0,0.1,0.1,0.3,0.1,0.5h0c0-0.1,0.1-0.3,0.1-0.5l0.1-0.5H266.2z"/>
			<path class="st7" d="M263.1,156.9v-1.4c0-0.4-0.2-0.6-0.4-0.6c-0.3,0-0.5,0.2-0.5,0.6v1.4h-0.6v-1.4c0-0.8,0.4-1.1,1-1.1
				c0.6,0,1,0.3,1,1.1v1.4H263.1z"/>
			<path class="st7" d="M259.3,156.4h0.7v0.5h-1.9v-0.5h0.7v-2h0.6V156.4z"/>
			<path class="st7" d="M255.8,156.9v-2.4h0.6v2.4H255.8z"/>
			<path class="st7" d="M251.6,155.7c0-0.8,0.5-1.3,1.2-1.3c0.7,0,1.2,0.5,1.2,1.2c0,0.7-0.5,1.3-1.2,1.3
				C252,156.9,251.6,156.4,251.6,155.7z M253.3,155.6c0-0.5-0.2-0.8-0.6-0.8c-0.4,0-0.6,0.4-0.6,0.8c0,0.4,0.2,0.8,0.6,0.8
				C253.1,156.5,253.3,156.1,253.3,155.6z"/>
			<path class="st7" d="M249.8,154.4v2.4h-0.6l-0.5-0.9c-0.1-0.3-0.3-0.6-0.4-0.8h0c0,0.3,0,0.7,0,1v0.7h-0.5v-2.4h0.6l0.5,0.9
				c0.1,0.3,0.3,0.6,0.4,0.9h0c0-0.3,0-0.7,0-1.1v-0.7H249.8z"/>
			<path d="M271.6,153.6h-0.4v-1.5h-0.7v-0.3h1.1V153.6z"/>
			<path d="M269.6,152.2l0.1-0.5h0.4l-0.6,1.8h-0.5l-0.6-1.8h0.4l0.1,0.5H269.6z M269.1,152.5l0.1,0.4c0,0.1,0.1,0.2,0.1,0.4h0
				c0-0.1,0.1-0.2,0.1-0.4l0.1-0.4H269.1z"/>
			<path d="M268,152.2c-0.1-0.1-0.3-0.1-0.5-0.1c-0.2,0-0.3,0.1-0.3,0.2c0,0.1,0.1,0.2,0.3,0.3c0.3,0.1,0.5,0.3,0.5,0.5
				c0,0.3-0.3,0.5-0.7,0.5c-0.2,0-0.4,0-0.5-0.1l0.1-0.3c0.1,0,0.2,0.1,0.4,0.1c0.2,0,0.3-0.1,0.3-0.2c0-0.1-0.1-0.2-0.3-0.3
				c-0.3-0.1-0.5-0.3-0.5-0.5c0-0.3,0.2-0.6,0.7-0.6c0.2,0,0.4,0.1,0.5,0.1L268,152.2z"/>
			<path d="M265.3,152.5h0.7v-0.4h-0.8v-0.3h1.2v1.8h-1.1v-0.3h0.7v-0.4h-0.7V152.5z"/>
			<path d="M264.7,153.6c-0.1,0-0.3,0-0.6,0c-0.3,0-0.5,0-0.6-0.1c-0.1-0.1-0.2-0.2-0.2-0.4c0-0.2,0.2-0.4,0.3-0.4v0
				c-0.1-0.1-0.2-0.2-0.2-0.3c-0.1-0.2-0.1-0.4-0.1-0.5h0.4c0,0.1,0.1,0.2,0.1,0.4c0.1,0.2,0.1,0.3,0.3,0.3h0.1v-0.7h0.4V153.6z
				 M264.3,152.8h-0.2c-0.2,0-0.3,0.1-0.3,0.3c0,0.2,0.1,0.3,0.3,0.3c0.1,0,0.2,0,0.2,0V152.8z"/>
			<path d="M262.1,153.6c-0.1,0-0.3,0-0.6,0c-0.3,0-0.5,0-0.6-0.1c-0.1-0.1-0.2-0.2-0.2-0.4c0-0.2,0.2-0.4,0.3-0.4v0
				c-0.1-0.1-0.2-0.2-0.2-0.3c-0.1-0.2-0.1-0.4-0.1-0.5h0.4c0,0.1,0.1,0.2,0.1,0.4c0.1,0.2,0.1,0.3,0.3,0.3h0.1v-0.7h0.4V153.6z
				 M261.7,152.8h-0.2c-0.2,0-0.3,0.1-0.3,0.3c0,0.2,0.1,0.3,0.3,0.3c0.1,0,0.2,0,0.2,0V152.8z"/>
			<path d="M259.9,152.2l0.1-0.5h0.4l-0.6,1.8h-0.5l-0.6-1.8h0.4l0.1,0.5H259.9z M259.4,152.5l0.1,0.4c0,0.1,0.1,0.2,0.1,0.4h0
				c0-0.1,0.1-0.2,0.1-0.4l0.1-0.4H259.4z"/>
			<path d="M258.3,153.6c-0.2,0-0.4,0-0.6,0c-0.4,0-0.6-0.1-0.8-0.2c-0.2-0.1-0.3-0.4-0.3-0.7c0-0.4,0.1-0.6,0.3-0.7
				c0.2-0.2,0.5-0.2,0.8-0.2c0.2,0,0.4,0,0.5,0V153.6z M257.9,152.1c0,0-0.1,0-0.1,0c-0.4,0-0.6,0.2-0.6,0.6c0,0.4,0.2,0.6,0.6,0.6
				c0.1,0,0.2,0,0.2,0V152.1z"/>
			<path d="M255.8,153.6v-1.8h0.4v1.8H255.8z"/>
			<path d="M254.8,152.2l0.1-0.5h0.4l-0.6,1.8h-0.5l-0.6-1.8h0.4l0.1,0.5H254.8z M254.3,152.5l0.1,0.4c0,0.1,0.1,0.2,0.1,0.4h0
				c0-0.1,0.1-0.2,0.1-0.4l0.1-0.4H254.3z"/>
			<path d="M253.1,153.2h0.5v0.3h-1.4v-0.3h0.5v-1.5h0.4V153.2z"/>
			<path d="M251.4,153.6v-1.8h0.4v1.8H251.4z"/>
			<path d="M249.1,152.7c0-0.6,0.4-1,0.9-1c0.5,0,0.9,0.4,0.9,0.9c0,0.5-0.4,1-0.9,1C249.4,153.6,249.1,153.2,249.1,152.7z
				 M250.4,152.7c0-0.4-0.2-0.6-0.4-0.6c-0.3,0-0.4,0.3-0.4,0.6c0,0.3,0.2,0.6,0.4,0.6C250.3,153.3,250.4,153,250.4,152.7z"/>
			<path d="M248.6,151.8v1.8h-0.5l-0.4-0.7c-0.1-0.2-0.2-0.4-0.3-0.6h0c0,0.2,0,0.5,0,0.8v0.5h-0.4v-1.8h0.4l0.4,0.7
				c0.1,0.2,0.2,0.4,0.3,0.6h0c0-0.2,0-0.5,0-0.8v-0.6H248.6z"/>
		</g>
		<g>
			<path d="M260.3,146.1c0.1,0,0.2-0.1,0.5-0.1c0.6,0,1,0.4,1,0.9c0,0.6-0.4,1-1,1c-0.2,0-0.4,0-0.5-0.1l0.1-0.3
				c0.1,0,0.2,0.1,0.3,0.1c0.3,0,0.6-0.2,0.6-0.6c0-0.4-0.2-0.6-0.6-0.6c-0.1,0-0.3,0-0.3,0.1L260.3,146.1z"/>
			<path d="M259.7,147.9h-0.4v-1.5h-0.7V146h1.1V147.9z"/>
			<path d="M257.6,146.5l0.1-0.5h0.4l-0.6,1.8h-0.5l-0.6-1.8h0.4l0.1,0.5H257.6z M257.2,146.8l0.1,0.4c0,0.1,0.1,0.2,0.1,0.4h0
				c0-0.1,0.1-0.2,0.1-0.4l0.1-0.4H257.2z"/>
			<path d="M256,146.5c-0.1-0.1-0.3-0.1-0.5-0.1c-0.2,0-0.3,0.1-0.3,0.2c0,0.1,0.1,0.2,0.3,0.3c0.3,0.1,0.5,0.3,0.5,0.5
				c0,0.3-0.3,0.5-0.7,0.5c-0.2,0-0.4,0-0.5-0.1l0.1-0.3c0.1,0,0.2,0.1,0.4,0.1c0.2,0,0.3-0.1,0.3-0.2c0-0.1-0.1-0.2-0.3-0.3
				c-0.3-0.1-0.5-0.3-0.5-0.5c0-0.3,0.2-0.6,0.7-0.6c0.2,0,0.4,0.1,0.5,0.1L256,146.5z"/>
			<path d="M254.2,146.5c-0.1-0.1-0.3-0.1-0.5-0.1c-0.2,0-0.3,0.1-0.3,0.2c0,0.1,0.1,0.2,0.3,0.3c0.3,0.1,0.5,0.3,0.5,0.5
				c0,0.3-0.3,0.5-0.7,0.5c-0.2,0-0.4,0-0.5-0.1l0.1-0.3c0.1,0,0.2,0.1,0.4,0.1c0.2,0,0.3-0.1,0.3-0.2c0-0.1-0.1-0.2-0.3-0.3
				c-0.3-0.1-0.5-0.3-0.5-0.5c0-0.3,0.2-0.6,0.7-0.6c0.2,0,0.4,0.1,0.5,0.1L254.2,146.5z"/>
			<path d="M252.6,147.1c0,0.1-0.1,0.2-0.2,0.2c-0.1,0-0.2-0.1-0.2-0.2c0-0.1,0.1-0.2,0.2-0.2C252.5,146.9,252.6,147,252.6,147.1z
				 M252.6,146.3c0,0.1-0.1,0.2-0.2,0.2c-0.1,0-0.2-0.1-0.2-0.2c0-0.1,0.1-0.2,0.2-0.2C252.5,146,252.6,146.1,252.6,146.3z"/>
			<path d="M250.3,147.4L250.3,147.4l0.3-0.2l0.1,0.3l-0.5,0.2h-0.3V146h0.4V147.4z"/>
			<path d="M247.4,146.7c0,0.2,0,0.5,0,0.8h0c0.1-0.2,0.1-0.5,0.2-0.7l0.2-0.7h0.3l0.2,0.7c0.1,0.2,0.1,0.5,0.2,0.7h0
				c0-0.2,0-0.5,0-0.8l0-0.7h0.4l-0.1,1.8h-0.6l-0.2-0.6c-0.1-0.2-0.1-0.4-0.2-0.7h0c0,0.2-0.1,0.5-0.2,0.7l-0.2,0.6h-0.5L247,146
				h0.4L247.4,146.7z"/>
		</g>
		<g>
			<path d="M274.1,141c-0.1,0-0.3,0-0.4,0c-0.3,0-0.5-0.1-0.6-0.2c-0.1-0.1-0.2-0.3-0.2-0.5c0-0.2,0.1-0.4,0.2-0.6
				c0.1-0.1,0.4-0.2,0.7-0.2c0.1,0,0.3,0,0.4,0V141z M273.9,139.6c0,0-0.1,0-0.2,0c-0.4,0-0.6,0.2-0.6,0.6c0,0.4,0.2,0.6,0.6,0.6
				c0.1,0,0.2,0,0.2,0V139.6z"/>
			<path d="M271.2,140.3c0-0.5,0.3-0.8,0.7-0.8c0.4,0,0.7,0.3,0.7,0.8c0,0.5-0.3,0.8-0.7,0.8C271.5,141,271.2,140.7,271.2,140.3z
				 M272.4,140.2c0-0.3-0.2-0.6-0.5-0.6c-0.3,0-0.5,0.3-0.5,0.6c0,0.3,0.2,0.6,0.5,0.6S272.4,140.6,272.4,140.2z"/>
			<path d="M270.3,139.5v1.5h-0.2l-0.5-0.8c-0.1-0.2-0.2-0.3-0.3-0.5l0,0c0,0.2,0,0.4,0,0.6v0.6h-0.2v-1.5h0.2l0.5,0.8
				c0.1,0.2,0.2,0.3,0.3,0.5l0,0c0-0.2,0-0.4,0-0.6v-0.6H270.3z"/>
			<path d="M267.5,140.3c0-0.5,0.3-0.8,0.7-0.8c0.4,0,0.7,0.3,0.7,0.8c0,0.5-0.3,0.8-0.7,0.8C267.7,141,267.5,140.7,267.5,140.3z
				 M268.6,140.2c0-0.3-0.2-0.6-0.5-0.6c-0.3,0-0.5,0.3-0.5,0.6c0,0.3,0.2,0.6,0.5,0.6C268.5,140.9,268.6,140.6,268.6,140.2z"/>
			<path d="M266.9,140.8h0.5v0.2h-1.1v-0.2h0.5v-1.3h0.2V140.8z"/>
			<path d="M265.1,139.5l0.5,1.5h-0.2l-0.2-0.7c-0.1-0.2-0.1-0.4-0.2-0.6h0c0,0.2-0.1,0.4-0.2,0.6l-0.3,0.7h-0.2l0.5-1.5H265.1z"/>
			<path d="M263.9,141v-1.5h0.2v1.5H263.9z"/>
			<path d="M262.7,140.2h0.6v-0.5h-0.6v-0.2h0.8v1.5h-0.8v-0.2h0.6v-0.5h-0.6V140.2z"/>
			<path d="M262,139.5l0.4,1.5h-0.2l-0.2-0.8c0-0.2-0.1-0.4-0.1-0.5h0c0,0.1-0.1,0.3-0.1,0.5l-0.2,0.8h-0.2l-0.2-0.8
				c0-0.2-0.1-0.4-0.1-0.5h0c0,0.2-0.1,0.3-0.1,0.5l-0.2,0.8h-0.2l0.4-1.5h0.2l0.2,0.8c0,0.2,0.1,0.3,0.1,0.5h0
				c0-0.1,0.1-0.3,0.1-0.5l0.2-0.8H262z"/>
			<path d="M259.7,141c-0.1,0-0.3,0-0.4,0c-0.3,0-0.5-0.1-0.6-0.2c-0.1-0.1-0.2-0.3-0.2-0.5c0-0.2,0.1-0.4,0.2-0.6
				c0.1-0.1,0.4-0.2,0.7-0.2c0.1,0,0.3,0,0.4,0V141z M259.5,139.6c0,0-0.1,0-0.2,0c-0.4,0-0.6,0.2-0.6,0.6c0,0.4,0.2,0.6,0.6,0.6
				c0.1,0,0.2,0,0.2,0V139.6z"/>
			<path d="M257.9,141v-1.5h0.2v1.5H257.9z"/>
			<path d="M257.5,141c-0.1,0-0.2,0-0.4,0c-0.2,0-0.3,0-0.4-0.1c-0.1-0.1-0.1-0.2-0.1-0.3c0-0.2,0.1-0.3,0.3-0.4v0
				c-0.1,0-0.2-0.1-0.2-0.3c0-0.2-0.1-0.4-0.1-0.4h0.2c0,0,0.1,0.2,0.1,0.4c0,0.2,0.1,0.3,0.3,0.3h0.2v-0.6h0.2V141z M257.3,140.3
				h-0.2c-0.2,0-0.3,0.1-0.3,0.3c0,0.2,0.1,0.3,0.3,0.3c0.1,0,0.2,0,0.2,0V140.3z"/>
			<path d="M255.4,140.2h0.6v-0.5h-0.6v-0.2h0.8v1.5h-0.8v-0.2h0.6v-0.5h-0.6V140.2z"/>
			<path d="M253.9,139.5c0.1,0,0.2-0.1,0.4-0.1c0.4,0,0.7,0.3,0.7,0.8c0,0.5-0.3,0.8-0.8,0.8c-0.2,0-0.3,0-0.4-0.1l0-0.2
				c0.1,0,0.2,0.1,0.3,0.1c0.4,0,0.6-0.2,0.6-0.6c0-0.4-0.2-0.6-0.6-0.6c-0.1,0-0.2,0-0.3,0.1L253.9,139.5z"/>
			<path d="M253.2,140.8h0.5v0.2h-1.1v-0.2h0.5v-1.3h0.2V140.8z"/>
			<path d="M252.3,141h-0.2v-1.3h-0.6v-0.2h0.8V141z"/>
			<path d="M251,139.5v0.6l0.5,0.9h-0.2l-0.2-0.4c-0.1-0.1-0.1-0.2-0.1-0.3h0c0,0.1-0.1,0.2-0.2,0.3l-0.2,0.4h-0.2l0.5-0.9v-0.6H251
				z"/>
			<path d="M249.3,139.5l0.4,1.5h-0.2l-0.2-0.8c0-0.2-0.1-0.4-0.1-0.5h0c0,0.1-0.1,0.3-0.1,0.5l-0.2,0.8h-0.2l-0.2-0.8
				c0-0.2-0.1-0.4-0.1-0.5h0c0,0.2-0.1,0.3-0.1,0.5l-0.2,0.8h-0.2l0.4-1.5h0.2l0.2,0.8c0,0.2,0.1,0.3,0.1,0.5h0
				c0-0.1,0.1-0.3,0.1-0.5l0.2-0.8H249.3z"/>
			<path d="M247.4,141v-1.5h0.2v1.5H247.4z"/>
			<path d="M246.6,140.8h0.5v0.2H246v-0.2h0.5v-1.3h0.2V140.8z"/>
			<path d="M245.5,141v-0.6h-0.7v0.6h-0.2v-1.5h0.2v0.7h0.7v-0.7h0.2v1.5H245.5z"/>
			<path d="M269.8,138c0-0.5,0.3-0.8,0.7-0.8c0.4,0,0.7,0.3,0.7,0.8c0,0.5-0.3,0.8-0.7,0.8C270,138.7,269.8,138.4,269.8,138z
				 M270.9,138c0-0.3-0.2-0.6-0.5-0.6c-0.3,0-0.5,0.3-0.5,0.6c0,0.3,0.2,0.6,0.5,0.6C270.8,138.6,270.9,138.3,270.9,138z"/>
			<path d="M269.4,138.7c-0.1,0-0.2,0-0.4,0c-0.2,0-0.3,0-0.4-0.1c-0.1-0.1-0.1-0.2-0.1-0.3c0-0.1,0-0.2,0.1-0.3
				c0.1-0.1,0.3-0.2,0.5-0.2c0.1,0,0.1,0,0.2,0v-0.6h0.2V138.7z M269.2,138c0,0-0.1,0-0.2,0c-0.2,0-0.4,0.1-0.4,0.3
				c0,0.2,0.1,0.3,0.4,0.3c0.1,0,0.1,0,0.2,0V138z"/>
			<path d="M267.9,138.6h0.5v0.2h-1.1v-0.2h0.5v-1.3h0.2V138.6z"/>
			<path d="M266.7,138.7v-1.5h0.2v1.5H266.7z"/>
			<path d="M265.2,137.3c0.1,0,0.2-0.1,0.4-0.1c0.4,0,0.7,0.3,0.7,0.8c0,0.5-0.3,0.8-0.8,0.8c-0.2,0-0.3,0-0.4-0.1l0-0.2
				c0.1,0,0.2,0.1,0.3,0.1c0.4,0,0.6-0.2,0.6-0.6c0-0.4-0.2-0.6-0.6-0.6c-0.1,0-0.2,0-0.3,0.1L265.2,137.3z"/>
			<path d="M264.6,137.7l0.2-0.5h0.2l-0.5,1.5h-0.2l-0.5-1.5h0.2l0.2,0.5H264.6z M264.2,137.8l0.1,0.4c0,0.1,0.1,0.2,0.1,0.3h0
				c0-0.1,0-0.2,0.1-0.3l0.1-0.4H264.2z"/>
			<path d="M263.4,138.7h-0.2v-1.3h-0.6v-0.2h0.8V138.7z"/>
			<path d="M261.5,138.7v-1.5h0.2v1.5H261.5z"/>
			<path d="M261.1,137.2v1.5h-0.2l-0.5-0.8c-0.1-0.2-0.2-0.3-0.3-0.5l0,0c0,0.2,0,0.4,0,0.6v0.6h-0.2v-1.5h0.2l0.5,0.8
				c0.1,0.2,0.2,0.3,0.3,0.5l0,0c0-0.2,0-0.4,0-0.6v-0.6H261.1z"/>
			<path d="M259.5,137.5c-0.1-0.1-0.2-0.1-0.3-0.1c-0.2,0-0.3,0.1-0.3,0.3c0,0.1,0.1,0.2,0.3,0.3c0.2,0.1,0.4,0.2,0.4,0.4
				c0,0.2-0.2,0.4-0.5,0.4c-0.2,0-0.3,0-0.3-0.1l0.1-0.2c0,0,0.1,0.1,0.3,0.1c0.2,0,0.3-0.1,0.3-0.2c0-0.1-0.1-0.2-0.3-0.3
				c-0.3-0.1-0.4-0.2-0.4-0.4c0-0.2,0.2-0.4,0.5-0.4c0.1,0,0.3,0,0.4,0.1L259.5,137.5z"/>
			<path d="M258,138.6h0.5v0.2h-1.1v-0.2h0.5v-1.3h0.2V138.6z"/>
			<path d="M257.1,138.7c-0.1,0-0.2,0-0.4,0c-0.2,0-0.3,0-0.4-0.1c-0.1-0.1-0.1-0.2-0.1-0.3c0-0.2,0.1-0.3,0.3-0.4v0
				c-0.1,0-0.2-0.1-0.2-0.3c0-0.2-0.1-0.4-0.1-0.4h0.2c0,0,0.1,0.2,0.1,0.4c0,0.2,0.1,0.3,0.3,0.3h0.2v-0.6h0.2V138.7z M256.9,138
				h-0.2c-0.2,0-0.3,0.1-0.3,0.3c0,0.2,0.1,0.3,0.3,0.3c0.1,0,0.2,0,0.2,0V138z"/>
			<path d="M255.6,138.7v-0.9c0-0.3-0.1-0.5-0.3-0.5c-0.2,0-0.4,0.1-0.4,0.5v0.9h-0.2v-0.9c0-0.5,0.2-0.6,0.6-0.6
				c0.3,0,0.5,0.2,0.5,0.6v0.9H255.6z"/>
			<path d="M253,137.9c0,0.2,0,0.5,0,0.6h0c0.1-0.2,0.1-0.4,0.2-0.6l0.3-0.7h0.1l0.2,0.7c0.1,0.2,0.1,0.4,0.2,0.6h0
				c0-0.2,0-0.4,0-0.7l0-0.6h0.2l-0.1,1.5h-0.2l-0.3-0.7c-0.1-0.2-0.1-0.3-0.2-0.5h0c0,0.2-0.1,0.3-0.2,0.5l-0.3,0.7h-0.2l-0.1-1.5
				h0.2L253,137.9z"/>
			<path d="M251.6,137.9h0.6v-0.5h-0.6v-0.2h0.8v1.5h-0.8v-0.2h0.6v-0.5h-0.6V137.9z"/>
			<path d="M251.2,137.2v1.5H251l-0.5-0.8c-0.1-0.2-0.2-0.3-0.3-0.5l0,0c0,0.2,0,0.4,0,0.6v0.6H250v-1.5h0.2l0.5,0.8
				c0.1,0.2,0.2,0.3,0.3,0.5l0,0c0-0.2,0-0.4,0-0.6v-0.6H251.2z"/>
			<path d="M249.3,138.6h0.5v0.2h-1.1v-0.2h0.5v-1.3h0.2V138.6z"/>
			<path d="M248.4,137.5c-0.1-0.1-0.2-0.1-0.3-0.1c-0.2,0-0.3,0.1-0.3,0.3c0,0.1,0.1,0.2,0.3,0.3c0.2,0.1,0.4,0.2,0.4,0.4
				c0,0.2-0.2,0.4-0.5,0.4c-0.2,0-0.3,0-0.3-0.1l0.1-0.2c0,0,0.1,0.1,0.3,0.1c0.2,0,0.3-0.1,0.3-0.2c0-0.1-0.1-0.2-0.3-0.3
				c-0.3-0.1-0.4-0.2-0.4-0.4c0-0.2,0.2-0.4,0.5-0.4c0.1,0,0.3,0,0.4,0.1L248.4,137.5z"/>
		</g>
		<g>
			<path class="st7" d="M261.6,142.7l4.7,8.3c0.1,0.2,0.4,0.3,0.6,0.3c0.2,0,0.5-0.1,0.6-0.3l4.6-8.3c0-0.1,0-0.2,0-0.3
				c0-0.3-0.3-0.6-0.7-0.6h-9.3c-0.4,0-0.7,0.3-0.7,0.6C261.5,142.5,261.5,142.6,261.6,142.7z"/>
			<path d="M261.6,142.7l4.7,8.4c0.1,0.2,0.4,0.3,0.6,0.3c0.2,0,0.5-0.1,0.6-0.3l4.7-8.4c0-0.1,0-0.2,0-0.3c0-0.3-0.3-0.6-0.7-0.6
				h-9.3c-0.4,0-0.7,0.3-0.7,0.6C261.5,142.4,261.5,142.6,261.6,142.7z M262.2,141.9h9.3c0.2,0,0.5,0.2,0.5,0.5c0,0.1,0,0.1,0,0.2
				l-4.6,8.3c-0.1,0.2-0.3,0.3-0.5,0.3c-0.2,0-0.4-0.1-0.5-0.3l-4.6-8.3c0-0.1-0.1-0.2-0.1-0.3C261.7,142,261.9,141.9,262.2,141.9z"
				/>
			<path d="M266.3,150.5c0.1,0.2,0.2,0.5,0.5,0.5c0.3,0,0.4-0.4,0.5-0.6l4.2-7.6c0.1-0.1,0.3-0.4,0.2-0.6c-0.1-0.2-0.5-0.2-0.7-0.2
				h-8.3c-0.4,0-0.6,0-0.7,0.2c-0.1,0.2,0.1,0.5,0.2,0.7L266.3,150.5z M266.8,142.6h4.3l-4.3,7.4l0,0l0,0l0,0l0,0l-2.8-4.8h2.1
				c0,0,0,0,0,0l-0.8,0.2l0,0.1l0.8-0.2c0,0,0,0.1,0,0.1l-1.4,0.8l0.1,0.2l1.4-0.8c0,0,0,0,0,0.1l-0.6,0.6l0.1,0.1l0.6-0.6
				c0,0,0,0,0,0l-0.8,1.4l0.2,0.1l0.8-1.4c0,0,0,0,0.1,0l-0.2,0.8l0.1,0l0.2-0.8c0,0,0.1,0,0.1,0l0,1.6h0.2l0-1.6c0,0,0,0,0.1,0
				l0.2,0.8l0.1,0l-0.2-0.8c0,0,0.1,0,0.1,0l0.8,1.4l0.2-0.1l-0.8-1.3c0,0,0,0,0.1,0l0.6,0.6l0.1-0.1l-0.6-0.6c0,0,0,0,0.1-0.1
				l1.3,0.8l0.1-0.2l-1.3-0.7c0,0,0,0,0-0.1l0.8,0.2l0-0.1l-0.8-0.2c0,0,0,0,0-0.1l1.5,0V145l-1.5,0c0,0,0-0.1,0-0.1l0.8-0.2l0-0.1
				l-0.8,0.2c0,0,0,0,0-0.1l1.3-0.7l-0.1-0.2l-1.3,0.8c0,0,0,0-0.1-0.1l0.6-0.5l-0.1-0.1l-0.5,0.6c0,0-0.1,0-0.1-0.1l0.8-1.3
				l-0.2-0.1l-0.7,1.3c0,0,0,0-0.1,0l0.2-0.8l-0.1,0l-0.2,0.8c0,0,0,0,0,0l0-1.6h-0.2l0,1.6c0,0-0.1,0-0.1,0l-0.2-0.8l-0.1,0
				l0.2,0.8c0,0,0,0-0.1,0l-0.7-1.4l-0.2,0.1l0.8,1.3c0,0,0,0-0.1,0.1l-0.6-0.6l-0.1,0.1l0.6,0.6c0,0,0,0,0,0.1l-1.4-0.8l-0.1,0.2
				l1.4,0.8c0,0,0,0.1,0,0.1l-0.8-0.2l0,0.1l0.8,0.2c0,0,0,0,0,0.1h-2.2l-1.4-2.4H266.8z"/>
		</g>
	</g>
</g>
</svg>
