<?xml version="1.0" encoding="utf-8"?>
<!-- Generator: Adobe Illustrator 22.1.0, SVG Export Plug-In . SVG Version: 6.00 Build 0)  -->
<svg version="1.1" id="Layer_1" xmlns="http://www.w3.org/2000/svg" xmlns:xlink="http://www.w3.org/1999/xlink" x="0px" y="0px"
	 viewBox="0 0 510.2 212.6" style="enable-background:new 0 0 510.2 212.6;" xml:space="preserve">
<style type="text/css">
	.st0{fill:#D1D3D4;stroke:#231F20;stroke-width:0.5681;stroke-linecap:round;stroke-linejoin:round;stroke-miterlimit:10;}
	.st1{fill:#D1D3D4;stroke:#231F20;stroke-width:0.5;stroke-linecap:round;stroke-linejoin:round;stroke-miterlimit:10;}
	.st2{fill:#F89644;stroke:#000000;stroke-width:0.5396;stroke-linecap:round;stroke-linejoin:round;stroke-miterlimit:10;}
	.st3{fill:#939598;stroke:#231F20;stroke-width:0.5;stroke-linecap:round;stroke-linejoin:round;stroke-miterlimit:10;}
	.st4{fill:#58595B;stroke:#231F20;stroke-width:0.5;stroke-linecap:round;stroke-linejoin:round;stroke-miterlimit:10;}
	.st5{fill:none;stroke:#231F20;stroke-width:0.5;stroke-linecap:round;stroke-linejoin:round;stroke-miterlimit:10;}
	.st6{fill:#231F20;}
	
		.st7{fill-rule:evenodd;clip-rule:evenodd;fill:#FFFFFF;stroke:#231F20;stroke-width:0.5;stroke-linecap:round;stroke-linejoin:round;stroke-miterlimit:10;}
	
		.st8{fill-rule:evenodd;clip-rule:evenodd;stroke:#231F20;stroke-width:0.5;stroke-linecap:round;stroke-linejoin:round;stroke-miterlimit:10;}
	.st9{fill:none;stroke:#231F20;stroke-width:0.5008;stroke-linecap:round;stroke-linejoin:round;}
	.st10{clip-path:url(#SVGID_2_);}
	.st11{fill:#FFF200;}
	.st12{fill:#FFFFFF;}
	.st13{clip-path:url(#SVGID_4_);}
	.st14{clip-path:url(#SVGID_6_);}
	.st15{fill:#F89743;}
</style>
<polygon class="st0" points="49.7,159.7 49.7,151.6 47.8,151.6 47.8,159.7 46.2,159.7 46.2,163.1 51.2,163.1 51.2,159.7 "/>
<polygon class="st1" points="52.1,158.5 45.4,158.8 45.4,157.9 52.1,157.6 "/>
<rect x="45.4" y="158.8" class="st1" width="6.7" height="0.9"/>
<polygon class="st0" points="49.7,159.7 49.7,151.6 47.8,151.6 47.8,159.7 46.2,159.7 46.2,163.1 51.2,163.1 51.2,159.7 "/>
<polygon class="st1" points="52.1,158.5 45.4,158.8 45.4,157.9 52.1,157.6 "/>
<rect x="45.4" y="158.8" class="st1" width="6.7" height="0.9"/>
<polygon class="st0" points="81.6,159.7 81.6,151.6 79.7,151.6 79.7,159.7 78.2,159.7 78.2,163.1 83.1,163.1 83.1,159.7 "/>
<polygon class="st1" points="84,158.5 77.3,158.8 77.3,157.9 84,157.6 "/>
<rect x="77.3" y="158.8" class="st1" width="6.7" height="0.9"/>
<polygon class="st0" points="113.4,159.7 113.4,151.6 111.6,151.6 111.6,159.7 110,159.7 110,163.1 115,163.1 115,159.7 "/>
<polygon class="st1" points="115.8,158.5 109.2,158.8 109.2,157.9 115.8,157.6 "/>
<rect x="109.2" y="158.8" class="st1" width="6.7" height="0.9"/>
<polygon class="st0" points="384.1,159.7 384.1,151.6 382.3,151.6 382.3,159.7 380.7,159.7 380.7,163.1 385.7,163.1 385.7,159.7 "/>
<polygon class="st1" points="386.5,158.5 379.9,158.8 379.9,157.9 386.5,157.6 "/>
<rect x="379.9" y="158.8" class="st1" width="6.7" height="0.9"/>
<polygon class="st0" points="384.1,159.7 384.1,151.6 382.3,151.6 382.3,159.7 380.7,159.7 380.7,163.1 385.7,163.1 385.7,159.7 "/>
<polygon class="st1" points="386.5,158.5 379.9,158.8 379.9,157.9 386.5,157.6 "/>
<rect x="379.9" y="158.8" class="st1" width="6.7" height="0.9"/>
<polygon class="st0" points="416,159.7 416,151.6 414.2,151.6 414.2,159.7 412.6,159.7 412.6,163.1 417.6,163.1 417.6,159.7 "/>
<polygon class="st1" points="418.4,158.5 411.8,158.8 411.8,157.9 418.4,157.6 "/>
<rect x="411.8" y="158.8" class="st1" width="6.7" height="0.9"/>
<polygon class="st0" points="447.9,159.7 447.9,151.6 446,151.6 446,159.7 444.5,159.7 444.5,163.1 449.4,163.1 449.4,159.7 "/>
<polygon class="st1" points="450.3,158.5 443.6,158.8 443.6,157.9 450.3,157.6 "/>
<rect x="443.6" y="158.8" class="st1" width="6.7" height="0.9"/>
<polygon class="st0" points="215.5,159.7 215.5,151.6 213.6,151.6 213.6,159.7 212.1,159.7 212.1,163.1 217,163.1 217,159.7 "/>
<polygon class="st1" points="217.9,158.5 211.2,158.8 211.2,157.9 217.9,157.6 "/>
<rect x="211.2" y="158.8" class="st1" width="6.7" height="0.9"/>
<polygon class="st0" points="215.5,159.7 215.5,151.6 213.6,151.6 213.6,159.7 212.1,159.7 212.1,163.1 217,163.1 217,159.7 "/>
<polygon class="st1" points="217.9,158.5 211.2,158.8 211.2,157.9 217.9,157.6 "/>
<rect x="211.2" y="158.8" class="st1" width="6.7" height="0.9"/>
<polygon class="st0" points="247.4,159.7 247.4,151.6 245.5,151.6 245.5,159.7 244,159.7 244,163.1 249,163.1 249,159.7 "/>
<polygon class="st1" points="249.8,158.5 243.1,158.8 243.1,157.9 249.8,157.6 "/>
<rect x="243.1" y="158.8" class="st1" width="6.7" height="0.9"/>
<polygon class="st0" points="279.3,159.7 279.3,151.6 277.4,151.6 277.4,159.7 275.9,159.7 275.9,163.1 280.8,163.1 280.8,159.7 "/>
<polygon class="st1" points="281.7,158.5 275,158.8 275,157.9 281.7,157.6 "/>
<rect x="275" y="158.8" class="st1" width="6.7" height="0.9"/>
<path class="st2" d="M463.1,148.8h-1c2-0.4,2.7-2.2,2.7-4.3c0-2.2-0.8-4-2.8-4.3h1.1c0.6,0,1.1-0.5,1.1-1.1c0-0.6-0.5-1.1-1.1-1.1
	h-5.3c-0.6,0-1.1,0.5-1.1,1.1c0,0.6,0.5,1.1,1.1,1.1h1.1c-2.1,0.4-2.8,2.2-2.8,4.3c0,2.1,0.7,3.9,2.7,4.3h-1c-0.6,0-1.1,0.5-1.1,1.1
	c0,0.6,0.5,1.1,1.1,1.1h5.3c0.6,0,1.1-0.5,1.1-1.1C464.2,149.3,463.7,148.8,463.1,148.8z"/>
<path class="st2" d="M372.4,148.8h-1c2-0.4,2.7-2.2,2.7-4.3c0-2.2-0.8-4-2.8-4.3h1.1c0.6,0,1.1-0.5,1.1-1.1c0-0.6-0.5-1.1-1.1-1.1
	h-5.3c-0.6,0-1.1,0.5-1.1,1.1c0,0.6,0.5,1.1,1.1,1.1h1.1c-2.1,0.4-2.8,2.2-2.8,4.3c0,2.1,0.7,3.9,2.7,4.3h-1c-0.6,0-1.1,0.5-1.1,1.1
	c0,0.6,0.5,1.1,1.1,1.1h5.3c0.6,0,1.1-0.5,1.1-1.1C373.5,149.3,373,148.8,372.4,148.8z"/>
<polygon class="st3" points="29.4,94.1 32.2,96.9 32.2,106.9 129,106.9 129,96.9 131.8,94.1 131.8,53.9 127.6,50.3 33.6,50.3 
	29.4,53.9 "/>
<path class="st4" d="M82.2,75.5c0-8.5,6.9-15.5,15.5-15.5c8.5,0,15.5,6.9,15.5,15.5c0,8.5-6.9,15.5-15.5,15.5
	C89.1,91,82.2,84.1,82.2,75.5z"/>
<ellipse transform="matrix(0.7071 -0.7071 0.7071 0.7071 -34.8114 67.0439)" class="st4" cx="63.5" cy="75.5" rx="15.5" ry="15.5"/>
<line class="st5" x1="131.8" y1="94.1" x2="29.4" y2="94.1"/>
<line class="st5" x1="131.8" y1="53.9" x2="29.4" y2="53.9"/>
<g>
	<polygon class="st1" points="32.2,108.6 37.5,113.7 123.7,113.7 129,108.6 129,106.9 32.2,106.9 	"/>
	<line class="st1" x1="129" y1="108.6" x2="32.2" y2="108.6"/>
</g>
<g>
	<polygon class="st1" points="37.9,133.9 43.1,139 118.1,139 123.4,133.9 123.4,113.7 37.9,113.7 	"/>
	<line class="st1" x1="123.4" y1="133.9" x2="37.9" y2="133.9"/>
</g>
<line class="st5" x1="129" y1="96.9" x2="32.2" y2="96.9"/>
<g>
	<path class="st1" d="M58.2,102.8c0-1.3,1.1-2.3,2.4-2.3c1.3,0,2.4,1,2.4,2.3c0,1.3-1.1,2.3-2.4,2.3
		C59.3,105.2,58.2,104.1,58.2,102.8z"/>
	<polygon class="st6" points="61.3,101.6 62.1,102.9 61.3,104.1 59.8,104.1 59,102.9 59.8,101.6 	"/>
</g>
<g>
	<path class="st1" d="M98.3,102.8c0-1.3,1-2.3,2.3-2.3c1.3,0,2.3,1,2.3,2.3c0,1.3-1,2.3-2.3,2.3C99.4,105.2,98.3,104.1,98.3,102.8z"
		/>
	<polygon class="st6" points="101.5,101.6 102.2,102.9 101.5,104.1 99.9,104.1 99.1,102.9 99.9,101.6 	"/>
</g>
<rect x="110.2" y="139" class="st1" width="4.7" height="13.6"/>
<rect x="46.4" y="139" class="st1" width="4.7" height="13.6"/>
<rect x="78.3" y="139" class="st1" width="4.7" height="13.6"/>
<path class="st7" d="M123.2,156.5c0,0-1.6-2,0-2c1.3,0,0-2,0-2H38.1c0,0,1.6,2,0,2c-1.3,0,0,2,0,2L123.2,156.5z"/>
<polygon class="st3" points="195.3,94.1 198,96.9 198,106.9 294.8,106.9 294.8,96.9 297.6,94.1 297.6,53.9 293.4,50.3 199.5,50.3 
	195.3,53.9 "/>
<path class="st4" d="M248.1,75.5c0-8.5,6.9-15.5,15.5-15.5c8.5,0,15.5,6.9,15.5,15.5c0,8.5-6.9,15.5-15.5,15.5
	C255,91,248.1,84.1,248.1,75.5z"/>
<path class="st4" d="M213.9,75.5c0-8.5,6.9-15.5,15.5-15.5c8.5,0,15.5,6.9,15.5,15.5c0,8.5-6.9,15.5-15.5,15.5
	C220.8,91,213.9,84.1,213.9,75.5z"/>
<line class="st5" x1="297.6" y1="94.1" x2="195.3" y2="94.1"/>
<line class="st5" x1="297.6" y1="53.9" x2="195.3" y2="53.9"/>
<g>
	<polygon class="st1" points="198,108.6 203.3,113.7 289.6,113.7 294.9,108.6 294.9,106.9 198,106.9 	"/>
	<line class="st1" x1="294.9" y1="108.6" x2="198" y2="108.6"/>
</g>
<g>
	<polygon class="st1" points="203.7,133.9 209,139 283.9,139 289.2,133.9 289.2,113.7 203.7,113.7 	"/>
	<line class="st1" x1="289.2" y1="133.9" x2="203.7" y2="133.9"/>
</g>
<line class="st5" x1="294.9" y1="96.9" x2="198" y2="96.9"/>
<g>
	<path class="st1" d="M224,102.8c0-1.3,1.1-2.3,2.4-2.3c1.3,0,2.4,1,2.4,2.3c0,1.3-1.1,2.3-2.4,2.3C225.1,105.2,224,104.1,224,102.8
		z"/>
	<polygon class="st6" points="227.2,101.6 227.9,102.9 227.2,104.1 225.6,104.1 224.9,102.9 225.6,101.6 	"/>
</g>
<g>
	<path class="st1" d="M264.2,102.8c0-1.3,1-2.3,2.3-2.3c1.3,0,2.3,1,2.3,2.3c0,1.3-1,2.3-2.3,2.3
		C265.2,105.2,264.2,104.1,264.2,102.8z"/>
	<polygon class="st6" points="267.3,101.6 268,102.9 267.3,104.1 265.8,104.1 265,102.9 265.8,101.6 	"/>
</g>
<rect x="276" y="142.9" class="st1" width="4.7" height="13.6"/>
<rect x="212.2" y="142.9" class="st1" width="4.7" height="13.6"/>
<rect x="244.1" y="142.9" class="st1" width="4.7" height="13.6"/>
<path class="st7" d="M289,142.9c0,0-1.6-2,0-2c1.3,0,0-2,0-2h-85.1c0,0,1.6,2,0,2c-1.3,0,0,2,0,2L289,142.9z"/>
<polygon class="st3" points="363.9,94.1 366.7,96.9 366.7,106.9 463.5,106.9 463.5,96.9 466.2,94.1 466.2,53.9 462.1,50.3 
	368.1,50.3 363.9,53.9 "/>
<path class="st4" d="M416.7,75.5c0-8.5,6.9-15.5,15.5-15.5c8.5,0,15.5,6.9,15.5,15.5c0,8.5-6.9,15.5-15.5,15.5
	C423.6,91,416.7,84.1,416.7,75.5z"/>
<path class="st4" d="M382.5,75.5c0-8.5,6.9-15.5,15.5-15.5c8.5,0,15.5,6.9,15.5,15.5c0,8.5-6.9,15.5-15.5,15.5
	C389.5,91,382.5,84.1,382.5,75.5z"/>
<line class="st5" x1="466.2" y1="94.1" x2="363.9" y2="94.1"/>
<line class="st5" x1="466.2" y1="53.9" x2="363.9" y2="53.9"/>
<g>
	<polygon class="st1" points="366.7,108.6 371.9,113.7 458.2,113.7 463.5,108.6 463.5,106.9 366.7,106.9 	"/>
	<line class="st1" x1="463.5" y1="108.6" x2="366.7" y2="108.6"/>
</g>
<g>
	<polygon class="st1" points="372.3,133.9 377.6,139 452.5,139 457.8,133.9 457.8,113.7 372.3,113.7 	"/>
	<line class="st1" x1="457.8" y1="133.9" x2="372.3" y2="133.9"/>
</g>
<line class="st5" x1="463.5" y1="96.9" x2="366.7" y2="96.9"/>
<g>
	<path class="st1" d="M392.7,102.8c0-1.3,1.1-2.3,2.4-2.3s2.4,1,2.4,2.3c0,1.3-1.1,2.3-2.4,2.3S392.7,104.1,392.7,102.8z"/>
	<polygon class="st6" points="395.8,101.6 396.6,102.9 395.8,104.1 394.3,104.1 393.5,102.9 394.3,101.6 	"/>
</g>
<g>
	<path class="st1" d="M432.8,102.8c0-1.3,1-2.3,2.3-2.3c1.3,0,2.3,1,2.3,2.3c0,1.3-1,2.3-2.3,2.3
		C433.8,105.2,432.8,104.1,432.8,102.8z"/>
	<polygon class="st6" points="435.9,101.6 436.7,102.9 435.9,104.1 434.4,104.1 433.6,102.9 434.4,101.6 	"/>
</g>
<rect x="444.6" y="142.9" class="st1" width="4.7" height="13.6"/>
<rect x="380.9" y="142.9" class="st1" width="4.7" height="13.6"/>
<rect x="412.7" y="142.9" class="st1" width="4.7" height="13.6"/>
<g>
	<rect x="419.4" y="146.1" class="st7" width="23.3" height="3.9"/>
	<rect x="387.5" y="146.1" class="st7" width="23.3" height="3.9"/>
	<g>
		<rect x="451.2" y="146.1" class="st7" width="6.4" height="3.9"/>
		<path class="st7" d="M470.4,146.1h-7.2v3.9h7.2c0,0-1.6-2,0-2C471.7,148,470.4,146.1,470.4,146.1z"/>
	</g>
	<g>
		<path class="st7" d="M366.9,146.1h-7.1c0,0,1.6,2,0,2c-1.3,0,0,2,0,2h7.1V146.1z"/>
		<rect x="372.6" y="146.1" class="st7" width="6.3" height="3.9"/>
	</g>
</g>
<g>
	<rect x="463.2" y="139" class="st8" width="4.3" height="3.9"/>
	<rect x="362.6" y="139" class="st8" width="4.3" height="3.9"/>
	<rect x="372.6" y="139" class="st8" width="85" height="3.9"/>
</g>
<g>
	<g>
		<line class="st9" x1="468.2" y1="144.4" x2="473.6" y2="143.2"/>
		<g>
			<polygon class="st6" points="466.5,144.8 469.2,145.2 468.3,144.4 468.7,143.3 			"/>
		</g>
	</g>
</g>
<g>
	<defs>
		<rect id="SVGID_1_" x="29.7" y="54.6" width="17.8" height="38.8"/>
	</defs>
	<clipPath id="SVGID_2_">
		<use xlink:href="#SVGID_1_"  style="overflow:visible;"/>
	</clipPath>
	<g class="st10">
		<path class="st11" d="M43.5,55.4c1.5,0,2.8,1.2,2.8,2.8v31.8c0,1.5-1.2,2.8-2.8,2.8H21.4c-1.5,0-2.8-1.2-2.8-2.8V58.1
			c0-1.5,1.2-2.8,2.8-2.8H43.5z"/>
		<path class="st12" d="M42.5,57.3c0.2,0,0.4,0.2,0.4,0.4V71l1.4,3.1L42.9,77v13.3c0,0.2-0.2,0.4-0.4,0.4H23.7V57.3H42.5z"/>
		<path d="M19.6,57.7v32.5c0,0.7,0.6,1.3,1.3,1.3h2.7h18.9c0.7,0,1.3-0.6,1.3-1.3V77l1.4-2.9L43.9,71V57.7c0-0.7-0.6-1.3-1.3-1.3
			H23.7h-2.7C20.2,56.4,19.6,57,19.6,57.7z M42.5,57.3c0.2,0,0.4,0.2,0.4,0.4V71l1.4,3.1L42.9,77v13.3c0,0.2-0.2,0.4-0.4,0.4H23.7
			V57.3H42.5z"/>
		<g>
			<path class="st11" d="M23.2,84.9c0.1,0.1,0.1,0.4,0.1,0.7c0,0.9-0.6,1.4-1.3,1.4c-0.9,0-1.4-0.7-1.4-1.5c0-0.3,0.1-0.6,0.1-0.7
				l0.5,0.1c-0.1,0.1-0.1,0.3-0.1,0.5c0,0.5,0.3,0.9,0.9,0.9c0.5,0,0.9-0.3,0.9-0.9c0-0.2,0-0.4-0.1-0.5L23.2,84.9z"/>
			<path class="st11" d="M22.5,82.2l0.7,0.2V83l-2.7-0.8v-0.8l2.7-0.8v0.7l-0.7,0.2V82.2z M22.1,81.5l-0.6,0.2
				c-0.2,0-0.4,0.1-0.5,0.1v0c0.2,0,0.4,0.1,0.5,0.1l0.6,0.2V81.5z"/>
			<path class="st11" d="M20.5,78.1h1.5c0.5,0,0.7-0.2,0.7-0.5c0-0.3-0.2-0.5-0.7-0.5h-1.5v-0.6h1.5c0.8,0,1.2,0.4,1.2,1.1
				c0,0.7-0.4,1.1-1.2,1.1h-1.5V78.1z"/>
			<path class="st11" d="M21.1,73.9v0.7h-0.5v-2.1h0.5v0.7h2.2v0.6H21.1z"/>
			<path class="st11" d="M20.5,70h2.7v0.6h-2.7V70z"/>
			<path class="st11" d="M21.9,65.5c0.9,0,1.4,0.5,1.4,1.3c0,0.8-0.6,1.3-1.4,1.3c-0.8,0-1.4-0.5-1.4-1.3
				C20.5,65.9,21.1,65.5,21.9,65.5z M21.9,67.4c0.5,0,0.9-0.2,0.9-0.7c0-0.4-0.4-0.6-0.9-0.6c-0.5,0-0.9,0.2-0.9,0.6
				C21,67.2,21.4,67.4,21.9,67.4z"/>
			<path class="st11" d="M23.2,63.5h-2.7v-0.7l1-0.6c0.3-0.2,0.6-0.3,0.9-0.4v0c-0.4,0-0.7,0-1.1,0h-0.8v-0.6h2.7v0.6l-1,0.6
				c-0.3,0.2-0.6,0.3-0.9,0.5v0c0.4,0,0.7,0,1.2,0h0.8V63.5z"/>
			<path d="M24.1,87.5v-0.5h1.6v-0.8h0.4v1.3H24.1z"/>
			<path d="M25.6,85.3l0.5,0.1v0.5l-2-0.6v-0.6l2-0.6v0.5l-0.5,0.2V85.3z M25.3,84.8l-0.4,0.1c-0.1,0-0.3,0.1-0.4,0.1v0
				c0.1,0,0.3,0.1,0.4,0.1l0.4,0.1V84.8z"/>
			<path d="M25.7,83.5c0.1-0.1,0.1-0.3,0.1-0.5c0-0.2-0.1-0.3-0.2-0.3c-0.1,0-0.2,0.1-0.3,0.3c-0.1,0.3-0.3,0.6-0.6,0.6
				c-0.3,0-0.6-0.3-0.6-0.8c0-0.2,0-0.4,0.1-0.5l0.4,0.1c0,0.1-0.1,0.2-0.1,0.4c0,0.2,0.1,0.3,0.2,0.3c0.1,0,0.2-0.1,0.3-0.4
				c0.1-0.4,0.3-0.5,0.6-0.5c0.3,0,0.6,0.3,0.6,0.8c0,0.2-0.1,0.5-0.1,0.6L25.7,83.5z"/>
			<path d="M25.3,80.5v0.7h0.5v-0.8h0.4v1.3h-2v-1.2h0.4v0.8h0.4v-0.7H25.3z"/>
			<path d="M24.2,79.9c0-0.1,0-0.4,0-0.6c0-0.3,0-0.5,0.2-0.7c0.1-0.1,0.2-0.2,0.4-0.2c0.3,0,0.4,0.2,0.5,0.4h0
				c0.1-0.1,0.2-0.2,0.4-0.3c0.2-0.1,0.5-0.1,0.6-0.2v0.5c-0.1,0-0.2,0.1-0.5,0.1c-0.3,0.1-0.3,0.1-0.3,0.3v0.1h0.8v0.5H24.2z
				 M25,79.4v-0.2c0-0.2-0.1-0.4-0.3-0.4c-0.2,0-0.3,0.1-0.3,0.3c0,0.1,0,0.2,0,0.2H25z"/>
			<path d="M24.2,77.1c0-0.1,0-0.4,0-0.6c0-0.3,0-0.5,0.2-0.7c0.1-0.1,0.2-0.2,0.4-0.2c0.3,0,0.4,0.2,0.5,0.4h0
				c0.1-0.1,0.2-0.2,0.4-0.3c0.2-0.1,0.5-0.1,0.6-0.2V76c-0.1,0-0.2,0.1-0.5,0.1c-0.3,0.1-0.3,0.1-0.3,0.3v0.1h0.8v0.5H24.2z
				 M25,76.6v-0.2c0-0.2-0.1-0.4-0.3-0.4c-0.2,0-0.3,0.1-0.3,0.3c0,0.1,0,0.2,0,0.2H25z"/>
			<path d="M25.6,74.6l0.5,0.1v0.5l-2-0.6V74l2-0.6v0.5L25.6,74V74.6z M25.3,74.1l-0.4,0.1c-0.1,0-0.3,0.1-0.4,0.1v0
				c0.1,0,0.3,0.1,0.4,0.1l0.4,0.1V74.1z"/>
			<path d="M24.2,72.9c0-0.2,0-0.4,0-0.6c0-0.4,0.1-0.6,0.2-0.8c0.2-0.2,0.4-0.3,0.8-0.3c0.4,0,0.7,0.1,0.8,0.3
				c0.2,0.2,0.3,0.5,0.3,0.9c0,0.2,0,0.4,0,0.5H24.2z M25.8,72.4c0,0,0-0.1,0-0.2c0-0.4-0.2-0.7-0.7-0.7c-0.4,0-0.6,0.2-0.6,0.6
				c0,0.1,0,0.2,0,0.2H25.8z"/>
			<path d="M24.1,70.1h2v0.5h-2V70.1z"/>
			<path d="M25.6,69l0.5,0.1v0.5l-2-0.6v-0.6l2-0.6v0.5l-0.5,0.2V69z M25.3,68.5l-0.4,0.1c-0.1,0-0.3,0.1-0.4,0.1v0
				c0.1,0,0.3,0.1,0.4,0.1l0.4,0.1V68.5z"/>
			<path d="M24.5,67.1v0.5h-0.4v-1.5h0.4v0.5h1.6v0.5H24.5z"/>
			<path d="M24.1,65.2h2v0.5h-2V65.2z"/>
			<path d="M25.1,62.8c0.7,0,1.1,0.4,1.1,1c0,0.6-0.5,0.9-1,0.9c-0.6,0-1.1-0.4-1.1-1C24.1,63.1,24.6,62.8,25.1,62.8z M25.2,64.2
				c0.4,0,0.7-0.2,0.7-0.5c0-0.3-0.3-0.5-0.7-0.5c-0.4,0-0.7,0.2-0.7,0.5C24.5,64,24.8,64.2,25.2,64.2z"/>
			<path d="M26.2,62.2h-2v-0.5l0.7-0.4c0.2-0.1,0.5-0.2,0.7-0.3v0c-0.3,0-0.5,0-0.8,0h-0.6v-0.4h2V61l-0.8,0.4
				c-0.2,0.1-0.5,0.3-0.7,0.3v0c0.3,0,0.6,0,0.9,0h0.6V62.2z"/>
		</g>
		<g>
			<path d="M32.4,75c0,0.1,0.1,0.3,0.1,0.5c0,0.7-0.4,1.1-1,1.1c-0.7,0-1.1-0.5-1.1-1.1c0-0.2,0-0.4,0.1-0.5l0.4,0.1
				c0,0.1-0.1,0.2-0.1,0.4c0,0.4,0.2,0.6,0.7,0.6c0.4,0,0.7-0.2,0.7-0.6c0-0.1,0-0.3-0.1-0.4L32.4,75z"/>
			<path d="M30.4,74.4V74h1.6v-0.8h0.4v1.3H30.4z"/>
			<path d="M31.9,72.1l0.5,0.1v0.5l-2-0.6v-0.6l2-0.6v0.5l-0.5,0.2V72.1z M31.6,71.6l-0.4,0.1c-0.1,0-0.3,0.1-0.4,0.1v0
				c0.1,0,0.3,0.1,0.4,0.1l0.4,0.1V71.6z"/>
			<path d="M32,70.3c0.1-0.1,0.1-0.3,0.1-0.5c0-0.2-0.1-0.3-0.2-0.3c-0.1,0-0.2,0.1-0.3,0.3c-0.1,0.3-0.3,0.6-0.6,0.6
				c-0.3,0-0.6-0.3-0.6-0.8c0-0.2,0-0.4,0.1-0.5l0.4,0.1c0,0.1-0.1,0.2-0.1,0.4c0,0.2,0.1,0.3,0.2,0.3c0.1,0,0.2-0.1,0.3-0.4
				c0.1-0.4,0.3-0.5,0.6-0.5c0.3,0,0.6,0.3,0.6,0.8c0,0.2-0.1,0.5-0.1,0.6L32,70.3z"/>
			<path d="M32,68.4c0.1-0.1,0.1-0.3,0.1-0.5c0-0.2-0.1-0.3-0.2-0.3c-0.1,0-0.2,0.1-0.3,0.3c-0.1,0.3-0.3,0.6-0.6,0.6
				c-0.3,0-0.6-0.3-0.6-0.8c0-0.2,0-0.4,0.1-0.5l0.4,0.1c0,0.1-0.1,0.2-0.1,0.4c0,0.2,0.1,0.3,0.2,0.3c0.1,0,0.2-0.1,0.3-0.4
				c0.1-0.4,0.3-0.5,0.6-0.5c0.3,0,0.6,0.3,0.6,0.8c0,0.2-0.1,0.5-0.1,0.6L32,68.4z"/>
			<path d="M31.2,66.5c-0.2,0-0.3-0.1-0.3-0.3c0-0.2,0.1-0.3,0.3-0.3c0.2,0,0.3,0.1,0.3,0.3C31.5,66.4,31.4,66.5,31.2,66.5z
				 M32.2,66.5c-0.2,0-0.3-0.1-0.3-0.3c0-0.2,0.1-0.3,0.3-0.3c0.2,0,0.3,0.1,0.3,0.3C32.5,66.4,32.4,66.5,32.2,66.5z"/>
			<path d="M30.9,64L30.9,64l0.2,0.4l-0.3,0.1l-0.2-0.5v-0.4h1.9V64H30.9z"/>
			<path d="M31.7,60.8c-0.2,0-0.5,0-0.8,0v0c0.3,0.1,0.5,0.1,0.8,0.2l0.8,0.2v0.4l-0.8,0.2c-0.2,0.1-0.5,0.1-0.8,0.2v0
				c0.3,0,0.6,0,0.8,0l0.8,0v0.4l-2-0.1v-0.6l0.7-0.2c0.2-0.1,0.5-0.1,0.7-0.2v0c-0.2-0.1-0.5-0.1-0.7-0.2l-0.7-0.2v-0.6l2-0.1v0.4
				L31.7,60.8z"/>
		</g>
		<g>
			<path d="M38,90.2c0-0.1,0-0.3,0-0.5c0-0.3,0.1-0.5,0.2-0.7c0.1-0.1,0.3-0.2,0.6-0.2c0.3,0,0.5,0.1,0.6,0.2
				c0.2,0.2,0.2,0.4,0.2,0.7c0,0.2,0,0.3,0,0.4H38z M39.5,90c0-0.1,0-0.1,0-0.2c0-0.5-0.3-0.7-0.7-0.7c-0.4,0-0.6,0.2-0.6,0.7
				c0,0.1,0,0.2,0,0.2H39.5z"/>
			<path d="M38.8,87.1c0.6,0,0.9,0.3,0.9,0.8c0,0.4-0.3,0.7-0.8,0.7c-0.5,0-0.9-0.3-0.9-0.8C38,87.3,38.3,87.1,38.8,87.1z
				 M38.8,88.3c0.4,0,0.7-0.2,0.7-0.5c0-0.3-0.3-0.5-0.7-0.5c-0.3,0-0.7,0.2-0.7,0.5S38.5,88.3,38.8,88.3z"/>
			<path d="M39.6,86H38v-0.2l0.8-0.5c0.2-0.1,0.4-0.2,0.5-0.3l0,0c-0.2,0-0.4,0-0.7,0H38v-0.2h1.6V85l-0.8,0.5
				c-0.2,0.1-0.4,0.2-0.5,0.3l0,0c0.2,0,0.4,0,0.7,0h0.7V86z"/>
			<path d="M38.8,82.9c0.6,0,0.9,0.3,0.9,0.8c0,0.4-0.3,0.7-0.8,0.7c-0.5,0-0.9-0.3-0.9-0.8C38,83.2,38.3,82.9,38.8,82.9z
				 M38.8,84.2c0.4,0,0.7-0.2,0.7-0.5s-0.3-0.5-0.7-0.5c-0.3,0-0.7,0.2-0.7,0.5S38.5,84.2,38.8,84.2z"/>
			<path d="M38.2,82.3v0.5H38v-1.2h0.2V82h1.5v0.2H38.2z"/>
			<path d="M39.6,80.3L38,80.9v-0.2l0.8-0.3c0.2-0.1,0.4-0.1,0.6-0.2v0c-0.2,0-0.4-0.1-0.6-0.2L38,79.7v-0.2l1.6,0.6V80.3z"/>
			<path d="M38,79h1.6v0.2H38V79z"/>
			<path d="M38.9,77.7v0.6h0.6v-0.7h0.2v0.9H38v-0.9h0.2v0.7h0.5v-0.6H38.9z"/>
			<path d="M39.6,76.9L38,77.3v-0.2l0.8-0.2c0.2,0,0.4-0.1,0.6-0.1v0c-0.2,0-0.4-0.1-0.6-0.1L38,76.4v-0.2l0.8-0.2
				c0.2,0,0.4-0.1,0.6-0.1v0c-0.2,0-0.4-0.1-0.6-0.1L38,75.5v-0.2l1.6,0.5V76l-0.9,0.2c-0.2,0.1-0.4,0.1-0.5,0.1v0
				c0.2,0,0.3,0.1,0.5,0.1l0.9,0.2V76.9z"/>
			<path d="M38,74.4c0-0.1,0-0.3,0-0.5c0-0.3,0.1-0.5,0.2-0.7c0.1-0.1,0.3-0.2,0.6-0.2c0.3,0,0.5,0.1,0.6,0.2
				c0.2,0.2,0.2,0.4,0.2,0.7c0,0.2,0,0.3,0,0.4H38z M39.5,74.2c0-0.1,0-0.1,0-0.2c0-0.5-0.3-0.7-0.7-0.7c-0.4,0-0.6,0.2-0.6,0.7
				c0,0.1,0,0.2,0,0.2H39.5z"/>
			<path d="M38,72.4h1.6v0.2H38V72.4z"/>
			<path d="M38,71.9c0-0.1,0-0.3,0-0.4c0-0.2,0-0.4,0.1-0.5c0.1-0.1,0.2-0.1,0.3-0.1c0.2,0,0.4,0.1,0.4,0.3h0c0-0.1,0.2-0.2,0.3-0.2
				c0.2-0.1,0.4-0.1,0.5-0.1v0.2c0,0-0.2,0.1-0.4,0.1c-0.2,0-0.3,0.1-0.3,0.3v0.2h0.7v0.2H38z M38.8,71.7v-0.2
				c0-0.2-0.1-0.4-0.3-0.4c-0.2,0-0.3,0.2-0.3,0.4c0,0.1,0,0.2,0,0.2H38.8z"/>
			<path d="M38.9,69.7v0.6h0.6v-0.7h0.2v0.9H38v-0.9h0.2v0.7h0.5v-0.6H38.9z"/>
			<path d="M39.6,68.1c0,0.1,0.1,0.2,0.1,0.4c0,0.5-0.3,0.8-0.8,0.8c-0.5,0-0.9-0.3-0.9-0.9c0-0.2,0-0.3,0.1-0.4l0.2,0.1
				c0,0.1-0.1,0.2-0.1,0.3c0,0.4,0.2,0.6,0.7,0.6c0.4,0,0.7-0.2,0.7-0.6c0-0.1,0-0.3-0.1-0.3L39.6,68.1z"/>
			<path d="M38.2,67.3v0.5H38v-1.2h0.2v0.5h1.5v0.2H38.2z"/>
			<path d="M38,66.3v-0.2h1.5v-0.7h0.2v0.9H38z"/>
			<path d="M39.6,64.8h-0.7L38,65.4v-0.2l0.5-0.2c0.1-0.1,0.2-0.1,0.3-0.2v0c-0.1,0-0.2-0.1-0.3-0.2L38,64.3v-0.2l0.9,0.5h0.7V64.8z
				"/>
			<path d="M39.6,63L38,63.4v-0.2l0.8-0.2c0.2,0,0.4-0.1,0.6-0.1v0c-0.2,0-0.4-0.1-0.6-0.1L38,62.5v-0.2l0.8-0.2
				c0.2,0,0.4-0.1,0.6-0.1v0c-0.2,0-0.4-0.1-0.6-0.1L38,61.6v-0.2l1.6,0.5v0.2l-0.9,0.2c-0.2,0.1-0.4,0.1-0.5,0.1v0
				c0.2,0,0.3,0.1,0.5,0.1l0.9,0.2V63z"/>
			<path d="M38,60.8h1.6v0.2H38V60.8z"/>
			<path d="M38.2,60v0.5H38v-1.2h0.2v0.5h1.5V60H38.2z"/>
			<path d="M38,58.8h0.7V58H38v-0.2h1.6V58h-0.8v0.8h0.8V59H38V58.8z"/>
			<path d="M41.3,85.5c0.6,0,0.9,0.3,0.9,0.8c0,0.4-0.3,0.7-0.8,0.7c-0.5,0-0.9-0.3-0.9-0.8C40.5,85.7,40.8,85.5,41.3,85.5z
				 M41.3,86.7c0.4,0,0.7-0.2,0.7-0.5c0-0.3-0.3-0.5-0.7-0.5c-0.3,0-0.7,0.2-0.7,0.5S41,86.7,41.3,86.7z"/>
			<path d="M40.5,85.1c0-0.1,0-0.2,0-0.4c0-0.2,0-0.4,0.1-0.5c0.1-0.1,0.2-0.1,0.3-0.1c0.1,0,0.3,0,0.4,0.1c0.1,0.1,0.2,0.3,0.2,0.5
				c0,0.1,0,0.1,0,0.2h0.7v0.2H40.5z M41.3,84.9c0,0,0-0.1,0-0.2c0-0.3-0.1-0.4-0.3-0.4c-0.2,0-0.3,0.2-0.3,0.4c0,0.1,0,0.2,0,0.2
				H41.3z"/>
			<path d="M40.7,83.3v0.5h-0.2v-1.2h0.2v0.5h1.5v0.2H40.7z"/>
			<path d="M40.5,82.1h1.6v0.2h-1.6V82.1z"/>
			<path d="M42.1,80.5c0,0.1,0.1,0.2,0.1,0.4c0,0.5-0.3,0.8-0.8,0.8c-0.5,0-0.9-0.3-0.9-0.9c0-0.2,0-0.3,0.1-0.4l0.2,0.1
				c0,0.1-0.1,0.2-0.1,0.3c0,0.4,0.2,0.6,0.7,0.6c0.4,0,0.7-0.2,0.7-0.6c0-0.1,0-0.3-0.1-0.3L42.1,80.5z"/>
			<path d="M41.6,79.8l0.5,0.2v0.2l-1.6-0.6v-0.3l1.6-0.6v0.2l-0.5,0.2V79.8z M41.5,79.3L41,79.4c-0.1,0-0.2,0.1-0.3,0.1v0
				c0.1,0,0.2,0,0.3,0.1l0.5,0.2V79.3z"/>
			<path d="M40.5,78.5v-0.2H42v-0.7h0.2v0.9H40.5z"/>
			<path d="M40.5,76.4h1.6v0.2h-1.6V76.4z"/>
			<path d="M42.1,75.9h-1.6v-0.2l0.8-0.5c0.2-0.1,0.4-0.2,0.5-0.3l0,0c-0.2,0-0.4,0-0.7,0h-0.7v-0.2h1.6v0.2l-0.8,0.5
				c-0.2,0.1-0.4,0.2-0.5,0.3l0,0c0.2,0,0.4,0,0.7,0h0.7V75.9z"/>
			<path d="M41.9,74.2c0.1-0.1,0.1-0.2,0.1-0.4c0-0.2-0.1-0.3-0.3-0.3c-0.2,0-0.2,0.1-0.3,0.3c-0.1,0.3-0.2,0.4-0.5,0.4
				c-0.3,0-0.4-0.2-0.4-0.5c0-0.2,0-0.3,0.1-0.4l0.2,0.1c0,0.1-0.1,0.2-0.1,0.3c0,0.2,0.1,0.3,0.2,0.3c0.2,0,0.2-0.1,0.3-0.3
				c0.1-0.3,0.2-0.4,0.5-0.4c0.3,0,0.5,0.2,0.5,0.6c0,0.2,0,0.3-0.1,0.4L41.9,74.2z"/>
			<path d="M40.7,72.5V73h-0.2v-1.2h0.2v0.5h1.5v0.2H40.7z"/>
			<path d="M40.5,71.5c0-0.1,0-0.3,0-0.4c0-0.2,0-0.4,0.1-0.5c0.1-0.1,0.2-0.1,0.3-0.1c0.2,0,0.4,0.1,0.4,0.3h0
				c0-0.1,0.2-0.2,0.3-0.2c0.2-0.1,0.4-0.1,0.5-0.1v0.2c0,0-0.2,0.1-0.4,0.1c-0.2,0-0.3,0.1-0.3,0.3v0.2h0.7v0.2H40.5z M41.3,71.3
				v-0.2c0-0.2-0.1-0.4-0.3-0.4c-0.2,0-0.3,0.2-0.3,0.4c0,0.1,0,0.2,0,0.2H41.3z"/>
			<path d="M40.5,69.9h1c0.4,0,0.5-0.2,0.5-0.4c0-0.2-0.2-0.4-0.5-0.4h-1v-0.2h1c0.5,0,0.7,0.3,0.7,0.6c0,0.3-0.2,0.6-0.7,0.6h-1
				V69.9z"/>
			<path d="M41.4,67c-0.2,0-0.5,0-0.7,0v0c0.2,0.1,0.4,0.1,0.6,0.2l0.8,0.3v0.2L41.3,68c-0.2,0.1-0.4,0.1-0.6,0.2v0
				c0.2,0,0.5,0,0.7,0l0.7,0v0.2l-1.6-0.1v-0.3l0.8-0.3c0.2-0.1,0.4-0.1,0.6-0.2v0c-0.2,0-0.3-0.1-0.6-0.2l-0.8-0.3v-0.3l1.6-0.1V67
				L41.4,67z"/>
			<path d="M41.4,65.5v0.6H42v-0.7h0.2v0.9h-1.6v-0.9h0.2v0.7h0.5v-0.6H41.4z"/>
			<path d="M42.1,65h-1.6v-0.2l0.8-0.5c0.2-0.1,0.4-0.2,0.5-0.3l0,0c-0.2,0-0.4,0-0.7,0h-0.7v-0.2h1.6V64l-0.8,0.5
				c-0.2,0.1-0.4,0.2-0.5,0.3l0,0c0.2,0,0.4,0,0.7,0h0.7V65z"/>
			<path d="M40.7,63v0.5h-0.2v-1.2h0.2v0.5h1.5V63H40.7z"/>
			<path d="M41.9,62c0.1-0.1,0.1-0.2,0.1-0.4c0-0.2-0.1-0.3-0.3-0.3c-0.2,0-0.2,0.1-0.3,0.3c-0.1,0.3-0.2,0.4-0.5,0.4
				c-0.3,0-0.4-0.2-0.4-0.5c0-0.2,0-0.3,0.1-0.4l0.2,0.1c0,0.1-0.1,0.2-0.1,0.3c0,0.2,0.1,0.3,0.2,0.3c0.2,0,0.2-0.1,0.3-0.3
				c0.1-0.3,0.2-0.4,0.5-0.4c0.3,0,0.5,0.2,0.5,0.6c0,0.2,0,0.3-0.1,0.4L41.9,62z"/>
		</g>
		<g>
			<path class="st11" d="M36.1,76.5L27,81.6c-0.2,0.1-0.3,0.4-0.3,0.6c0,0.3,0.1,0.5,0.4,0.7l9.2,5.1c0.1,0,0.2,0,0.3,0
				c0.4,0,0.7-0.3,0.7-0.7V77.1c0-0.4-0.3-0.7-0.7-0.8C36.4,76.4,36.2,76.4,36.1,76.5z"/>
			<path d="M36.1,76.4l-9.2,5.2c-0.2,0.1-0.3,0.4-0.3,0.6c0,0.3,0.1,0.5,0.4,0.7l9.2,5.1c0.1,0,0.2,0,0.3,0c0.3,0,0.7-0.3,0.7-0.7
				V77.1c0-0.4-0.3-0.7-0.7-0.8C36.4,76.3,36.2,76.4,36.1,76.4z M37,77.1v10.2c0,0.3-0.2,0.6-0.6,0.6c-0.1,0-0.2,0-0.2,0l-9.1-5.1
				c-0.2-0.1-0.4-0.3-0.4-0.6c0-0.2,0.1-0.4,0.3-0.5l9.1-5.1c0.1,0,0.2-0.1,0.3-0.1C36.8,76.5,37,76.8,37,77.1z"/>
			<path d="M27.6,81.6c-0.2,0.1-0.6,0.3-0.6,0.6c0,0.3,0.4,0.5,0.6,0.6l8.3,4.6c0.2,0.1,0.5,0.3,0.7,0.2c0.2-0.1,0.2-0.5,0.2-0.8
				v-9.2c0-0.4,0-0.7-0.2-0.8c-0.2-0.2-0.5,0.1-0.8,0.2L27.6,81.6z M36.3,82.2v4.7l-8.2-4.7l0,0l0,0l0,0l0,0l5.3-3.1v2.3
				c0,0,0,0,0,0l-0.2-0.9l-0.1,0l0.3,0.9c0,0-0.1,0-0.1,0L32.3,80l-0.2,0.1l0.9,1.5c0,0,0,0-0.1,0l-0.6-0.7L32.3,81l0.7,0.6
				c0,0,0,0,0,0l-1.5-0.9L31.3,81l1.5,0.8c0,0,0,0.1,0,0.1l-0.9-0.3l0,0.1l0.9,0.2c0,0,0,0.1,0,0.1l-1.7,0v0.2l1.7,0c0,0,0,0,0,0.1
				l-0.9,0.2l0,0.1l0.9-0.3c0,0,0,0.1,0,0.1l-1.5,0.8l0.1,0.2l1.5-0.9c0,0,0,0,0,0.1l-0.6,0.6l0.1,0.1l0.6-0.6c0,0,0.1,0,0.1,0.1
				l-0.9,1.4l0.2,0.1l0.8-1.5c0,0,0,0,0.1,0L33,83.8l0.1,0l0.2-0.8c0,0,0.1,0,0.1,0l0,1.7h0.2l0-1.7c0,0,0.1,0,0.1,0l0.2,0.8l0.1,0
				L33.8,83c0,0,0.1,0,0.1,0l0.8,1.5l0.2-0.1L34,82.9c0,0,0.1,0,0.1-0.1l0.6,0.6l0.1-0.1l-0.6-0.6c0,0,0-0.1,0.1-0.1l1.4,0.9
				l0.1-0.2l-1.5-0.8c0,0,0-0.1,0-0.1l0.8,0.2l0-0.1l-0.9-0.2c0,0,0,0,0-0.1l1.7,0v-0.2l-1.7,0c0,0,0-0.1,0-0.1l0.9-0.2l0-0.1
				L34.3,82c0,0,0-0.1,0-0.1l1.5-0.8l-0.1-0.2l-1.5,0.9c0,0,0,0-0.1-0.1l0.7-0.6L34.7,81l-0.6,0.7c0,0,0,0-0.1,0l0.9-1.5L34.7,80
				l-0.8,1.5c0,0-0.1,0-0.1,0l0.3-0.9l-0.1,0l-0.2,0.9c0,0,0,0-0.1,0V79l2.6-1.5V82.2z"/>
		</g>
	</g>
</g>
<g>
	<defs>
		<rect id="SVGID_3_" x="195.6" y="54.6" width="17.8" height="38.8"/>
	</defs>
	<clipPath id="SVGID_4_">
		<use xlink:href="#SVGID_3_"  style="overflow:visible;"/>
	</clipPath>
	<g class="st13">
		<path class="st11" d="M209.4,55.4c1.5,0,2.8,1.2,2.8,2.8v31.8c0,1.5-1.2,2.8-2.8,2.8h-22.1c-1.5,0-2.8-1.2-2.8-2.8V58.1
			c0-1.5,1.2-2.8,2.8-2.8H209.4z"/>
		<path class="st12" d="M208.4,57.3c0.2,0,0.4,0.2,0.4,0.4V71l1.4,3.1l-1.4,2.9v13.3c0,0.2-0.2,0.4-0.4,0.4h-18.9V57.3H208.4z"/>
		<path d="M185.5,57.7v32.5c0,0.7,0.6,1.3,1.3,1.3h2.7h18.9c0.7,0,1.3-0.6,1.3-1.3V77l1.4-2.9l-1.4-3.1V57.7c0-0.7-0.6-1.3-1.3-1.3
			h-18.9h-2.7C186.1,56.4,185.5,57,185.5,57.7z M208.4,57.3c0.2,0,0.4,0.2,0.4,0.4V71l1.4,3.1l-1.4,2.9v13.3c0,0.2-0.2,0.4-0.4,0.4
			h-18.9V57.3H208.4z"/>
		<g>
			<path class="st11" d="M189.1,84.9c0.1,0.1,0.1,0.4,0.1,0.7c0,0.9-0.6,1.4-1.3,1.4c-0.9,0-1.4-0.7-1.4-1.5c0-0.3,0.1-0.6,0.1-0.7
				L187,85c-0.1,0.1-0.1,0.3-0.1,0.5c0,0.5,0.3,0.9,0.9,0.9c0.5,0,0.9-0.3,0.9-0.9c0-0.2,0-0.4-0.1-0.5L189.1,84.9z"/>
			<path class="st11" d="M188.4,82.2l0.7,0.2V83l-2.7-0.8v-0.8l2.7-0.8v0.7l-0.7,0.2V82.2z M188,81.5l-0.6,0.2
				c-0.2,0-0.4,0.1-0.5,0.1v0c0.2,0,0.4,0.1,0.5,0.1l0.6,0.2V81.5z"/>
			<path class="st11" d="M186.4,78.1h1.5c0.5,0,0.7-0.2,0.7-0.5c0-0.3-0.2-0.5-0.7-0.5h-1.5v-0.6h1.5c0.8,0,1.2,0.4,1.2,1.1
				c0,0.7-0.4,1.1-1.2,1.1h-1.5V78.1z"/>
			<path class="st11" d="M186.9,73.9v0.7h-0.5v-2.1h0.5v0.7h2.2v0.6H186.9z"/>
			<path class="st11" d="M186.4,70h2.7v0.6h-2.7V70z"/>
			<path class="st11" d="M187.8,65.5c0.9,0,1.4,0.5,1.4,1.3c0,0.8-0.6,1.3-1.4,1.3c-0.8,0-1.4-0.5-1.4-1.3
				C186.4,65.9,187,65.5,187.8,65.5z M187.8,67.4c0.5,0,0.9-0.2,0.9-0.7c0-0.4-0.4-0.6-0.9-0.6c-0.5,0-0.9,0.2-0.9,0.6
				C186.9,67.2,187.3,67.4,187.8,67.4z"/>
			<path class="st11" d="M189.1,63.5h-2.7v-0.7l1-0.6c0.3-0.2,0.6-0.3,0.9-0.4v0c-0.4,0-0.7,0-1.1,0h-0.8v-0.6h2.7v0.6l-1,0.6
				c-0.3,0.2-0.6,0.3-0.9,0.5v0c0.4,0,0.7,0,1.2,0h0.8V63.5z"/>
			<path d="M190,87.5v-0.5h1.6v-0.8h0.4v1.3H190z"/>
			<path d="M191.5,85.3l0.5,0.1v0.5l-2-0.6v-0.6l2-0.6v0.5l-0.5,0.2V85.3z M191.2,84.8l-0.4,0.1c-0.1,0-0.3,0.1-0.4,0.1v0
				c0.1,0,0.3,0.1,0.4,0.1l0.4,0.1V84.8z"/>
			<path d="M191.6,83.5c0.1-0.1,0.1-0.3,0.1-0.5c0-0.2-0.1-0.3-0.2-0.3c-0.1,0-0.2,0.1-0.3,0.3c-0.1,0.3-0.3,0.6-0.6,0.6
				c-0.3,0-0.6-0.3-0.6-0.8c0-0.2,0-0.4,0.1-0.5l0.4,0.1c0,0.1-0.1,0.2-0.1,0.4c0,0.2,0.1,0.3,0.2,0.3c0.1,0,0.2-0.1,0.3-0.4
				c0.1-0.4,0.3-0.5,0.6-0.5c0.3,0,0.6,0.3,0.6,0.8c0,0.2-0.1,0.5-0.1,0.6L191.6,83.5z"/>
			<path d="M191.2,80.5v0.7h0.5v-0.8h0.4v1.3h-2v-1.2h0.4v0.8h0.4v-0.7H191.2z"/>
			<path d="M190.1,79.9c0-0.1,0-0.4,0-0.6c0-0.3,0-0.5,0.2-0.7c0.1-0.1,0.2-0.2,0.4-0.2c0.3,0,0.4,0.2,0.5,0.4h0
				c0.1-0.1,0.2-0.2,0.4-0.3c0.2-0.1,0.5-0.1,0.6-0.2v0.5c-0.1,0-0.2,0.1-0.5,0.1c-0.3,0.1-0.3,0.1-0.3,0.3v0.1h0.8v0.5H190.1z
				 M190.9,79.4v-0.2c0-0.2-0.1-0.4-0.3-0.4c-0.2,0-0.3,0.1-0.3,0.3c0,0.1,0,0.2,0,0.2H190.9z"/>
			<path d="M190.1,77.1c0-0.1,0-0.4,0-0.6c0-0.3,0-0.5,0.2-0.7c0.1-0.1,0.2-0.2,0.4-0.2c0.3,0,0.4,0.2,0.5,0.4h0
				c0.1-0.1,0.2-0.2,0.4-0.3c0.2-0.1,0.5-0.1,0.6-0.2V76c-0.1,0-0.2,0.1-0.5,0.1c-0.3,0.1-0.3,0.1-0.3,0.3v0.1h0.8v0.5H190.1z
				 M190.9,76.6v-0.2c0-0.2-0.1-0.4-0.3-0.4c-0.2,0-0.3,0.1-0.3,0.3c0,0.1,0,0.2,0,0.2H190.9z"/>
			<path d="M191.5,74.6l0.5,0.1v0.5l-2-0.6V74l2-0.6v0.5l-0.5,0.2V74.6z M191.2,74.1l-0.4,0.1c-0.1,0-0.3,0.1-0.4,0.1v0
				c0.1,0,0.3,0.1,0.4,0.1l0.4,0.1V74.1z"/>
			<path d="M190.1,72.9c0-0.2,0-0.4,0-0.6c0-0.4,0.1-0.6,0.2-0.8c0.2-0.2,0.4-0.3,0.8-0.3c0.4,0,0.7,0.1,0.8,0.3
				c0.2,0.2,0.3,0.5,0.3,0.9c0,0.2,0,0.4,0,0.5H190.1z M191.7,72.4c0,0,0-0.1,0-0.2c0-0.4-0.2-0.7-0.7-0.7c-0.4,0-0.6,0.2-0.6,0.6
				c0,0.1,0,0.2,0,0.2H191.7z"/>
			<path d="M190,70.1h2v0.5h-2V70.1z"/>
			<path d="M191.5,69l0.5,0.1v0.5l-2-0.6v-0.6l2-0.6v0.5l-0.5,0.2V69z M191.2,68.5l-0.4,0.1c-0.1,0-0.3,0.1-0.4,0.1v0
				c0.1,0,0.3,0.1,0.4,0.1l0.4,0.1V68.5z"/>
			<path d="M190.4,67.1v0.5H190v-1.5h0.4v0.5h1.6v0.5H190.4z"/>
			<path d="M190,65.2h2v0.5h-2V65.2z"/>
			<path d="M191,62.8c0.7,0,1.1,0.4,1.1,1c0,0.6-0.5,0.9-1,0.9c-0.6,0-1.1-0.4-1.1-1C190,63.1,190.5,62.8,191,62.8z M191,64.2
				c0.4,0,0.7-0.2,0.7-0.5c0-0.3-0.3-0.5-0.7-0.5c-0.4,0-0.7,0.2-0.7,0.5C190.4,64,190.7,64.2,191,64.2z"/>
			<path d="M192,62.2h-2v-0.5l0.7-0.4c0.2-0.1,0.5-0.2,0.7-0.3v0c-0.3,0-0.5,0-0.8,0H190v-0.4h2V61l-0.8,0.4
				c-0.2,0.1-0.5,0.3-0.7,0.3v0c0.3,0,0.6,0,0.9,0h0.6V62.2z"/>
		</g>
		<g>
			<path d="M198.3,75c0,0.1,0.1,0.3,0.1,0.5c0,0.7-0.4,1.1-1,1.1c-0.7,0-1.1-0.5-1.1-1.1c0-0.2,0-0.4,0.1-0.5l0.4,0.1
				c0,0.1-0.1,0.2-0.1,0.4c0,0.4,0.2,0.6,0.7,0.6c0.4,0,0.7-0.2,0.7-0.6c0-0.1,0-0.3-0.1-0.4L198.3,75z"/>
			<path d="M196.3,74.4V74h1.6v-0.8h0.4v1.3H196.3z"/>
			<path d="M197.8,72.1l0.5,0.1v0.5l-2-0.6v-0.6l2-0.6v0.5l-0.5,0.2V72.1z M197.5,71.6l-0.4,0.1c-0.1,0-0.3,0.1-0.4,0.1v0
				c0.1,0,0.3,0.1,0.4,0.1l0.4,0.1V71.6z"/>
			<path d="M197.9,70.3c0.1-0.1,0.1-0.3,0.1-0.5c0-0.2-0.1-0.3-0.2-0.3c-0.1,0-0.2,0.1-0.3,0.3c-0.1,0.3-0.3,0.6-0.6,0.6
				c-0.3,0-0.6-0.3-0.6-0.8c0-0.2,0-0.4,0.1-0.5l0.4,0.1c0,0.1-0.1,0.2-0.1,0.4c0,0.2,0.1,0.3,0.2,0.3c0.1,0,0.2-0.1,0.3-0.4
				c0.1-0.4,0.3-0.5,0.6-0.5c0.3,0,0.6,0.3,0.6,0.8c0,0.2-0.1,0.5-0.1,0.6L197.9,70.3z"/>
			<path d="M197.9,68.4c0.1-0.1,0.1-0.3,0.1-0.5c0-0.2-0.1-0.3-0.2-0.3c-0.1,0-0.2,0.1-0.3,0.3c-0.1,0.3-0.3,0.6-0.6,0.6
				c-0.3,0-0.6-0.3-0.6-0.8c0-0.2,0-0.4,0.1-0.5l0.4,0.1c0,0.1-0.1,0.2-0.1,0.4c0,0.2,0.1,0.3,0.2,0.3c0.1,0,0.2-0.1,0.3-0.4
				c0.1-0.4,0.3-0.5,0.6-0.5c0.3,0,0.6,0.3,0.6,0.8c0,0.2-0.1,0.5-0.1,0.6L197.9,68.4z"/>
			<path d="M197.1,66.5c-0.2,0-0.3-0.1-0.3-0.3c0-0.2,0.1-0.3,0.3-0.3c0.2,0,0.3,0.1,0.3,0.3C197.4,66.4,197.3,66.5,197.1,66.5z
				 M198.1,66.5c-0.2,0-0.3-0.1-0.3-0.3c0-0.2,0.1-0.3,0.3-0.3c0.2,0,0.3,0.1,0.3,0.3C198.4,66.4,198.3,66.5,198.1,66.5z"/>
			<path d="M196.8,64L196.8,64l0.2,0.4l-0.3,0.1l-0.2-0.5v-0.4h1.9V64H196.8z"/>
			<path d="M197.6,60.8c-0.2,0-0.5,0-0.8,0v0c0.3,0.1,0.5,0.1,0.8,0.2l0.8,0.2v0.4l-0.8,0.2c-0.2,0.1-0.5,0.1-0.8,0.2v0
				c0.3,0,0.6,0,0.8,0l0.8,0v0.4l-2-0.1v-0.6l0.7-0.2c0.2-0.1,0.5-0.1,0.7-0.2v0c-0.2-0.1-0.5-0.1-0.7-0.2l-0.7-0.2v-0.6l2-0.1v0.4
				L197.6,60.8z"/>
		</g>
		<g>
			<path d="M203.9,90.2c0-0.1,0-0.3,0-0.5c0-0.3,0.1-0.5,0.2-0.7c0.1-0.1,0.3-0.2,0.6-0.2c0.3,0,0.5,0.1,0.6,0.2
				c0.2,0.2,0.2,0.4,0.2,0.7c0,0.2,0,0.3,0,0.4H203.9z M205.4,90c0-0.1,0-0.1,0-0.2c0-0.5-0.3-0.7-0.7-0.7c-0.4,0-0.6,0.2-0.6,0.7
				c0,0.1,0,0.2,0,0.2H205.4z"/>
			<path d="M204.7,87.1c0.6,0,0.9,0.3,0.9,0.8c0,0.4-0.3,0.7-0.8,0.7c-0.5,0-0.9-0.3-0.9-0.8C203.9,87.3,204.2,87.1,204.7,87.1z
				 M204.7,88.3c0.4,0,0.7-0.2,0.7-0.5c0-0.3-0.3-0.5-0.7-0.5c-0.3,0-0.7,0.2-0.7,0.5S204.4,88.3,204.7,88.3z"/>
			<path d="M205.5,86h-1.6v-0.2l0.8-0.5c0.2-0.1,0.4-0.2,0.5-0.3l0,0c-0.2,0-0.4,0-0.7,0h-0.7v-0.2h1.6V85l-0.8,0.5
				c-0.2,0.1-0.4,0.2-0.5,0.3l0,0c0.2,0,0.4,0,0.7,0h0.7V86z"/>
			<path d="M204.7,82.9c0.6,0,0.9,0.3,0.9,0.8c0,0.4-0.3,0.7-0.8,0.7c-0.5,0-0.9-0.3-0.9-0.8C203.9,83.2,204.2,82.9,204.7,82.9z
				 M204.7,84.2c0.4,0,0.7-0.2,0.7-0.5s-0.3-0.5-0.7-0.5c-0.3,0-0.7,0.2-0.7,0.5S204.4,84.2,204.7,84.2z"/>
			<path d="M204.1,82.3v0.5h-0.2v-1.2h0.2V82h1.5v0.2H204.1z"/>
			<path d="M205.5,80.3l-1.6,0.5v-0.2l0.8-0.3c0.2-0.1,0.4-0.1,0.6-0.2v0c-0.2,0-0.4-0.1-0.6-0.2l-0.8-0.3v-0.2l1.6,0.6V80.3z"/>
			<path d="M203.9,79h1.6v0.2h-1.6V79z"/>
			<path d="M204.8,77.7v0.6h0.6v-0.7h0.2v0.9h-1.6v-0.9h0.2v0.7h0.5v-0.6H204.8z"/>
			<path d="M205.5,76.9l-1.6,0.4v-0.2l0.8-0.2c0.2,0,0.4-0.1,0.6-0.1v0c-0.2,0-0.4-0.1-0.6-0.1l-0.8-0.2v-0.2l0.8-0.2
				c0.2,0,0.4-0.1,0.6-0.1v0c-0.2,0-0.4-0.1-0.6-0.1l-0.8-0.2v-0.2l1.6,0.5V76l-0.9,0.2c-0.2,0.1-0.4,0.1-0.5,0.1v0
				c0.2,0,0.3,0.1,0.5,0.1l0.9,0.2V76.9z"/>
			<path d="M203.9,74.4c0-0.1,0-0.3,0-0.5c0-0.3,0.1-0.5,0.2-0.7c0.1-0.1,0.3-0.2,0.6-0.2c0.3,0,0.5,0.1,0.6,0.2
				c0.2,0.2,0.2,0.4,0.2,0.7c0,0.2,0,0.3,0,0.4H203.9z M205.4,74.2c0-0.1,0-0.1,0-0.2c0-0.5-0.3-0.7-0.7-0.7c-0.4,0-0.6,0.2-0.6,0.7
				c0,0.1,0,0.2,0,0.2H205.4z"/>
			<path d="M203.9,72.4h1.6v0.2h-1.6V72.4z"/>
			<path d="M203.9,71.9c0-0.1,0-0.3,0-0.4c0-0.2,0-0.4,0.1-0.5c0.1-0.1,0.2-0.1,0.3-0.1c0.2,0,0.4,0.1,0.4,0.3h0
				c0-0.1,0.2-0.2,0.3-0.2c0.2-0.1,0.4-0.1,0.5-0.1v0.2c0,0-0.2,0.1-0.4,0.1c-0.2,0-0.3,0.1-0.3,0.3v0.2h0.7v0.2H203.9z M204.7,71.7
				v-0.2c0-0.2-0.1-0.4-0.3-0.4c-0.2,0-0.3,0.2-0.3,0.4c0,0.1,0,0.2,0,0.2H204.7z"/>
			<path d="M204.8,69.7v0.6h0.6v-0.7h0.2v0.9h-1.6v-0.9h0.2v0.7h0.5v-0.6H204.8z"/>
			<path d="M205.5,68.1c0,0.1,0.1,0.2,0.1,0.4c0,0.5-0.3,0.8-0.8,0.8c-0.5,0-0.9-0.3-0.9-0.9c0-0.2,0-0.3,0.1-0.4l0.2,0.1
				c0,0.1-0.1,0.2-0.1,0.3c0,0.4,0.2,0.6,0.7,0.6c0.4,0,0.7-0.2,0.7-0.6c0-0.1,0-0.3-0.1-0.3L205.5,68.1z"/>
			<path d="M204.1,67.3v0.5h-0.2v-1.2h0.2v0.5h1.5v0.2H204.1z"/>
			<path d="M203.9,66.3v-0.2h1.5v-0.7h0.2v0.9H203.9z"/>
			<path d="M205.5,64.8h-0.7l-0.9,0.5v-0.2l0.5-0.2c0.1-0.1,0.2-0.1,0.3-0.2v0c-0.1,0-0.2-0.1-0.3-0.2l-0.5-0.2v-0.2l0.9,0.5h0.7
				V64.8z"/>
			<path d="M205.5,63l-1.6,0.4v-0.2l0.8-0.2c0.2,0,0.4-0.1,0.6-0.1v0c-0.2,0-0.4-0.1-0.6-0.1l-0.8-0.2v-0.2l0.8-0.2
				c0.2,0,0.4-0.1,0.6-0.1v0c-0.2,0-0.4-0.1-0.6-0.1l-0.8-0.2v-0.2l1.6,0.5v0.2l-0.9,0.2c-0.2,0.1-0.4,0.1-0.5,0.1v0
				c0.2,0,0.3,0.1,0.5,0.1l0.9,0.2V63z"/>
			<path d="M203.9,60.8h1.6v0.2h-1.6V60.8z"/>
			<path d="M204.1,60v0.5h-0.2v-1.2h0.2v0.5h1.5V60H204.1z"/>
			<path d="M203.9,58.8h0.7V58h-0.7v-0.2h1.6V58h-0.8v0.8h0.8V59h-1.6V58.8z"/>
			<path d="M207.2,85.5c0.6,0,0.9,0.3,0.9,0.8c0,0.4-0.3,0.7-0.8,0.7c-0.5,0-0.9-0.3-0.9-0.8C206.4,85.7,206.7,85.5,207.2,85.5z
				 M207.2,86.7c0.4,0,0.7-0.2,0.7-0.5c0-0.3-0.3-0.5-0.7-0.5c-0.3,0-0.7,0.2-0.7,0.5S206.9,86.7,207.2,86.7z"/>
			<path d="M206.4,85.1c0-0.1,0-0.2,0-0.4c0-0.2,0-0.4,0.1-0.5c0.1-0.1,0.2-0.1,0.3-0.1c0.1,0,0.3,0,0.4,0.1
				c0.1,0.1,0.2,0.3,0.2,0.5c0,0.1,0,0.1,0,0.2h0.7v0.2H206.4z M207.2,84.9c0,0,0-0.1,0-0.2c0-0.3-0.1-0.4-0.3-0.4
				c-0.2,0-0.3,0.2-0.3,0.4c0,0.1,0,0.2,0,0.2H207.2z"/>
			<path d="M206.6,83.3v0.5h-0.2v-1.2h0.2v0.5h1.5v0.2H206.6z"/>
			<path d="M206.4,82.1h1.6v0.2h-1.6V82.1z"/>
			<path d="M208,80.5c0,0.1,0.1,0.2,0.1,0.4c0,0.5-0.3,0.8-0.8,0.8c-0.5,0-0.9-0.3-0.9-0.9c0-0.2,0-0.3,0.1-0.4l0.2,0.1
				c0,0.1-0.1,0.2-0.1,0.3c0,0.4,0.2,0.6,0.7,0.6c0.4,0,0.7-0.2,0.7-0.6c0-0.1,0-0.3-0.1-0.3L208,80.5z"/>
			<path d="M207.5,79.8L208,80v0.2l-1.6-0.6v-0.3l1.6-0.6v0.2l-0.5,0.2V79.8z M207.3,79.3l-0.5,0.2c-0.1,0-0.2,0.1-0.3,0.1v0
				c0.1,0,0.2,0,0.3,0.1l0.5,0.2V79.3z"/>
			<path d="M206.4,78.5v-0.2h1.5v-0.7h0.2v0.9H206.4z"/>
			<path d="M206.4,76.4h1.6v0.2h-1.6V76.4z"/>
			<path d="M208,75.9h-1.6v-0.2l0.8-0.5c0.2-0.1,0.4-0.2,0.5-0.3l0,0c-0.2,0-0.4,0-0.7,0h-0.7v-0.2h1.6v0.2l-0.8,0.5
				c-0.2,0.1-0.4,0.2-0.5,0.3l0,0c0.2,0,0.4,0,0.7,0h0.7V75.9z"/>
			<path d="M207.8,74.2c0.1-0.1,0.1-0.2,0.1-0.4c0-0.2-0.1-0.3-0.3-0.3c-0.2,0-0.2,0.1-0.3,0.3c-0.1,0.3-0.2,0.4-0.5,0.4
				c-0.3,0-0.4-0.2-0.4-0.5c0-0.2,0-0.3,0.1-0.4l0.2,0.1c0,0.1-0.1,0.2-0.1,0.3c0,0.2,0.1,0.3,0.2,0.3c0.2,0,0.2-0.1,0.3-0.3
				c0.1-0.3,0.2-0.4,0.5-0.4c0.3,0,0.5,0.2,0.5,0.6c0,0.2,0,0.3-0.1,0.4L207.8,74.2z"/>
			<path d="M206.6,72.5V73h-0.2v-1.2h0.2v0.5h1.5v0.2H206.6z"/>
			<path d="M206.4,71.5c0-0.1,0-0.3,0-0.4c0-0.2,0-0.4,0.1-0.5c0.1-0.1,0.2-0.1,0.3-0.1c0.2,0,0.4,0.1,0.4,0.3h0
				c0-0.1,0.2-0.2,0.3-0.2c0.2-0.1,0.4-0.1,0.5-0.1v0.2c0,0-0.2,0.1-0.4,0.1c-0.2,0-0.3,0.1-0.3,0.3v0.2h0.7v0.2H206.4z M207.2,71.3
				v-0.2c0-0.2-0.1-0.4-0.3-0.4c-0.2,0-0.3,0.2-0.3,0.4c0,0.1,0,0.2,0,0.2H207.2z"/>
			<path d="M206.4,69.9h1c0.4,0,0.5-0.2,0.5-0.4c0-0.2-0.2-0.4-0.5-0.4h-1v-0.2h1c0.5,0,0.7,0.3,0.7,0.6c0,0.3-0.2,0.6-0.7,0.6h-1
				V69.9z"/>
			<path d="M207.3,67c-0.2,0-0.5,0-0.7,0v0c0.2,0.1,0.4,0.1,0.6,0.2l0.8,0.3v0.2l-0.8,0.3c-0.2,0.1-0.4,0.1-0.6,0.2v0
				c0.2,0,0.5,0,0.7,0l0.7,0v0.2l-1.6-0.1v-0.3l0.8-0.3c0.2-0.1,0.4-0.1,0.6-0.2v0c-0.2,0-0.3-0.1-0.6-0.2l-0.8-0.3v-0.3l1.6-0.1V67
				L207.3,67z"/>
			<path d="M207.3,65.5v0.6h0.6v-0.7h0.2v0.9h-1.6v-0.9h0.2v0.7h0.5v-0.6H207.3z"/>
			<path d="M208,65h-1.6v-0.2l0.8-0.5c0.2-0.1,0.4-0.2,0.5-0.3l0,0c-0.2,0-0.4,0-0.7,0h-0.7v-0.2h1.6V64l-0.8,0.5
				c-0.2,0.1-0.4,0.2-0.5,0.3l0,0c0.2,0,0.4,0,0.7,0h0.7V65z"/>
			<path d="M206.6,63v0.5h-0.2v-1.2h0.2v0.5h1.5V63H206.6z"/>
			<path d="M207.8,62c0.1-0.1,0.1-0.2,0.1-0.4c0-0.2-0.1-0.3-0.3-0.3c-0.2,0-0.2,0.1-0.3,0.3c-0.1,0.3-0.2,0.4-0.5,0.4
				c-0.3,0-0.4-0.2-0.4-0.5c0-0.2,0-0.3,0.1-0.4l0.2,0.1c0,0.1-0.1,0.2-0.1,0.3c0,0.2,0.1,0.3,0.2,0.3c0.2,0,0.2-0.1,0.3-0.3
				c0.1-0.3,0.2-0.4,0.5-0.4c0.3,0,0.5,0.2,0.5,0.6c0,0.2,0,0.3-0.1,0.4L207.8,62z"/>
		</g>
		<g>
			<path class="st11" d="M202,76.5l-9.1,5.1c-0.2,0.1-0.3,0.4-0.3,0.6c0,0.3,0.1,0.5,0.4,0.7l9.2,5.1c0.1,0,0.2,0,0.3,0
				c0.4,0,0.7-0.3,0.7-0.7V77.1c0-0.4-0.3-0.7-0.7-0.8C202.3,76.4,202.1,76.4,202,76.5z"/>
			<path d="M202,76.4l-9.2,5.2c-0.2,0.1-0.3,0.4-0.3,0.6c0,0.3,0.1,0.5,0.4,0.7l9.2,5.1c0.1,0,0.2,0,0.3,0c0.4,0,0.7-0.3,0.7-0.7
				V77.1c0-0.4-0.3-0.7-0.7-0.8C202.3,76.3,202.1,76.4,202,76.4z M202.9,77.1v10.2c0,0.3-0.2,0.6-0.6,0.6c-0.1,0-0.2,0-0.2,0
				l-9.1-5.1c-0.2-0.1-0.4-0.3-0.4-0.6c0-0.2,0.1-0.4,0.3-0.5l9.1-5.1c0.1,0,0.2-0.1,0.3-0.1C202.7,76.5,202.9,76.8,202.9,77.1z"/>
			<path d="M193.5,81.6c-0.2,0.1-0.6,0.3-0.6,0.6c0,0.3,0.4,0.5,0.6,0.6l8.3,4.6c0.2,0.1,0.5,0.3,0.7,0.2c0.2-0.1,0.2-0.5,0.2-0.8
				v-9.2c0-0.4,0-0.7-0.2-0.8c-0.2-0.2-0.5,0.1-0.8,0.2L193.5,81.6z M202.1,82.2v4.7l-8.2-4.7l0,0l0,0l0,0l0,0l5.3-3.1v2.3
				c0,0,0,0,0,0l-0.2-0.9l-0.1,0l0.3,0.9c0,0-0.1,0-0.1,0l-0.8-1.5l-0.2,0.1l0.9,1.5c0,0,0,0-0.1,0l-0.6-0.7l-0.1,0.1l0.7,0.6
				c0,0,0,0,0,0l-1.5-0.9l-0.1,0.2l1.5,0.8c0,0,0,0.1,0,0.1l-0.9-0.3l0,0.1l0.9,0.2c0,0,0,0.1,0,0.1l-1.7,0v0.2l1.7,0c0,0,0,0,0,0.1
				l-0.9,0.2l0,0.1l0.9-0.3c0,0,0,0.1,0,0.1l-1.5,0.8l0.1,0.2l1.5-0.9c0,0,0,0,0,0.1l-0.6,0.6l0.1,0.1l0.6-0.6c0,0,0.1,0,0.1,0.1
				l-0.9,1.4l0.2,0.1l0.8-1.5c0,0,0,0,0.1,0l-0.2,0.8l0.1,0l0.2-0.8c0,0,0.1,0,0.1,0l0,1.7h0.2l0-1.7c0,0,0.1,0,0.1,0l0.2,0.8l0.1,0
				l-0.2-0.8c0,0,0.1,0,0.1,0l0.8,1.5l0.2-0.1l-0.9-1.4c0,0,0.1,0,0.1-0.1l0.6,0.6l0.1-0.1l-0.6-0.6c0,0,0-0.1,0.1-0.1l1.4,0.9
				l0.1-0.2l-1.5-0.8c0,0,0-0.1,0-0.1l0.8,0.2l0-0.1l-0.8-0.2c0,0,0,0,0-0.1l1.7,0v-0.2l-1.7,0c0,0,0-0.1,0-0.1l0.9-0.2l0-0.1
				l-0.9,0.2c0,0,0-0.1,0-0.1l1.5-0.8l-0.1-0.2l-1.5,0.9c0,0,0,0-0.1-0.1l0.7-0.6l-0.1-0.1l-0.6,0.7c0,0,0,0-0.1,0l0.9-1.5l-0.2-0.1
				l-0.8,1.5c0,0-0.1,0-0.1,0l0.3-0.9l-0.1,0l-0.2,0.9c0,0,0,0-0.1,0V79l2.6-1.5V82.2z"/>
		</g>
	</g>
</g>
<g>
	<defs>
		<rect id="SVGID_5_" x="364.2" y="54.6" width="17.8" height="38.8"/>
	</defs>
	<clipPath id="SVGID_6_">
		<use xlink:href="#SVGID_5_"  style="overflow:visible;"/>
	</clipPath>
	<g class="st14">
		<path class="st11" d="M377.9,55.4c1.5,0,2.8,1.2,2.8,2.8v31.8c0,1.5-1.2,2.8-2.8,2.8h-22.1c-1.5,0-2.8-1.2-2.8-2.8V58.1
			c0-1.5,1.2-2.8,2.8-2.8H377.9z"/>
		<path class="st12" d="M377,57.3c0.2,0,0.4,0.2,0.4,0.4V71l1.4,3.1l-1.4,2.9v13.3c0,0.2-0.2,0.4-0.4,0.4h-18.9V57.3H377z"/>
		<path d="M354.1,57.7v32.5c0,0.7,0.6,1.3,1.3,1.3h2.7H377c0.7,0,1.3-0.6,1.3-1.3V77l1.4-2.9l-1.4-3.1V57.7c0-0.7-0.6-1.3-1.3-1.3
			h-18.9h-2.7C354.7,56.4,354.1,57,354.1,57.7z M377,57.3c0.2,0,0.4,0.2,0.4,0.4V71l1.4,3.1l-1.4,2.9v13.3c0,0.2-0.2,0.4-0.4,0.4
			h-18.9V57.3H377z"/>
		<g>
			<path class="st11" d="M357.6,84.9c0.1,0.1,0.1,0.4,0.1,0.7c0,0.9-0.6,1.4-1.3,1.4c-0.9,0-1.4-0.7-1.4-1.5c0-0.3,0.1-0.6,0.1-0.7
				l0.5,0.1c-0.1,0.1-0.1,0.3-0.1,0.5c0,0.5,0.3,0.9,0.9,0.9c0.5,0,0.9-0.3,0.9-0.9c0-0.2,0-0.4-0.1-0.5L357.6,84.9z"/>
			<path class="st11" d="M357,82.2l0.7,0.2V83l-2.7-0.8v-0.8l2.7-0.8v0.7l-0.7,0.2V82.2z M356.6,81.5l-0.6,0.2
				c-0.2,0-0.4,0.1-0.5,0.1v0c0.2,0,0.4,0.1,0.5,0.1l0.6,0.2V81.5z"/>
			<path class="st11" d="M355,78.1h1.5c0.5,0,0.7-0.2,0.7-0.5c0-0.3-0.2-0.5-0.7-0.5H355v-0.6h1.5c0.8,0,1.2,0.4,1.2,1.1
				c0,0.7-0.4,1.1-1.2,1.1H355V78.1z"/>
			<path class="st11" d="M355.5,73.9v0.7H355v-2.1h0.5v0.7h2.2v0.6H355.5z"/>
			<path class="st11" d="M355,70h2.7v0.6H355V70z"/>
			<path class="st11" d="M356.3,65.5c0.9,0,1.4,0.5,1.4,1.3c0,0.8-0.6,1.3-1.4,1.3c-0.8,0-1.4-0.5-1.4-1.3
				C355,65.9,355.6,65.5,356.3,65.5z M356.4,67.4c0.5,0,0.9-0.2,0.9-0.7c0-0.4-0.4-0.6-0.9-0.6c-0.5,0-0.9,0.2-0.9,0.6
				C355.4,67.2,355.8,67.4,356.4,67.4z"/>
			<path class="st11" d="M357.7,63.5H355v-0.7l1-0.6c0.3-0.2,0.6-0.3,0.9-0.4v0c-0.4,0-0.7,0-1.1,0H355v-0.6h2.7v0.6l-1,0.6
				c-0.3,0.2-0.6,0.3-1,0.5v0c0.4,0,0.7,0,1.2,0h0.8V63.5z"/>
			<path d="M358.6,87.5v-0.5h1.6v-0.8h0.4v1.3H358.6z"/>
			<path d="M360.1,85.3l0.5,0.1v0.5l-2-0.6v-0.6l2-0.6v0.5l-0.5,0.2V85.3z M359.8,84.8l-0.4,0.1c-0.1,0-0.3,0.1-0.4,0.1v0
				c0.1,0,0.3,0.1,0.4,0.1l0.4,0.1V84.8z"/>
			<path d="M360.2,83.5c0.1-0.1,0.1-0.3,0.1-0.5c0-0.2-0.1-0.3-0.2-0.3c-0.1,0-0.2,0.1-0.3,0.3c-0.1,0.3-0.3,0.6-0.6,0.6
				c-0.3,0-0.6-0.3-0.6-0.8c0-0.2,0-0.4,0.1-0.5l0.4,0.1c0,0.1-0.1,0.2-0.1,0.4c0,0.2,0.1,0.3,0.2,0.3c0.1,0,0.2-0.1,0.3-0.4
				c0.1-0.4,0.3-0.5,0.6-0.5c0.3,0,0.6,0.3,0.6,0.8c0,0.2-0.1,0.5-0.1,0.6L360.2,83.5z"/>
			<path d="M359.8,80.5v0.7h0.5v-0.8h0.4v1.3h-2v-1.2h0.4v0.8h0.4v-0.7H359.8z"/>
			<path d="M358.6,79.9c0-0.1,0-0.4,0-0.6c0-0.3,0-0.5,0.2-0.7c0.1-0.1,0.2-0.2,0.4-0.2c0.3,0,0.4,0.2,0.5,0.4h0
				c0.1-0.1,0.2-0.2,0.4-0.3c0.2-0.1,0.5-0.1,0.6-0.2v0.5c-0.1,0-0.2,0.1-0.5,0.1c-0.3,0.1-0.3,0.1-0.3,0.3v0.1h0.8v0.5H358.6z
				 M359.5,79.4v-0.2c0-0.2-0.1-0.4-0.3-0.4c-0.2,0-0.3,0.1-0.3,0.3c0,0.1,0,0.2,0,0.2H359.5z"/>
			<path d="M358.6,77.1c0-0.1,0-0.4,0-0.6c0-0.3,0-0.5,0.2-0.7c0.1-0.1,0.2-0.2,0.4-0.2c0.3,0,0.4,0.2,0.5,0.4h0
				c0.1-0.1,0.2-0.2,0.4-0.3c0.2-0.1,0.5-0.1,0.6-0.2V76c-0.1,0-0.2,0.1-0.5,0.1c-0.3,0.1-0.3,0.1-0.3,0.3v0.1h0.8v0.5H358.6z
				 M359.5,76.6v-0.2c0-0.2-0.1-0.4-0.3-0.4c-0.2,0-0.3,0.1-0.3,0.3c0,0.1,0,0.2,0,0.2H359.5z"/>
			<path d="M360.1,74.6l0.5,0.1v0.5l-2-0.6V74l2-0.6v0.5l-0.5,0.2V74.6z M359.8,74.1l-0.4,0.1c-0.1,0-0.3,0.1-0.4,0.1v0
				c0.1,0,0.3,0.1,0.4,0.1l0.4,0.1V74.1z"/>
			<path d="M358.6,72.9c0-0.2,0-0.4,0-0.6c0-0.4,0.1-0.6,0.2-0.8c0.2-0.2,0.4-0.3,0.8-0.3c0.4,0,0.7,0.1,0.8,0.3
				c0.2,0.2,0.3,0.5,0.3,0.9c0,0.2,0,0.4,0,0.5H358.6z M360.3,72.4c0,0,0-0.1,0-0.2c0-0.4-0.2-0.7-0.7-0.7c-0.4,0-0.6,0.2-0.6,0.6
				c0,0.1,0,0.2,0,0.2H360.3z"/>
			<path d="M358.6,70.1h2v0.5h-2V70.1z"/>
			<path d="M360.1,69l0.5,0.1v0.5l-2-0.6v-0.6l2-0.6v0.5l-0.5,0.2V69z M359.8,68.5l-0.4,0.1c-0.1,0-0.3,0.1-0.4,0.1v0
				c0.1,0,0.3,0.1,0.4,0.1l0.4,0.1V68.5z"/>
			<path d="M359,67.1v0.5h-0.4v-1.5h0.4v0.5h1.6v0.5H359z"/>
			<path d="M358.6,65.2h2v0.5h-2V65.2z"/>
			<path d="M359.6,62.8c0.7,0,1.1,0.4,1.1,1c0,0.6-0.5,0.9-1,0.9c-0.6,0-1.1-0.4-1.1-1C358.6,63.1,359,62.8,359.6,62.8z M359.6,64.2
				c0.4,0,0.7-0.2,0.7-0.5c0-0.3-0.3-0.5-0.7-0.5c-0.4,0-0.7,0.2-0.7,0.5C358.9,64,359.2,64.2,359.6,64.2z"/>
			<path d="M360.6,62.2h-2v-0.5l0.7-0.4c0.2-0.1,0.5-0.2,0.7-0.3v0c-0.3,0-0.5,0-0.8,0h-0.6v-0.4h2V61l-0.8,0.4
				c-0.2,0.1-0.5,0.3-0.7,0.3v0c0.3,0,0.6,0,0.9,0h0.6V62.2z"/>
		</g>
		<g>
			<path d="M366.9,75c0,0.1,0.1,0.3,0.1,0.5c0,0.7-0.4,1.1-1,1.1c-0.7,0-1.1-0.5-1.1-1.1c0-0.2,0-0.4,0.1-0.5l0.4,0.1
				c0,0.1-0.1,0.2-0.1,0.4c0,0.4,0.2,0.6,0.7,0.6c0.4,0,0.7-0.2,0.7-0.6c0-0.1,0-0.3-0.1-0.4L366.9,75z"/>
			<path d="M364.9,74.4V74h1.6v-0.8h0.4v1.3H364.9z"/>
			<path d="M366.4,72.1l0.5,0.1v0.5l-2-0.6v-0.6l2-0.6v0.5l-0.5,0.2V72.1z M366.1,71.6l-0.4,0.1c-0.1,0-0.3,0.1-0.4,0.1v0
				c0.1,0,0.3,0.1,0.4,0.1l0.4,0.1V71.6z"/>
			<path d="M366.4,70.3c0.1-0.1,0.1-0.3,0.1-0.5c0-0.2-0.1-0.3-0.2-0.3c-0.1,0-0.2,0.1-0.3,0.3c-0.1,0.3-0.3,0.6-0.6,0.6
				c-0.3,0-0.6-0.3-0.6-0.8c0-0.2,0-0.4,0.1-0.5l0.4,0.1c0,0.1-0.1,0.2-0.1,0.4c0,0.2,0.1,0.3,0.2,0.3c0.1,0,0.2-0.1,0.3-0.4
				c0.1-0.4,0.3-0.5,0.6-0.5c0.3,0,0.6,0.3,0.6,0.8c0,0.2-0.1,0.5-0.1,0.6L366.4,70.3z"/>
			<path d="M366.4,68.4c0.1-0.1,0.1-0.3,0.1-0.5c0-0.2-0.1-0.3-0.2-0.3c-0.1,0-0.2,0.1-0.3,0.3c-0.1,0.3-0.3,0.6-0.6,0.6
				c-0.3,0-0.6-0.3-0.6-0.8c0-0.2,0-0.4,0.1-0.5l0.4,0.1c0,0.1-0.1,0.2-0.1,0.4c0,0.2,0.1,0.3,0.2,0.3c0.1,0,0.2-0.1,0.3-0.4
				c0.1-0.4,0.3-0.5,0.6-0.5c0.3,0,0.6,0.3,0.6,0.8c0,0.2-0.1,0.5-0.1,0.6L366.4,68.4z"/>
			<path d="M365.7,66.5c-0.2,0-0.3-0.1-0.3-0.3c0-0.2,0.1-0.3,0.3-0.3c0.2,0,0.3,0.1,0.3,0.3C366,66.4,365.9,66.5,365.7,66.5z
				 M366.7,66.5c-0.2,0-0.3-0.1-0.3-0.3c0-0.2,0.1-0.3,0.3-0.3c0.2,0,0.3,0.1,0.3,0.3C366.9,66.4,366.8,66.5,366.7,66.5z"/>
			<path d="M365.4,64L365.4,64l0.2,0.4l-0.3,0.1l-0.2-0.5v-0.4h1.9V64H365.4z"/>
			<path d="M366.1,60.8c-0.2,0-0.5,0-0.8,0v0c0.3,0.1,0.5,0.1,0.8,0.2l0.8,0.2v0.4l-0.8,0.2c-0.2,0.1-0.5,0.1-0.8,0.2v0
				c0.3,0,0.6,0,0.8,0l0.8,0v0.4l-2-0.1v-0.6l0.7-0.2c0.2-0.1,0.5-0.1,0.7-0.2v0c-0.2-0.1-0.5-0.1-0.7-0.2l-0.7-0.2v-0.6l2-0.1v0.4
				L366.1,60.8z"/>
		</g>
		<g>
			<path d="M372.5,90.2c0-0.1,0-0.3,0-0.5c0-0.3,0.1-0.5,0.2-0.7c0.1-0.1,0.3-0.2,0.6-0.2c0.3,0,0.5,0.1,0.6,0.2
				c0.2,0.2,0.2,0.4,0.2,0.7c0,0.2,0,0.3,0,0.4H372.5z M373.9,90c0-0.1,0-0.1,0-0.2c0-0.5-0.3-0.7-0.7-0.7c-0.4,0-0.6,0.2-0.6,0.7
				c0,0.1,0,0.2,0,0.2H373.9z"/>
			<path d="M373.3,87.1c0.6,0,0.9,0.3,0.9,0.8c0,0.4-0.3,0.7-0.8,0.7c-0.5,0-0.9-0.3-0.9-0.8C372.4,87.3,372.8,87.1,373.3,87.1z
				 M373.3,88.3c0.4,0,0.7-0.2,0.7-0.5c0-0.3-0.3-0.5-0.7-0.5c-0.3,0-0.7,0.2-0.7,0.5S372.9,88.3,373.3,88.3z"/>
			<path d="M374.1,86h-1.6v-0.2l0.8-0.5c0.2-0.1,0.4-0.2,0.5-0.3l0,0c-0.2,0-0.4,0-0.7,0h-0.7v-0.2h1.6V85l-0.8,0.5
				c-0.2,0.1-0.4,0.2-0.5,0.3l0,0c0.2,0,0.4,0,0.7,0h0.7V86z"/>
			<path d="M373.3,82.9c0.6,0,0.9,0.3,0.9,0.8c0,0.4-0.3,0.7-0.8,0.7c-0.5,0-0.9-0.3-0.9-0.8C372.4,83.2,372.8,82.9,373.3,82.9z
				 M373.3,84.2c0.4,0,0.7-0.2,0.7-0.5s-0.3-0.5-0.7-0.5c-0.3,0-0.7,0.2-0.7,0.5S372.9,84.2,373.3,84.2z"/>
			<path d="M372.6,82.3v0.5h-0.2v-1.2h0.2V82h1.5v0.2H372.6z"/>
			<path d="M374.1,80.3l-1.6,0.5v-0.2l0.8-0.3c0.2-0.1,0.4-0.1,0.6-0.2v0c-0.2,0-0.4-0.1-0.6-0.2l-0.8-0.3v-0.2l1.6,0.6V80.3z"/>
			<path d="M372.5,79h1.6v0.2h-1.6V79z"/>
			<path d="M373.3,77.7v0.6h0.6v-0.7h0.2v0.9h-1.6v-0.9h0.2v0.7h0.5v-0.6H373.3z"/>
			<path d="M374.1,76.9l-1.6,0.4v-0.2l0.8-0.2c0.2,0,0.4-0.1,0.6-0.1v0c-0.2,0-0.4-0.1-0.6-0.1l-0.8-0.2v-0.2l0.8-0.2
				c0.2,0,0.4-0.1,0.6-0.1v0c-0.2,0-0.4-0.1-0.6-0.1l-0.8-0.2v-0.2l1.6,0.5V76l-0.9,0.2c-0.2,0.1-0.4,0.1-0.5,0.1v0
				c0.2,0,0.3,0.1,0.5,0.1l0.9,0.2V76.9z"/>
			<path d="M372.5,74.4c0-0.1,0-0.3,0-0.5c0-0.3,0.1-0.5,0.2-0.7c0.1-0.1,0.3-0.2,0.6-0.2c0.3,0,0.5,0.1,0.6,0.2
				c0.2,0.2,0.2,0.4,0.2,0.7c0,0.2,0,0.3,0,0.4H372.5z M373.9,74.2c0-0.1,0-0.1,0-0.2c0-0.5-0.3-0.7-0.7-0.7c-0.4,0-0.6,0.2-0.6,0.7
				c0,0.1,0,0.2,0,0.2H373.9z"/>
			<path d="M372.5,72.4h1.6v0.2h-1.6V72.4z"/>
			<path d="M372.5,71.9c0-0.1,0-0.3,0-0.4c0-0.2,0-0.4,0.1-0.5c0.1-0.1,0.2-0.1,0.3-0.1c0.2,0,0.4,0.1,0.4,0.3h0
				c0-0.1,0.2-0.2,0.3-0.2c0.2-0.1,0.4-0.1,0.5-0.1v0.2c0,0-0.2,0.1-0.4,0.1c-0.2,0-0.3,0.1-0.3,0.3v0.2h0.7v0.2H372.5z M373.2,71.7
				v-0.2c0-0.2-0.1-0.4-0.3-0.4c-0.2,0-0.3,0.2-0.3,0.4c0,0.1,0,0.2,0,0.2H373.2z"/>
			<path d="M373.3,69.7v0.6h0.6v-0.7h0.2v0.9h-1.6v-0.9h0.2v0.7h0.5v-0.6H373.3z"/>
			<path d="M374.1,68.1c0,0.1,0.1,0.2,0.1,0.4c0,0.5-0.3,0.8-0.8,0.8c-0.5,0-0.9-0.3-0.9-0.9c0-0.2,0-0.3,0.1-0.4l0.2,0.1
				c0,0.1-0.1,0.2-0.1,0.3c0,0.4,0.2,0.6,0.7,0.6c0.4,0,0.7-0.2,0.7-0.6c0-0.1,0-0.3-0.1-0.3L374.1,68.1z"/>
			<path d="M372.6,67.3v0.5h-0.2v-1.2h0.2v0.5h1.5v0.2H372.6z"/>
			<path d="M372.5,66.3v-0.2h1.5v-0.7h0.2v0.9H372.5z"/>
			<path d="M374.1,64.8h-0.7l-0.9,0.5v-0.2l0.5-0.2c0.1-0.1,0.2-0.1,0.3-0.2v0c-0.1,0-0.2-0.1-0.3-0.2l-0.5-0.2v-0.2l0.9,0.5h0.7
				V64.8z"/>
			<path d="M374.1,63l-1.6,0.4v-0.2l0.8-0.2c0.2,0,0.4-0.1,0.6-0.1v0c-0.2,0-0.4-0.1-0.6-0.1l-0.8-0.2v-0.2l0.8-0.2
				c0.2,0,0.4-0.1,0.6-0.1v0c-0.2,0-0.4-0.1-0.6-0.1l-0.8-0.2v-0.2l1.6,0.5v0.2l-0.9,0.2c-0.2,0.1-0.4,0.1-0.5,0.1v0
				c0.2,0,0.3,0.1,0.5,0.1l0.9,0.2V63z"/>
			<path d="M372.5,60.8h1.6v0.2h-1.6V60.8z"/>
			<path d="M372.6,60v0.5h-0.2v-1.2h0.2v0.5h1.5V60H372.6z"/>
			<path d="M372.5,58.8h0.7V58h-0.7v-0.2h1.6V58h-0.8v0.8h0.8V59h-1.6V58.8z"/>
			<path d="M375.8,85.5c0.6,0,0.9,0.3,0.9,0.8c0,0.4-0.3,0.7-0.8,0.7c-0.5,0-0.9-0.3-0.9-0.8C374.9,85.7,375.3,85.5,375.8,85.5z
				 M375.8,86.7c0.4,0,0.7-0.2,0.7-0.5c0-0.3-0.3-0.5-0.7-0.5c-0.3,0-0.7,0.2-0.7,0.5S375.4,86.7,375.8,86.7z"/>
			<path d="M375,85.1c0-0.1,0-0.2,0-0.4c0-0.2,0-0.4,0.1-0.5c0.1-0.1,0.2-0.1,0.3-0.1c0.1,0,0.3,0,0.4,0.1c0.1,0.1,0.2,0.3,0.2,0.5
				c0,0.1,0,0.1,0,0.2h0.7v0.2H375z M375.8,84.9c0,0,0-0.1,0-0.2c0-0.3-0.1-0.4-0.3-0.4c-0.2,0-0.3,0.2-0.3,0.4c0,0.1,0,0.2,0,0.2
				H375.8z"/>
			<path d="M375.1,83.3v0.5H375v-1.2h0.2v0.5h1.5v0.2H375.1z"/>
			<path d="M375,82.1h1.6v0.2H375V82.1z"/>
			<path d="M376.5,80.5c0,0.1,0.1,0.2,0.1,0.4c0,0.5-0.3,0.8-0.8,0.8c-0.5,0-0.9-0.3-0.9-0.9c0-0.2,0-0.3,0.1-0.4l0.2,0.1
				c0,0.1-0.1,0.2-0.1,0.3c0,0.4,0.2,0.6,0.7,0.6c0.4,0,0.7-0.2,0.7-0.6c0-0.1,0-0.3-0.1-0.3L376.5,80.5z"/>
			<path d="M376.1,79.8l0.5,0.2v0.2l-1.6-0.6v-0.3l1.6-0.6v0.2l-0.5,0.2V79.8z M375.9,79.3l-0.5,0.2c-0.1,0-0.2,0.1-0.3,0.1v0
				c0.1,0,0.2,0,0.3,0.1l0.5,0.2V79.3z"/>
			<path d="M375,78.5v-0.2h1.5v-0.7h0.2v0.9H375z"/>
			<path d="M375,76.4h1.6v0.2H375V76.4z"/>
			<path d="M376.6,75.9H375v-0.2l0.8-0.5c0.2-0.1,0.4-0.2,0.5-0.3l0,0c-0.2,0-0.4,0-0.7,0H375v-0.2h1.6v0.2l-0.8,0.5
				c-0.2,0.1-0.4,0.2-0.5,0.3l0,0c0.2,0,0.4,0,0.7,0h0.7V75.9z"/>
			<path d="M376.3,74.2c0.1-0.1,0.1-0.2,0.1-0.4c0-0.2-0.1-0.3-0.3-0.3c-0.2,0-0.2,0.1-0.3,0.3c-0.1,0.3-0.2,0.4-0.5,0.4
				c-0.3,0-0.4-0.2-0.4-0.5c0-0.2,0-0.3,0.1-0.4l0.2,0.1c0,0.1-0.1,0.2-0.1,0.3c0,0.2,0.1,0.3,0.2,0.3c0.2,0,0.2-0.1,0.3-0.3
				c0.1-0.3,0.2-0.4,0.5-0.4c0.3,0,0.5,0.2,0.5,0.6c0,0.2,0,0.3-0.1,0.4L376.3,74.2z"/>
			<path d="M375.1,72.5V73H375v-1.2h0.2v0.5h1.5v0.2H375.1z"/>
			<path d="M375,71.5c0-0.1,0-0.3,0-0.4c0-0.2,0-0.4,0.1-0.5c0.1-0.1,0.2-0.1,0.3-0.1c0.2,0,0.4,0.1,0.4,0.3h0
				c0-0.1,0.2-0.2,0.3-0.2c0.2-0.1,0.4-0.1,0.5-0.1v0.2c0,0-0.2,0.1-0.4,0.1c-0.2,0-0.3,0.1-0.3,0.3v0.2h0.7v0.2H375z M375.7,71.3
				v-0.2c0-0.2-0.1-0.4-0.3-0.4c-0.2,0-0.3,0.2-0.3,0.4c0,0.1,0,0.2,0,0.2H375.7z"/>
			<path d="M375,69.9h1c0.4,0,0.5-0.2,0.5-0.4c0-0.2-0.2-0.4-0.5-0.4h-1v-0.2h1c0.5,0,0.7,0.3,0.7,0.6c0,0.3-0.2,0.6-0.7,0.6h-1
				V69.9z"/>
			<path d="M375.9,67c-0.2,0-0.5,0-0.7,0v0c0.2,0.1,0.4,0.1,0.6,0.2l0.8,0.3v0.2l-0.8,0.3c-0.2,0.1-0.4,0.1-0.6,0.2v0
				c0.2,0,0.5,0,0.7,0l0.7,0v0.2l-1.6-0.1v-0.3l0.8-0.3c0.2-0.1,0.4-0.1,0.6-0.2v0c-0.2,0-0.3-0.1-0.6-0.2l-0.8-0.3v-0.3l1.6-0.1V67
				L375.9,67z"/>
			<path d="M375.8,65.5v0.6h0.6v-0.7h0.2v0.9H375v-0.9h0.2v0.7h0.5v-0.6H375.8z"/>
			<path d="M376.6,65H375v-0.2l0.8-0.5c0.2-0.1,0.4-0.2,0.5-0.3l0,0c-0.2,0-0.4,0-0.7,0H375v-0.2h1.6V64l-0.8,0.5
				c-0.2,0.1-0.4,0.2-0.5,0.3l0,0c0.2,0,0.4,0,0.7,0h0.7V65z"/>
			<path d="M375.1,63v0.5H375v-1.2h0.2v0.5h1.5V63H375.1z"/>
			<path d="M376.3,62c0.1-0.1,0.1-0.2,0.1-0.4c0-0.2-0.1-0.3-0.3-0.3c-0.2,0-0.2,0.1-0.3,0.3c-0.1,0.3-0.2,0.4-0.5,0.4
				c-0.3,0-0.4-0.2-0.4-0.5c0-0.2,0-0.3,0.1-0.4l0.2,0.1c0,0.1-0.1,0.2-0.1,0.3c0,0.2,0.1,0.3,0.2,0.3c0.2,0,0.2-0.1,0.3-0.3
				c0.1-0.3,0.2-0.4,0.5-0.4c0.3,0,0.5,0.2,0.5,0.6c0,0.2,0,0.3-0.1,0.4L376.3,62z"/>
		</g>
		<g>
			<path class="st11" d="M370.6,76.5l-9.1,5.1c-0.2,0.1-0.3,0.4-0.3,0.6c0,0.3,0.1,0.5,0.4,0.7l9.2,5.1c0.1,0,0.2,0,0.3,0
				c0.4,0,0.7-0.3,0.7-0.7V77.1c0-0.4-0.3-0.7-0.7-0.8C370.8,76.4,370.7,76.4,370.6,76.5z"/>
			<path d="M370.6,76.4l-9.2,5.2c-0.2,0.1-0.3,0.4-0.3,0.6c0,0.3,0.1,0.5,0.4,0.7l9.2,5.1c0.1,0,0.2,0,0.3,0c0.3,0,0.7-0.3,0.7-0.7
				V77.1c0-0.4-0.3-0.7-0.7-0.8C370.9,76.3,370.7,76.4,370.6,76.4z M371.5,77.1v10.2c0,0.3-0.2,0.6-0.6,0.6c-0.1,0-0.2,0-0.2,0
				l-9.1-5.1c-0.2-0.1-0.4-0.3-0.4-0.6c0-0.2,0.1-0.4,0.3-0.5l9.1-5.1c0.1,0,0.2-0.1,0.3-0.1C371.3,76.5,371.5,76.8,371.5,77.1z"/>
			<path d="M362.1,81.6c-0.2,0.1-0.6,0.3-0.6,0.6c0,0.3,0.4,0.5,0.6,0.6l8.3,4.6c0.2,0.1,0.5,0.3,0.7,0.2c0.2-0.1,0.2-0.5,0.2-0.8
				v-9.2c0-0.4,0-0.7-0.2-0.8c-0.2-0.2-0.5,0.1-0.8,0.2L362.1,81.6z M370.7,82.2v4.7l-8.2-4.7l0,0l0,0l0,0l0,0l5.3-3.1v2.3
				c0,0,0,0,0,0l-0.2-0.9l-0.1,0l0.3,0.9c0,0-0.1,0-0.1,0l-0.8-1.5l-0.2,0.1l0.9,1.5c0,0,0,0-0.1,0l-0.6-0.7l-0.1,0.1l0.7,0.6
				c0,0,0,0,0,0l-1.5-0.9l-0.1,0.2l1.5,0.8c0,0,0,0.1,0,0.1l-0.9-0.3l0,0.1l0.9,0.2c0,0,0,0.1,0,0.1l-1.7,0v0.2l1.7,0c0,0,0,0,0,0.1
				l-0.9,0.2l0,0.1l0.9-0.3c0,0,0,0.1,0,0.1l-1.5,0.8l0.1,0.2l1.5-0.9c0,0,0,0,0,0.1l-0.6,0.6l0.1,0.1l0.6-0.6c0,0,0.1,0,0.1,0.1
				l-0.9,1.4l0.2,0.1l0.8-1.5c0,0,0,0,0.1,0l-0.2,0.8l0.1,0l0.2-0.8c0,0,0.1,0,0.1,0l0,1.7h0.2l0-1.7c0,0,0.1,0,0.1,0l0.2,0.8l0.1,0
				l-0.2-0.8c0,0,0.1,0,0.1,0l0.8,1.5l0.2-0.1l-0.9-1.4c0,0,0,0,0.1-0.1l0.6,0.6l0.1-0.1l-0.6-0.6c0,0,0-0.1,0.1-0.1l1.4,0.9
				l0.1-0.2l-1.5-0.8c0,0,0-0.1,0-0.1l0.8,0.2l0-0.1l-0.8-0.2c0,0,0,0,0-0.1l1.7,0v-0.2l-1.7,0c0,0,0-0.1,0-0.1l0.9-0.2l0-0.1
				l-0.9,0.2c0,0,0-0.1,0-0.1l1.5-0.8l-0.1-0.2l-1.5,0.9c0,0,0,0-0.1-0.1l0.7-0.6l-0.1-0.1l-0.6,0.7c0,0,0,0-0.1,0l0.9-1.5l-0.2-0.1
				l-0.8,1.5c0,0-0.1,0-0.1,0l0.3-0.9l-0.1,0l-0.2,0.9c0,0,0,0-0.1,0V79l2.6-1.5V82.2z"/>
		</g>
	</g>
</g>
<g>
	<path d="M85.4,123.9c0,2.6-2.1,4.8-4.8,4.8c-2.6,0-4.8-2.1-4.8-4.8c0-2.6,2.1-4.8,4.8-4.8C83.3,119.1,85.4,121.3,85.4,123.9z"/>
	<g>
		<path class="st15" d="M81.2,119.6c-0.3,0-0.8,1.8-1.1,4.1c-0.3,2.3-0.3,4.3-0.1,4.3c0.3,0,0.8-1.8,1.1-4.1
			C81.5,121.5,81.5,119.6,81.2,119.6z"/>
		<path class="st15" d="M79.7,120.1c-0.3,0-0.8,1.5-1,3.4c-0.3,1.9-0.2,3.5,0,3.6c0.3,0,0.8-1.5,1-3.4C80,121.8,80,120.2,79.7,120.1
			z"/>
		<path class="st15" d="M78.2,121c-0.3,0-0.7,1-0.9,2.3c-0.2,1.3-0.1,2.4,0.2,2.5c0.3,0,0.7-1,0.9-2.3C78.6,122.2,78.5,121,78.2,121
			z"/>
		<path class="st15" d="M82.5,120.5c-0.3,0-0.8,1.5-1,3.4c-0.3,1.9-0.2,3.5,0,3.5c0.3,0,0.8-1.5,1-3.4
			C82.8,122.1,82.8,120.6,82.5,120.5z"/>
		<path class="st15" d="M83.7,121.8c-0.3,0-0.7,1-0.9,2.3c-0.2,1.3-0.1,2.4,0.2,2.5c0.3,0,0.7-1,0.9-2.3
			C84.1,122.9,84,121.8,83.7,121.8z"/>
	</g>
</g>
<g>
	<path d="M251.2,123.9c0,2.6-2.1,4.8-4.8,4.8c-2.6,0-4.8-2.1-4.8-4.8c0-2.6,2.1-4.8,4.8-4.8C249.1,119.1,251.2,121.3,251.2,123.9z"
		/>
	<g>
		<path class="st15" d="M247,119.6c-0.3,0-0.8,1.8-1.1,4.1c-0.3,2.3-0.3,4.3-0.1,4.3c0.3,0,0.8-1.8,1.1-4.1
			C247.3,121.5,247.3,119.6,247,119.6z"/>
		<path class="st15" d="M245.6,120.1c-0.3,0-0.8,1.5-1,3.4c-0.3,1.9-0.2,3.5,0,3.6c0.3,0,0.8-1.5,1-3.4
			C245.9,121.8,245.9,120.2,245.6,120.1z"/>
		<path class="st15" d="M244.1,121c-0.3,0-0.7,1-0.9,2.3c-0.2,1.3-0.1,2.4,0.2,2.5c0.3,0,0.7-1,0.9-2.3
			C244.4,122.2,244.3,121,244.1,121z"/>
		<path class="st15" d="M248.3,120.5c-0.3,0-0.8,1.5-1,3.4c-0.3,1.9-0.2,3.5,0,3.5c0.3,0,0.8-1.5,1-3.4
			C248.6,122.1,248.6,120.6,248.3,120.5z"/>
		<path class="st15" d="M249.5,121.8c-0.3,0-0.7,1-0.9,2.3c-0.2,1.3-0.1,2.4,0.2,2.5c0.3,0,0.7-1,0.9-2.3
			C249.9,122.9,249.8,121.8,249.5,121.8z"/>
	</g>
</g>
<g>
	<path d="M419.8,123.9c0,2.6-2.1,4.8-4.8,4.8c-2.6,0-4.8-2.1-4.8-4.8c0-2.6,2.1-4.8,4.8-4.8C417.7,119.1,419.8,121.3,419.8,123.9z"
		/>
	<g>
		<path class="st15" d="M415.7,119.6c-0.3,0-0.8,1.8-1.1,4.1c-0.3,2.3-0.3,4.3-0.1,4.3c0.3,0,0.8-1.8,1.1-4.1
			C415.9,121.5,416,119.6,415.7,119.6z"/>
		<path class="st15" d="M414.2,120.1c-0.3,0-0.8,1.5-1,3.4c-0.3,1.9-0.2,3.5,0,3.6c0.3,0,0.8-1.5,1-3.4
			C414.5,121.8,414.5,120.2,414.2,120.1z"/>
		<path class="st15" d="M412.7,121c-0.3,0-0.7,1-0.9,2.3c-0.2,1.3-0.1,2.4,0.2,2.5c0.3,0,0.7-1,0.9-2.3C413,122.2,413,121,412.7,121
			z"/>
		<path class="st15" d="M416.9,120.5c-0.3,0-0.8,1.5-1,3.4c-0.3,1.9-0.2,3.5,0,3.5c0.3,0,0.8-1.5,1-3.4
			C417.2,122.1,417.2,120.6,416.9,120.5z"/>
		<path class="st15" d="M418.1,121.8c-0.3,0-0.7,1-0.9,2.3c-0.2,1.3-0.1,2.4,0.2,2.5c0.3,0,0.7-1,0.9-2.3
			C418.5,122.9,418.4,121.8,418.1,121.8z"/>
	</g>
</g>
<g>
	<g>
		<path class="st6" d="M8.3,154.9l-0.5,1.7H7l1.8-5.3h0.8l1.8,5.3h-0.7l-0.6-1.7H8.3z M10,154.3l-0.5-1.5c-0.1-0.3-0.2-0.7-0.3-1h0
			c-0.1,0.3-0.2,0.6-0.3,1l-0.5,1.5H10z"/>
		<path class="st6" d="M12.9,151.7c0,0.2-0.2,0.4-0.4,0.4c-0.2,0-0.4-0.2-0.4-0.4c0-0.2,0.2-0.4,0.4-0.4
			C12.8,151.3,12.9,151.5,12.9,151.7z M12.2,156.5v-3.8h0.7v3.8H12.2z"/>
		<path class="st6" d="M14,153.9c0-0.4,0-0.8,0-1.2h0.6l0,0.7h0c0.2-0.5,0.6-0.8,1-0.8c0.1,0,0.1,0,0.2,0v0.6c-0.1,0-0.1,0-0.2,0
			c-0.5,0-0.8,0.4-0.9,0.9c0,0.1,0,0.2,0,0.3v2H14V153.9z"/>
		<path class="st6" d="M16.9,156.5v-3.3h-0.5v-0.5h0.5v-0.2c0-0.5,0.1-1,0.4-1.3c0.3-0.2,0.6-0.4,0.9-0.4c0.2,0,0.5,0.1,0.6,0.1
			l-0.1,0.5c-0.1,0-0.2-0.1-0.4-0.1c-0.6,0-0.7,0.5-0.7,1.1v0.2h0.9v0.5h-0.9v3.3H16.9z"/>
		<path class="st6" d="M19.1,153.9c0-0.4,0-0.8,0-1.2h0.6l0,0.7h0c0.2-0.5,0.6-0.8,1-0.8c0.1,0,0.1,0,0.2,0v0.6c-0.1,0-0.1,0-0.2,0
			c-0.5,0-0.8,0.4-0.9,0.9c0,0.1,0,0.2,0,0.3v2h-0.7V153.9z"/>
		<path class="st6" d="M23.7,156.5l-0.1-0.5h0c-0.2,0.3-0.6,0.6-1.2,0.6c-0.8,0-1.2-0.5-1.2-1.1c0-0.9,0.8-1.4,2.3-1.4V154
			c0-0.3-0.1-0.9-0.9-0.9c-0.4,0-0.7,0.1-1,0.3l-0.2-0.5c0.3-0.2,0.8-0.3,1.2-0.3c1.2,0,1.4,0.8,1.4,1.5v1.4c0,0.3,0,0.6,0.1,0.9
			H23.7z M23.6,154.6c-0.8,0-1.6,0.1-1.6,0.8c0,0.4,0.3,0.7,0.6,0.7c0.5,0,0.8-0.3,0.9-0.6c0-0.1,0-0.1,0-0.2V154.6z"/>
		<path class="st6" d="M25.4,153.8c0-0.4,0-0.7,0-1h0.6l0,0.6h0c0.2-0.4,0.6-0.7,1.2-0.7c0.5,0,0.9,0.3,1.1,0.8h0
			c0.1-0.2,0.3-0.4,0.4-0.5c0.2-0.2,0.5-0.3,0.8-0.3c0.5,0,1.2,0.3,1.2,1.6v2.2h-0.7v-2.1c0-0.7-0.3-1.2-0.8-1.2
			c-0.4,0-0.7,0.3-0.8,0.6c0,0.1-0.1,0.2-0.1,0.3v2.3h-0.7v-2.3c0-0.6-0.3-1-0.8-1c-0.4,0-0.7,0.3-0.9,0.7c0,0.1-0.1,0.2-0.1,0.3
			v2.3h-0.7V153.8z"/>
		<path class="st6" d="M32.3,154.8c0,0.9,0.6,1.3,1.3,1.3c0.5,0,0.8-0.1,1-0.2l0.1,0.5c-0.2,0.1-0.7,0.2-1.3,0.2
			c-1.2,0-1.9-0.8-1.9-1.9s0.7-2,1.8-2c1.2,0,1.6,1.1,1.6,1.8c0,0.1,0,0.2,0,0.3H32.3z M34.3,154.3c0-0.4-0.2-1.1-1-1.1
			c-0.7,0-1,0.6-1.1,1.1H34.3z"/>
	</g>
</g>
<g>
	<g>
		<path class="st6" d="M173,141.3l-0.5,1.7h-0.7l1.8-5.3h0.8l1.8,5.3h-0.7l-0.6-1.7H173z M174.8,140.7l-0.5-1.5
			c-0.1-0.3-0.2-0.7-0.3-1h0c-0.1,0.3-0.2,0.6-0.3,1l-0.5,1.5H174.8z"/>
		<path class="st6" d="M177.7,138.1c0,0.2-0.2,0.4-0.4,0.4c-0.2,0-0.4-0.2-0.4-0.4c0-0.2,0.2-0.4,0.4-0.4
			C177.5,137.7,177.7,137.8,177.7,138.1z M176.9,142.9v-3.8h0.7v3.8H176.9z"/>
		<path class="st6" d="M178.8,140.3c0-0.4,0-0.8,0-1.2h0.6l0,0.7h0c0.2-0.5,0.6-0.8,1-0.8c0.1,0,0.1,0,0.2,0v0.6c-0.1,0-0.1,0-0.2,0
			c-0.5,0-0.8,0.4-0.9,0.9c0,0.1,0,0.2,0,0.3v2h-0.7V140.3z"/>
		<path class="st6" d="M181.6,142.9v-3.3h-0.5v-0.5h0.5V139c0-0.5,0.1-1,0.4-1.3c0.3-0.2,0.6-0.4,0.9-0.4c0.2,0,0.5,0.1,0.6,0.1
			l-0.1,0.5c-0.1,0-0.2-0.1-0.4-0.1c-0.6,0-0.7,0.5-0.7,1.1v0.2h0.9v0.5h-0.9v3.3H181.6z"/>
		<path class="st6" d="M183.8,140.3c0-0.4,0-0.8,0-1.2h0.6l0,0.7h0c0.2-0.5,0.6-0.8,1-0.8c0.1,0,0.1,0,0.2,0v0.6c-0.1,0-0.1,0-0.2,0
			c-0.5,0-0.8,0.4-0.9,0.9c0,0.1,0,0.2,0,0.3v2h-0.7V140.3z"/>
		<path class="st6" d="M188.4,142.9l-0.1-0.5h0c-0.2,0.3-0.6,0.6-1.2,0.6c-0.8,0-1.2-0.5-1.2-1.1c0-0.9,0.8-1.4,2.3-1.4v-0.1
			c0-0.3-0.1-0.9-0.9-0.9c-0.4,0-0.7,0.1-1,0.3l-0.2-0.5c0.3-0.2,0.8-0.3,1.2-0.3c1.2,0,1.4,0.8,1.4,1.5v1.4c0,0.3,0,0.6,0.1,0.9
			H188.4z M188.3,141c-0.8,0-1.6,0.1-1.6,0.8c0,0.4,0.3,0.7,0.6,0.7c0.5,0,0.8-0.3,0.9-0.6c0-0.1,0-0.1,0-0.2V141z"/>
		<path class="st6" d="M190.1,140.2c0-0.4,0-0.7,0-1h0.6l0,0.6h0c0.2-0.4,0.6-0.7,1.2-0.7c0.5,0,0.9,0.3,1.1,0.8h0
			c0.1-0.2,0.3-0.4,0.4-0.5c0.2-0.2,0.5-0.3,0.8-0.3c0.5,0,1.2,0.3,1.2,1.6v2.2h-0.7v-2.1c0-0.7-0.3-1.2-0.8-1.2
			c-0.4,0-0.7,0.3-0.8,0.6c0,0.1-0.1,0.2-0.1,0.3v2.3h-0.7v-2.3c0-0.6-0.3-1-0.8-1c-0.4,0-0.7,0.3-0.9,0.7c0,0.1-0.1,0.2-0.1,0.3
			v2.3h-0.7V140.2z"/>
		<path class="st6" d="M197,141.2c0,0.9,0.6,1.3,1.3,1.3c0.5,0,0.8-0.1,1-0.2l0.1,0.5c-0.2,0.1-0.7,0.2-1.3,0.2
			c-1.2,0-1.9-0.8-1.9-1.9s0.7-2,1.8-2c1.2,0,1.6,1.1,1.6,1.8c0,0.1,0,0.2,0,0.3H197z M199,140.7c0-0.4-0.2-1.1-1-1.1
			c-0.7,0-1,0.6-1.1,1.1H199z"/>
	</g>
</g>
<g>
	<g>
		<path class="st6" d="M329.4,148.3l-0.5,1.7h-0.7l1.8-5.3h0.8l1.8,5.3h-0.7l-0.6-1.7H329.4z M331.2,147.8l-0.5-1.5
			c-0.1-0.3-0.2-0.7-0.3-1h0c-0.1,0.3-0.2,0.6-0.3,1l-0.5,1.5H331.2z"/>
		<path class="st6" d="M334.1,145.2c0,0.2-0.2,0.4-0.4,0.4c-0.2,0-0.4-0.2-0.4-0.4c0-0.2,0.2-0.4,0.4-0.4
			C333.9,144.7,334.1,144.9,334.1,145.2z M333.3,150v-3.8h0.7v3.8H333.3z"/>
		<path class="st6" d="M335.1,147.4c0-0.4,0-0.8,0-1.2h0.6l0,0.7h0c0.2-0.5,0.6-0.8,1-0.8c0.1,0,0.1,0,0.2,0v0.6c-0.1,0-0.1,0-0.2,0
			c-0.5,0-0.8,0.4-0.9,0.9c0,0.1,0,0.2,0,0.3v2h-0.7V147.4z"/>
		<path class="st6" d="M338,150v-3.3h-0.5v-0.5h0.5V146c0-0.5,0.1-1,0.4-1.3c0.3-0.2,0.6-0.4,0.9-0.4c0.2,0,0.5,0.1,0.6,0.1
			l-0.1,0.5c-0.1,0-0.2-0.1-0.4-0.1c-0.6,0-0.7,0.5-0.7,1.1v0.2h0.9v0.5h-0.9v3.3H338z"/>
		<path class="st6" d="M340.2,147.4c0-0.4,0-0.8,0-1.2h0.6l0,0.7h0c0.2-0.5,0.6-0.8,1-0.8c0.1,0,0.1,0,0.2,0v0.6c-0.1,0-0.1,0-0.2,0
			c-0.5,0-0.8,0.4-0.9,0.9c0,0.1,0,0.2,0,0.3v2h-0.7V147.4z"/>
		<path class="st6" d="M344.8,150l-0.1-0.5h0c-0.2,0.3-0.6,0.6-1.2,0.6c-0.8,0-1.2-0.5-1.2-1.1c0-0.9,0.8-1.4,2.3-1.4v-0.1
			c0-0.3-0.1-0.9-0.9-0.9c-0.4,0-0.7,0.1-1,0.3l-0.2-0.5c0.3-0.2,0.8-0.3,1.2-0.3c1.2,0,1.4,0.8,1.4,1.5v1.4c0,0.3,0,0.6,0.1,0.9
			H344.8z M344.7,148.1c-0.8,0-1.6,0.1-1.6,0.8c0,0.4,0.3,0.7,0.6,0.7c0.5,0,0.8-0.3,0.9-0.6c0-0.1,0-0.1,0-0.2V148.1z"/>
		<path class="st6" d="M346.5,147.2c0-0.4,0-0.7,0-1h0.6l0,0.6h0c0.2-0.4,0.6-0.7,1.2-0.7c0.5,0,0.9,0.3,1.1,0.8h0
			c0.1-0.2,0.3-0.4,0.4-0.5c0.2-0.2,0.5-0.3,0.8-0.3c0.5,0,1.2,0.3,1.2,1.6v2.2h-0.7v-2.1c0-0.7-0.3-1.2-0.8-1.2
			c-0.4,0-0.7,0.3-0.8,0.6c0,0.1-0.1,0.2-0.1,0.3v2.3h-0.7v-2.3c0-0.6-0.3-1-0.8-1c-0.4,0-0.7,0.3-0.9,0.7c0,0.1-0.1,0.2-0.1,0.3
			v2.3h-0.7V147.2z"/>
		<path class="st6" d="M353.4,148.2c0,0.9,0.6,1.3,1.3,1.3c0.5,0,0.8-0.1,1-0.2l0.1,0.5c-0.2,0.1-0.7,0.2-1.3,0.2
			c-1.2,0-1.9-0.8-1.9-1.9s0.7-2,1.8-2c1.2,0,1.6,1.1,1.6,1.8c0,0.1,0,0.2,0,0.3H353.4z M355.4,147.7c0-0.4-0.2-1.1-1-1.1
			c-0.7,0-1,0.6-1.1,1.1H355.4z"/>
	</g>
</g>
<g>
	<g>
		<path class="st6" d="M315.3,138.4c0-0.7-0.1-1.6-0.1-2.3h0c-0.2,0.6-0.4,1.3-0.7,2l-0.9,2.5h-0.5l-0.9-2.5c-0.2-0.7-0.5-1.4-0.6-2
			h0c0,0.7-0.1,1.5-0.1,2.3l-0.1,2.3h-0.6l0.4-5.3h0.9l0.9,2.5c0.2,0.6,0.4,1.2,0.5,1.8h0c0.1-0.5,0.3-1.1,0.6-1.8l0.9-2.5h0.9
			l0.3,5.3h-0.7L315.3,138.4z"/>
		<path class="st6" d="M320.6,138.8c0,1.4-1,2-1.9,2c-1,0-1.8-0.7-1.8-1.9c0-1.3,0.8-2,1.9-2C319.9,136.8,320.6,137.6,320.6,138.8z
			 M317.6,138.8c0,0.8,0.5,1.5,1.1,1.5c0.7,0,1.1-0.6,1.1-1.5c0-0.6-0.3-1.5-1.1-1.5S317.6,138.1,317.6,138.8z"/>
		<path class="st6" d="M324.6,139.7c0,0.4,0,0.7,0,1H324l0-0.6h0c-0.2,0.3-0.6,0.7-1.2,0.7c-0.6,0-1.3-0.3-1.3-1.7v-2.2h0.7v2.1
			c0,0.7,0.2,1.2,0.8,1.2c0.5,0,0.8-0.3,0.9-0.6c0-0.1,0.1-0.2,0.1-0.4v-2.3h0.7V139.7z"/>
		<path class="st6" d="M325.8,137.9c0-0.4,0-0.7,0-1h0.6l0,0.6h0c0.2-0.4,0.6-0.7,1.2-0.7c0.5,0,1.3,0.3,1.3,1.6v2.3h-0.7v-2.2
			c0-0.6-0.2-1.1-0.9-1.1c-0.5,0-0.8,0.3-0.9,0.7c0,0.1,0,0.2,0,0.3v2.3h-0.7V137.9z"/>
		<path class="st6" d="M330.9,135.8v1.1h1v0.5h-1v2c0,0.5,0.1,0.7,0.5,0.7c0.2,0,0.3,0,0.4,0l0,0.5c-0.1,0.1-0.3,0.1-0.6,0.1
			c-0.3,0-0.6-0.1-0.7-0.3c-0.2-0.2-0.3-0.5-0.3-1v-2.1h-0.6v-0.5h0.6V136L330.9,135.8z"/>
		<path class="st6" d="M333.4,135.9c0,0.2-0.2,0.4-0.4,0.4c-0.2,0-0.4-0.2-0.4-0.4c0-0.2,0.2-0.4,0.4-0.4
			C333.3,135.4,333.4,135.6,333.4,135.9z M332.6,140.7v-3.8h0.7v3.8H332.6z"/>
		<path class="st6" d="M334.5,137.9c0-0.4,0-0.7,0-1h0.6l0,0.6h0c0.2-0.4,0.6-0.7,1.2-0.7c0.5,0,1.3,0.3,1.3,1.6v2.3H337v-2.2
			c0-0.6-0.2-1.1-0.9-1.1c-0.5,0-0.8,0.3-0.9,0.7c0,0.1,0,0.2,0,0.3v2.3h-0.7V137.9z"/>
		<path class="st6" d="M342.1,136.9c0,0.3,0,0.6,0,1v2.2c0,0.9-0.2,1.4-0.5,1.7c-0.4,0.3-0.9,0.5-1.4,0.5c-0.5,0-1-0.1-1.3-0.3
			l0.2-0.5c0.2,0.2,0.6,0.3,1.1,0.3c0.7,0,1.2-0.4,1.2-1.3V140h0c-0.2,0.4-0.6,0.6-1.2,0.6c-0.9,0-1.6-0.8-1.6-1.8
			c0-1.3,0.8-2,1.7-2c0.7,0,1,0.3,1.2,0.7h0l0-0.6H342.1z M341.4,138.4c0-0.1,0-0.2,0-0.3c-0.1-0.4-0.5-0.7-1-0.7
			c-0.7,0-1.1,0.6-1.1,1.4c0,0.7,0.4,1.4,1.1,1.4c0.4,0,0.8-0.3,1-0.7c0-0.1,0.1-0.2,0.1-0.4V138.4z"/>
		<path class="st6" d="M344.8,138.1c0-0.5,0-0.9,0-1.2h0.6l0,0.6h0c0.3-0.5,0.7-0.7,1.3-0.7c0.9,0,1.6,0.8,1.6,1.9
			c0,1.4-0.8,2-1.7,2c-0.5,0-0.9-0.2-1.2-0.6h0v2.1h-0.7V138.1z M345.5,139.1c0,0.1,0,0.2,0,0.3c0.1,0.5,0.5,0.8,1,0.8
			c0.7,0,1.1-0.6,1.1-1.5c0-0.8-0.4-1.4-1.1-1.4c-0.5,0-0.9,0.3-1,0.8c0,0.1,0,0.2,0,0.3V139.1z"/>
		<path class="st6" d="M349.3,135.1h0.7v5.5h-0.7V135.1z"/>
		<path class="st6" d="M353.2,140.7l-0.1-0.5h0c-0.2,0.3-0.6,0.6-1.2,0.6c-0.8,0-1.2-0.5-1.2-1.1c0-0.9,0.8-1.4,2.3-1.4v-0.1
			c0-0.3-0.1-0.9-0.9-0.9c-0.4,0-0.7,0.1-1,0.3l-0.2-0.5c0.3-0.2,0.8-0.3,1.2-0.3c1.2,0,1.4,0.8,1.4,1.5v1.4c0,0.3,0,0.6,0.1,0.9
			H353.2z M353.1,138.8c-0.8,0-1.6,0.1-1.6,0.8c0,0.4,0.3,0.7,0.6,0.7c0.5,0,0.8-0.3,0.9-0.6c0-0.1,0-0.1,0-0.2V138.8z"/>
		<path class="st6" d="M355.7,135.8v1.1h1v0.5h-1v2c0,0.5,0.1,0.7,0.5,0.7c0.2,0,0.3,0,0.4,0l0,0.5c-0.1,0.1-0.3,0.1-0.6,0.1
			c-0.3,0-0.6-0.1-0.7-0.3c-0.2-0.2-0.3-0.5-0.3-1v-2.1h-0.6v-0.5h0.6V136L355.7,135.8z"/>
		<path class="st6" d="M357.8,138.9c0,0.9,0.6,1.3,1.3,1.3c0.5,0,0.8-0.1,1-0.2l0.1,0.5c-0.2,0.1-0.7,0.2-1.3,0.2
			c-1.2,0-1.9-0.8-1.9-1.9s0.7-2,1.8-2c1.2,0,1.6,1.1,1.6,1.8c0,0.1,0,0.2,0,0.3H357.8z M359.8,138.4c0-0.4-0.2-1.1-1-1.1
			c-0.7,0-1,0.6-1.1,1.1H359.8z"/>
	</g>
</g>
<g>
	<g>
		<path class="st6" d="M477.6,141l-1.7-5.3h0.7l0.8,2.6c0.2,0.7,0.4,1.3,0.6,2h0c0.1-0.6,0.4-1.3,0.6-2l0.9-2.6h0.7l-1.9,5.3H477.6z
			"/>
		<path class="st6" d="M481.5,136.1c0,0.2-0.2,0.4-0.4,0.4c-0.2,0-0.4-0.2-0.4-0.4c0-0.2,0.2-0.4,0.4-0.4
			C481.3,135.7,481.5,135.9,481.5,136.1z M480.7,141v-3.8h0.7v3.8H480.7z"/>
		<path class="st6" d="M482.5,141c0-0.3,0-0.6,0-1v-4.6h0.7v2.4h0c0.2-0.4,0.7-0.7,1.3-0.7c0.9,0,1.6,0.8,1.6,1.9c0,1.3-0.9,2-1.7,2
			c-0.5,0-1-0.2-1.3-0.7h0l0,0.6H482.5z M483.2,139.5c0,0.1,0,0.2,0,0.2c0.1,0.5,0.5,0.8,1,0.8c0.7,0,1.1-0.6,1.1-1.5
			c0-0.8-0.4-1.4-1.1-1.4c-0.5,0-0.9,0.3-1,0.8c0,0.1,0,0.2,0,0.3V139.5z"/>
		<path class="st6" d="M487,138.4c0-0.4,0-0.8,0-1.2h0.6l0,0.7h0c0.2-0.5,0.6-0.8,1-0.8c0.1,0,0.1,0,0.2,0v0.6c-0.1,0-0.1,0-0.2,0
			c-0.5,0-0.8,0.4-0.9,0.9c0,0.1,0,0.2,0,0.3v2H487V138.4z"/>
		<path class="st6" d="M491.6,141l-0.1-0.5h0c-0.2,0.3-0.6,0.6-1.2,0.6c-0.8,0-1.2-0.5-1.2-1.1c0-0.9,0.8-1.4,2.3-1.4v-0.1
			c0-0.3-0.1-0.9-0.9-0.9c-0.4,0-0.7,0.1-1,0.3l-0.2-0.5c0.3-0.2,0.8-0.3,1.2-0.3c1.2,0,1.4,0.8,1.4,1.5v1.4c0,0.3,0,0.6,0.1,0.9
			H491.6z M491.5,139c-0.8,0-1.6,0.1-1.6,0.8c0,0.4,0.3,0.7,0.6,0.7c0.5,0,0.8-0.3,0.9-0.6c0-0.1,0-0.1,0-0.2V139z"/>
		<path class="st6" d="M494,136.1v1.1h1v0.5h-1v2c0,0.5,0.1,0.7,0.5,0.7c0.2,0,0.3,0,0.4,0l0,0.5c-0.1,0.1-0.3,0.1-0.6,0.1
			c-0.3,0-0.6-0.1-0.7-0.3c-0.2-0.2-0.3-0.5-0.3-1v-2.1h-0.6v-0.5h0.6v-0.9L494,136.1z"/>
		<path class="st6" d="M496.6,136.1c0,0.2-0.2,0.4-0.4,0.4c-0.2,0-0.4-0.2-0.4-0.4c0-0.2,0.2-0.4,0.4-0.4
			C496.4,135.7,496.6,135.9,496.6,136.1z M495.8,141v-3.8h0.7v3.8H495.8z"/>
		<path class="st6" d="M501.1,139c0,1.4-1,2-1.9,2c-1,0-1.8-0.7-1.8-1.9c0-1.3,0.8-2,1.9-2C500.3,137.1,501.1,137.9,501.1,139z
			 M498.1,139.1c0,0.8,0.5,1.5,1.1,1.5c0.7,0,1.1-0.6,1.1-1.5c0-0.6-0.3-1.5-1.1-1.5S498.1,138.4,498.1,139.1z"/>
		<path class="st6" d="M501.9,138.2c0-0.4,0-0.7,0-1h0.6l0,0.6h0c0.2-0.4,0.6-0.7,1.2-0.7c0.5,0,1.3,0.3,1.3,1.6v2.3h-0.7v-2.2
			c0-0.6-0.2-1.1-0.9-1.1c-0.5,0-0.8,0.3-0.9,0.7c0,0.1,0,0.2,0,0.3v2.3h-0.7V138.2z"/>
		<path class="st6" d="M479.7,144.4v4.6c0,0.3,0,0.7,0,1h-0.6l0-0.7h0c-0.2,0.4-0.7,0.7-1.3,0.7c-0.9,0-1.6-0.8-1.6-1.9
			c0-1.3,0.8-2,1.7-2c0.6,0,1,0.3,1.1,0.6h0v-2.3H479.7z M479,147.7c0-0.1,0-0.2,0-0.3c-0.1-0.4-0.5-0.8-1-0.8
			c-0.7,0-1.1,0.6-1.1,1.5c0,0.8,0.4,1.4,1.1,1.4c0.5,0,0.9-0.3,1-0.8c0-0.1,0-0.2,0-0.3V147.7z"/>
		<path class="st6" d="M483,150l-0.1-0.5h0c-0.2,0.3-0.6,0.6-1.2,0.6c-0.8,0-1.2-0.5-1.2-1.1c0-0.9,0.8-1.4,2.3-1.4v-0.1
			c0-0.3-0.1-0.9-0.9-0.9c-0.4,0-0.7,0.1-1,0.3l-0.2-0.5c0.3-0.2,0.8-0.3,1.2-0.3c1.2,0,1.4,0.8,1.4,1.5v1.4c0,0.3,0,0.6,0.1,0.9
			H483z M482.9,148c-0.8,0-1.6,0.1-1.6,0.8c0,0.4,0.3,0.7,0.6,0.7c0.5,0,0.8-0.3,0.9-0.6c0-0.1,0-0.1,0-0.2V148z"/>
		<path class="st6" d="M484.6,147.2c0-0.4,0-0.7,0-1h0.6l0,0.6h0c0.2-0.4,0.6-0.7,1.2-0.7c0.5,0,0.9,0.3,1.1,0.8h0
			c0.1-0.2,0.3-0.4,0.4-0.5c0.2-0.2,0.5-0.3,0.8-0.3c0.5,0,1.2,0.3,1.2,1.6v2.2h-0.7v-2.1c0-0.7-0.3-1.2-0.8-1.2
			c-0.4,0-0.7,0.3-0.8,0.6c0,0.1-0.1,0.2-0.1,0.3v2.3H487v-2.3c0-0.6-0.3-1-0.8-1c-0.4,0-0.7,0.3-0.9,0.7c0,0.1-0.1,0.2-0.1,0.3v2.3
			h-0.7V147.2z"/>
		<path class="st6" d="M491.1,147.4c0-0.5,0-0.9,0-1.2h0.6l0,0.6h0c0.3-0.5,0.7-0.7,1.3-0.7c0.9,0,1.6,0.8,1.6,1.9
			c0,1.4-0.8,2-1.7,2c-0.5,0-0.9-0.2-1.2-0.6h0v2.1h-0.7V147.4z M491.8,148.4c0,0.1,0,0.2,0,0.3c0.1,0.5,0.5,0.8,1,0.8
			c0.7,0,1.1-0.6,1.1-1.5c0-0.8-0.4-1.4-1.1-1.4c-0.5,0-0.9,0.3-1,0.8c0,0.1,0,0.2,0,0.3V148.4z"/>
		<path class="st6" d="M496,148.2c0,0.9,0.6,1.3,1.3,1.3c0.5,0,0.8-0.1,1-0.2l0.1,0.5c-0.2,0.1-0.7,0.2-1.3,0.2
			c-1.2,0-1.9-0.8-1.9-1.9s0.7-2,1.8-2c1.2,0,1.6,1.1,1.6,1.8c0,0.1,0,0.2,0,0.3H496z M498,147.7c0-0.4-0.2-1.1-1-1.1
			c-0.7,0-1,0.6-1.1,1.1H498z"/>
		<path class="st6" d="M499.5,147.4c0-0.4,0-0.8,0-1.2h0.6l0,0.7h0c0.2-0.5,0.6-0.8,1-0.8c0.1,0,0.1,0,0.2,0v0.6c-0.1,0-0.1,0-0.2,0
			c-0.5,0-0.8,0.4-0.9,0.9c0,0.1,0,0.2,0,0.3v2h-0.7V147.4z"/>
	</g>
</g>
</svg>
