<?xml version="1.0" encoding="UTF-8" standalone="no"?>
<!-- Generator: Adobe Illustrator 22.1.0, SVG Export Plug-In . SVG Version: 6.00 Build 0)  -->

<svg
   xmlns:dc="http://purl.org/dc/elements/1.1/"
   xmlns:cc="http://creativecommons.org/ns#"
   xmlns:rdf="http://www.w3.org/1999/02/22-rdf-syntax-ns#"
   xmlns:svg="http://www.w3.org/2000/svg"
   xmlns="http://www.w3.org/2000/svg"
   xmlns:sodipodi="http://sodipodi.sourceforge.net/DTD/sodipodi-0.dtd"
   xmlns:inkscape="http://www.inkscape.org/namespaces/inkscape"
   version="1.1"
   id="Layer_1"
   x="0px"
   y="0px"
   viewBox="0 106 510 212"
   xml:space="preserve"
   sodipodi:docname="wiring.svg"
   width="770"
   height="320"
   inkscape:version="0.92.3 (unknown)"><metadata
   id="metadata15181"><rdf:RDF><cc:Work
       rdf:about=""><dc:format>image/svg+xml</dc:format><dc:type
         rdf:resource="http://purl.org/dc/dcmitype/StillImage" /><dc:title></dc:title></cc:Work></rdf:RDF></metadata><defs
   id="defs15179" /><sodipodi:namedview
   pagecolor="#ffffff"
   bordercolor="#666666"
   borderopacity="1"
   objecttolerance="10"
   gridtolerance="10"
   guidetolerance="10"
   inkscape:pageopacity="0"
   inkscape:pageshadow="2"
   inkscape:window-width="2560"
   inkscape:window-height="1384"
   id="namedview15177"
   showgrid="false"
   inkscape:zoom="0.53312425"
   inkscape:cx="255.10001"
   inkscape:cy="106.3"
   inkscape:window-x="0"
   inkscape:window-y="0"
   inkscape:window-maximized="1"
   inkscape:current-layer="Layer_1" />
<style
   type="text/css"
   id="style14960">
	.st0{fill:#939598;stroke:#231F20;stroke-width:0.5;stroke-linecap:round;stroke-linejoin:round;stroke-miterlimit:10;}
	.st1{fill:#D1D3D4;stroke:#231F20;stroke-width:0.5648;stroke-linecap:round;stroke-linejoin:round;stroke-miterlimit:10;}
	.st2{fill:#D1D3D4;stroke:#231F20;stroke-width:0.5;stroke-linecap:round;stroke-linejoin:round;stroke-miterlimit:10;}
	.st3{fill:none;stroke:#231F20;stroke-width:0.5;stroke-linecap:round;stroke-linejoin:round;stroke-miterlimit:10;}
	.st4{fill:#58595B;stroke:#231F20;stroke-width:0.4818;stroke-linecap:round;stroke-linejoin:round;stroke-miterlimit:10;}
	.st5{fill:#231F20;}
	.st6{fill:#58595B;stroke:#231F20;stroke-width:0.4773;stroke-linecap:round;stroke-linejoin:round;stroke-miterlimit:10;}
	.st7{fill:#58595B;stroke:#231F20;stroke-width:0.4144;stroke-linecap:round;stroke-linejoin:round;stroke-miterlimit:10;}
	.st8{fill:#D1D3D4;stroke:#231F20;stroke-width:0.7821;stroke-linecap:round;stroke-linejoin:round;stroke-miterlimit:10;}
	.st9{fill:#EC2227;stroke:#231F20;stroke-width:0.1799;stroke-linecap:round;stroke-linejoin:round;stroke-miterlimit:10;}
	.st10{fill:#231F20;stroke:#231F20;stroke-width:0.1799;stroke-linecap:round;stroke-linejoin:round;stroke-miterlimit:10;}
	.st11{fill:#4257A6;stroke:#231F20;stroke-width:0.1799;stroke-linecap:round;stroke-linejoin:round;stroke-miterlimit:10;}
	.st12{fill:#EA9123;stroke:#231F20;stroke-width:0.1799;stroke-linecap:round;stroke-linejoin:round;stroke-miterlimit:10;}
	.st13{fill:#F6EB0C;stroke:#231F20;stroke-width:0.1799;stroke-linecap:round;stroke-linejoin:round;stroke-miterlimit:10;}
	.st14{fill:#FFFFFF;stroke:#231F20;stroke-width:0.1799;stroke-linecap:round;stroke-linejoin:round;stroke-miterlimit:10;}
</style>
<path
   class="st0"
   d="m 148.1,250.19999 c -20,-20 -19.9,-52.4 0.1,-72.4 20,-20 52.4,-20.1 72.4,-0.1 20,20 19.9,52.4 -0.1,72.4 -20,20 -52.5,20.1 -72.4,0.1 z"
   id="path14962"
   inkscape:connector-curvature="0"
   style="fill:#939598;stroke:#231f20;stroke-width:0.5;stroke-linecap:round;stroke-linejoin:round;stroke-miterlimit:10" />
<path
   class="st1"
   d="m 150,248.29999 c -18.9,-18.9 -18.9,-49.6 0.1,-68.6 19,-19 49.6,-19 68.6,-0.1 18.9,18.9 18.9,49.6 -0.1,68.6 -19,19 -49.7,19 -68.6,0.1 z"
   id="path14964"
   inkscape:connector-curvature="0"
   style="fill:#d1d3d4;stroke:#231f20;stroke-width:0.56480002;stroke-linecap:round;stroke-linejoin:round;stroke-miterlimit:10" />
<path
   class="st2"
   d="m 154,244.39999 c -16.7,-16.7 -16.7,-43.9 0.1,-60.7 16.8,-16.8 43.9,-16.8 60.7,-0.1 16.7,16.7 16.7,43.9 -0.1,60.7 -16.8,16.8 -44,16.8 -60.7,0.1 z"
   id="path14966"
   inkscape:connector-curvature="0"
   style="fill:#d1d3d4;stroke:#231f20;stroke-width:0.5;stroke-linecap:round;stroke-linejoin:round;stroke-miterlimit:10" />
<path
   class="st3"
   d="m 157.7,240.59999 c -14.7,-14.7 -14.6,-38.4 0,-53.1 14.7,-14.7 38.5,-14.7 53.1,0 14.7,14.7 14.6,38.4 0,53.1 -14.6,14.6 -38.4,14.6 -53.1,0 z"
   id="path14968"
   inkscape:connector-curvature="0"
   style="fill:none;stroke:#231f20;stroke-width:0.5;stroke-linecap:round;stroke-linejoin:round;stroke-miterlimit:10" />
<path
   class="st4"
   d="m 171.6,201.29999 c 1.5,-1.5 4,-1.5 5.5,0 1.5,1.5 1.5,4 0,5.5 -1.5,1.5 -4,1.5 -5.5,0 -1.5,-1.6 -1.5,-4 0,-5.5 z"
   id="path14970"
   inkscape:connector-curvature="0"
   style="fill:#58595b;stroke:#231f20;stroke-width:0.48179999;stroke-linecap:round;stroke-linejoin:round;stroke-miterlimit:10" />
<polygon
   class="st5"
   points="172.7,98.2 172.1,96 173.8,94.4 176,94.9 176.6,97.2 174.9,98.8 "
   id="polygon14972"
   style="fill:#231f20"
   transform="translate(0,107.39999)" />
<path
   class="st4"
   d="m 191.6,221.19999 c 1.5,-1.5 4,-1.5 5.5,0 1.5,1.5 1.5,4 0,5.5 -1.5,1.5 -4,1.5 -5.5,0 -1.5,-1.5 -1.6,-4 0,-5.5 z"
   id="path14974"
   inkscape:connector-curvature="0"
   style="fill:#58595b;stroke:#231f20;stroke-width:0.48179999;stroke-linecap:round;stroke-linejoin:round;stroke-miterlimit:10" />
<polygon
   class="st5"
   points="192.7,118.2 192.1,116 193.7,114.3 196,114.8 196.5,117.1 194.9,118.8 "
   id="polygon14976"
   style="fill:#231f20"
   transform="translate(0,107.39999)" />
<path
   class="st6"
   d="m 171.6,226.69999 c -1.5,-1.5 -1.5,-3.9 0,-5.4 1.5,-1.5 3.9,-1.5 5.4,0 1.5,1.5 1.5,3.9 0,5.4 -1.5,1.5 -3.9,1.5 -5.4,0 z"
   id="path14978"
   inkscape:connector-curvature="0"
   style="fill:#58595b;stroke:#231f20;stroke-width:0.47729999;stroke-linecap:round;stroke-linejoin:round;stroke-miterlimit:10" />
<polygon
   class="st5"
   points="176,118.2 173.8,118.8 172.1,117.1 172.6,114.9 174.9,114.3 176.6,116 "
   id="polygon14980"
   style="fill:#231f20"
   transform="translate(0,107.39999)" />
<path
   class="st6"
   d="m 191.6,206.69999 c -1.5,-1.5 -1.5,-3.9 0,-5.4 1.5,-1.5 3.9,-1.5 5.4,0 1.5,1.5 1.5,3.9 0,5.4 -1.5,1.5 -3.9,1.5 -5.4,0 z"
   id="path14982"
   inkscape:connector-curvature="0"
   style="fill:#58595b;stroke:#231f20;stroke-width:0.47729999;stroke-linecap:round;stroke-linejoin:round;stroke-miterlimit:10" />
<polygon
   class="st5"
   points="195.9,98.2 193.8,98.8 192.1,97.2 192.6,94.9 194.9,94.4 196.6,96 "
   id="polygon14984"
   style="fill:#231f20"
   transform="translate(0,107.39999)" />
<path
   class="st5"
   d="m 207.5,211.09999 c 1.6,-1.6 4.1,-1.6 5.7,0 1.6,1.6 1.6,4.1 0,5.7 -1.6,1.6 -4.1,1.6 -5.7,0 -1.6,-1.6 -1.6,-4.1 0,-5.7 z"
   id="path14986"
   inkscape:connector-curvature="0"
   style="fill:#231f20" />
<path
   class="st7"
   d="m 153.8,206.59999 c 1.3,-1.3 3.4,-1.3 4.7,0 1.3,1.3 1.3,3.4 0,4.7 -1.3,1.3 -3.4,1.3 -4.7,0 -1.2,-1.3 -1.2,-3.4 0,-4.7 z"
   id="path14988"
   inkscape:connector-curvature="0"
   style="fill:#58595b;stroke:#231f20;stroke-width:0.41440001;stroke-linecap:round;stroke-linejoin:round;stroke-miterlimit:10" />
<polygon
   class="st5"
   points="154.8,102.9 154.3,101.1 155.7,99.6 157.7,100.1 158.2,102.1 156.7,103.5 "
   id="polygon14990"
   style="fill:#231f20"
   transform="translate(0,107.39999)" />
<path
   class="st7"
   d="m 153.8,217.99999 c 1.3,-1.3 3.4,-1.3 4.7,0 1.3,1.3 1.3,3.4 0,4.7 -1.3,1.3 -3.4,1.3 -4.7,0 -1.2,-1.3 -1.2,-3.4 0,-4.7 z"
   id="path14992"
   inkscape:connector-curvature="0"
   style="fill:#58595b;stroke:#231f20;stroke-width:0.41440001;stroke-linecap:round;stroke-linejoin:round;stroke-miterlimit:10" />
<polygon
   class="st5"
   points="154.8,114.3 154.3,112.4 155.7,111 157.7,111.5 158.1,113.4 156.7,114.9 "
   id="polygon14994"
   style="fill:#231f20"
   transform="translate(0,107.39999)" />
<g
   id="g15146"
   transform="translate(0,107.39999)">
	<g
   id="g15144">
		<path
   class="st5"
   d="m 258.7,80.1 v 0 l -0.9,0.5 -0.1,-0.5 1.1,-0.6 h 0.6 v 5.1 h -0.7 z"
   id="path14996"
   inkscape:connector-curvature="0"
   style="fill:#231f20" />
		<path
   class="st5"
   d="m 274.5,84.5 -1.3,-5.3 h 0.7 l 0.6,2.7 c 0.2,0.7 0.3,1.3 0.4,1.8 v 0 c 0.1,-0.5 0.2,-1.1 0.4,-1.8 l 0.7,-2.7 h 0.7 l 0.6,2.7 c 0.1,0.6 0.3,1.2 0.4,1.8 v 0 c 0.1,-0.6 0.3,-1.2 0.4,-1.8 l 0.7,-2.7 h 0.7 l -1.5,5.3 h -0.7 l -0.7,-2.7 c -0.2,-0.7 -0.3,-1.2 -0.3,-1.7 v 0 c -0.1,0.5 -0.2,1 -0.4,1.7 l -0.8,2.7 z"
   id="path14998"
   inkscape:connector-curvature="0"
   style="fill:#231f20" />
		<path
   class="st5"
   d="m 280.2,79 h 0.7 v 2.4 0 c 0.1,-0.2 0.3,-0.4 0.5,-0.5 0.2,-0.1 0.4,-0.2 0.7,-0.2 0.5,0 1.3,0.3 1.3,1.6 v 2.2 h -0.7 v -2.2 c 0,-0.6 -0.2,-1.1 -0.9,-1.1 -0.4,0 -0.8,0.3 -0.9,0.7 0,0.1 0,0.2 0,0.3 v 2.3 h -0.7 z"
   id="path15000"
   inkscape:connector-curvature="0"
   style="fill:#231f20" />
		<path
   class="st5"
   d="m 285.3,79.7 c 0,0.2 -0.2,0.4 -0.4,0.4 -0.2,0 -0.4,-0.2 -0.4,-0.4 0,-0.2 0.2,-0.4 0.4,-0.4 0.3,0 0.4,0.1 0.4,0.4 z m -0.7,4.8 v -3.8 h 0.7 v 3.8 z"
   id="path15002"
   inkscape:connector-curvature="0"
   style="fill:#231f20" />
		<path
   class="st5"
   d="m 287.2,79.7 v 1.1 h 1 v 0.5 h -1 v 2 c 0,0.5 0.1,0.7 0.5,0.7 0.2,0 0.3,0 0.4,0 v 0.5 c -0.1,0.1 -0.3,0.1 -0.6,0.1 -0.3,0 -0.6,-0.1 -0.7,-0.3 -0.2,-0.2 -0.3,-0.5 -0.3,-1 V 81.2 H 286 v -0.5 h 0.6 v -0.9 z"
   id="path15004"
   inkscape:connector-curvature="0"
   style="fill:#231f20" />
		<path
   class="st5"
   d="m 289.3,82.8 c 0,0.9 0.6,1.3 1.3,1.3 0.5,0 0.8,-0.1 1,-0.2 l 0.1,0.5 c -0.2,0.1 -0.7,0.2 -1.3,0.2 -1.2,0 -1.9,-0.8 -1.9,-1.9 0,-1.1 0.7,-2 1.8,-2 1.2,0 1.6,1.1 1.6,1.8 0,0.1 0,0.2 0,0.3 z m 2,-0.5 c 0,-0.4 -0.2,-1.1 -1,-1.1 -0.7,0 -1,0.6 -1.1,1.1 z"
   id="path15006"
   inkscape:connector-curvature="0"
   style="fill:#231f20" />
		<path
   class="st5"
   d="m 349,79.8 h -1.6 v -0.6 h 3.9 v 0.6 h -1.6 v 4.7 H 349 Z"
   id="path15008"
   inkscape:connector-curvature="0"
   style="fill:#231f20" />
		<path
   class="st5"
   d="m 354.9,84.5 -0.7,-1.2 c -0.3,-0.4 -0.4,-0.7 -0.6,-1 v 0 c -0.1,0.3 -0.3,0.6 -0.6,1 l -0.6,1.2 h -0.8 l 1.6,-2.7 -1.5,-2.6 h 0.8 l 0.7,1.2 c 0.2,0.3 0.3,0.6 0.5,0.9 v 0 c 0.1,-0.3 0.3,-0.6 0.5,-0.9 l 0.7,-1.2 h 0.8 l -1.6,2.6 1.6,2.7 z"
   id="path15010"
   inkscape:connector-curvature="0"
   style="fill:#231f20" />
		<path
   class="st5"
   d="m 356.5,79.3 c 0.4,-0.1 0.9,-0.1 1.4,-0.1 1,0 1.7,0.2 2.1,0.7 0.5,0.4 0.7,1 0.7,1.9 0,0.9 -0.3,1.6 -0.8,2 -0.5,0.5 -1.3,0.8 -2.3,0.8 -0.5,0 -0.9,0 -1.2,-0.1 v -5.2 z m 0.7,4.7 c 0.2,0 0.4,0 0.7,0 1.5,0 2.2,-0.8 2.2,-2.2 0,-1.2 -0.7,-2 -2.1,-2 -0.4,0 -0.6,0 -0.8,0.1 z"
   id="path15012"
   inkscape:connector-curvature="0"
   style="fill:#231f20" />
		<path
   class="st5"
   d="m 257.2,94.5 v -0.4 l 0.5,-0.5 c 1.3,-1.2 1.9,-1.9 1.9,-2.7 0,-0.5 -0.2,-1 -1,-1 -0.5,0 -0.8,0.2 -1.1,0.4 l -0.2,-0.5 c 0.4,-0.3 0.9,-0.5 1.4,-0.5 1.1,0 1.6,0.7 1.6,1.5 0,0.9 -0.7,1.7 -1.8,2.7 l -0.4,0.4 v 0 h 2.3 v 0.6 z"
   id="path15014"
   inkscape:connector-curvature="0"
   style="fill:#231f20" />
		<path
   class="st5"
   d="m 274.9,94.5 v -2.2 l -1.7,-3 h 0.8 l 0.7,1.5 c 0.2,0.4 0.4,0.7 0.5,1.1 v 0 c 0.1,-0.3 0.3,-0.7 0.5,-1.1 l 0.8,-1.5 h 0.8 l -1.8,3 v 2.2 z"
   id="path15016"
   inkscape:connector-curvature="0"
   style="fill:#231f20" />
		<path
   class="st5"
   d="m 277.7,92.8 c 0,0.9 0.6,1.3 1.3,1.3 0.5,0 0.8,-0.1 1,-0.2 l 0.1,0.5 c -0.2,0.1 -0.7,0.2 -1.3,0.2 -1.2,0 -1.9,-0.8 -1.9,-1.9 0,-1.1 0.7,-2 1.8,-2 1.2,0 1.6,1.1 1.6,1.8 0,0.1 0,0.2 0,0.3 z m 2,-0.5 c 0,-0.4 -0.2,-1.1 -1,-1.1 -0.7,0 -1,0.6 -1.1,1.1 z"
   id="path15018"
   inkscape:connector-curvature="0"
   style="fill:#231f20" />
		<path
   class="st5"
   d="m 281.2,89 h 0.7 v 5.5 h -0.7 z"
   id="path15020"
   inkscape:connector-curvature="0"
   style="fill:#231f20" />
		<path
   class="st5"
   d="m 283.1,89 h 0.7 v 5.5 h -0.7 z"
   id="path15022"
   inkscape:connector-curvature="0"
   style="fill:#231f20" />
		<path
   class="st5"
   d="m 288.3,92.6 c 0,1.4 -1,2 -1.9,2 -1,0 -1.8,-0.7 -1.8,-1.9 0,-1.3 0.8,-2 1.9,-2 1.1,0 1.8,0.8 1.8,1.9 z m -3,0 c 0,0.8 0.5,1.5 1.1,1.5 0.7,0 1.1,-0.6 1.1,-1.5 0,-0.6 -0.3,-1.5 -1.1,-1.5 -0.8,0 -1.1,0.8 -1.1,1.5 z"
   id="path15024"
   inkscape:connector-curvature="0"
   style="fill:#231f20" />
		<path
   class="st5"
   d="m 289.4,90.7 0.5,1.9 c 0.1,0.4 0.2,0.8 0.3,1.2 v 0 c 0.1,-0.4 0.2,-0.8 0.3,-1.2 l 0.6,-1.9 h 0.6 l 0.6,1.9 c 0.1,0.5 0.2,0.8 0.3,1.2 v 0 c 0.1,-0.4 0.2,-0.8 0.3,-1.2 l 0.5,-1.9 h 0.7 l -1.2,3.8 h -0.6 l -0.6,-1.8 c -0.1,-0.4 -0.2,-0.8 -0.3,-1.2 v 0 c -0.1,0.5 -0.2,0.8 -0.3,1.2 l -0.6,1.8 h -0.6 l -1.1,-3.8 z"
   id="path15026"
   inkscape:connector-curvature="0"
   style="fill:#231f20" />
		<path
   class="st5"
   d="m 348,89.3 c 0.3,-0.1 0.8,-0.1 1.3,-0.1 0.7,0 1.2,0.1 1.5,0.4 0.3,0.2 0.4,0.6 0.4,1 0,0.7 -0.4,1.2 -1,1.3 v 0 c 0.4,0.1 0.6,0.5 0.8,1.1 0.2,0.7 0.3,1.2 0.4,1.4 h -0.7 c -0.1,-0.1 -0.2,-0.6 -0.4,-1.3 -0.2,-0.7 -0.4,-1 -1.1,-1 h -0.6 v 2.3 H 348 Z m 0.7,2.4 h 0.7 c 0.7,0 1.2,-0.4 1.2,-1 0,-0.7 -0.5,-1 -1.2,-1 -0.3,0 -0.6,0 -0.7,0.1 z"
   id="path15028"
   inkscape:connector-curvature="0"
   style="fill:#231f20" />
		<path
   class="st5"
   d="m 355.1,94.5 -0.7,-1.2 c -0.3,-0.4 -0.4,-0.7 -0.6,-1 v 0 c -0.1,0.3 -0.3,0.6 -0.6,1 l -0.6,1.2 h -0.8 l 1.6,-2.7 -1.5,-2.6 h 0.8 l 0.7,1.2 c 0.2,0.3 0.3,0.6 0.5,0.9 v 0 c 0.1,-0.3 0.3,-0.6 0.5,-0.9 l 0.7,-1.2 h 0.8 l -1.6,2.6 1.6,2.7 z"
   id="path15030"
   inkscape:connector-curvature="0"
   style="fill:#231f20" />
		<path
   class="st5"
   d="m 356.7,89.3 c 0.4,-0.1 0.9,-0.1 1.4,-0.1 1,0 1.7,0.2 2.1,0.7 0.5,0.4 0.7,1 0.7,1.9 0,0.9 -0.3,1.6 -0.8,2 -0.5,0.5 -1.3,0.8 -2.3,0.8 -0.5,0 -0.9,0 -1.2,-0.1 v -5.2 z m 0.7,4.7 c 0.2,0 0.4,0 0.7,0 1.5,0 2.2,-0.8 2.2,-2.2 0,-1.2 -0.7,-2 -2.1,-2 -0.4,0 -0.6,0 -0.8,0.1 z"
   id="path15032"
   inkscape:connector-curvature="0"
   style="fill:#231f20" />
		<path
   class="st5"
   d="m 257.4,103.7 c 0.2,0.1 0.6,0.3 1.1,0.3 0.9,0 1.2,-0.6 1.1,-1 0,-0.7 -0.6,-1 -1.3,-1 h -0.4 v -0.5 h 0.4 c 0.5,0 1.1,-0.3 1.1,-0.9 0,-0.4 -0.3,-0.8 -0.9,-0.8 -0.4,0 -0.8,0.2 -1,0.3 l -0.2,-0.5 c 0.3,-0.2 0.8,-0.4 1.3,-0.4 1,0 1.5,0.6 1.5,1.2 0,0.5 -0.3,1 -0.9,1.2 v 0 c 0.6,0.1 1.1,0.6 1.1,1.3 0,0.8 -0.6,1.5 -1.9,1.5 -0.6,0 -1.1,-0.2 -1.3,-0.3 z"
   id="path15034"
   inkscape:connector-curvature="0"
   style="fill:#231f20" />
		<path
   class="st5"
   d="m 278.2,101.8 c 0,1.8 -1.1,2.8 -2.4,2.8 -1.4,0 -2.4,-1.1 -2.4,-2.7 0,-1.7 1,-2.8 2.4,-2.8 1.5,0.1 2.4,1.2 2.4,2.7 z m -4.1,0.1 c 0,1.1 0.6,2.1 1.7,2.1 1.1,0 1.7,-1 1.7,-2.2 0,-1 -0.5,-2.1 -1.7,-2.1 -1.1,0 -1.7,1.1 -1.7,2.2 z"
   id="path15036"
   inkscape:connector-curvature="0"
   style="fill:#231f20" />
		<path
   class="st5"
   d="m 279,101.9 c 0,-0.4 0,-0.8 0,-1.2 h 0.6 v 0.7 0 c 0.2,-0.5 0.6,-0.8 1,-0.8 0.1,0 0.1,0 0.2,0 v 0.6 c -0.1,0 -0.1,0 -0.2,0 -0.5,0 -0.8,0.4 -0.9,0.9 0,0.1 0,0.2 0,0.3 v 2 H 279 Z"
   id="path15038"
   inkscape:connector-curvature="0"
   style="fill:#231f20" />
		<path
   class="st5"
   d="m 283.7,104.5 -0.1,-0.5 v 0 c -0.2,0.3 -0.6,0.6 -1.2,0.6 -0.8,0 -1.2,-0.5 -1.2,-1.1 0,-0.9 0.8,-1.4 2.3,-1.4 V 102 c 0,-0.3 -0.1,-0.9 -0.9,-0.9 -0.4,0 -0.7,0.1 -1,0.3 l -0.2,-0.5 c 0.3,-0.2 0.8,-0.3 1.2,-0.3 1.2,0 1.4,0.8 1.4,1.5 v 1.4 c 0,0.3 0,0.6 0.1,0.9 h -0.4 z m -0.1,-1.9 c -0.8,0 -1.6,0.1 -1.6,0.8 0,0.4 0.3,0.7 0.6,0.7 0.5,0 0.8,-0.3 0.9,-0.6 0,-0.1 0,-0.1 0,-0.2 v -0.7 z"
   id="path15040"
   inkscape:connector-curvature="0"
   style="fill:#231f20" />
		<path
   class="st5"
   d="m 285.3,101.8 c 0,-0.4 0,-0.7 0,-1 h 0.6 v 0.6 0 c 0.2,-0.4 0.6,-0.7 1.2,-0.7 0.5,0 1.3,0.3 1.3,1.6 v 2.3 h -0.7 v -2.2 c 0,-0.6 -0.2,-1.1 -0.9,-1.1 -0.5,0 -0.8,0.3 -0.9,0.7 0,0.1 0,0.2 0,0.3 v 2.3 h -0.7 v -2.8 z"
   id="path15042"
   inkscape:connector-curvature="0"
   style="fill:#231f20" />
		<path
   class="st5"
   d="m 292.9,100.7 c 0,0.3 0,0.6 0,1 v 2.2 c 0,0.9 -0.2,1.4 -0.5,1.7 -0.4,0.3 -0.9,0.5 -1.4,0.5 -0.5,0 -1,-0.1 -1.3,-0.3 l 0.2,-0.5 c 0.2,0.2 0.6,0.3 1.1,0.3 0.7,0 1.2,-0.4 1.2,-1.3 v -0.4 0 c -0.2,0.4 -0.6,0.6 -1.2,0.6 -0.9,0 -1.6,-0.8 -1.6,-1.8 0,-1.3 0.8,-2 1.7,-2 0.7,0 1,0.3 1.2,0.7 v 0 -0.6 h 0.6 z m -0.7,1.5 c 0,-0.1 0,-0.2 0,-0.3 -0.1,-0.4 -0.5,-0.7 -1,-0.7 -0.7,0 -1.1,0.6 -1.1,1.4 0,0.7 0.4,1.4 1.1,1.4 0.4,0 0.8,-0.3 1,-0.7 0,-0.1 0.1,-0.2 0.1,-0.4 v -0.7 z"
   id="path15044"
   inkscape:connector-curvature="0"
   style="fill:#231f20" />
		<path
   class="st5"
   d="m 294.4,102.8 c 0,0.9 0.6,1.3 1.3,1.3 0.5,0 0.8,-0.1 1,-0.2 l 0.1,0.5 c -0.2,0.1 -0.7,0.2 -1.3,0.2 -1.2,0 -1.9,-0.8 -1.9,-1.9 0,-1.1 0.7,-2 1.8,-2 1.2,0 1.6,1.1 1.6,1.8 0,0.1 0,0.2 0,0.3 z m 2,-0.5 c 0,-0.4 -0.2,-1.1 -1,-1.1 -0.7,0 -1,0.6 -1.1,1.1 z"
   id="path15046"
   inkscape:connector-curvature="0"
   style="fill:#231f20" />
		<path
   class="st5"
   d="m 313.6,99.3 h 0.7 v 4.7 h 2.2 v 0.6 h -2.9 z"
   id="path15048"
   inkscape:connector-curvature="0"
   style="fill:#231f20" />
		<path
   class="st5"
   d="m 319.3,104.5 -0.1,-0.5 v 0 c -0.2,0.3 -0.6,0.6 -1.2,0.6 -0.8,0 -1.2,-0.5 -1.2,-1.1 0,-0.9 0.8,-1.4 2.3,-1.4 V 102 c 0,-0.3 -0.1,-0.9 -0.9,-0.9 -0.4,0 -0.7,0.1 -1,0.3 l -0.2,-0.5 c 0.3,-0.2 0.8,-0.3 1.2,-0.3 1.2,0 1.4,0.8 1.4,1.5 v 1.4 c 0,0.3 0,0.6 0.1,0.9 h -0.4 z m -0.1,-1.9 c -0.8,0 -1.6,0.1 -1.6,0.8 0,0.4 0.3,0.7 0.6,0.7 0.5,0 0.8,-0.3 0.9,-0.6 0,-0.1 0,-0.1 0,-0.2 v -0.7 z"
   id="path15050"
   inkscape:connector-curvature="0"
   style="fill:#231f20" />
		<path
   class="st5"
   d="m 320.9,103.8 c 0.2,0.1 0.6,0.3 0.9,0.3 0.5,0 0.7,-0.2 0.7,-0.6 0,-0.3 -0.2,-0.5 -0.7,-0.7 -0.7,-0.2 -1,-0.6 -1,-1.1 0,-0.6 0.5,-1.1 1.3,-1.1 0.4,0 0.7,0.1 0.9,0.2 l -0.2,0.5 c -0.1,-0.1 -0.4,-0.2 -0.8,-0.2 -0.4,0 -0.6,0.2 -0.6,0.5 0,0.3 0.2,0.5 0.7,0.6 0.7,0.2 1,0.6 1,1.1 0,0.7 -0.5,1.1 -1.4,1.1 -0.4,0 -0.8,-0.1 -1.1,-0.3 z"
   id="path15052"
   inkscape:connector-curvature="0"
   style="fill:#231f20" />
		<path
   class="st5"
   d="m 324.5,102.8 c 0,0.9 0.6,1.3 1.3,1.3 0.5,0 0.8,-0.1 1,-0.2 l 0.1,0.5 c -0.2,0.1 -0.7,0.2 -1.3,0.2 -1.2,0 -1.9,-0.8 -1.9,-1.9 0,-1.1 0.7,-2 1.8,-2 1.2,0 1.6,1.1 1.6,1.8 0,0.1 0,0.2 0,0.3 z m 2,-0.5 c 0,-0.4 -0.2,-1.1 -1,-1.1 -0.7,0 -1,0.6 -1.1,1.1 z"
   id="path15054"
   inkscape:connector-curvature="0"
   style="fill:#231f20" />
		<path
   class="st5"
   d="m 328,101.9 c 0,-0.4 0,-0.8 0,-1.2 h 0.6 v 0.7 0 c 0.2,-0.5 0.6,-0.8 1,-0.8 0.1,0 0.1,0 0.2,0 v 0.6 c -0.1,0 -0.1,0 -0.2,0 -0.5,0 -0.8,0.4 -0.9,0.9 0,0.1 0,0.2 0,0.3 v 2 H 328 Z"
   id="path15056"
   inkscape:connector-curvature="0"
   style="fill:#231f20" />
		<path
   class="st5"
   d="m 350,100.4 v 1.8 h 1.8 v 0.5 H 350 v 1.8 h -0.5 v -1.8 h -1.8 v -0.5 h 1.8 v -1.8 z"
   id="path15058"
   inkscape:connector-curvature="0"
   style="fill:#231f20" />
		<path
   class="st5"
   d="m 355.4,100 h -1.9 l -0.2,1.3 c 0.1,0 0.2,0 0.4,0 0.4,0 0.8,0.1 1.1,0.3 0.4,0.2 0.7,0.7 0.7,1.3 0,1 -0.8,1.7 -1.9,1.7 -0.6,0 -1,-0.2 -1.3,-0.3 l 0.2,-0.5 c 0.2,0.1 0.6,0.3 1.1,0.3 0.6,0 1.2,-0.4 1.2,-1.1 0,-0.7 -0.4,-1.1 -1.5,-1.1 -0.3,0 -0.5,0 -0.7,0.1 l 0.3,-2.4 h 2.4 v 0.4 z"
   id="path15060"
   inkscape:connector-curvature="0"
   style="fill:#231f20" />
		<path
   class="st5"
   d="m 357.8,104.5 -1.7,-5.3 h 0.7 l 0.8,2.6 c 0.2,0.7 0.4,1.3 0.6,2 v 0 c 0.1,-0.6 0.4,-1.3 0.6,-2 l 0.9,-2.6 h 0.7 l -1.9,5.3 z"
   id="path15062"
   inkscape:connector-curvature="0"
   style="fill:#231f20" />
		<path
   class="st5"
   d="m 259.3,114.5 v -1.4 H 257 v -0.5 l 2.3,-3.2 h 0.7 v 3.2 h 0.7 v 0.5 H 260 v 1.4 z m 0,-1.9 v -1.7 c 0,-0.3 0,-0.5 0,-0.8 v 0 c -0.2,0.3 -0.3,0.5 -0.4,0.7 l -1.2,1.7 v 0 h 1.6 z"
   id="path15064"
   inkscape:connector-curvature="0"
   style="fill:#231f20" />
		<path
   class="st5"
   d="m 273.7,109.3 c 0.3,-0.1 0.8,-0.1 1.2,-0.1 0.7,0 1.1,0.1 1.4,0.4 0.3,0.2 0.4,0.5 0.4,0.9 0,0.5 -0.3,1 -0.9,1.2 v 0 c 0.5,0.1 1.1,0.5 1.1,1.3 0,0.5 -0.2,0.8 -0.4,1.1 -0.4,0.3 -1,0.5 -1.8,0.5 -0.5,0 -0.8,0 -1.1,-0.1 v -5.2 z m 0.7,2.2 h 0.6 c 0.7,0 1.1,-0.4 1.1,-0.9 0,-0.6 -0.5,-0.9 -1.2,-0.9 -0.3,0 -0.5,0 -0.6,0 v 1.8 z m 0,2.5 c 0.1,0 0.3,0 0.6,0 0.7,0 1.4,-0.3 1.4,-1 0,-0.7 -0.6,-1 -1.4,-1 h -0.6 z"
   id="path15066"
   inkscape:connector-curvature="0"
   style="fill:#231f20" />
		<path
   class="st5"
   d="m 277.9,109 h 0.7 v 5.5 h -0.7 z"
   id="path15068"
   inkscape:connector-curvature="0"
   style="fill:#231f20" />
		<path
   class="st5"
   d="m 282.9,113.5 c 0,0.4 0,0.7 0,1 h -0.6 v -0.6 0 c -0.2,0.3 -0.6,0.7 -1.2,0.7 -0.6,0 -1.3,-0.3 -1.3,-1.7 v -2.2 h 0.7 v 2.1 c 0,0.7 0.2,1.2 0.8,1.2 0.5,0 0.8,-0.3 0.9,-0.6 0,-0.1 0.1,-0.2 0.1,-0.4 v -2.3 h 0.7 v 2.8 z"
   id="path15070"
   inkscape:connector-curvature="0"
   style="fill:#231f20" />
		<path
   class="st5"
   d="m 284.4,112.8 c 0,0.9 0.6,1.3 1.3,1.3 0.5,0 0.8,-0.1 1,-0.2 l 0.1,0.5 c -0.2,0.1 -0.7,0.2 -1.3,0.2 -1.2,0 -1.9,-0.8 -1.9,-1.9 0,-1.1 0.7,-2 1.8,-2 1.2,0 1.6,1.1 1.6,1.8 0,0.1 0,0.2 0,0.3 z m 2,-0.5 c 0,-0.4 -0.2,-1.1 -1,-1.1 -0.7,0 -1,0.6 -1.1,1.1 z"
   id="path15072"
   inkscape:connector-curvature="0"
   style="fill:#231f20" />
		<path
   class="st5"
   d="m 313.6,109.3 h 0.7 v 4.7 h 2.2 v 0.6 h -2.9 z"
   id="path15074"
   inkscape:connector-curvature="0"
   style="fill:#231f20" />
		<path
   class="st5"
   d="m 319.3,114.5 -0.1,-0.5 v 0 c -0.2,0.3 -0.6,0.6 -1.2,0.6 -0.8,0 -1.2,-0.5 -1.2,-1.1 0,-0.9 0.8,-1.4 2.3,-1.4 V 112 c 0,-0.3 -0.1,-0.9 -0.9,-0.9 -0.4,0 -0.7,0.1 -1,0.3 l -0.2,-0.5 c 0.3,-0.2 0.8,-0.3 1.2,-0.3 1.2,0 1.4,0.8 1.4,1.5 v 1.4 c 0,0.3 0,0.6 0.1,0.9 h -0.4 z m -0.1,-1.9 c -0.8,0 -1.6,0.1 -1.6,0.8 0,0.4 0.3,0.7 0.6,0.7 0.5,0 0.8,-0.3 0.9,-0.6 0,-0.1 0,-0.1 0,-0.2 v -0.7 z"
   id="path15076"
   inkscape:connector-curvature="0"
   style="fill:#231f20" />
		<path
   class="st5"
   d="m 320.9,113.8 c 0.2,0.1 0.6,0.3 0.9,0.3 0.5,0 0.7,-0.2 0.7,-0.6 0,-0.3 -0.2,-0.5 -0.7,-0.7 -0.7,-0.2 -1,-0.6 -1,-1.1 0,-0.6 0.5,-1.1 1.3,-1.1 0.4,0 0.7,0.1 0.9,0.2 l -0.2,0.5 c -0.1,-0.1 -0.4,-0.2 -0.8,-0.2 -0.4,0 -0.6,0.2 -0.6,0.5 0,0.3 0.2,0.5 0.7,0.6 0.7,0.2 1,0.6 1,1.1 0,0.7 -0.5,1.1 -1.4,1.1 -0.4,0 -0.8,-0.1 -1.1,-0.3 z"
   id="path15078"
   inkscape:connector-curvature="0"
   style="fill:#231f20" />
		<path
   class="st5"
   d="m 324.5,112.8 c 0,0.9 0.6,1.3 1.3,1.3 0.5,0 0.8,-0.1 1,-0.2 l 0.1,0.5 c -0.2,0.1 -0.7,0.2 -1.3,0.2 -1.2,0 -1.9,-0.8 -1.9,-1.9 0,-1.1 0.7,-2 1.8,-2 1.2,0 1.6,1.1 1.6,1.8 0,0.1 0,0.2 0,0.3 z m 2,-0.5 c 0,-0.4 -0.2,-1.1 -1,-1.1 -0.7,0 -1,0.6 -1.1,1.1 z"
   id="path15080"
   inkscape:connector-curvature="0"
   style="fill:#231f20" />
		<path
   class="st5"
   d="m 328,111.9 c 0,-0.4 0,-0.8 0,-1.2 h 0.6 v 0.7 0 c 0.2,-0.5 0.6,-0.8 1,-0.8 0.1,0 0.1,0 0.2,0 v 0.6 c -0.1,0 -0.1,0 -0.2,0 -0.5,0 -0.8,0.4 -0.9,0.9 0,0.1 0,0.2 0,0.3 v 2 H 328 Z"
   id="path15082"
   inkscape:connector-curvature="0"
   style="fill:#231f20" />
		<path
   class="st5"
   d="m 352,114.3 c -0.3,0.1 -0.9,0.3 -1.6,0.3 -0.8,0 -1.5,-0.2 -2,-0.7 -0.5,-0.4 -0.7,-1.1 -0.7,-2 0,-1.6 1.1,-2.7 2.9,-2.7 0.6,0 1.1,0.1 1.3,0.2 l -0.2,0.6 c -0.3,-0.1 -0.6,-0.2 -1.2,-0.2 -1.3,0 -2.1,0.8 -2.1,2.1 0,1.3 0.8,2.1 2,2.1 0.4,0 0.8,-0.1 0.9,-0.1 v -1.6 h -1.1 v -0.5 h 1.7 v 2.5 z"
   id="path15084"
   inkscape:connector-curvature="0"
   style="fill:#231f20" />
		<path
   class="st5"
   d="m 353.1,114.5 v -5.3 h 0.7 l 1.7,2.7 c 0.4,0.6 0.7,1.2 0.9,1.7 v 0 c -0.1,-0.7 -0.1,-1.3 -0.1,-2.2 v -2.2 h 0.6 v 5.3 h -0.7 l -1.7,-2.7 c -0.4,-0.6 -0.7,-1.2 -1,-1.8 v 0 c 0,0.7 0.1,1.3 0.1,2.2 v 2.2 h -0.5 z"
   id="path15086"
   inkscape:connector-curvature="0"
   style="fill:#231f20" />
		<path
   class="st5"
   d="m 358.2,109.3 c 0.4,-0.1 0.9,-0.1 1.4,-0.1 1,0 1.7,0.2 2.1,0.7 0.5,0.4 0.7,1 0.7,1.9 0,0.9 -0.3,1.6 -0.8,2 -0.5,0.5 -1.3,0.8 -2.3,0.8 -0.5,0 -0.9,0 -1.2,-0.1 v -5.2 z m 0.7,4.7 c 0.2,0 0.4,0 0.7,0 1.5,0 2.2,-0.8 2.2,-2.2 0,-1.2 -0.7,-2 -2.1,-2 -0.4,0 -0.6,0 -0.8,0.1 z"
   id="path15088"
   inkscape:connector-curvature="0"
   style="fill:#231f20" />
		<path
   class="st5"
   d="m 260.2,120 h -1.9 l -0.2,1.3 c 0.1,0 0.2,0 0.4,0 0.4,0 0.8,0.1 1.1,0.3 0.4,0.2 0.7,0.7 0.7,1.3 0,1 -0.8,1.7 -1.9,1.7 -0.6,0 -1,-0.2 -1.3,-0.3 l 0.2,-0.5 c 0.2,0.1 0.6,0.3 1.1,0.3 0.6,0 1.2,-0.4 1.2,-1.1 0,-0.7 -0.4,-1.1 -1.5,-1.1 -0.3,0 -0.5,0 -0.7,0.1 l 0.3,-2.4 h 2.4 v 0.4 z"
   id="path15090"
   inkscape:connector-curvature="0"
   style="fill:#231f20" />
		<path
   class="st5"
   d="m 273.7,119.3 c 0.3,-0.1 0.8,-0.1 1.2,-0.1 0.7,0 1.1,0.1 1.4,0.4 0.3,0.2 0.4,0.5 0.4,0.9 0,0.5 -0.3,1 -0.9,1.2 v 0 c 0.5,0.1 1.1,0.5 1.1,1.3 0,0.5 -0.2,0.8 -0.4,1.1 -0.4,0.3 -1,0.5 -1.8,0.5 -0.5,0 -0.8,0 -1.1,-0.1 v -5.2 z m 0.7,2.2 h 0.6 c 0.7,0 1.1,-0.4 1.1,-0.9 0,-0.6 -0.5,-0.9 -1.2,-0.9 -0.3,0 -0.5,0 -0.6,0 v 1.8 z m 0,2.5 c 0.1,0 0.3,0 0.6,0 0.7,0 1.4,-0.3 1.4,-1 0,-0.7 -0.6,-1 -1.4,-1 h -0.6 z"
   id="path15092"
   inkscape:connector-curvature="0"
   style="fill:#231f20" />
		<path
   class="st5"
   d="m 277.9,119 h 0.7 v 5.5 h -0.7 z"
   id="path15094"
   inkscape:connector-curvature="0"
   style="fill:#231f20" />
		<path
   class="st5"
   d="m 281.8,124.5 -0.1,-0.5 v 0 c -0.2,0.3 -0.6,0.6 -1.2,0.6 -0.8,0 -1.2,-0.5 -1.2,-1.1 0,-0.9 0.8,-1.4 2.3,-1.4 V 122 c 0,-0.3 -0.1,-0.9 -0.9,-0.9 -0.4,0 -0.7,0.1 -1,0.3 l -0.2,-0.5 c 0.3,-0.2 0.8,-0.3 1.2,-0.3 1.2,0 1.4,0.8 1.4,1.5 v 1.4 c 0,0.3 0,0.6 0.1,0.9 h -0.4 z m -0.1,-1.9 c -0.8,0 -1.6,0.1 -1.6,0.8 0,0.4 0.3,0.7 0.6,0.7 0.5,0 0.8,-0.3 0.9,-0.6 0,-0.1 0,-0.1 0,-0.2 v -0.7 z"
   id="path15096"
   inkscape:connector-curvature="0"
   style="fill:#231f20" />
		<path
   class="st5"
   d="m 286.2,124.4 c -0.2,0.1 -0.6,0.2 -1.1,0.2 -1.1,0 -1.9,-0.8 -1.9,-1.9 0,-1.2 0.8,-2 2,-2 0.4,0 0.8,0.1 1,0.2 l -0.2,0.5 c -0.2,-0.1 -0.4,-0.2 -0.8,-0.2 -0.9,0 -1.3,0.6 -1.3,1.4 0,0.9 0.6,1.4 1.3,1.4 0.4,0 0.6,-0.1 0.8,-0.2 z"
   id="path15098"
   inkscape:connector-curvature="0"
   style="fill:#231f20" />
		<path
   class="st5"
   d="m 287.7,122.5 v 0 c 0.1,-0.1 0.2,-0.3 0.4,-0.4 l 1.1,-1.3 h 0.8 l -1.5,1.6 1.7,2.2 h -0.8 l -1.3,-1.8 -0.4,0.4 v 1.4 H 287 V 119 h 0.7 z"
   id="path15100"
   inkscape:connector-curvature="0"
   style="fill:#231f20" />
		<path
   class="st5"
   d="m 318,122.2 c 0,-0.7 -0.1,-1.6 -0.1,-2.3 v 0 c -0.2,0.6 -0.4,1.3 -0.7,2 l -0.9,2.5 h -0.5 l -0.9,-2.5 c -0.2,-0.7 -0.5,-1.4 -0.6,-2 v 0 c 0,0.7 -0.1,1.5 -0.1,2.3 l -0.1,2.3 h -0.6 l 0.4,-5.3 h 0.9 l 0.9,2.5 c 0.2,0.6 0.4,1.2 0.5,1.8 v 0 c 0.1,-0.5 0.3,-1.1 0.6,-1.8 l 0.9,-2.5 h 0.9 l 0.3,5.3 h -0.7 z"
   id="path15102"
   inkscape:connector-curvature="0"
   style="fill:#231f20" />
		<path
   class="st5"
   d="m 323.3,122.6 c 0,1.4 -1,2 -1.9,2 -1,0 -1.8,-0.7 -1.8,-1.9 0,-1.3 0.8,-2 1.9,-2 1.1,0 1.8,0.8 1.8,1.9 z m -3,0 c 0,0.8 0.5,1.5 1.1,1.5 0.7,0 1.1,-0.6 1.1,-1.5 0,-0.6 -0.3,-1.5 -1.1,-1.5 -0.8,0 -1.1,0.8 -1.1,1.5 z"
   id="path15104"
   inkscape:connector-curvature="0"
   style="fill:#231f20" />
		<path
   class="st5"
   d="m 325,119.7 v 1.1 h 1 v 0.5 h -1 v 2 c 0,0.5 0.1,0.7 0.5,0.7 0.2,0 0.3,0 0.4,0 v 0.5 c -0.1,0.1 -0.3,0.1 -0.6,0.1 -0.3,0 -0.6,-0.1 -0.7,-0.3 -0.2,-0.2 -0.3,-0.5 -0.3,-1 v -2.1 h -0.6 v -0.5 h 0.6 v -0.9 z"
   id="path15106"
   inkscape:connector-curvature="0"
   style="fill:#231f20" />
		<path
   class="st5"
   d="m 330.1,122.6 c 0,1.4 -1,2 -1.9,2 -1,0 -1.8,-0.7 -1.8,-1.9 0,-1.3 0.8,-2 1.9,-2 1.1,0 1.8,0.8 1.8,1.9 z m -3,0 c 0,0.8 0.5,1.5 1.1,1.5 0.7,0 1.1,-0.6 1.1,-1.5 0,-0.6 -0.3,-1.5 -1.1,-1.5 -0.8,0 -1.1,0.8 -1.1,1.5 z"
   id="path15108"
   inkscape:connector-curvature="0"
   style="fill:#231f20" />
		<path
   class="st5"
   d="m 331,121.9 c 0,-0.4 0,-0.8 0,-1.2 h 0.6 v 0.7 0 c 0.2,-0.5 0.6,-0.8 1,-0.8 0.1,0 0.1,0 0.2,0 v 0.6 c -0.1,0 -0.1,0 -0.2,0 -0.5,0 -0.8,0.4 -0.9,0.9 0,0.1 0,0.2 0,0.3 v 2 H 331 Z"
   id="path15110"
   inkscape:connector-curvature="0"
   style="fill:#231f20" />
		<path
   class="st5"
   d="m 352,124.3 c -0.3,0.1 -0.9,0.3 -1.6,0.3 -0.8,0 -1.5,-0.2 -2,-0.7 -0.5,-0.4 -0.7,-1.1 -0.7,-2 0,-1.6 1.1,-2.7 2.9,-2.7 0.6,0 1.1,0.1 1.3,0.2 l -0.2,0.6 c -0.3,-0.1 -0.6,-0.2 -1.2,-0.2 -1.3,0 -2.1,0.8 -2.1,2.1 0,1.3 0.8,2.1 2,2.1 0.4,0 0.8,-0.1 0.9,-0.1 v -1.6 h -1.1 v -0.5 h 1.7 v 2.5 z"
   id="path15112"
   inkscape:connector-curvature="0"
   style="fill:#231f20" />
		<path
   class="st5"
   d="m 353,124.5 v -5.3 h 0.7 l 1.7,2.7 c 0.4,0.6 0.7,1.2 0.9,1.7 v 0 c -0.1,-0.7 -0.1,-1.3 -0.1,-2.2 v -2.2 h 0.6 v 5.3 h -0.7 l -1.7,-2.7 c -0.4,-0.6 -0.7,-1.2 -1,-1.8 v 0 c 0,0.7 0.1,1.3 0.1,2.2 v 2.2 H 353 Z"
   id="path15114"
   inkscape:connector-curvature="0"
   style="fill:#231f20" />
		<path
   class="st5"
   d="m 358.2,119.3 c 0.4,-0.1 0.9,-0.1 1.4,-0.1 1,0 1.7,0.2 2.1,0.7 0.5,0.4 0.7,1 0.7,1.9 0,0.9 -0.3,1.6 -0.8,2 -0.5,0.5 -1.3,0.8 -2.3,0.8 -0.5,0 -0.9,0 -1.2,-0.1 v -5.2 z m 0.7,4.7 c 0.2,0 0.4,0 0.7,0 1.5,0 2.2,-0.8 2.2,-2.2 0,-1.2 -0.7,-2 -2.1,-2 -0.4,0 -0.6,0 -0.8,0.1 z"
   id="path15116"
   inkscape:connector-curvature="0"
   style="fill:#231f20" />
		<path
   class="st5"
   d="m 260.1,129.9 c -0.1,0 -0.3,0 -0.5,0 -1.1,0.2 -1.6,1 -1.8,1.8 v 0 c 0.2,-0.3 0.7,-0.6 1.2,-0.6 0.9,0 1.5,0.6 1.5,1.6 0,0.9 -0.6,1.8 -1.7,1.8 -1.1,0 -1.8,-0.8 -1.8,-2.2 0,-1 0.4,-1.8 0.9,-2.3 0.4,-0.4 1,-0.7 1.6,-0.7 0.2,0 0.4,0 0.5,0 v 0.6 z m -0.2,3 c 0,-0.7 -0.4,-1.2 -1,-1.2 -0.4,0 -0.8,0.3 -1,0.6 0,0.1 -0.1,0.2 -0.1,0.3 0,0.8 0.4,1.5 1.1,1.5 0.6,0 1,-0.5 1,-1.2 z"
   id="path15118"
   inkscape:connector-curvature="0"
   style="fill:#231f20" />
		<path
   class="st5"
   d="m 273.7,129.3 c 0.3,-0.1 0.8,-0.1 1.3,-0.1 0.7,0 1.2,0.1 1.5,0.4 0.3,0.2 0.4,0.6 0.4,1 0,0.7 -0.4,1.2 -1,1.3 v 0 c 0.4,0.1 0.6,0.5 0.8,1.1 0.2,0.7 0.3,1.2 0.4,1.4 h -0.7 c -0.1,-0.1 -0.2,-0.6 -0.4,-1.3 -0.2,-0.7 -0.4,-1 -1.1,-1 h -0.6 v 2.3 h -0.7 v -5.1 z m 0.7,2.4 h 0.7 c 0.7,0 1.2,-0.4 1.2,-1 0,-0.7 -0.5,-1 -1.2,-1 -0.3,0 -0.6,0 -0.7,0.1 z"
   id="path15120"
   inkscape:connector-curvature="0"
   style="fill:#231f20" />
		<path
   class="st5"
   d="m 278.3,132.8 c 0,0.9 0.6,1.3 1.3,1.3 0.5,0 0.8,-0.1 1,-0.2 l 0.1,0.5 c -0.2,0.1 -0.7,0.2 -1.3,0.2 -1.2,0 -1.9,-0.8 -1.9,-1.9 0,-1.1 0.7,-2 1.8,-2 1.2,0 1.6,1.1 1.6,1.8 0,0.1 0,0.2 0,0.3 z m 2,-0.5 c 0,-0.4 -0.2,-1.1 -1,-1.1 -0.7,0 -1,0.6 -1.1,1.1 z"
   id="path15122"
   inkscape:connector-curvature="0"
   style="fill:#231f20" />
		<path
   class="st5"
   d="m 285.1,129 v 4.6 c 0,0.3 0,0.7 0,1 h -0.6 v -0.7 0 c -0.2,0.4 -0.7,0.7 -1.3,0.7 -0.9,0 -1.6,-0.8 -1.6,-1.9 0,-1.3 0.8,-2 1.7,-2 0.6,0 1,0.3 1.1,0.6 v 0 -2.3 z m -0.7,3.3 c 0,-0.1 0,-0.2 0,-0.3 -0.1,-0.4 -0.5,-0.8 -1,-0.8 -0.7,0 -1.1,0.6 -1.1,1.5 0,0.8 0.4,1.4 1.1,1.4 0.5,0 0.9,-0.3 1,-0.8 0,-0.1 0,-0.2 0,-0.3 z"
   id="path15124"
   inkscape:connector-curvature="0"
   style="fill:#231f20" />
		<path
   class="st5"
   d="m 318,132.2 c 0,-0.7 -0.1,-1.6 -0.1,-2.3 v 0 c -0.2,0.6 -0.4,1.3 -0.7,2 l -0.9,2.5 h -0.5 l -0.9,-2.5 c -0.2,-0.7 -0.5,-1.4 -0.6,-2 v 0 c 0,0.7 -0.1,1.5 -0.1,2.3 l -0.1,2.3 h -0.6 l 0.4,-5.3 h 0.9 l 0.9,2.5 c 0.2,0.6 0.4,1.2 0.5,1.8 v 0 c 0.1,-0.5 0.3,-1.1 0.6,-1.8 l 0.9,-2.5 h 0.9 l 0.3,5.3 h -0.7 z"
   id="path15126"
   inkscape:connector-curvature="0"
   style="fill:#231f20" />
		<path
   class="st5"
   d="m 323.3,132.6 c 0,1.4 -1,2 -1.9,2 -1,0 -1.8,-0.7 -1.8,-1.9 0,-1.3 0.8,-2 1.9,-2 1.1,0 1.8,0.8 1.8,1.9 z m -3,0 c 0,0.8 0.5,1.5 1.1,1.5 0.7,0 1.1,-0.6 1.1,-1.5 0,-0.6 -0.3,-1.5 -1.1,-1.5 -0.8,0 -1.1,0.8 -1.1,1.5 z"
   id="path15128"
   inkscape:connector-curvature="0"
   style="fill:#231f20" />
		<path
   class="st5"
   d="m 325,129.7 v 1.1 h 1 v 0.5 h -1 v 2 c 0,0.5 0.1,0.7 0.5,0.7 0.2,0 0.3,0 0.4,0 v 0.5 c -0.1,0.1 -0.3,0.1 -0.6,0.1 -0.3,0 -0.6,-0.1 -0.7,-0.3 -0.2,-0.2 -0.3,-0.5 -0.3,-1 v -2.1 h -0.6 v -0.5 h 0.6 v -0.9 z"
   id="path15130"
   inkscape:connector-curvature="0"
   style="fill:#231f20" />
		<path
   class="st5"
   d="m 330.1,132.6 c 0,1.4 -1,2 -1.9,2 -1,0 -1.8,-0.7 -1.8,-1.9 0,-1.3 0.8,-2 1.9,-2 1.1,0 1.8,0.8 1.8,1.9 z m -3,0 c 0,0.8 0.5,1.5 1.1,1.5 0.7,0 1.1,-0.6 1.1,-1.5 0,-0.6 -0.3,-1.5 -1.1,-1.5 -0.8,0 -1.1,0.8 -1.1,1.5 z"
   id="path15132"
   inkscape:connector-curvature="0"
   style="fill:#231f20" />
		<path
   class="st5"
   d="m 331,131.9 c 0,-0.4 0,-0.8 0,-1.2 h 0.6 v 0.7 0 c 0.2,-0.5 0.6,-0.8 1,-0.8 0.1,0 0.1,0 0.2,0 v 0.6 c -0.1,0 -0.1,0 -0.2,0 -0.5,0 -0.8,0.4 -0.9,0.9 0,0.1 0,0.2 0,0.3 v 2 H 331 Z"
   id="path15134"
   inkscape:connector-curvature="0"
   style="fill:#231f20" />
		<path
   class="st5"
   d="m 350,130.4 v 1.8 h 1.8 v 0.5 H 350 v 1.8 h -0.5 v -1.8 h -1.8 v -0.5 h 1.8 v -1.8 z"
   id="path15136"
   inkscape:connector-curvature="0"
   style="fill:#231f20" />
		<path
   class="st5"
   d="m 353.9,130.1 v 0 l -0.9,0.5 -0.1,-0.5 1.1,-0.6 h 0.6 v 5.1 h -0.7 z"
   id="path15138"
   inkscape:connector-curvature="0"
   style="fill:#231f20" />
		<path
   class="st5"
   d="m 356.4,134.5 v -0.4 l 0.5,-0.5 c 1.3,-1.2 1.9,-1.9 1.9,-2.7 0,-0.5 -0.2,-1 -1,-1 -0.5,0 -0.8,0.2 -1.1,0.4 l -0.2,-0.5 c 0.4,-0.3 0.9,-0.5 1.4,-0.5 1.1,0 1.6,0.7 1.6,1.5 0,0.9 -0.7,1.7 -1.8,2.7 l -0.4,0.4 v 0 h 2.3 v 0.6 z"
   id="path15140"
   inkscape:connector-curvature="0"
   style="fill:#231f20" />
		<path
   class="st5"
   d="m 361.8,134.5 -1.7,-5.3 h 0.7 l 0.8,2.6 c 0.2,0.7 0.4,1.3 0.6,2 v 0 c 0.1,-0.6 0.4,-1.3 0.6,-2 l 0.9,-2.6 h 0.7 l -1.9,5.3 z"
   id="path15142"
   inkscape:connector-curvature="0"
   style="fill:#231f20" />
	</g>
</g>
<polygon
   class="st8"
   points="203.9,126.2 208.1,125 211,127.9 209.8,132.1 205.7,133.2 202.8,130.3 "
   id="polygon15148"
   style="fill:#d1d3d4;stroke:#231f20;stroke-width:0.78210002;stroke-linecap:round;stroke-linejoin:round;stroke-miterlimit:10"
   transform="translate(0,107.39999)" />
<path
   class="st2"
   d="m 204.4,234.09999 c 1.4,-1.4 3.6,-1.5 5,-0.1 1.3,1.3 1.3,3.6 -0.1,5 -1.4,1.4 -3.6,1.5 -5,0.1 -1.3,-1.4 -1.3,-3.6 0.1,-5 z"
   id="path15150"
   inkscape:connector-curvature="0"
   style="fill:#d1d3d4;stroke:#231f20;stroke-width:0.5;stroke-linecap:round;stroke-linejoin:round;stroke-miterlimit:10" />
<polygon
   class="st8"
   points="158.8,126.2 163,125 165.9,127.9 164.7,132.1 160.6,133.2 157.7,130.3 "
   id="polygon15152"
   style="fill:#d1d3d4;stroke:#231f20;stroke-width:0.78210002;stroke-linecap:round;stroke-linejoin:round;stroke-miterlimit:10"
   transform="translate(0,107.39999)" />
<path
   class="st2"
   d="m 159.3,234.09999 c 1.4,-1.4 3.6,-1.5 5,-0.1 1.3,1.3 1.3,3.6 -0.1,5 -1.4,1.4 -3.6,1.5 -5,0.1 -1.3,-1.4 -1.3,-3.6 0.1,-5 z"
   id="path15154"
   inkscape:connector-curvature="0"
   style="fill:#d1d3d4;stroke:#231f20;stroke-width:0.5;stroke-linecap:round;stroke-linejoin:round;stroke-miterlimit:10" />
<polygon
   class="st8"
   points="203.9,81.1 208,79.9 211,82.8 209.8,86.9 205.7,88.1 202.7,85.2 "
   id="polygon15156"
   style="fill:#d1d3d4;stroke:#231f20;stroke-width:0.78210002;stroke-linecap:round;stroke-linejoin:round;stroke-miterlimit:10"
   transform="translate(0,107.39999)" />
<path
   class="st2"
   d="m 204.4,188.99999 c 1.4,-1.4 3.6,-1.5 5,-0.1 1.3,1.3 1.3,3.6 -0.1,5 -1.4,1.4 -3.6,1.5 -5,0.1 -1.3,-1.4 -1.3,-3.6 0.1,-5 z"
   id="path15158"
   inkscape:connector-curvature="0"
   style="fill:#d1d3d4;stroke:#231f20;stroke-width:0.5;stroke-linecap:round;stroke-linejoin:round;stroke-miterlimit:10" />
<polygon
   class="st8"
   points="158.3,81.7 162.4,80.5 165.3,83.4 164.1,87.6 160,88.7 157.1,85.8 "
   id="polygon15160"
   style="fill:#d1d3d4;stroke:#231f20;stroke-width:0.78210002;stroke-linecap:round;stroke-linejoin:round;stroke-miterlimit:10"
   transform="translate(0,107.39999)" />
<path
   class="st2"
   d="m 158.8,189.59999 c 1.4,-1.4 3.6,-1.5 5,-0.1 1.3,1.3 1.3,3.6 -0.1,5 -1.4,1.4 -3.6,1.5 -5,0.1 -1.4,-1.4 -1.3,-3.6 0.1,-5 z"
   id="path15162"
   inkscape:connector-curvature="0"
   style="fill:#d1d3d4;stroke:#231f20;stroke-width:0.5;stroke-linecap:round;stroke-linejoin:round;stroke-miterlimit:10" />
<polygon
   class="st9"
   points="251,130.7 253.5,130.7 253.5,132.7 251,132.7 251,132.7 242.6,115.2 227.7,115.2 218.5,109.6 209.5,109.6 209.2,108.9 218.8,108.9 226.8,113.2 243.5,113.2 251,130.7 "
   id="polygon15164"
   style="fill:#ec2227;stroke:#231f20;stroke-width:0.17990001;stroke-linecap:round;stroke-linejoin:round;stroke-miterlimit:10"
   transform="translate(0,107.39999)" />
<polygon
   class="st10"
   points="251,120.7 253.5,120.7 253.5,122.7 251,122.7 251,122.7 243.8,112.1 226.5,112.1 218.9,108.5 209.1,108.5 208.9,107.8 219.1,107.8 226,110.1 244.3,110.1 251,120.7 "
   id="polygon15166"
   style="fill:#231f20;stroke:#231f20;stroke-width:0.17990001;stroke-linecap:round;stroke-linejoin:round;stroke-miterlimit:10"
   transform="translate(0,107.39999)" />
<polygon
   class="st11"
   points="251,110.7 253.5,110.7 253.5,112.7 251,112.7 251,112.7 244.5,109.1 225.8,109.1 219.2,107.5 208.8,107.5 208.7,106.7 219.3,106.7 225.5,107.1 244.8,107.1 251,110.7 "
   id="polygon15168"
   style="fill:#4257a6;stroke:#231f20;stroke-width:0.17990001;stroke-linecap:round;stroke-linejoin:round;stroke-miterlimit:10"
   transform="translate(0,107.39999)" />
<polygon
   class="st12"
   points="253.5,100.7 253.5,102.7 251,102.7 244.9,106.1 225.4,106.1 219.3,106.4 208.7,106.4 208.7,105.6 219.3,105.6 225.4,104.1 244.9,104.1 251,100.7 "
   id="polygon15170"
   style="fill:#ea9123;stroke:#231f20;stroke-width:0.17990001;stroke-linecap:round;stroke-linejoin:round;stroke-miterlimit:10"
   transform="translate(0,107.39999)" />
<polygon
   class="st13"
   points="253.5,90.7 253.5,92.7 251,92.7 251,92.7 244.8,103.1 225.5,103.1 219.3,105.3 208.7,105.3 208.8,104.6 219.2,104.6 225.8,101.1 244.5,101.1 251,90.7 "
   id="polygon15172"
   style="fill:#f6eb0c;stroke:#231f20;stroke-width:0.17990001;stroke-linecap:round;stroke-linejoin:round;stroke-miterlimit:10"
   transform="translate(0,107.39999)" />
<polygon
   class="st14"
   points="253.5,80.7 253.5,82.7 251,82.7 244.3,100 226,100 219.1,104.2 208.9,104.2 209.1,103.5 218.9,103.5 226.5,98 243.8,98 251,80.7 "
   id="polygon15174"
   style="fill:#ffffff;stroke:#231f20;stroke-width:0.17990001;stroke-linecap:round;stroke-linejoin:round;stroke-miterlimit:10"
   transform="translate(0,107.39999)" />
</svg>