<?xml version="1.0" encoding="utf-8"?>
<!-- Generator: Adobe Illustrator 22.1.0, SVG Export Plug-In . SVG Version: 6.00 Build 0)  -->
<svg version="1.1" id="Layer_1" xmlns="http://www.w3.org/2000/svg" xmlns:xlink="http://www.w3.org/1999/xlink" x="0px" y="0px"
	 viewBox="0 0 510.2 212.6" style="enable-background:new 0 0 510.2 212.6;" xml:space="preserve">
<style type="text/css">
	.st0{fill:#939598;stroke:#231F20;stroke-width:0.5;stroke-linecap:round;stroke-linejoin:round;stroke-miterlimit:10;}
	.st1{fill:#D1D3D4;stroke:#231F20;stroke-width:0.5648;stroke-linecap:round;stroke-linejoin:round;stroke-miterlimit:10;}
	.st2{fill:#D1D3D4;stroke:#231F20;stroke-width:0.5;stroke-linecap:round;stroke-linejoin:round;stroke-miterlimit:10;}
	.st3{fill:none;stroke:#231F20;stroke-width:0.5;stroke-linecap:round;stroke-linejoin:round;stroke-miterlimit:10;}
	.st4{fill:#58595B;stroke:#231F20;stroke-width:0.4818;stroke-linecap:round;stroke-linejoin:round;stroke-miterlimit:10;}
	.st5{fill:#231F20;}
	.st6{fill:#58595B;stroke:#231F20;stroke-width:0.4773;stroke-linecap:round;stroke-linejoin:round;stroke-miterlimit:10;}
	.st7{fill:#58595B;stroke:#231F20;stroke-width:0.4144;stroke-linecap:round;stroke-linejoin:round;stroke-miterlimit:10;}
	.st8{fill:#D1D3D4;stroke:#231F20;stroke-width:0.7821;stroke-linecap:round;stroke-linejoin:round;stroke-miterlimit:10;}
	.st9{fill:#EC2227;stroke:#231F20;stroke-width:0.1799;stroke-linecap:round;stroke-linejoin:round;stroke-miterlimit:10;}
	.st10{fill:#231F20;stroke:#231F20;stroke-width:0.1799;stroke-linecap:round;stroke-linejoin:round;stroke-miterlimit:10;}
	.st11{fill:#4257A6;stroke:#231F20;stroke-width:0.1799;stroke-linecap:round;stroke-linejoin:round;stroke-miterlimit:10;}
	.st12{fill:#EA9123;stroke:#231F20;stroke-width:0.1799;stroke-linecap:round;stroke-linejoin:round;stroke-miterlimit:10;}
	.st13{fill:#F6EB0C;stroke:#231F20;stroke-width:0.1799;stroke-linecap:round;stroke-linejoin:round;stroke-miterlimit:10;}
	.st14{fill:#FFFFFF;stroke:#231F20;stroke-width:0.1799;stroke-linecap:round;stroke-linejoin:round;stroke-miterlimit:10;}
</style>
<path class="st0" d="M148.1,142.8c-20-20-19.9-52.4,0.1-72.4c20-20,52.4-20.1,72.4-0.1c20,20,19.9,52.4-0.1,72.4
	C200.5,162.7,168,162.8,148.1,142.8z"/>
<path class="st1" d="M150,140.9c-18.9-18.9-18.9-49.6,0.1-68.6c19-19,49.6-19,68.6-0.1c18.9,18.9,18.9,49.6-0.1,68.6
	C199.6,159.8,168.9,159.8,150,140.9z"/>
<path class="st2" d="M154,137c-16.7-16.7-16.7-43.9,0.1-60.7c16.8-16.8,43.9-16.8,60.7-0.1c16.7,16.7,16.7,43.9-0.1,60.7
	C197.9,153.7,170.7,153.7,154,137z"/>
<path class="st3" d="M157.7,133.2c-14.7-14.7-14.6-38.4,0-53.1c14.7-14.7,38.5-14.7,53.1,0c14.7,14.7,14.6,38.4,0,53.1
	C196.2,147.8,172.4,147.8,157.7,133.2z"/>
<path class="st4" d="M171.6,93.9c1.5-1.5,4-1.5,5.5,0c1.5,1.5,1.5,4,0,5.5c-1.5,1.5-4,1.5-5.5,0C170.1,97.8,170.1,95.4,171.6,93.9z"
	/>
<polygon class="st5" points="174.9,98.8 172.7,98.2 172.1,96 173.8,94.4 176,94.9 176.6,97.2 "/>
<path class="st4" d="M191.6,113.8c1.5-1.5,4-1.5,5.5,0c1.5,1.5,1.5,4,0,5.5c-1.5,1.5-4,1.5-5.5,0C190.1,117.8,190,115.3,191.6,113.8
	z"/>
<polygon class="st5" points="194.9,118.8 192.7,118.2 192.1,116 193.7,114.3 196,114.8 196.5,117.1 "/>
<path class="st6" d="M171.6,119.3c-1.5-1.5-1.5-3.9,0-5.4c1.5-1.5,3.9-1.5,5.4,0c1.5,1.5,1.5,3.9,0,5.4
	C175.5,120.8,173.1,120.8,171.6,119.3z"/>
<polygon class="st5" points="176.6,116 176,118.2 173.8,118.8 172.1,117.1 172.6,114.9 174.9,114.3 "/>
<path class="st6" d="M191.6,99.3c-1.5-1.5-1.5-3.9,0-5.4c1.5-1.5,3.9-1.5,5.4,0c1.5,1.5,1.5,3.9,0,5.4
	C195.5,100.8,193.1,100.8,191.6,99.3z"/>
<polygon class="st5" points="196.6,96 195.9,98.2 193.8,98.8 192.1,97.2 192.6,94.9 194.9,94.4 "/>
<path class="st5" d="M207.5,103.7c1.6-1.6,4.1-1.6,5.7,0c1.6,1.6,1.6,4.1,0,5.7c-1.6,1.6-4.1,1.6-5.7,0
	C205.9,107.8,205.9,105.3,207.5,103.7z"/>
<path class="st7" d="M153.8,99.2c1.3-1.3,3.4-1.3,4.7,0c1.3,1.3,1.3,3.4,0,4.7c-1.3,1.3-3.4,1.3-4.7,0
	C152.6,102.6,152.6,100.5,153.8,99.2z"/>
<polygon class="st5" points="156.7,103.5 154.8,102.9 154.3,101.1 155.7,99.6 157.7,100.1 158.2,102.1 "/>
<path class="st7" d="M153.8,110.6c1.3-1.3,3.4-1.3,4.7,0c1.3,1.3,1.3,3.4,0,4.7c-1.3,1.3-3.4,1.3-4.7,0
	C152.6,114,152.6,111.9,153.8,110.6z"/>
<polygon class="st5" points="156.7,114.9 154.8,114.3 154.3,112.4 155.7,111 157.7,111.5 158.1,113.4 "/>
<g>
	<g>
		<path class="st5" d="M258.7,80.1L258.7,80.1l-0.9,0.5l-0.1-0.5l1.1-0.6h0.6v5.1h-0.7V80.1z"/>
		<path class="st5" d="M274.5,84.5l-1.3-5.3h0.7l0.6,2.7c0.2,0.7,0.3,1.3,0.4,1.8h0c0.1-0.5,0.2-1.1,0.4-1.8l0.7-2.7h0.7l0.6,2.7
			c0.1,0.6,0.3,1.2,0.4,1.8h0c0.1-0.6,0.3-1.2,0.4-1.8l0.7-2.7h0.7l-1.5,5.3h-0.7l-0.7-2.7c-0.2-0.7-0.3-1.2-0.3-1.7h0
			c-0.1,0.5-0.2,1-0.4,1.7l-0.8,2.7H274.5z"/>
		<path class="st5" d="M280.2,79h0.7v2.4h0c0.1-0.2,0.3-0.4,0.5-0.5c0.2-0.1,0.4-0.2,0.7-0.2c0.5,0,1.3,0.3,1.3,1.6v2.2h-0.7v-2.2
			c0-0.6-0.2-1.1-0.9-1.1c-0.4,0-0.8,0.3-0.9,0.7c0,0.1,0,0.2,0,0.3v2.3h-0.7V79z"/>
		<path class="st5" d="M285.3,79.7c0,0.2-0.2,0.4-0.4,0.4c-0.2,0-0.4-0.2-0.4-0.4c0-0.2,0.2-0.4,0.4-0.4
			C285.2,79.3,285.3,79.4,285.3,79.7z M284.6,84.5v-3.8h0.7v3.8H284.6z"/>
		<path class="st5" d="M287.2,79.7v1.1h1v0.5h-1v2c0,0.5,0.1,0.7,0.5,0.7c0.2,0,0.3,0,0.4,0l0,0.5c-0.1,0.1-0.3,0.1-0.6,0.1
			c-0.3,0-0.6-0.1-0.7-0.3c-0.2-0.2-0.3-0.5-0.3-1v-2.1H286v-0.5h0.6v-0.9L287.2,79.7z"/>
		<path class="st5" d="M289.3,82.8c0,0.9,0.6,1.3,1.3,1.3c0.5,0,0.8-0.1,1-0.2l0.1,0.5c-0.2,0.1-0.7,0.2-1.3,0.2
			c-1.2,0-1.9-0.8-1.9-1.9c0-1.1,0.7-2,1.8-2c1.2,0,1.6,1.1,1.6,1.8c0,0.1,0,0.2,0,0.3H289.3z M291.3,82.3c0-0.4-0.2-1.1-1-1.1
			c-0.7,0-1,0.6-1.1,1.1H291.3z"/>
		<path class="st5" d="M349,79.8h-1.6v-0.6h3.9v0.6h-1.6v4.7H349V79.8z"/>
		<path class="st5" d="M354.9,84.5l-0.7-1.2c-0.3-0.4-0.4-0.7-0.6-1h0c-0.1,0.3-0.3,0.6-0.6,1l-0.6,1.2h-0.8l1.6-2.7l-1.5-2.6h0.8
			l0.7,1.2c0.2,0.3,0.3,0.6,0.5,0.9h0c0.1-0.3,0.3-0.6,0.5-0.9l0.7-1.2h0.8l-1.6,2.6l1.6,2.7H354.9z"/>
		<path class="st5" d="M356.5,79.3c0.4-0.1,0.9-0.1,1.4-0.1c1,0,1.7,0.2,2.1,0.7c0.5,0.4,0.7,1,0.7,1.9c0,0.9-0.3,1.6-0.8,2
			c-0.5,0.5-1.3,0.8-2.3,0.8c-0.5,0-0.9,0-1.2-0.1V79.3z M357.2,84c0.2,0,0.4,0,0.7,0c1.5,0,2.2-0.8,2.2-2.2c0-1.2-0.7-2-2.1-2
			c-0.4,0-0.6,0-0.8,0.1V84z"/>
		<path class="st5" d="M257.2,94.5v-0.4l0.5-0.5c1.3-1.2,1.9-1.9,1.9-2.7c0-0.5-0.2-1-1-1c-0.5,0-0.8,0.2-1.1,0.4l-0.2-0.5
			c0.4-0.3,0.9-0.5,1.4-0.5c1.1,0,1.6,0.7,1.6,1.5c0,0.9-0.7,1.7-1.8,2.7l-0.4,0.4v0h2.3v0.6H257.2z"/>
		<path class="st5" d="M274.9,94.5v-2.2l-1.7-3h0.8l0.7,1.5c0.2,0.4,0.4,0.7,0.5,1.1h0c0.1-0.3,0.3-0.7,0.5-1.1l0.8-1.5h0.8l-1.8,3
			v2.2H274.9z"/>
		<path class="st5" d="M277.7,92.8c0,0.9,0.6,1.3,1.3,1.3c0.5,0,0.8-0.1,1-0.2l0.1,0.5c-0.2,0.1-0.7,0.2-1.3,0.2
			c-1.2,0-1.9-0.8-1.9-1.9c0-1.1,0.7-2,1.8-2c1.2,0,1.6,1.1,1.6,1.8c0,0.1,0,0.2,0,0.3H277.7z M279.7,92.3c0-0.4-0.2-1.1-1-1.1
			c-0.7,0-1,0.6-1.1,1.1H279.7z"/>
		<path class="st5" d="M281.2,89h0.7v5.5h-0.7V89z"/>
		<path class="st5" d="M283.1,89h0.7v5.5h-0.7V89z"/>
		<path class="st5" d="M288.3,92.6c0,1.4-1,2-1.9,2c-1,0-1.8-0.7-1.8-1.9c0-1.3,0.8-2,1.9-2C287.6,90.7,288.3,91.5,288.3,92.6z
			 M285.3,92.6c0,0.8,0.5,1.5,1.1,1.5c0.7,0,1.1-0.6,1.1-1.5c0-0.6-0.3-1.5-1.1-1.5S285.3,91.9,285.3,92.6z"/>
		<path class="st5" d="M289.4,90.7l0.5,1.9c0.1,0.4,0.2,0.8,0.3,1.2h0c0.1-0.4,0.2-0.8,0.3-1.2l0.6-1.9h0.6l0.6,1.9
			c0.1,0.5,0.2,0.8,0.3,1.2h0c0.1-0.4,0.2-0.8,0.3-1.2l0.5-1.9h0.7l-1.2,3.8h-0.6l-0.6-1.8c-0.1-0.4-0.2-0.8-0.3-1.2h0
			c-0.1,0.5-0.2,0.8-0.3,1.2l-0.6,1.8h-0.6l-1.1-3.8H289.4z"/>
		<path class="st5" d="M348,89.3c0.3-0.1,0.8-0.1,1.3-0.1c0.7,0,1.2,0.1,1.5,0.4c0.3,0.2,0.4,0.6,0.4,1c0,0.7-0.4,1.2-1,1.3v0
			c0.4,0.1,0.6,0.5,0.8,1.1c0.2,0.7,0.3,1.2,0.4,1.4h-0.7c-0.1-0.1-0.2-0.6-0.4-1.3c-0.2-0.7-0.4-1-1.1-1h-0.6v2.3H348V89.3z
			 M348.7,91.7h0.7c0.7,0,1.2-0.4,1.2-1c0-0.7-0.5-1-1.2-1c-0.3,0-0.6,0-0.7,0.1V91.7z"/>
		<path class="st5" d="M355.1,94.5l-0.7-1.2c-0.3-0.4-0.4-0.7-0.6-1h0c-0.1,0.3-0.3,0.6-0.6,1l-0.6,1.2h-0.8l1.6-2.7l-1.5-2.6h0.8
			l0.7,1.2c0.2,0.3,0.3,0.6,0.5,0.9h0c0.1-0.3,0.3-0.6,0.5-0.9l0.7-1.2h0.8l-1.6,2.6l1.6,2.7H355.1z"/>
		<path class="st5" d="M356.7,89.3c0.4-0.1,0.9-0.1,1.4-0.1c1,0,1.7,0.2,2.1,0.7c0.5,0.4,0.7,1,0.7,1.9c0,0.9-0.3,1.6-0.8,2
			c-0.5,0.5-1.3,0.8-2.3,0.8c-0.5,0-0.9,0-1.2-0.1V89.3z M357.4,94c0.2,0,0.4,0,0.7,0c1.5,0,2.2-0.8,2.2-2.2c0-1.2-0.7-2-2.1-2
			c-0.4,0-0.6,0-0.8,0.1V94z"/>
		<path class="st5" d="M257.4,103.7c0.2,0.1,0.6,0.3,1.1,0.3c0.9,0,1.2-0.6,1.1-1c0-0.7-0.6-1-1.3-1h-0.4v-0.5h0.4
			c0.5,0,1.1-0.3,1.1-0.9c0-0.4-0.3-0.8-0.9-0.8c-0.4,0-0.8,0.2-1,0.3l-0.2-0.5c0.3-0.2,0.8-0.4,1.3-0.4c1,0,1.5,0.6,1.5,1.2
			c0,0.5-0.3,1-0.9,1.2v0c0.6,0.1,1.1,0.6,1.1,1.3c0,0.8-0.6,1.5-1.9,1.5c-0.6,0-1.1-0.2-1.3-0.3L257.4,103.7z"/>
		<path class="st5" d="M278.2,101.8c0,1.8-1.1,2.8-2.4,2.8c-1.4,0-2.4-1.1-2.4-2.7c0-1.7,1-2.8,2.4-2.8
			C277.3,99.2,278.2,100.3,278.2,101.8z M274.1,101.9c0,1.1,0.6,2.1,1.7,2.1c1.1,0,1.7-1,1.7-2.2c0-1-0.5-2.1-1.7-2.1
			C274.7,99.7,274.1,100.8,274.1,101.9z"/>
		<path class="st5" d="M279,101.9c0-0.4,0-0.8,0-1.2h0.6l0,0.7h0c0.2-0.5,0.6-0.8,1-0.8c0.1,0,0.1,0,0.2,0v0.6c-0.1,0-0.1,0-0.2,0
			c-0.5,0-0.8,0.4-0.9,0.9c0,0.1,0,0.2,0,0.3v2H279V101.9z"/>
		<path class="st5" d="M283.7,104.5l-0.1-0.5h0c-0.2,0.3-0.6,0.6-1.2,0.6c-0.8,0-1.2-0.5-1.2-1.1c0-0.9,0.8-1.4,2.3-1.4V102
			c0-0.3-0.1-0.9-0.9-0.9c-0.4,0-0.7,0.1-1,0.3l-0.2-0.5c0.3-0.2,0.8-0.3,1.2-0.3c1.2,0,1.4,0.8,1.4,1.5v1.4c0,0.3,0,0.6,0.1,0.9
			H283.7z M283.6,102.6c-0.8,0-1.6,0.1-1.6,0.8c0,0.4,0.3,0.7,0.6,0.7c0.5,0,0.8-0.3,0.9-0.6c0-0.1,0-0.1,0-0.2V102.6z"/>
		<path class="st5" d="M285.3,101.8c0-0.4,0-0.7,0-1h0.6l0,0.6h0c0.2-0.4,0.6-0.7,1.2-0.7c0.5,0,1.3,0.3,1.3,1.6v2.3h-0.7v-2.2
			c0-0.6-0.2-1.1-0.9-1.1c-0.5,0-0.8,0.3-0.9,0.7c0,0.1,0,0.2,0,0.3v2.3h-0.7V101.8z"/>
		<path class="st5" d="M292.9,100.7c0,0.3,0,0.6,0,1v2.2c0,0.9-0.2,1.4-0.5,1.7c-0.4,0.3-0.9,0.5-1.4,0.5c-0.5,0-1-0.1-1.3-0.3
			l0.2-0.5c0.2,0.2,0.6,0.3,1.1,0.3c0.7,0,1.2-0.4,1.2-1.3v-0.4h0c-0.2,0.4-0.6,0.6-1.2,0.6c-0.9,0-1.6-0.8-1.6-1.8
			c0-1.3,0.8-2,1.7-2c0.7,0,1,0.3,1.2,0.7h0l0-0.6H292.9z M292.2,102.2c0-0.1,0-0.2,0-0.3c-0.1-0.4-0.5-0.7-1-0.7
			c-0.7,0-1.1,0.6-1.1,1.4c0,0.7,0.4,1.4,1.1,1.4c0.4,0,0.8-0.3,1-0.7c0-0.1,0.1-0.2,0.1-0.4V102.2z"/>
		<path class="st5" d="M294.4,102.8c0,0.9,0.6,1.3,1.3,1.3c0.5,0,0.8-0.1,1-0.2l0.1,0.5c-0.2,0.1-0.7,0.2-1.3,0.2
			c-1.2,0-1.9-0.8-1.9-1.9c0-1.1,0.7-2,1.8-2c1.2,0,1.6,1.1,1.6,1.8c0,0.1,0,0.2,0,0.3H294.4z M296.4,102.3c0-0.4-0.2-1.1-1-1.1
			c-0.7,0-1,0.6-1.1,1.1H296.4z"/>
		<path class="st5" d="M313.6,99.3h0.7v4.7h2.2v0.6h-2.9V99.3z"/>
		<path class="st5" d="M319.3,104.5l-0.1-0.5h0c-0.2,0.3-0.6,0.6-1.2,0.6c-0.8,0-1.2-0.5-1.2-1.1c0-0.9,0.8-1.4,2.3-1.4V102
			c0-0.3-0.1-0.9-0.9-0.9c-0.4,0-0.7,0.1-1,0.3l-0.2-0.5c0.3-0.2,0.8-0.3,1.2-0.3c1.2,0,1.4,0.8,1.4,1.5v1.4c0,0.3,0,0.6,0.1,0.9
			H319.3z M319.2,102.6c-0.8,0-1.6,0.1-1.6,0.8c0,0.4,0.3,0.7,0.6,0.7c0.5,0,0.8-0.3,0.9-0.6c0-0.1,0-0.1,0-0.2V102.6z"/>
		<path class="st5" d="M320.9,103.8c0.2,0.1,0.6,0.3,0.9,0.3c0.5,0,0.7-0.2,0.7-0.6c0-0.3-0.2-0.5-0.7-0.7c-0.7-0.2-1-0.6-1-1.1
			c0-0.6,0.5-1.1,1.3-1.1c0.4,0,0.7,0.1,0.9,0.2l-0.2,0.5c-0.1-0.1-0.4-0.2-0.8-0.2c-0.4,0-0.6,0.2-0.6,0.5c0,0.3,0.2,0.5,0.7,0.6
			c0.7,0.2,1,0.6,1,1.1c0,0.7-0.5,1.1-1.4,1.1c-0.4,0-0.8-0.1-1.1-0.3L320.9,103.8z"/>
		<path class="st5" d="M324.5,102.8c0,0.9,0.6,1.3,1.3,1.3c0.5,0,0.8-0.1,1-0.2l0.1,0.5c-0.2,0.1-0.7,0.2-1.3,0.2
			c-1.2,0-1.9-0.8-1.9-1.9c0-1.1,0.7-2,1.8-2c1.2,0,1.6,1.1,1.6,1.8c0,0.1,0,0.2,0,0.3H324.5z M326.5,102.3c0-0.4-0.2-1.1-1-1.1
			c-0.7,0-1,0.6-1.1,1.1H326.5z"/>
		<path class="st5" d="M328,101.9c0-0.4,0-0.8,0-1.2h0.6l0,0.7h0c0.2-0.5,0.6-0.8,1-0.8c0.1,0,0.1,0,0.2,0v0.6c-0.1,0-0.1,0-0.2,0
			c-0.5,0-0.8,0.4-0.9,0.9c0,0.1,0,0.2,0,0.3v2H328V101.9z"/>
		<path class="st5" d="M350,100.4v1.8h1.8v0.5H350v1.8h-0.5v-1.8h-1.8v-0.5h1.8v-1.8H350z"/>
		<path class="st5" d="M355.4,100h-1.9l-0.2,1.3c0.1,0,0.2,0,0.4,0c0.4,0,0.8,0.1,1.1,0.3c0.4,0.2,0.7,0.7,0.7,1.3
			c0,1-0.8,1.7-1.9,1.7c-0.6,0-1-0.2-1.3-0.3l0.2-0.5c0.2,0.1,0.6,0.3,1.1,0.3c0.6,0,1.2-0.4,1.2-1.1c0-0.7-0.4-1.1-1.5-1.1
			c-0.3,0-0.5,0-0.7,0.1l0.3-2.4h2.4V100z"/>
		<path class="st5" d="M357.8,104.5l-1.7-5.3h0.7l0.8,2.6c0.2,0.7,0.4,1.3,0.6,2h0c0.1-0.6,0.4-1.3,0.6-2l0.9-2.6h0.7l-1.9,5.3
			H357.8z"/>
		<path class="st5" d="M259.3,114.5v-1.4H257v-0.5l2.3-3.2h0.7v3.2h0.7v0.5H260v1.4H259.3z M259.3,112.6v-1.7c0-0.3,0-0.5,0-0.8h0
			c-0.2,0.3-0.3,0.5-0.4,0.7l-1.2,1.7v0H259.3z"/>
		<path class="st5" d="M273.7,109.3c0.3-0.1,0.8-0.1,1.2-0.1c0.7,0,1.1,0.1,1.4,0.4c0.3,0.2,0.4,0.5,0.4,0.9c0,0.5-0.3,1-0.9,1.2v0
			c0.5,0.1,1.1,0.5,1.1,1.3c0,0.5-0.2,0.8-0.4,1.1c-0.4,0.3-1,0.5-1.8,0.5c-0.5,0-0.8,0-1.1-0.1V109.3z M274.4,111.5h0.6
			c0.7,0,1.1-0.4,1.1-0.9c0-0.6-0.5-0.9-1.2-0.9c-0.3,0-0.5,0-0.6,0V111.5z M274.4,114c0.1,0,0.3,0,0.6,0c0.7,0,1.4-0.3,1.4-1
			c0-0.7-0.6-1-1.4-1h-0.6V114z"/>
		<path class="st5" d="M277.9,109h0.7v5.5h-0.7V109z"/>
		<path class="st5" d="M282.9,113.5c0,0.4,0,0.7,0,1h-0.6l0-0.6h0c-0.2,0.3-0.6,0.7-1.2,0.7c-0.6,0-1.3-0.3-1.3-1.7v-2.2h0.7v2.1
			c0,0.7,0.2,1.2,0.8,1.2c0.5,0,0.8-0.3,0.9-0.6c0-0.1,0.1-0.2,0.1-0.4v-2.3h0.7V113.5z"/>
		<path class="st5" d="M284.4,112.8c0,0.9,0.6,1.3,1.3,1.3c0.5,0,0.8-0.1,1-0.2l0.1,0.5c-0.2,0.1-0.7,0.2-1.3,0.2
			c-1.2,0-1.9-0.8-1.9-1.9c0-1.1,0.7-2,1.8-2c1.2,0,1.6,1.1,1.6,1.8c0,0.1,0,0.2,0,0.3H284.4z M286.4,112.3c0-0.4-0.2-1.1-1-1.1
			c-0.7,0-1,0.6-1.1,1.1H286.4z"/>
		<path class="st5" d="M313.6,109.3h0.7v4.7h2.2v0.6h-2.9V109.3z"/>
		<path class="st5" d="M319.3,114.5l-0.1-0.5h0c-0.2,0.3-0.6,0.6-1.2,0.6c-0.8,0-1.2-0.5-1.2-1.1c0-0.9,0.8-1.4,2.3-1.4V112
			c0-0.3-0.1-0.9-0.9-0.9c-0.4,0-0.7,0.1-1,0.3l-0.2-0.5c0.3-0.2,0.8-0.3,1.2-0.3c1.2,0,1.4,0.8,1.4,1.5v1.4c0,0.3,0,0.6,0.1,0.9
			H319.3z M319.2,112.6c-0.8,0-1.6,0.1-1.6,0.8c0,0.4,0.3,0.7,0.6,0.7c0.5,0,0.8-0.3,0.9-0.6c0-0.1,0-0.1,0-0.2V112.6z"/>
		<path class="st5" d="M320.9,113.8c0.2,0.1,0.6,0.3,0.9,0.3c0.5,0,0.7-0.2,0.7-0.6c0-0.3-0.2-0.5-0.7-0.7c-0.7-0.2-1-0.6-1-1.1
			c0-0.6,0.5-1.1,1.3-1.1c0.4,0,0.7,0.1,0.9,0.2l-0.2,0.5c-0.1-0.1-0.4-0.2-0.8-0.2c-0.4,0-0.6,0.2-0.6,0.5c0,0.3,0.2,0.5,0.7,0.6
			c0.7,0.2,1,0.6,1,1.1c0,0.7-0.5,1.1-1.4,1.1c-0.4,0-0.8-0.1-1.1-0.3L320.9,113.8z"/>
		<path class="st5" d="M324.5,112.8c0,0.9,0.6,1.3,1.3,1.3c0.5,0,0.8-0.1,1-0.2l0.1,0.5c-0.2,0.1-0.7,0.2-1.3,0.2
			c-1.2,0-1.9-0.8-1.9-1.9c0-1.1,0.7-2,1.8-2c1.2,0,1.6,1.1,1.6,1.8c0,0.1,0,0.2,0,0.3H324.5z M326.5,112.3c0-0.4-0.2-1.1-1-1.1
			c-0.7,0-1,0.6-1.1,1.1H326.5z"/>
		<path class="st5" d="M328,111.9c0-0.4,0-0.8,0-1.2h0.6l0,0.7h0c0.2-0.5,0.6-0.8,1-0.8c0.1,0,0.1,0,0.2,0v0.6c-0.1,0-0.1,0-0.2,0
			c-0.5,0-0.8,0.4-0.9,0.9c0,0.1,0,0.2,0,0.3v2H328V111.9z"/>
		<path class="st5" d="M352,114.3c-0.3,0.1-0.9,0.3-1.6,0.3c-0.8,0-1.5-0.2-2-0.7c-0.5-0.4-0.7-1.1-0.7-2c0-1.6,1.1-2.7,2.9-2.7
			c0.6,0,1.1,0.1,1.3,0.2l-0.2,0.6c-0.3-0.1-0.6-0.2-1.2-0.2c-1.3,0-2.1,0.8-2.1,2.1c0,1.3,0.8,2.1,2,2.1c0.4,0,0.8-0.1,0.9-0.1
			v-1.6h-1.1v-0.5h1.7V114.3z"/>
		<path class="st5" d="M353.1,114.5v-5.3h0.7l1.7,2.7c0.4,0.6,0.7,1.2,0.9,1.7l0,0c-0.1-0.7-0.1-1.3-0.1-2.2v-2.2h0.6v5.3h-0.7
			l-1.7-2.7c-0.4-0.6-0.7-1.2-1-1.8l0,0c0,0.7,0.1,1.3,0.1,2.2v2.2H353.1z"/>
		<path class="st5" d="M358.2,109.3c0.4-0.1,0.9-0.1,1.4-0.1c1,0,1.7,0.2,2.1,0.7c0.5,0.4,0.7,1,0.7,1.9c0,0.9-0.3,1.6-0.8,2
			c-0.5,0.5-1.3,0.8-2.3,0.8c-0.5,0-0.9,0-1.2-0.1V109.3z M358.9,114c0.2,0,0.4,0,0.7,0c1.5,0,2.2-0.8,2.2-2.2c0-1.2-0.7-2-2.1-2
			c-0.4,0-0.6,0-0.8,0.1V114z"/>
		<path class="st5" d="M260.2,120h-1.9l-0.2,1.3c0.1,0,0.2,0,0.4,0c0.4,0,0.8,0.1,1.1,0.3c0.4,0.2,0.7,0.7,0.7,1.3
			c0,1-0.8,1.7-1.9,1.7c-0.6,0-1-0.2-1.3-0.3l0.2-0.5c0.2,0.1,0.6,0.3,1.1,0.3c0.6,0,1.2-0.4,1.2-1.1c0-0.7-0.4-1.1-1.5-1.1
			c-0.3,0-0.5,0-0.7,0.1l0.3-2.4h2.4V120z"/>
		<path class="st5" d="M273.7,119.3c0.3-0.1,0.8-0.1,1.2-0.1c0.7,0,1.1,0.1,1.4,0.4c0.3,0.2,0.4,0.5,0.4,0.9c0,0.5-0.3,1-0.9,1.2v0
			c0.5,0.1,1.1,0.5,1.1,1.3c0,0.5-0.2,0.8-0.4,1.1c-0.4,0.3-1,0.5-1.8,0.5c-0.5,0-0.8,0-1.1-0.1V119.3z M274.4,121.5h0.6
			c0.7,0,1.1-0.4,1.1-0.9c0-0.6-0.5-0.9-1.2-0.9c-0.3,0-0.5,0-0.6,0V121.5z M274.4,124c0.1,0,0.3,0,0.6,0c0.7,0,1.4-0.3,1.4-1
			c0-0.7-0.6-1-1.4-1h-0.6V124z"/>
		<path class="st5" d="M277.9,119h0.7v5.5h-0.7V119z"/>
		<path class="st5" d="M281.8,124.5l-0.1-0.5h0c-0.2,0.3-0.6,0.6-1.2,0.6c-0.8,0-1.2-0.5-1.2-1.1c0-0.9,0.8-1.4,2.3-1.4V122
			c0-0.3-0.1-0.9-0.9-0.9c-0.4,0-0.7,0.1-1,0.3l-0.2-0.5c0.3-0.2,0.8-0.3,1.2-0.3c1.2,0,1.4,0.8,1.4,1.5v1.4c0,0.3,0,0.6,0.1,0.9
			H281.8z M281.7,122.6c-0.8,0-1.6,0.1-1.6,0.8c0,0.4,0.3,0.7,0.6,0.7c0.5,0,0.8-0.3,0.9-0.6c0-0.1,0-0.1,0-0.2V122.6z"/>
		<path class="st5" d="M286.2,124.4c-0.2,0.1-0.6,0.2-1.1,0.2c-1.1,0-1.9-0.8-1.9-1.9c0-1.2,0.8-2,2-2c0.4,0,0.8,0.1,1,0.2l-0.2,0.5
			c-0.2-0.1-0.4-0.2-0.8-0.2c-0.9,0-1.3,0.6-1.3,1.4c0,0.9,0.6,1.4,1.3,1.4c0.4,0,0.6-0.1,0.8-0.2L286.2,124.4z"/>
		<path class="st5" d="M287.7,122.5L287.7,122.5c0.1-0.1,0.2-0.3,0.4-0.4l1.1-1.3h0.8l-1.5,1.6l1.7,2.2h-0.8l-1.3-1.8l-0.4,0.4v1.4
			H287V119h0.7V122.5z"/>
		<path class="st5" d="M318,122.2c0-0.7-0.1-1.6-0.1-2.3h0c-0.2,0.6-0.4,1.3-0.7,2l-0.9,2.5h-0.5l-0.9-2.5c-0.2-0.7-0.5-1.4-0.6-2h0
			c0,0.7-0.1,1.5-0.1,2.3l-0.1,2.3h-0.6l0.4-5.3h0.9l0.9,2.5c0.2,0.6,0.4,1.2,0.5,1.8h0c0.1-0.5,0.3-1.1,0.6-1.8l0.9-2.5h0.9
			l0.3,5.3h-0.7L318,122.2z"/>
		<path class="st5" d="M323.3,122.6c0,1.4-1,2-1.9,2c-1,0-1.8-0.7-1.8-1.9c0-1.3,0.8-2,1.9-2C322.6,120.7,323.3,121.5,323.3,122.6z
			 M320.3,122.6c0,0.8,0.5,1.5,1.1,1.5c0.7,0,1.1-0.6,1.1-1.5c0-0.6-0.3-1.5-1.1-1.5S320.3,121.9,320.3,122.6z"/>
		<path class="st5" d="M325,119.7v1.1h1v0.5h-1v2c0,0.5,0.1,0.7,0.5,0.7c0.2,0,0.3,0,0.4,0l0,0.5c-0.1,0.1-0.3,0.1-0.6,0.1
			c-0.3,0-0.6-0.1-0.7-0.3c-0.2-0.2-0.3-0.5-0.3-1v-2.1h-0.6v-0.5h0.6v-0.9L325,119.7z"/>
		<path class="st5" d="M330.1,122.6c0,1.4-1,2-1.9,2c-1,0-1.8-0.7-1.8-1.9c0-1.3,0.8-2,1.9-2C329.4,120.7,330.1,121.5,330.1,122.6z
			 M327.1,122.6c0,0.8,0.5,1.5,1.1,1.5c0.7,0,1.1-0.6,1.1-1.5c0-0.6-0.3-1.5-1.1-1.5S327.1,121.9,327.1,122.6z"/>
		<path class="st5" d="M331,121.9c0-0.4,0-0.8,0-1.2h0.6l0,0.7h0c0.2-0.5,0.6-0.8,1-0.8c0.1,0,0.1,0,0.2,0v0.6c-0.1,0-0.1,0-0.2,0
			c-0.5,0-0.8,0.4-0.9,0.9c0,0.1,0,0.2,0,0.3v2H331V121.9z"/>
		<path class="st5" d="M352,124.3c-0.3,0.1-0.9,0.3-1.6,0.3c-0.8,0-1.5-0.2-2-0.7c-0.5-0.4-0.7-1.1-0.7-2c0-1.6,1.1-2.7,2.9-2.7
			c0.6,0,1.1,0.1,1.3,0.2l-0.2,0.6c-0.3-0.1-0.6-0.2-1.2-0.2c-1.3,0-2.1,0.8-2.1,2.1c0,1.3,0.8,2.1,2,2.1c0.4,0,0.8-0.1,0.9-0.1
			v-1.6h-1.1v-0.5h1.7V124.3z"/>
		<path class="st5" d="M353,124.5v-5.3h0.7l1.7,2.7c0.4,0.6,0.7,1.2,0.9,1.7l0,0c-0.1-0.7-0.1-1.3-0.1-2.2v-2.2h0.6v5.3h-0.7
			l-1.7-2.7c-0.4-0.6-0.7-1.2-1-1.8l0,0c0,0.7,0.1,1.3,0.1,2.2v2.2H353z"/>
		<path class="st5" d="M358.2,119.3c0.4-0.1,0.9-0.1,1.4-0.1c1,0,1.7,0.2,2.1,0.7c0.5,0.4,0.7,1,0.7,1.9c0,0.9-0.3,1.6-0.8,2
			c-0.5,0.5-1.3,0.8-2.3,0.8c-0.5,0-0.9,0-1.2-0.1V119.3z M358.9,124c0.2,0,0.4,0,0.7,0c1.5,0,2.2-0.8,2.2-2.2c0-1.2-0.7-2-2.1-2
			c-0.4,0-0.6,0-0.8,0.1V124z"/>
		<path class="st5" d="M260.1,129.9c-0.1,0-0.3,0-0.5,0c-1.1,0.2-1.6,1-1.8,1.8h0c0.2-0.3,0.7-0.6,1.2-0.6c0.9,0,1.5,0.6,1.5,1.6
			c0,0.9-0.6,1.8-1.7,1.8c-1.1,0-1.8-0.8-1.8-2.2c0-1,0.4-1.8,0.9-2.3c0.4-0.4,1-0.7,1.6-0.7c0.2,0,0.4,0,0.5,0V129.9z M259.9,132.9
			c0-0.7-0.4-1.2-1-1.2c-0.4,0-0.8,0.3-1,0.6c0,0.1-0.1,0.2-0.1,0.3c0,0.8,0.4,1.5,1.1,1.5C259.5,134.1,259.9,133.6,259.9,132.9z"/>
		<path class="st5" d="M273.7,129.3c0.3-0.1,0.8-0.1,1.3-0.1c0.7,0,1.2,0.1,1.5,0.4c0.3,0.2,0.4,0.6,0.4,1c0,0.7-0.4,1.2-1,1.3v0
			c0.4,0.1,0.6,0.5,0.8,1.1c0.2,0.7,0.3,1.2,0.4,1.4h-0.7c-0.1-0.1-0.2-0.6-0.4-1.3c-0.2-0.7-0.4-1-1.1-1h-0.6v2.3h-0.7V129.3z
			 M274.4,131.7h0.7c0.7,0,1.2-0.4,1.2-1c0-0.7-0.5-1-1.2-1c-0.3,0-0.6,0-0.7,0.1V131.7z"/>
		<path class="st5" d="M278.3,132.8c0,0.9,0.6,1.3,1.3,1.3c0.5,0,0.8-0.1,1-0.2l0.1,0.5c-0.2,0.1-0.7,0.2-1.3,0.2
			c-1.2,0-1.9-0.8-1.9-1.9c0-1.1,0.7-2,1.8-2c1.2,0,1.6,1.1,1.6,1.8c0,0.1,0,0.2,0,0.3H278.3z M280.3,132.3c0-0.4-0.2-1.1-1-1.1
			c-0.7,0-1,0.6-1.1,1.1H280.3z"/>
		<path class="st5" d="M285.1,129v4.6c0,0.3,0,0.7,0,1h-0.6l0-0.7h0c-0.2,0.4-0.7,0.7-1.3,0.7c-0.9,0-1.6-0.8-1.6-1.9
			c0-1.3,0.8-2,1.7-2c0.6,0,1,0.3,1.1,0.6h0V129H285.1z M284.4,132.3c0-0.1,0-0.2,0-0.3c-0.1-0.4-0.5-0.8-1-0.8
			c-0.7,0-1.1,0.6-1.1,1.5c0,0.8,0.4,1.4,1.1,1.4c0.5,0,0.9-0.3,1-0.8c0-0.1,0-0.2,0-0.3V132.3z"/>
		<path class="st5" d="M318,132.2c0-0.7-0.1-1.6-0.1-2.3h0c-0.2,0.6-0.4,1.3-0.7,2l-0.9,2.5h-0.5l-0.9-2.5c-0.2-0.7-0.5-1.4-0.6-2h0
			c0,0.7-0.1,1.5-0.1,2.3l-0.1,2.3h-0.6l0.4-5.3h0.9l0.9,2.5c0.2,0.6,0.4,1.2,0.5,1.8h0c0.1-0.5,0.3-1.1,0.6-1.8l0.9-2.5h0.9
			l0.3,5.3h-0.7L318,132.2z"/>
		<path class="st5" d="M323.3,132.6c0,1.4-1,2-1.9,2c-1,0-1.8-0.7-1.8-1.9c0-1.3,0.8-2,1.9-2C322.6,130.7,323.3,131.5,323.3,132.6z
			 M320.3,132.6c0,0.8,0.5,1.5,1.1,1.5c0.7,0,1.1-0.6,1.1-1.5c0-0.6-0.3-1.5-1.1-1.5S320.3,131.9,320.3,132.6z"/>
		<path class="st5" d="M325,129.7v1.1h1v0.5h-1v2c0,0.5,0.1,0.7,0.5,0.7c0.2,0,0.3,0,0.4,0l0,0.5c-0.1,0.1-0.3,0.1-0.6,0.1
			c-0.3,0-0.6-0.1-0.7-0.3c-0.2-0.2-0.3-0.5-0.3-1v-2.1h-0.6v-0.5h0.6v-0.9L325,129.7z"/>
		<path class="st5" d="M330.1,132.6c0,1.4-1,2-1.9,2c-1,0-1.8-0.7-1.8-1.9c0-1.3,0.8-2,1.9-2C329.4,130.7,330.1,131.5,330.1,132.6z
			 M327.1,132.6c0,0.8,0.5,1.5,1.1,1.5c0.7,0,1.1-0.6,1.1-1.5c0-0.6-0.3-1.5-1.1-1.5S327.1,131.9,327.1,132.6z"/>
		<path class="st5" d="M331,131.9c0-0.4,0-0.8,0-1.2h0.6l0,0.7h0c0.2-0.5,0.6-0.8,1-0.8c0.1,0,0.1,0,0.2,0v0.6c-0.1,0-0.1,0-0.2,0
			c-0.5,0-0.8,0.4-0.9,0.9c0,0.1,0,0.2,0,0.3v2H331V131.9z"/>
		<path class="st5" d="M350,130.4v1.8h1.8v0.5H350v1.8h-0.5v-1.8h-1.8v-0.5h1.8v-1.8H350z"/>
		<path class="st5" d="M353.9,130.1L353.9,130.1l-0.9,0.5l-0.1-0.5l1.1-0.6h0.6v5.1h-0.7V130.1z"/>
		<path class="st5" d="M356.4,134.5v-0.4l0.5-0.5c1.3-1.2,1.9-1.9,1.9-2.7c0-0.5-0.2-1-1-1c-0.5,0-0.8,0.2-1.1,0.4l-0.2-0.5
			c0.4-0.3,0.9-0.5,1.4-0.5c1.1,0,1.6,0.7,1.6,1.5c0,0.9-0.7,1.7-1.8,2.7l-0.4,0.4v0h2.3v0.6H356.4z"/>
		<path class="st5" d="M361.8,134.5l-1.7-5.3h0.7l0.8,2.6c0.2,0.7,0.4,1.3,0.6,2h0c0.1-0.6,0.4-1.3,0.6-2l0.9-2.6h0.7l-1.9,5.3
			H361.8z"/>
	</g>
</g>
<polygon class="st8" points="202.8,130.3 203.9,126.2 208.1,125 211,127.9 209.8,132.1 205.7,133.2 "/>
<path class="st2" d="M204.4,126.7c1.4-1.4,3.6-1.5,5-0.1c1.3,1.3,1.3,3.6-0.1,5c-1.4,1.4-3.6,1.5-5,0.1
	C203,130.3,203,128.1,204.4,126.7z"/>
<polygon class="st8" points="157.7,130.3 158.8,126.2 163,125 165.9,127.9 164.7,132.1 160.6,133.2 "/>
<path class="st2" d="M159.3,126.7c1.4-1.4,3.6-1.5,5-0.1c1.3,1.3,1.3,3.6-0.1,5c-1.4,1.4-3.6,1.5-5,0.1
	C157.9,130.3,157.9,128.1,159.3,126.7z"/>
<polygon class="st8" points="202.7,85.2 203.9,81.1 208,79.9 211,82.8 209.8,86.9 205.7,88.1 "/>
<path class="st2" d="M204.4,81.6c1.4-1.4,3.6-1.5,5-0.1c1.3,1.3,1.3,3.6-0.1,5c-1.4,1.4-3.6,1.5-5,0.1C203,85.2,203,83,204.4,81.6z"
	/>
<polygon class="st8" points="157.1,85.8 158.3,81.7 162.4,80.5 165.3,83.4 164.1,87.6 160,88.7 "/>
<path class="st2" d="M158.8,82.2c1.4-1.4,3.6-1.5,5-0.1c1.3,1.3,1.3,3.6-0.1,5c-1.4,1.4-3.6,1.5-5,0.1
	C157.3,85.8,157.4,83.6,158.8,82.2z"/>
<polygon class="st9" points="218.5,109.6 209.5,109.6 209.2,108.9 218.8,108.9 226.8,113.2 243.5,113.2 251,130.7 251,130.7 
	253.5,130.7 253.5,132.7 251,132.7 251,132.7 242.6,115.2 227.7,115.2 "/>
<polygon class="st10" points="218.9,108.5 209.1,108.5 208.9,107.8 219.1,107.8 226,110.1 244.3,110.1 251,120.7 251,120.7 
	253.5,120.7 253.5,122.7 251,122.7 251,122.7 243.8,112.1 226.5,112.1 "/>
<polygon class="st11" points="219.2,107.5 208.8,107.5 208.7,106.7 219.3,106.7 225.5,107.1 244.8,107.1 251,110.7 251,110.7 
	253.5,110.7 253.5,112.7 251,112.7 251,112.7 244.5,109.1 225.8,109.1 "/>
<polygon class="st12" points="219.3,106.4 208.7,106.4 208.7,105.6 219.3,105.6 225.4,104.1 244.9,104.1 251,100.7 253.5,100.7 
	253.5,102.7 251,102.7 244.9,106.1 225.4,106.1 "/>
<polygon class="st13" points="219.3,105.3 208.7,105.3 208.8,104.6 219.2,104.6 225.8,101.1 244.5,101.1 251,90.7 253.5,90.7 
	253.5,92.7 251,92.7 251,92.7 244.8,103.1 225.5,103.1 "/>
<polygon class="st14" points="219.1,104.2 208.9,104.2 209.1,103.5 218.9,103.5 226.5,98 243.8,98 251,80.7 253.5,80.7 253.5,82.7 
	251,82.7 244.3,100 226,100 "/>
</svg>
