<?xml version="1.0" encoding="UTF-8" standalone="no"?>
<!-- Generator: Adobe Illustrator 15.0.2, SVG Export Plug-In . SVG Version: 6.00 Build 0)  -->

<svg
   xmlns:dc="http://purl.org/dc/elements/1.1/"
   xmlns:cc="http://creativecommons.org/ns#"
   xmlns:rdf="http://www.w3.org/1999/02/22-rdf-syntax-ns#"
   xmlns:svg="http://www.w3.org/2000/svg"
   xmlns="http://www.w3.org/2000/svg"
   xmlns:sodipodi="http://sodipodi.sourceforge.net/DTD/sodipodi-0.dtd"
   xmlns:inkscape="http://www.inkscape.org/namespaces/inkscape"
   version="1.1"
   id="Layer_1"
   x="0px"
   y="0px"
   width="529.89996"
   height="277.21896"
   viewBox="0 0 211.95998 110.88759"
   enable-background="new 0 0 1024 768"
   xml:space="preserve"
   sodipodi:docname="wiring.svg"
   inkscape:version="0.92.3 (unknown)"><metadata
   id="metadata4187"><rdf:RDF><cc:Work
       rdf:about=""><dc:format>image/svg+xml</dc:format><dc:type
         rdf:resource="http://purl.org/dc/dcmitype/StillImage" /><dc:title></dc:title></cc:Work></rdf:RDF></metadata><defs
   id="defs4185" /><sodipodi:namedview
   pagecolor="#ffffff"
   bordercolor="#666666"
   borderopacity="1"
   objecttolerance="10"
   gridtolerance="10"
   guidetolerance="10"
   inkscape:pageopacity="0"
   inkscape:pageshadow="2"
   inkscape:window-width="2560"
   inkscape:window-height="1384"
   id="namedview4183"
   showgrid="false"
   inkscape:zoom="1.5520833"
   inkscape:cx="260.62432"
   inkscape:cy="133.93769"
   inkscape:window-x="0"
   inkscape:window-y="0"
   inkscape:window-maximized="1"
   inkscape:current-layer="Layer_1"
   fit-margin-top="10"
   fit-margin-right="10"
   fit-margin-bottom="10"
   fit-margin-left="10" />
<path
   stroke-miterlimit="10"
   d="m 19.186978,91.69885 c -19.95900009,-19.962996 -19.91300009,-52.377996 0.108,-72.401996 20.02,-20.02299955 52.437,-20.06999955 72.398002,-0.108 19.961,19.962 19.913,52.377 -0.11,72.400996 -20.023002,20.02401 -52.438002,20.07101 -72.396002,0.109 z"
   id="path3970"
   inkscape:connector-curvature="0"
   style="fill:#939598;stroke:#231f20;stroke-width:0.5;stroke-linecap:round;stroke-linejoin:round;stroke-miterlimit:10" />
<path
   stroke-miterlimit="10"
   d="M 21.117978,89.76885 C 2.2149779,70.863854 2.2549779,40.168854 21.209978,21.210854 c 18.954,-18.9579994 49.649,-18.9979994 68.554002,-0.093 18.906,18.906 18.864,49.6 -0.093,68.556996 -18.959002,18.95901 -49.652002,18.99901 -68.553002,0.094 z"
   id="path3972"
   inkscape:connector-curvature="0"
   style="fill:#d1d3d4;stroke:#231f20;stroke-width:0.56480002;stroke-linecap:round;stroke-linejoin:round;stroke-miterlimit:10" />
<path
   stroke-miterlimit="10"
   d="M 25.064978,85.81985 C 8.3289779,69.078854 8.3559779,41.906854 25.126978,25.130854 c 16.773,-16.7759995 43.946,-16.8039995 60.687002,-0.063 16.742,16.741 16.714,43.913 -0.062,60.688996 -16.776002,16.77601 -43.948002,16.80301 -60.687002,0.063 z"
   id="path3974"
   inkscape:connector-curvature="0"
   style="fill:#d1d3d4;stroke:#231f20;stroke-width:0.5;stroke-linecap:round;stroke-linejoin:round;stroke-miterlimit:10" />
<path
   stroke-miterlimit="10"
   d="m 28.857978,82.024854 c -14.653,-14.656 -14.635,-38.44 0.042,-53.122 14.68,-14.681 38.464,-14.699 53.121,-0.042 14.657002,14.658 14.639002,38.442 -0.042,53.123 -14.682,14.682006 -38.465,14.699006 -53.121,0.041 z"
   id="path3976"
   inkscape:connector-curvature="0"
   style="fill:none;stroke:#231f20;stroke-width:0.5;stroke-linecap:round;stroke-linejoin:round;stroke-miterlimit:10" />
<ellipse
   transform="rotate(-135)"
   stroke-miterlimit="10"
   cx="-64.32003"
   cy="0.01325322"
   rx="3.8849628"
   ry="3.858963"
   id="ellipse3978"
   style="fill:#58595b;stroke:#231f20;stroke-width:0.48179537;stroke-linecap:round;stroke-linejoin:round;stroke-miterlimit:10" />
<polygon
   points="447.372,372.729 447.94,375.013 446.278,376.675 444.045,376.055 443.477,373.875 445.139,372.212 "
   id="polygon3980"
   style="fill:#231f20"
   transform="translate(-400.23202,-328.96315)" />
<ellipse
   transform="rotate(-134.9919)"
   stroke-miterlimit="10"
   cx="-92.538322"
   cy="0.030820169"
   rx="3.8849628"
   ry="3.8579631"
   id="ellipse3982"
   style="fill:#58595b;stroke:#231f20;stroke-width:0.48179537;stroke-linecap:round;stroke-linejoin:round;stroke-miterlimit:10" />
<polygon
   points="467.321,392.678 467.891,394.964 466.229,396.626 463.995,396.004 463.427,393.824 465.089,392.162 "
   id="polygon3984"
   style="fill:#231f20"
   transform="translate(-400.23202,-328.96315)" />
<ellipse
   transform="rotate(134.9919)"
   stroke-miterlimit="10"
   cx="14.142029"
   cy="-78.430931"
   rx="3.8599629"
   ry="3.8109636"
   id="ellipse3986"
   style="fill:#58595b;stroke:#231f20;stroke-width:0.47729543;stroke-linecap:round;stroke-linejoin:round;stroke-miterlimit:10" />
<polygon
   points="443.99,392.711 446.275,392.142 447.938,393.803 447.315,396.035 445.135,396.605 443.474,394.943 "
   id="polygon3988"
   style="fill:#231f20"
   transform="translate(-400.23202,-328.96315)" />
<ellipse
   transform="rotate(135)"
   stroke-miterlimit="10"
   cx="-14.130203"
   cy="-78.388283"
   rx="3.8599629"
   ry="3.8119636"
   id="ellipse3990"
   style="fill:#58595b;stroke:#231f20;stroke-width:0.4772954;stroke-linecap:round;stroke-linejoin:round;stroke-miterlimit:10" />
<polygon
   points="463.947,372.753 466.232,372.184 467.895,373.846 467.272,376.078 465.092,376.648 463.431,374.986 "
   id="polygon3992"
   style="fill:#231f20"
   transform="translate(-400.23202,-328.96315)" />
<ellipse
   transform="rotate(-135)"
   cx="-96.812706"
   cy="18.396658"
   rx="4.0369616"
   ry="3.9999616"
   id="ellipse3994"
   style="fill:#231f20;stroke-width:0.9999904" />
<ellipse
   transform="rotate(-134.9919)"
   stroke-miterlimit="10"
   cx="-54.991688"
   cy="-16.302519"
   rx="3.3589678"
   ry="3.2999682"
   id="ellipse3996"
   style="fill:#58595b;stroke:#231f20;stroke-width:0.41439605;stroke-linecap:round;stroke-linejoin:round;stroke-miterlimit:10" />
<polygon
   points="428.992,377.918 429.492,379.887 428.07,381.308 426.147,380.764 425.648,378.886 427.07,377.464 "
   id="polygon3998"
   style="fill:#231f20"
   transform="translate(-400.23202,-328.96315)" />
<ellipse
   transform="rotate(-134.9919)"
   stroke-miterlimit="10"
   cx="-63.047726"
   cy="-24.358162"
   rx="3.3589678"
   ry="3.3009684"
   id="ellipse4000"
   style="fill:#58595b;stroke:#231f20;stroke-width:0.41439605;stroke-linecap:round;stroke-linejoin:round;stroke-miterlimit:10" />
<polygon
   points="428.992,389.311 429.49,391.279 428.068,392.701 426.146,392.157 425.647,390.278 427.069,388.856 "
   id="polygon4002"
   style="fill:#231f20"
   transform="translate(-400.23202,-328.96315)" />
<g
   id="g4152"
   transform="translate(-400.23202,-328.96315)">
	<path
   d="m 529.806,367.614 h -0.014 l -0.757,0.407 -0.114,-0.448 0.951,-0.508 h 0.503 v 4.344 h -0.569 z"
   id="path4004"
   inkscape:connector-curvature="0"
   style="fill:#231f20" />
	<path
   d="m 538.471,371.41 -1.146,-4.504 h 0.616 l 0.535,2.279 c 0.135,0.562 0.255,1.123 0.335,1.557 h 0.014 c 0.074,-0.448 0.215,-0.982 0.368,-1.564 l 0.604,-2.272 h 0.609 l 0.549,2.286 c 0.128,0.535 0.248,1.069 0.315,1.544 h 0.014 c 0.094,-0.495 0.221,-0.996 0.361,-1.558 l 0.596,-2.272 h 0.597 l -1.279,4.504 h -0.609 l -0.569,-2.346 c -0.142,-0.575 -0.235,-1.016 -0.295,-1.471 h -0.014 c -0.073,0.448 -0.181,0.889 -0.349,1.471 l -0.643,2.346 z"
   id="path4006"
   inkscape:connector-curvature="0"
   style="fill:#231f20" />
	<path
   d="m 543.353,366.665 h 0.59 v 2.025 h 0.013 c 0.094,-0.167 0.241,-0.321 0.422,-0.421 0.175,-0.1 0.382,-0.161 0.604,-0.161 0.436,0 1.132,0.268 1.132,1.377 v 1.925 h -0.59 v -1.858 c 0,-0.521 -0.193,-0.956 -0.75,-0.956 -0.382,0 -0.677,0.267 -0.79,0.581 -0.034,0.087 -0.04,0.174 -0.04,0.281 v 1.952 h -0.59 v -4.745 z"
   id="path4008"
   inkscape:connector-curvature="0"
   style="fill:#231f20" />
	<path
   d="m 547.73,367.267 c 0,0.2 -0.141,0.361 -0.375,0.361 -0.214,0 -0.354,-0.161 -0.354,-0.361 0,-0.201 0.146,-0.368 0.368,-0.368 0.214,0 0.361,0.16 0.361,0.368 z m -0.656,4.143 v -3.235 h 0.59 v 3.235 z"
   id="path4010"
   inkscape:connector-curvature="0"
   style="fill:#231f20" />
	<path
   d="m 549.354,367.4 v 0.775 h 0.844 v 0.448 h -0.844 v 1.745 c 0,0.401 0.113,0.628 0.441,0.628 0.161,0 0.255,-0.013 0.342,-0.04 l 0.027,0.448 c -0.114,0.04 -0.295,0.081 -0.522,0.081 -0.275,0 -0.496,-0.094 -0.637,-0.248 -0.161,-0.18 -0.228,-0.468 -0.228,-0.849 v -1.765 h -0.503 v -0.448 h 0.503 v -0.602 z"
   id="path4012"
   inkscape:connector-curvature="0"
   style="fill:#231f20" />
	<path
   d="m 551.15,369.9 c 0.014,0.795 0.516,1.123 1.112,1.123 0.422,0 0.683,-0.073 0.897,-0.167 l 0.107,0.421 c -0.208,0.094 -0.569,0.208 -1.086,0.208 -0.998,0 -1.594,-0.662 -1.594,-1.638 0,-0.976 0.576,-1.738 1.521,-1.738 1.065,0 1.34,0.922 1.34,1.517 0,0.121 -0.007,0.208 -0.021,0.274 z m 1.729,-0.421 c 0.007,-0.367 -0.154,-0.949 -0.817,-0.949 -0.603,0 -0.857,0.541 -0.904,0.949 z"
   id="path4014"
   inkscape:connector-curvature="0"
   style="fill:#231f20" />
	<path
   d="m 594.925,367.4 h -1.373 v -0.495 h 3.343 v 0.495 h -1.38 v 4.01 h -0.59 z"
   id="path4016"
   inkscape:connector-curvature="0"
   style="fill:#231f20" />
	<path
   d="m 600.019,371.41 -0.582,-0.996 c -0.234,-0.381 -0.375,-0.628 -0.517,-0.889 h -0.013 c -0.128,0.261 -0.262,0.501 -0.489,0.896 l -0.543,0.989 h -0.67 l 1.381,-2.279 -1.327,-2.226 h 0.677 l 0.597,1.056 c 0.167,0.294 0.294,0.521 0.415,0.762 h 0.02 c 0.128,-0.268 0.241,-0.475 0.409,-0.762 l 0.609,-1.056 h 0.677 l -1.373,2.192 1.406,2.312 h -0.677 z"
   id="path4018"
   inkscape:connector-curvature="0"
   style="fill:#231f20" />
	<path
   d="m 601.376,366.973 c 0.355,-0.061 0.777,-0.101 1.239,-0.101 0.838,0 1.434,0.201 1.829,0.562 0.408,0.368 0.643,0.889 0.643,1.617 0,0.735 -0.234,1.337 -0.649,1.751 -0.429,0.421 -1.125,0.648 -2.003,0.648 -0.422,0 -0.764,-0.02 -1.059,-0.053 z m 0.583,3.983 c 0.147,0.02 0.361,0.027 0.59,0.027 1.252,0 1.922,-0.695 1.922,-1.912 0.007,-1.062 -0.596,-1.737 -1.828,-1.737 -0.302,0 -0.529,0.026 -0.684,0.06 z"
   id="path4020"
   inkscape:connector-curvature="0"
   style="fill:#231f20" />
	<path
   d="m 528.525,376.91 v -0.361 l 0.463,-0.448 c 1.111,-1.056 1.621,-1.618 1.621,-2.272 0,-0.441 -0.208,-0.849 -0.857,-0.849 -0.396,0 -0.724,0.2 -0.925,0.368 l -0.188,-0.415 c 0.295,-0.247 0.73,-0.441 1.226,-0.441 0.938,0 1.333,0.642 1.333,1.263 0,0.802 -0.582,1.45 -1.5,2.332 l -0.342,0.321 v 0.014 h 1.949 v 0.488 z"
   id="path4022"
   inkscape:connector-curvature="0"
   style="fill:#231f20" />
	<path
   d="m 538.583,376.91 v -1.715 l -1.286,-2.327 h 0.601 l 0.571,1.116 c 0.15,0.306 0.276,0.552 0.403,0.833 h 0.012 c 0.108,-0.264 0.252,-0.528 0.409,-0.833 l 0.583,-1.116 h 0.589 l -1.353,2.321 v 1.721 z"
   id="path4024"
   inkscape:connector-curvature="0"
   style="fill:#231f20" />
	<path
   d="m 540.754,375.555 c 0.013,0.714 0.463,1.008 0.998,1.008 0.379,0 0.613,-0.066 0.806,-0.15 l 0.097,0.377 c -0.187,0.084 -0.512,0.186 -0.975,0.186 -0.896,0 -1.431,-0.594 -1.431,-1.469 0,-0.875 0.518,-1.559 1.365,-1.559 0.956,0 1.202,0.828 1.202,1.361 0,0.108 -0.006,0.186 -0.019,0.246 z m 1.552,-0.378 c 0.006,-0.33 -0.139,-0.852 -0.733,-0.852 -0.541,0 -0.77,0.486 -0.812,0.852 z"
   id="path4026"
   inkscape:connector-curvature="0"
   style="fill:#231f20" />
	<path
   d="m 543.473,372.652 h 0.528 v 4.258 h -0.528 z"
   id="path4028"
   inkscape:connector-curvature="0"
   style="fill:#231f20" />
	<path
   d="m 544.892,372.652 h 0.529 v 4.258 h -0.529 z"
   id="path4030"
   inkscape:connector-curvature="0"
   style="fill:#231f20" />
	<path
   d="m 548.944,375.435 c 0,1.073 -0.751,1.541 -1.449,1.541 -0.781,0 -1.395,-0.576 -1.395,-1.493 0,-0.965 0.644,-1.535 1.443,-1.535 0.836,0 1.401,0.605 1.401,1.487 z m -2.302,0.03 c 0,0.636 0.361,1.116 0.878,1.116 0.505,0 0.884,-0.474 0.884,-1.127 0,-0.492 -0.246,-1.109 -0.872,-1.109 -0.62,-0.001 -0.89,0.574 -0.89,1.12 z"
   id="path4032"
   inkscape:connector-curvature="0"
   style="fill:#231f20" />
	<path
   d="m 549.781,374.008 0.391,1.475 c 0.078,0.324 0.156,0.624 0.211,0.923 h 0.018 c 0.066,-0.293 0.162,-0.605 0.259,-0.917 l 0.475,-1.481 h 0.445 l 0.451,1.451 c 0.107,0.348 0.192,0.654 0.258,0.947 h 0.019 c 0.048,-0.293 0.126,-0.6 0.223,-0.941 l 0.414,-1.457 h 0.523 l -0.938,2.902 h -0.481 l -0.445,-1.385 c -0.102,-0.324 -0.186,-0.612 -0.258,-0.954 h -0.013 c -0.071,0.348 -0.162,0.648 -0.264,0.959 l -0.47,1.379 h -0.48 l -0.878,-2.902 h 0.54 z"
   id="path4034"
   inkscape:connector-curvature="0"
   style="fill:#231f20" />
	<path
   d="m 594.016,372.922 c 0.265,-0.048 0.649,-0.084 1.004,-0.084 0.559,0 0.926,0.108 1.172,0.33 0.199,0.18 0.319,0.456 0.319,0.774 0,0.528 -0.337,0.881 -0.758,1.025 v 0.018 c 0.307,0.108 0.493,0.396 0.589,0.815 0.133,0.563 0.229,0.954 0.312,1.109 h -0.541 c -0.065,-0.12 -0.156,-0.462 -0.264,-0.965 -0.121,-0.558 -0.343,-0.768 -0.818,-0.786 h -0.493 v 1.751 h -0.522 z m 0.522,1.841 h 0.535 c 0.56,0 0.914,-0.306 0.914,-0.768 0,-0.521 -0.379,-0.75 -0.932,-0.75 -0.253,0 -0.427,0.018 -0.518,0.042 v 1.476 z"
   id="path4036"
   inkscape:connector-curvature="0"
   style="fill:#231f20" />
	<path
   d="m 599.5,376.91 -0.523,-0.894 c -0.211,-0.342 -0.337,-0.563 -0.463,-0.797 h -0.012 c -0.114,0.234 -0.234,0.45 -0.439,0.803 l -0.486,0.888 h -0.602 l 1.238,-2.045 -1.19,-1.997 h 0.607 l 0.535,0.948 c 0.15,0.264 0.265,0.468 0.373,0.684 h 0.018 c 0.114,-0.24 0.217,-0.426 0.367,-0.684 l 0.547,-0.948 h 0.607 l -1.233,1.967 1.263,2.075 z"
   id="path4038"
   inkscape:connector-curvature="0"
   style="fill:#231f20" />
	<path
   d="m 600.715,372.928 c 0.318,-0.054 0.697,-0.09 1.112,-0.09 0.751,0 1.286,0.18 1.641,0.504 0.367,0.33 0.577,0.797 0.577,1.451 0,0.66 -0.21,1.199 -0.583,1.571 -0.385,0.378 -1.01,0.582 -1.797,0.582 -0.379,0 -0.686,-0.018 -0.95,-0.048 z m 0.522,3.574 c 0.133,0.018 0.325,0.024 0.529,0.024 1.124,0 1.726,-0.624 1.726,-1.715 0.006,-0.954 -0.535,-1.56 -1.642,-1.56 -0.271,0 -0.475,0.024 -0.613,0.054 z"
   id="path4040"
   inkscape:connector-curvature="0"
   style="fill:#231f20" />
	<path
   d="m 528.666,382.742 c 0.168,0.101 0.55,0.268 0.965,0.268 0.75,0 0.991,-0.475 0.985,-0.842 -0.007,-0.608 -0.557,-0.869 -1.126,-0.869 h -0.328 v -0.441 h 0.328 c 0.429,0 0.972,-0.22 0.972,-0.735 0,-0.348 -0.222,-0.655 -0.764,-0.655 -0.349,0 -0.684,0.154 -0.871,0.288 l -0.161,-0.428 c 0.235,-0.167 0.677,-0.334 1.146,-0.334 0.857,0 1.246,0.508 1.246,1.036 0,0.455 -0.274,0.835 -0.804,1.029 v 0.013 c 0.536,0.101 0.965,0.501 0.972,1.11 0,0.695 -0.55,1.303 -1.588,1.303 -0.489,0 -0.918,-0.154 -1.132,-0.294 z"
   id="path4042"
   inkscape:connector-curvature="0"
   style="fill:#231f20" />
	<path
   d="m 541.592,381.111 c 0,1.543 -0.944,2.373 -2.097,2.373 -1.199,0 -2.029,-0.929 -2.029,-2.292 0,-1.43 0.884,-2.366 2.09,-2.366 1.239,-0.001 2.036,0.942 2.036,2.285 z m -3.51,0.067 c 0,0.969 0.522,1.832 1.446,1.832 0.925,0 1.447,-0.849 1.447,-1.872 0,-0.902 -0.469,-1.838 -1.44,-1.838 -0.971,0 -1.453,0.895 -1.453,1.878 z"
   id="path4044"
   inkscape:connector-curvature="0"
   style="fill:#231f20" />
	<path
   d="m 542.333,381.185 c 0,-0.381 -0.006,-0.708 -0.026,-1.009 h 0.516 l 0.027,0.642 h 0.02 c 0.147,-0.434 0.51,-0.708 0.904,-0.708 0.061,0 0.107,0.007 0.161,0.014 v 0.555 c -0.061,-0.014 -0.121,-0.014 -0.201,-0.014 -0.415,0 -0.71,0.308 -0.79,0.749 -0.014,0.081 -0.021,0.181 -0.021,0.274 v 1.724 h -0.59 z"
   id="path4046"
   inkscape:connector-curvature="0"
   style="fill:#231f20" />
	<path
   d="m 546.77,382.635 c 0,0.281 0.014,0.555 0.047,0.775 h -0.529 l -0.047,-0.408 h -0.02 c -0.181,0.254 -0.529,0.481 -0.991,0.481 -0.657,0 -0.992,-0.461 -0.992,-0.929 0,-0.782 0.697,-1.209 1.949,-1.203 v -0.067 c 0,-0.26 -0.073,-0.749 -0.736,-0.742 -0.309,0 -0.623,0.087 -0.851,0.241 l -0.134,-0.395 c 0.268,-0.167 0.663,-0.281 1.071,-0.281 0.991,0 1.232,0.675 1.232,1.317 v 1.211 z m -0.57,-0.876 c -0.643,-0.013 -1.373,0.1 -1.373,0.729 0,0.388 0.255,0.562 0.549,0.562 0.429,0 0.704,-0.268 0.798,-0.542 0.02,-0.067 0.026,-0.134 0.026,-0.187 z"
   id="path4048"
   inkscape:connector-curvature="0"
   style="fill:#231f20" />
	<path
   d="m 547.724,381.051 c 0,-0.341 -0.006,-0.608 -0.026,-0.875 h 0.522 l 0.033,0.535 h 0.014 c 0.161,-0.301 0.536,-0.602 1.072,-0.602 0.448,0 1.146,0.268 1.146,1.377 v 1.925 h -0.59 v -1.865 c 0,-0.521 -0.194,-0.956 -0.75,-0.956 -0.382,0 -0.684,0.274 -0.791,0.602 -0.026,0.073 -0.04,0.174 -0.04,0.274 v 1.945 h -0.59 z"
   id="path4050"
   inkscape:connector-curvature="0"
   style="fill:#231f20" />
	<path
   d="m 554.219,382.936 c 0,0.749 -0.154,1.196 -0.463,1.484 -0.321,0.287 -0.776,0.388 -1.186,0.388 -0.388,0 -0.816,-0.094 -1.078,-0.268 l 0.147,-0.455 c 0.214,0.141 0.549,0.261 0.951,0.261 0.603,0 1.045,-0.314 1.045,-1.136 v -0.354 h -0.014 c -0.174,0.301 -0.529,0.542 -1.031,0.542 -0.804,0 -1.38,-0.682 -1.38,-1.578 0,-1.096 0.717,-1.711 1.467,-1.711 0.562,0 0.864,0.288 1.012,0.555 h 0.014 l 0.02,-0.488 h 0.522 c -0.02,0.228 -0.026,0.495 -0.026,0.882 z m -0.59,-1.484 c 0,-0.101 -0.007,-0.188 -0.033,-0.261 -0.107,-0.348 -0.389,-0.628 -0.824,-0.628 -0.562,0 -0.965,0.475 -0.965,1.223 0,0.635 0.329,1.163 0.958,1.163 0.369,0 0.697,-0.228 0.817,-0.602 0.033,-0.101 0.047,-0.214 0.047,-0.314 z"
   id="path4052"
   inkscape:connector-curvature="0"
   style="fill:#231f20" />
	<path
   d="m 555.521,381.9 c 0.014,0.795 0.516,1.123 1.112,1.123 0.422,0 0.683,-0.073 0.897,-0.167 l 0.107,0.421 c -0.208,0.094 -0.569,0.208 -1.086,0.208 -0.998,0 -1.594,-0.662 -1.594,-1.638 0,-0.976 0.576,-1.738 1.521,-1.738 1.065,0 1.34,0.922 1.34,1.517 0,0.121 -0.007,0.208 -0.021,0.274 z m 1.729,-0.421 c 0.007,-0.367 -0.154,-0.949 -0.817,-0.949 -0.603,0 -0.857,0.541 -0.904,0.949 z"
   id="path4054"
   inkscape:connector-curvature="0"
   style="fill:#231f20" />
	<path
   d="m 566.06,378.906 h 0.59 v 4.017 h 1.93 v 0.488 h -2.52 z"
   id="path4056"
   inkscape:connector-curvature="0"
   style="fill:#231f20" />
	<path
   d="m 571.489,382.635 c 0,0.281 0.014,0.555 0.047,0.775 h -0.529 l -0.047,-0.408 h -0.021 c -0.181,0.254 -0.528,0.481 -0.991,0.481 -0.656,0 -0.991,-0.461 -0.991,-0.929 0,-0.782 0.696,-1.209 1.949,-1.203 v -0.067 c 0,-0.26 -0.073,-0.749 -0.736,-0.742 -0.309,0 -0.623,0.087 -0.852,0.241 l -0.134,-0.395 c 0.269,-0.167 0.663,-0.281 1.072,-0.281 0.991,0 1.232,0.675 1.232,1.317 v 1.211 z m -0.569,-0.876 c -0.644,-0.013 -1.373,0.1 -1.373,0.729 0,0.388 0.254,0.562 0.549,0.562 0.429,0 0.703,-0.268 0.797,-0.542 0.021,-0.067 0.027,-0.134 0.027,-0.187 z"
   id="path4058"
   inkscape:connector-curvature="0"
   style="fill:#231f20" />
	<path
   d="m 572.362,382.815 c 0.182,0.107 0.489,0.227 0.784,0.227 0.422,0 0.623,-0.207 0.623,-0.481 0,-0.281 -0.168,-0.428 -0.597,-0.588 -0.589,-0.214 -0.863,-0.528 -0.863,-0.916 0,-0.521 0.429,-0.949 1.118,-0.949 0.328,0 0.616,0.087 0.79,0.201 l -0.141,0.428 c -0.127,-0.08 -0.361,-0.194 -0.663,-0.194 -0.348,0 -0.535,0.201 -0.535,0.441 0,0.268 0.188,0.388 0.609,0.555 0.556,0.207 0.851,0.488 0.851,0.969 0,0.575 -0.449,0.976 -1.206,0.976 -0.354,0 -0.683,-0.094 -0.911,-0.228 z"
   id="path4060"
   inkscape:connector-curvature="0"
   style="fill:#231f20" />
	<path
   d="m 575.427,381.9 c 0.014,0.795 0.516,1.123 1.112,1.123 0.422,0 0.683,-0.073 0.897,-0.167 l 0.106,0.421 c -0.207,0.094 -0.569,0.208 -1.085,0.208 -0.998,0 -1.594,-0.662 -1.594,-1.638 0,-0.976 0.576,-1.738 1.521,-1.738 1.064,0 1.34,0.922 1.34,1.517 0,0.121 -0.007,0.208 -0.021,0.274 z m 1.728,-0.421 c 0.006,-0.367 -0.154,-0.949 -0.817,-0.949 -0.604,0 -0.857,0.541 -0.904,0.949 z"
   id="path4062"
   inkscape:connector-curvature="0"
   style="fill:#231f20" />
	<path
   d="m 578.459,381.185 c 0,-0.381 -0.007,-0.708 -0.027,-1.009 h 0.516 l 0.027,0.642 h 0.02 c 0.147,-0.434 0.51,-0.708 0.904,-0.708 0.061,0 0.107,0.007 0.161,0.014 v 0.555 c -0.061,-0.014 -0.12,-0.014 -0.201,-0.014 -0.415,0 -0.71,0.308 -0.79,0.749 -0.014,0.081 -0.021,0.181 -0.021,0.274 v 1.724 h -0.589 z"
   id="path4064"
   inkscape:connector-curvature="0"
   style="fill:#231f20" />
	<path
   d="m 595.769,379.854 v 1.571 h 1.514 v 0.401 h -1.514 v 1.584 h -0.429 v -1.584 h -1.515 v -0.401 h 1.515 v -1.571 z"
   id="path4066"
   inkscape:connector-curvature="0"
   style="fill:#231f20" />
	<path
   d="m 600.454,379.561 h -1.661 l -0.168,1.116 c 0.101,-0.014 0.194,-0.02 0.355,-0.02 0.342,0 0.67,0.067 0.938,0.234 0.342,0.187 0.623,0.568 0.623,1.109 0,0.849 -0.677,1.484 -1.621,1.484 -0.476,0 -0.87,-0.134 -1.085,-0.268 l 0.147,-0.448 c 0.181,0.107 0.536,0.241 0.938,0.241 0.55,0 1.032,-0.361 1.025,-0.942 0,-0.562 -0.382,-0.956 -1.246,-0.956 -0.255,0 -0.449,0.02 -0.609,0.04 l 0.281,-2.085 h 2.083 z"
   id="path4068"
   inkscape:connector-curvature="0"
   style="fill:#231f20" />
	<path
   d="m 602.494,383.41 -1.48,-4.504 h 0.636 l 0.703,2.219 c 0.188,0.608 0.355,1.156 0.482,1.684 h 0.014 c 0.127,-0.521 0.309,-1.089 0.516,-1.677 l 0.764,-2.226 h 0.623 l -1.614,4.504 z"
   id="path4070"
   inkscape:connector-curvature="0"
   style="fill:#231f20" />
	<path
   d="m 530.348,389.41 v -1.189 h -2.022 v -0.381 l 1.942,-2.773 h 0.637 v 2.699 h 0.609 v 0.455 h -0.609 v 1.189 z m 0,-1.644 v -1.449 c 0,-0.229 0.007,-0.455 0.021,-0.682 h -0.021 c -0.134,0.254 -0.241,0.44 -0.361,0.641 l -1.065,1.478 v 0.013 h 1.426 z"
   id="path4072"
   inkscape:connector-curvature="0"
   style="fill:#231f20" />
	<path
   d="m 537.733,384.973 c 0.255,-0.061 0.663,-0.101 1.065,-0.101 0.582,0 0.958,0.101 1.232,0.327 0.234,0.174 0.382,0.441 0.382,0.796 0,0.44 -0.295,0.821 -0.764,0.989 v 0.02 c 0.429,0.101 0.931,0.455 0.931,1.123 0,0.388 -0.153,0.688 -0.389,0.902 -0.308,0.287 -0.816,0.421 -1.554,0.421 -0.401,0 -0.71,-0.026 -0.904,-0.054 v -4.423 z m 0.583,1.843 h 0.529 c 0.609,0 0.971,-0.326 0.971,-0.762 0,-0.521 -0.395,-0.734 -0.984,-0.734 -0.268,0 -0.422,0.02 -0.516,0.039 z m 0,2.153 c 0.12,0.021 0.281,0.027 0.489,0.027 0.603,0 1.158,-0.221 1.158,-0.876 0,-0.608 -0.529,-0.868 -1.165,-0.868 h -0.482 z"
   id="path4074"
   inkscape:connector-curvature="0"
   style="fill:#231f20" />
	<path
   d="m 541.348,384.665 h 0.59 v 4.745 h -0.59 z"
   id="path4076"
   inkscape:connector-curvature="0"
   style="fill:#231f20" />
	<path
   d="m 545.644,388.521 c 0,0.341 0.006,0.635 0.026,0.889 h -0.522 l -0.033,-0.527 h -0.014 c -0.147,0.26 -0.496,0.602 -1.072,0.602 -0.509,0 -1.118,-0.288 -1.118,-1.418 v -1.891 h 0.59 v 1.784 c 0,0.614 0.193,1.036 0.723,1.036 0.396,0 0.67,-0.274 0.777,-0.541 0.033,-0.081 0.054,-0.188 0.054,-0.301 v -1.979 h 0.59 v 2.346 z"
   id="path4078"
   inkscape:connector-curvature="0"
   style="fill:#231f20" />
	<path
   d="m 546.953,387.9 c 0.014,0.795 0.516,1.122 1.112,1.122 0.422,0 0.683,-0.073 0.897,-0.167 l 0.107,0.421 c -0.208,0.094 -0.569,0.208 -1.086,0.208 -0.998,0 -1.594,-0.662 -1.594,-1.639 0,-0.975 0.576,-1.737 1.521,-1.737 1.065,0 1.34,0.923 1.34,1.517 0,0.121 -0.007,0.208 -0.021,0.275 z m 1.729,-0.421 c 0.007,-0.367 -0.154,-0.949 -0.817,-0.949 -0.603,0 -0.857,0.541 -0.904,0.949 z"
   id="path4080"
   inkscape:connector-curvature="0"
   style="fill:#231f20" />
	<path
   d="m 566.061,384.906 h 0.59 v 4.016 h 1.93 v 0.488 h -2.52 z"
   id="path4082"
   inkscape:connector-curvature="0"
   style="fill:#231f20" />
	<path
   d="m 571.49,388.635 c 0,0.281 0.014,0.555 0.047,0.775 h -0.529 l -0.047,-0.408 h -0.021 c -0.181,0.254 -0.528,0.482 -0.991,0.482 -0.656,0 -0.991,-0.462 -0.991,-0.93 0,-0.781 0.696,-1.209 1.949,-1.203 v -0.066 c 0,-0.261 -0.073,-0.749 -0.736,-0.742 -0.309,0 -0.623,0.087 -0.852,0.24 l -0.134,-0.395 c 0.269,-0.166 0.663,-0.28 1.072,-0.28 0.991,0 1.232,0.675 1.232,1.317 v 1.21 z m -0.569,-0.875 c -0.644,-0.014 -1.373,0.1 -1.373,0.729 0,0.387 0.254,0.561 0.549,0.561 0.429,0 0.703,-0.268 0.797,-0.541 0.021,-0.066 0.027,-0.134 0.027,-0.188 z"
   id="path4084"
   inkscape:connector-curvature="0"
   style="fill:#231f20" />
	<path
   d="m 572.363,388.815 c 0.182,0.106 0.489,0.228 0.784,0.228 0.422,0 0.623,-0.207 0.623,-0.481 0,-0.28 -0.168,-0.428 -0.597,-0.589 -0.589,-0.213 -0.863,-0.527 -0.863,-0.915 0,-0.521 0.429,-0.949 1.118,-0.949 0.328,0 0.616,0.087 0.79,0.2 l -0.141,0.428 c -0.127,-0.08 -0.361,-0.193 -0.663,-0.193 -0.348,0 -0.535,0.201 -0.535,0.441 0,0.268 0.188,0.387 0.609,0.555 0.556,0.207 0.851,0.488 0.851,0.969 0,0.574 -0.449,0.977 -1.206,0.977 -0.354,0 -0.683,-0.094 -0.911,-0.229 z"
   id="path4086"
   inkscape:connector-curvature="0"
   style="fill:#231f20" />
	<path
   d="m 575.428,387.9 c 0.014,0.795 0.516,1.122 1.111,1.122 0.423,0 0.684,-0.073 0.898,-0.167 l 0.106,0.421 c -0.207,0.094 -0.569,0.208 -1.085,0.208 -0.998,0 -1.594,-0.662 -1.594,-1.639 0,-0.975 0.576,-1.737 1.521,-1.737 1.064,0 1.34,0.923 1.34,1.517 0,0.121 -0.007,0.208 -0.021,0.275 z m 1.728,-0.421 c 0.006,-0.367 -0.154,-0.949 -0.817,-0.949 -0.604,0 -0.857,0.541 -0.904,0.949 z"
   id="path4088"
   inkscape:connector-curvature="0"
   style="fill:#231f20" />
	<path
   d="m 578.459,387.185 c 0,-0.381 -0.007,-0.708 -0.027,-1.009 h 0.516 l 0.027,0.641 h 0.02 c 0.147,-0.434 0.51,-0.708 0.904,-0.708 0.061,0 0.107,0.007 0.161,0.014 v 0.555 c -0.061,-0.014 -0.12,-0.014 -0.201,-0.014 -0.415,0 -0.71,0.308 -0.79,0.749 -0.014,0.08 -0.021,0.18 -0.021,0.273 v 1.725 h -0.589 z"
   id="path4090"
   inkscape:connector-curvature="0"
   style="fill:#231f20" />
	<path
   d="m 597.511,389.209 c -0.261,0.102 -0.784,0.248 -1.394,0.248 -0.683,0 -1.246,-0.174 -1.688,-0.595 -0.389,-0.374 -0.63,-0.976 -0.63,-1.678 0,-1.343 0.931,-2.326 2.445,-2.326 0.522,0 0.938,0.114 1.132,0.208 l -0.147,0.475 c -0.241,-0.114 -0.543,-0.194 -0.998,-0.194 -1.099,0 -1.815,0.682 -1.815,1.812 0,1.143 0.684,1.817 1.741,1.817 0.382,0 0.644,-0.054 0.777,-0.12 v -1.344 h -0.911 v -0.467 h 1.487 v 2.164 z"
   id="path4092"
   inkscape:connector-curvature="0"
   style="fill:#231f20" />
	<path
   d="m 598.399,389.41 v -4.504 h 0.644 l 1.44,2.279 c 0.328,0.528 0.596,1.003 0.804,1.464 l 0.02,-0.007 c -0.054,-0.602 -0.066,-1.149 -0.066,-1.852 v -1.884 h 0.549 v 4.504 h -0.59 l -1.434,-2.285 c -0.315,-0.502 -0.616,-1.017 -0.838,-1.504 l -0.02,0.006 c 0.033,0.568 0.04,1.109 0.04,1.858 v 1.925 z"
   id="path4094"
   inkscape:connector-curvature="0"
   style="fill:#231f20" />
	<path
   d="m 602.812,384.973 c 0.355,-0.061 0.777,-0.101 1.239,-0.101 0.838,0 1.434,0.2 1.829,0.562 0.408,0.367 0.643,0.889 0.643,1.617 0,0.735 -0.234,1.337 -0.649,1.751 -0.429,0.421 -1.125,0.648 -2.003,0.648 -0.422,0 -0.764,-0.021 -1.059,-0.054 z m 0.583,3.982 c 0.147,0.021 0.361,0.027 0.59,0.027 1.252,0 1.922,-0.695 1.922,-1.912 0.007,-1.062 -0.596,-1.736 -1.828,-1.736 -0.302,0 -0.529,0.025 -0.684,0.06 z"
   id="path4096"
   inkscape:connector-curvature="0"
   style="fill:#231f20" />
	<path
   d="m 531.125,391.561 h -1.661 l -0.168,1.116 c 0.101,-0.014 0.194,-0.021 0.355,-0.021 0.342,0 0.67,0.067 0.938,0.234 0.342,0.188 0.623,0.568 0.623,1.109 0,0.849 -0.677,1.484 -1.621,1.484 -0.476,0 -0.871,-0.135 -1.085,-0.268 l 0.147,-0.448 c 0.181,0.106 0.536,0.241 0.938,0.241 0.55,0 1.031,-0.361 1.025,-0.943 0,-0.561 -0.382,-0.955 -1.246,-0.955 -0.255,0 -0.449,0.02 -0.609,0.04 l 0.281,-2.085 h 2.083 z"
   id="path4098"
   inkscape:connector-curvature="0"
   style="fill:#231f20" />
	<path
   d="m 537.733,390.973 c 0.255,-0.061 0.663,-0.101 1.065,-0.101 0.582,0 0.958,0.101 1.232,0.327 0.234,0.174 0.382,0.441 0.382,0.796 0,0.44 -0.295,0.821 -0.764,0.989 v 0.02 c 0.429,0.101 0.931,0.455 0.931,1.123 0,0.388 -0.153,0.688 -0.389,0.902 -0.308,0.287 -0.816,0.421 -1.554,0.421 -0.401,0 -0.71,-0.026 -0.904,-0.054 v -4.423 z m 0.583,1.843 h 0.529 c 0.609,0 0.971,-0.326 0.971,-0.762 0,-0.521 -0.395,-0.734 -0.984,-0.734 -0.268,0 -0.422,0.02 -0.516,0.039 z m 0,2.153 c 0.12,0.021 0.281,0.027 0.489,0.027 0.603,0 1.158,-0.221 1.158,-0.876 0,-0.608 -0.529,-0.868 -1.165,-0.868 h -0.482 z"
   id="path4100"
   inkscape:connector-curvature="0"
   style="fill:#231f20" />
	<path
   d="m 541.348,390.665 h 0.59 v 4.745 h -0.59 z"
   id="path4102"
   inkscape:connector-curvature="0"
   style="fill:#231f20" />
	<path
   d="m 545.208,394.635 c 0,0.281 0.013,0.555 0.047,0.775 h -0.529 l -0.047,-0.408 h -0.021 c -0.181,0.254 -0.529,0.482 -0.991,0.482 -0.656,0 -0.991,-0.462 -0.991,-0.93 0,-0.781 0.696,-1.209 1.949,-1.203 v -0.066 c 0,-0.261 -0.074,-0.749 -0.737,-0.742 -0.308,0 -0.623,0.087 -0.851,0.24 l -0.134,-0.395 c 0.268,-0.166 0.663,-0.28 1.072,-0.28 0.991,0 1.232,0.675 1.232,1.317 v 1.21 z m -0.569,-0.875 c -0.644,-0.014 -1.374,0.1 -1.374,0.729 0,0.387 0.255,0.561 0.55,0.561 0.429,0 0.703,-0.268 0.797,-0.541 0.021,-0.066 0.027,-0.134 0.027,-0.188 z"
   id="path4104"
   inkscape:connector-curvature="0"
   style="fill:#231f20" />
	<path
   d="m 548.473,395.297 c -0.153,0.073 -0.495,0.188 -0.931,0.188 -0.978,0 -1.614,-0.662 -1.614,-1.651 0,-0.996 0.684,-1.725 1.741,-1.725 0.349,0 0.657,0.087 0.817,0.174 l -0.134,0.448 c -0.141,-0.074 -0.361,-0.154 -0.684,-0.154 -0.743,0 -1.146,0.555 -1.146,1.223 0,0.749 0.482,1.211 1.126,1.211 0.335,0 0.556,-0.081 0.724,-0.154 z"
   id="path4106"
   inkscape:connector-curvature="0"
   style="fill:#231f20" />
	<path
   d="m 549.749,393.659 h 0.013 c 0.081,-0.114 0.188,-0.254 0.282,-0.368 l 0.957,-1.115 h 0.704 l -1.246,1.33 1.427,1.904 h -0.724 l -1.112,-1.551 -0.301,0.334 v 1.217 h -0.583 v -4.745 h 0.583 z"
   id="path4108"
   inkscape:connector-curvature="0"
   style="fill:#231f20" />
	<path
   d="m 569.872,393.432 c -0.033,-0.628 -0.073,-1.39 -0.073,-1.945 h -0.014 c -0.16,0.521 -0.342,1.09 -0.569,1.711 l -0.797,2.186 h -0.442 l -0.736,-2.145 c -0.215,-0.642 -0.389,-1.217 -0.516,-1.752 h -0.014 c -0.014,0.562 -0.047,1.311 -0.087,1.992 l -0.121,1.932 h -0.556 l 0.314,-4.504 h 0.744 l 0.77,2.178 c 0.188,0.555 0.335,1.05 0.456,1.518 h 0.014 c 0.12,-0.455 0.281,-0.949 0.481,-1.518 l 0.805,-2.178 h 0.743 l 0.281,4.504 h -0.576 z"
   id="path4110"
   inkscape:connector-curvature="0"
   style="fill:#231f20" />
	<path
   d="m 574.412,393.766 c 0,1.197 -0.837,1.719 -1.614,1.719 -0.871,0 -1.554,-0.643 -1.554,-1.665 0,-1.075 0.717,-1.711 1.607,-1.711 0.931,-10e-4 1.561,0.674 1.561,1.657 z m -2.565,0.033 c 0,0.709 0.402,1.244 0.978,1.244 0.563,0 0.985,-0.528 0.985,-1.257 0,-0.548 -0.274,-1.236 -0.972,-1.236 -0.69,0 -0.991,0.641 -0.991,1.249 z"
   id="path4112"
   inkscape:connector-curvature="0"
   style="fill:#231f20" />
	<path
   d="m 575.87,391.4 v 0.775 h 0.844 v 0.447 h -0.844 v 1.744 c 0,0.401 0.113,0.629 0.442,0.629 0.16,0 0.254,-0.014 0.341,-0.041 l 0.027,0.448 c -0.114,0.04 -0.295,0.081 -0.522,0.081 -0.274,0 -0.496,-0.094 -0.637,-0.248 -0.16,-0.18 -0.228,-0.468 -0.228,-0.849 v -1.765 h -0.503 v -0.447 h 0.503 v -0.602 z"
   id="path4114"
   inkscape:connector-curvature="0"
   style="fill:#231f20" />
	<path
   d="m 580.272,393.766 c 0,1.197 -0.837,1.719 -1.614,1.719 -0.871,0 -1.554,-0.643 -1.554,-1.665 0,-1.075 0.717,-1.711 1.607,-1.711 0.932,-10e-4 1.561,0.674 1.561,1.657 z m -2.565,0.033 c 0,0.709 0.402,1.244 0.978,1.244 0.563,0 0.985,-0.528 0.985,-1.257 0,-0.548 -0.274,-1.236 -0.972,-1.236 -0.689,0 -0.991,0.641 -0.991,1.249 z"
   id="path4116"
   inkscape:connector-curvature="0"
   style="fill:#231f20" />
	<path
   d="m 581.021,393.185 c 0,-0.381 -0.007,-0.708 -0.027,-1.009 h 0.516 l 0.027,0.641 h 0.02 c 0.147,-0.434 0.51,-0.708 0.905,-0.708 0.06,0 0.106,0.007 0.16,0.014 v 0.555 c -0.061,-0.014 -0.12,-0.014 -0.201,-0.014 -0.415,0 -0.71,0.308 -0.79,0.749 -0.014,0.08 -0.021,0.18 -0.021,0.273 v 1.725 h -0.589 z"
   id="path4118"
   inkscape:connector-curvature="0"
   style="fill:#231f20" />
	<path
   d="m 597.511,395.209 c -0.261,0.102 -0.784,0.248 -1.394,0.248 -0.683,0 -1.246,-0.174 -1.688,-0.595 -0.389,-0.374 -0.63,-0.976 -0.63,-1.678 0,-1.343 0.931,-2.325 2.445,-2.325 0.522,0 0.938,0.113 1.132,0.207 l -0.147,0.475 c -0.241,-0.114 -0.543,-0.194 -0.998,-0.194 -1.099,0 -1.815,0.682 -1.815,1.812 0,1.143 0.684,1.817 1.741,1.817 0.382,0 0.644,-0.054 0.777,-0.12 v -1.344 h -0.911 v -0.467 h 1.487 v 2.164 z"
   id="path4120"
   inkscape:connector-curvature="0"
   style="fill:#231f20" />
	<path
   d="m 598.399,395.41 v -4.504 h 0.644 l 1.44,2.278 c 0.328,0.528 0.596,1.003 0.804,1.464 l 0.02,-0.007 c -0.054,-0.602 -0.066,-1.149 -0.066,-1.852 v -1.884 h 0.549 v 4.504 h -0.59 l -1.434,-2.285 c -0.315,-0.502 -0.616,-1.017 -0.838,-1.504 l -0.02,0.006 c 0.033,0.568 0.04,1.109 0.04,1.858 v 1.925 h -0.549 z"
   id="path4122"
   inkscape:connector-curvature="0"
   style="fill:#231f20" />
	<path
   d="m 602.812,390.973 c 0.355,-0.061 0.777,-0.101 1.239,-0.101 0.838,0 1.434,0.2 1.829,0.562 0.408,0.367 0.643,0.889 0.643,1.617 0,0.735 -0.234,1.337 -0.649,1.751 -0.429,0.421 -1.125,0.648 -2.003,0.648 -0.422,0 -0.764,-0.021 -1.059,-0.054 z m 0.583,3.982 c 0.147,0.021 0.361,0.027 0.59,0.027 1.252,0 1.922,-0.695 1.922,-1.912 0.007,-1.062 -0.596,-1.736 -1.828,-1.736 -0.302,0 -0.529,0.025 -0.684,0.06 z"
   id="path4124"
   inkscape:connector-curvature="0"
   style="fill:#231f20" />
	<path
   d="m 531.011,397.48 c -0.12,-0.007 -0.274,0.006 -0.441,0.033 -0.932,0.146 -1.414,0.815 -1.515,1.537 h 0.014 c 0.208,-0.281 0.576,-0.508 1.059,-0.508 0.771,0 1.312,0.562 1.312,1.403 0,0.802 -0.542,1.538 -1.453,1.538 -0.925,0 -1.534,-0.723 -1.534,-1.852 0,-0.855 0.302,-1.531 0.737,-1.959 0.361,-0.354 0.844,-0.574 1.393,-0.641 0.175,-0.027 0.322,-0.034 0.429,-0.034 v 0.483 z m -0.167,2.506 c 0,-0.621 -0.355,-0.996 -0.897,-0.996 -0.355,0 -0.69,0.215 -0.852,0.535 -0.033,0.066 -0.06,0.146 -0.06,0.254 0.007,0.715 0.342,1.25 0.964,1.25 0.503,0 0.845,-0.421 0.845,-1.043 z"
   id="path4126"
   inkscape:connector-curvature="0"
   style="fill:#231f20" />
	<path
   d="m 537.733,396.966 c 0.295,-0.054 0.724,-0.094 1.119,-0.094 0.623,0 1.031,0.12 1.306,0.368 0.222,0.2 0.355,0.508 0.355,0.861 0,0.588 -0.375,0.982 -0.845,1.143 v 0.021 c 0.342,0.12 0.55,0.441 0.657,0.909 0.147,0.628 0.254,1.062 0.348,1.236 h -0.603 c -0.073,-0.134 -0.174,-0.515 -0.295,-1.076 -0.134,-0.621 -0.382,-0.855 -0.911,-0.875 h -0.549 v 1.951 h -0.583 v -4.444 z m 0.583,2.052 h 0.596 c 0.623,0 1.019,-0.341 1.019,-0.855 0,-0.582 -0.422,-0.836 -1.038,-0.836 -0.281,0 -0.476,0.021 -0.576,0.047 v 1.644 z"
   id="path4128"
   inkscape:connector-curvature="0"
   style="fill:#231f20" />
	<path
   d="m 541.676,399.9 c 0.014,0.795 0.516,1.122 1.112,1.122 0.422,0 0.683,-0.073 0.897,-0.167 l 0.107,0.421 c -0.208,0.094 -0.569,0.208 -1.086,0.208 -0.998,0 -1.594,-0.662 -1.594,-1.639 0,-0.975 0.576,-1.737 1.521,-1.737 1.065,0 1.34,0.923 1.34,1.517 0,0.121 -0.007,0.208 -0.021,0.275 z m 1.728,-0.421 c 0.007,-0.367 -0.154,-0.949 -0.817,-0.949 -0.603,0 -0.857,0.541 -0.904,0.949 z"
   id="path4130"
   inkscape:connector-curvature="0"
   style="fill:#231f20" />
	<path
   d="m 547.5,396.665 v 3.909 c 0,0.288 0.014,0.615 0.027,0.836 h -0.522 l -0.027,-0.562 h -0.02 c -0.175,0.36 -0.562,0.636 -1.092,0.636 -0.784,0 -1.394,-0.662 -1.394,-1.645 -0.007,-1.076 0.67,-1.731 1.453,-1.731 0.503,0 0.831,0.233 0.979,0.488 h 0.014 v -1.932 h 0.582 z m -0.582,2.827 c 0,-0.074 -0.007,-0.174 -0.027,-0.248 -0.087,-0.367 -0.408,-0.674 -0.851,-0.674 -0.609,0 -0.972,0.534 -0.972,1.242 0,0.655 0.329,1.197 0.958,1.197 0.396,0 0.757,-0.268 0.864,-0.702 0.021,-0.081 0.027,-0.161 0.027,-0.255 v -0.56 z"
   id="path4132"
   inkscape:connector-curvature="0"
   style="fill:#231f20" />
	<path
   d="m 569.872,399.432 c -0.033,-0.628 -0.074,-1.39 -0.074,-1.945 h -0.013 c -0.161,0.521 -0.342,1.09 -0.569,1.711 l -0.798,2.186 h -0.441 l -0.737,-2.145 c -0.214,-0.642 -0.389,-1.217 -0.516,-1.752 h -0.014 c -0.013,0.562 -0.047,1.311 -0.087,1.992 l -0.12,1.932 h -0.557 l 0.314,-4.504 h 0.744 l 0.771,2.178 c 0.188,0.555 0.335,1.05 0.455,1.518 h 0.014 c 0.121,-0.455 0.281,-0.949 0.482,-1.518 l 0.804,-2.178 h 0.743 l 0.282,4.504 h -0.576 z"
   id="path4134"
   inkscape:connector-curvature="0"
   style="fill:#231f20" />
	<path
   d="m 574.412,399.766 c 0,1.197 -0.837,1.719 -1.614,1.719 -0.871,0 -1.554,-0.643 -1.554,-1.665 0,-1.075 0.717,-1.711 1.607,-1.711 0.931,-10e-4 1.561,0.674 1.561,1.657 z m -2.565,0.033 c 0,0.709 0.402,1.244 0.978,1.244 0.563,0 0.985,-0.528 0.985,-1.257 0,-0.548 -0.274,-1.236 -0.972,-1.236 -0.69,0 -0.991,0.641 -0.991,1.249 z"
   id="path4136"
   inkscape:connector-curvature="0"
   style="fill:#231f20" />
	<path
   d="m 575.87,397.4 v 0.775 h 0.844 v 0.447 h -0.844 v 1.744 c 0,0.401 0.113,0.629 0.442,0.629 0.16,0 0.254,-0.014 0.341,-0.041 l 0.027,0.448 c -0.114,0.04 -0.295,0.081 -0.522,0.081 -0.274,0 -0.496,-0.094 -0.637,-0.248 -0.16,-0.18 -0.228,-0.468 -0.228,-0.849 v -1.765 h -0.503 v -0.447 h 0.503 v -0.602 z"
   id="path4138"
   inkscape:connector-curvature="0"
   style="fill:#231f20" />
	<path
   d="m 580.272,399.766 c 0,1.197 -0.837,1.719 -1.614,1.719 -0.871,0 -1.554,-0.643 -1.554,-1.665 0,-1.075 0.717,-1.711 1.607,-1.711 0.932,-10e-4 1.561,0.674 1.561,1.657 z m -2.565,0.033 c 0,0.709 0.402,1.244 0.978,1.244 0.563,0 0.985,-0.528 0.985,-1.257 0,-0.548 -0.274,-1.236 -0.972,-1.236 -0.689,0 -0.991,0.641 -0.991,1.249 z"
   id="path4140"
   inkscape:connector-curvature="0"
   style="fill:#231f20" />
	<path
   d="m 581.021,399.185 c 0,-0.381 -0.007,-0.708 -0.027,-1.009 h 0.516 l 0.027,0.641 h 0.02 c 0.147,-0.434 0.51,-0.708 0.905,-0.708 0.06,0 0.106,0.007 0.16,0.014 v 0.555 c -0.061,-0.014 -0.12,-0.014 -0.201,-0.014 -0.415,0 -0.71,0.308 -0.79,0.749 -0.014,0.08 -0.021,0.18 -0.021,0.273 v 1.725 h -0.589 z"
   id="path4142"
   inkscape:connector-curvature="0"
   style="fill:#231f20" />
	<path
   d="m 595.769,397.854 v 1.571 h 1.514 v 0.4 h -1.514 v 1.584 h -0.429 v -1.584 h -1.515 v -0.4 h 1.515 v -1.571 z"
   id="path4144"
   inkscape:connector-curvature="0"
   style="fill:#231f20" />
	<path
   d="m 599.135,397.614 h -0.014 l -0.757,0.407 -0.114,-0.447 0.951,-0.508 h 0.503 v 4.344 h -0.569 z"
   id="path4146"
   inkscape:connector-curvature="0"
   style="fill:#231f20" />
	<path
   d="m 601.295,401.41 v -0.361 l 0.462,-0.447 c 1.112,-1.057 1.621,-1.617 1.621,-2.272 0,-0.44 -0.208,-0.849 -0.857,-0.849 -0.396,0 -0.724,0.2 -0.925,0.367 l -0.188,-0.414 c 0.295,-0.247 0.73,-0.441 1.227,-0.441 0.938,0 1.333,0.643 1.333,1.264 0,0.802 -0.583,1.45 -1.501,2.332 l -0.342,0.32 v 0.014 h 1.949 v 0.488 h -2.779 z"
   id="path4148"
   inkscape:connector-curvature="0"
   style="fill:#231f20" />
	<path
   d="m 605.934,401.41 -1.48,-4.504 h 0.636 l 0.703,2.219 c 0.188,0.607 0.355,1.156 0.482,1.684 h 0.014 c 0.127,-0.521 0.309,-1.09 0.516,-1.678 l 0.764,-2.225 h 0.623 l -1.614,4.504 z"
   id="path4150"
   inkscape:connector-curvature="0"
   style="fill:#231f20" />
</g>
<polygon
   stroke-miterlimit="10"
   points="481.156,409.893 477.034,411.078 474.097,408.141 475.282,404.019 479.403,402.834 482.342,405.771 "
   id="polygon4154"
   style="fill:#d1d3d4;stroke:#231f20;stroke-width:0.78210002;stroke-linecap:round;stroke-linejoin:round;stroke-miterlimit:10"
   transform="translate(-400.23202,-328.96315)" />
<ellipse
   transform="rotate(-135)"
   stroke-miterlimit="10"
   cx="-110.29909"
   cy="-0.0072202613"
   rx="3.445967"
   ry="3.6009655"
   id="ellipse4156"
   style="fill:#d1d3d4;stroke:#231f20;stroke-width:0.4999952;stroke-linecap:round;stroke-linejoin:round;stroke-miterlimit:10" />
<polygon
   stroke-miterlimit="10"
   points="436.056,409.896 431.935,411.082 428.998,408.145 430.183,404.023 434.304,402.838 437.241,405.775 "
   id="polygon4158"
   style="fill:#d1d3d4;stroke:#231f20;stroke-width:0.78210002;stroke-linecap:round;stroke-linejoin:round;stroke-miterlimit:10"
   transform="translate(-400.23202,-328.96315)" />
<ellipse
   transform="rotate(-135)"
   stroke-miterlimit="10"
   cx="-78.411133"
   cy="-31.901234"
   rx="3.445967"
   ry="3.6009655"
   id="ellipse4160"
   style="fill:#d1d3d4;stroke:#231f20;stroke-width:0.4999952;stroke-linecap:round;stroke-linejoin:round;stroke-miterlimit:10" />
<polygon
   stroke-miterlimit="10"
   points="481.132,364.764 477.011,365.949 474.073,363.012 475.258,358.89 479.38,357.705 482.317,360.643 "
   id="polygon4162"
   style="fill:#d1d3d4;stroke:#231f20;stroke-width:0.78210002;stroke-linecap:round;stroke-linejoin:round;stroke-miterlimit:10"
   transform="translate(-400.23202,-328.96315)" />
<ellipse
   transform="rotate(-135)"
   stroke-miterlimit="10"
   cx="-78.388779"
   cy="31.910358"
   rx="3.445967"
   ry="3.6009655"
   id="ellipse4164"
   style="fill:#d1d3d4;stroke:#231f20;stroke-width:0.4999952;stroke-linecap:round;stroke-linejoin:round;stroke-miterlimit:10" />
<polygon
   stroke-miterlimit="10"
   points="435.473,365.386 431.352,366.572 428.415,363.634 429.6,359.513 433.721,358.327 436.658,361.265 "
   id="polygon4166"
   style="fill:#d1d3d4;stroke:#231f20;stroke-width:0.78210002;stroke-linecap:round;stroke-linejoin:round;stroke-miterlimit:10"
   transform="translate(-400.23202,-328.96315)" />
<ellipse
   transform="rotate(-135)"
   stroke-miterlimit="10"
   cx="-46.542408"
   cy="-0.81854254"
   rx="3.445967"
   ry="3.6009655"
   id="ellipse4168"
   style="fill:#d1d3d4;stroke:#231f20;stroke-width:0.4999952;stroke-linecap:round;stroke-linejoin:round;stroke-miterlimit:10" />
<polygon
   stroke-miterlimit="10"
   points="498.142,391.081 514.82,391.081 522.301,398.533 522.329,398.533 524.816,398.533 524.817,400.502 522.329,400.502 522.302,400.502 513.961,393.052 499.001,393.052 489.827,387.481 480.823,387.481 480.514,386.772 490.136,386.772 "
   id="polygon4170"
   style="fill:#ec2227;stroke:#231f20;stroke-width:0.17990001;stroke-linecap:round;stroke-linejoin:round;stroke-miterlimit:10"
   transform="translate(-400.23202,-328.96315)" />
<polygon
   stroke-miterlimit="10"
   points="497.305,387.965 515.657,387.965 522.301,392.537 522.329,392.537 524.816,392.537 524.817,394.506 522.329,394.506 522.302,394.506 515.104,389.978 497.858,389.978 490.238,386.375 480.412,386.375 480.213,385.651 490.438,385.651 "
   id="polygon4172"
   style="fill:#231f20;stroke:#231f20;stroke-width:0.17990001;stroke-linecap:round;stroke-linejoin:round;stroke-miterlimit:10"
   transform="translate(-400.23202,-328.96315)" />
<polygon
   stroke-miterlimit="10"
   points="522.301,386.518 522.302,386.518 524.843,386.518 524.844,388.529 522.302,388.529 515.861,386.951 497.101,386.951 490.511,385.287 480.139,385.287 480.043,384.562 490.607,384.562 496.833,384.938 516.129,384.938 "
   id="polygon4174"
   style="fill:#4257a6;stroke:#231f20;stroke-width:0.17990001;stroke-linecap:round;stroke-linejoin:round;stroke-miterlimit:10"
   transform="translate(-400.23202,-328.96315)" />
<polygon
   stroke-miterlimit="10"
   points="516.195,383.927 496.767,383.927 490.631,384.199 480.019,384.199 480.019,383.474 490.631,383.474 496.767,381.914 516.195,381.914 522.301,380.497 524.843,380.496 524.844,382.508 522.302,382.508 "
   id="polygon4176"
   style="fill:#ea9123;stroke:#231f20;stroke-width:0.17990001;stroke-linecap:round;stroke-linejoin:round;stroke-miterlimit:10"
   transform="translate(-400.23202,-328.96315)" />
<polygon
   stroke-miterlimit="10"
   points="522.302,376.534 516.129,380.901 496.833,380.901 490.607,383.11 480.043,383.11 480.139,382.385 490.511,382.385 497.101,378.888 515.861,378.888 522.302,374.519 524.843,374.519 524.844,376.534 "
   id="polygon4178"
   style="fill:#f6eb0c;stroke:#231f20;stroke-width:0.17990001;stroke-linecap:round;stroke-linejoin:round;stroke-miterlimit:10"
   transform="translate(-400.23202,-328.96315)" />
<polygon
   stroke-miterlimit="10"
   points="515.658,377.876 497.304,377.876 490.438,382.021 480.212,382.021 480.412,381.297 490.238,381.297 497.858,375.863 515.104,375.863 522.302,368.523 524.843,368.523 524.844,370.535 522.329,370.535 "
   id="polygon4180"
   style="fill:#ffffff;stroke:#231f20;stroke-width:0.17990001;stroke-linecap:round;stroke-linejoin:round;stroke-miterlimit:10"
   transform="translate(-400.23202,-328.96315)" />
</svg>